<svg xmlns="http://www.w3.org/2000/svg" viewBox="0 0 68.7 58.66"><defs><style>.cls-1{fill:none;stroke:#009190;stroke-linecap:round;stroke-linejoin:round;stroke-width:2px}</style></defs><g id="Layer_2" data-name="Layer 2"><g id="Layer_1-2" data-name="Layer 1"><path class="cls-1" d="M59.71 20.32L46.29 6.9m6.02 20.81L38.89 14.29m-.46.46a3.17 3.17 0 01-4.5 0 3.19 3.19 0 010-4.5l8.32-8.32a3.19 3.19 0 014.5 0 3.19 3.19 0 010 4.5l-3.64 3.65"/><path d="M59.71 20.32L66 26.64a5.67 5.67 0 011.67 3.84 5.08 5.08 0 01-1.47 3.76 5.39 5.39 0 01-7.6-.21l-6.32-6.32zM1 13.39C17.45 13 17.12 28.1 17.12 28.1-.06 28.1 1 13.39 1 13.39zM17.13 42c16.44.4 16.11-14.71 16.11-14.71C16.06 27.25 17.13 42 17.13 42z" fill="#f2eee7" stroke="#009190" stroke-linecap="round" stroke-linejoin="round" stroke-width="2"/><path class="cls-1" d="M17.12 28.1v25.08m27.27-20.71a10.4 10.4 0 11-4.18.88m4.18 3.04a8.34 8.34 0 00-2.2-7.76m5.32 7.76A7.86 7.86 0 0139 34.67M11.62 57.66h53.97m-62.47 0"/></g></g></svg>