<svg xmlns="http://www.w3.org/2000/svg" viewBox="0 0 64.47 66.35"><defs><style>.cls-1{fill:none;stroke:#009190;stroke-linecap:round;stroke-linejoin:round;stroke-width:2px}</style></defs><g id="Layer_2" data-name="Layer 2"><g id="Layer_1-2" data-name="Layer 1"><path class="cls-1" d="M9.51 65.35h53.96M1 65.35"/><path d="M32.23 60.94c3.53.11 7.76-2.15 11-4.35a1.88 1.88 0 00-1.09-3.44A19.7 19.7 0 0134.93 52a7.18 7.18 0 00-5.39 0 19.7 19.7 0 01-7.24 1.14 1.88 1.88 0 00-1.09 3.44c3.27 2.21 7.5 4.47 11.02 4.36zm-7.3-16.31c-1.23 1.82-3.84 1.25-4.7.47-4.35-4-7-12.47-3.15-11.3.35.11 5 2 7.36 1.9 1-.05 1.94.59 1.93 1.4-.02 2.13-.23 5.75-1.44 7.53zm14.61 0c1.23 1.82 3.84 1.25 4.69.47 4.36-4 7-12.47 3.16-11.3-.35.11-5 2-7.36 1.9-1-.05-1.94.59-1.93 1.4.01 2.13.23 5.75 1.44 7.53zm-7.31-34.17c-10.63 0-16.95 6.51-18.8 11.06-.33.82-.08 1.55.68 1.32h.38a51 51 0 005.06-.76c3.89-.72 6.65.29 10.34 3l.21.16a3.57 3.57 0 004.27 0l.21-.16c3.69-2.67 6.45-3.68 10.34-3a51 51 0 005.06.76h.38c.75.23 1-.5.68-1.32-1.85-4.55-8.18-11-18.81-11.06" fill="#f2eee7" stroke="#009190" stroke-linecap="round" stroke-linejoin="round" stroke-width="2"/><path class="cls-1" d="M10.69 33.17c.75-8.12 2.74-11.65 2.74-11.65 1.85-4.55 8.17-11 18.8-11.06S49.19 17 51 21.52c0 0 2 3.53 2.74 11.65"/><path class="cls-1" d="M10.69 33.16c-2.23-5.42-4.93-14.73.9-22.69a21.7 21.7 0 017.71-6.34 28.27 28.27 0 0125.85 0 21.82 21.82 0 017.72 6.34c5.76 7.87 3.21 17.08 1 22.52M20.88 56.31a17.9 17.9 0 01-4-4.31 14.1 14.1 0 01-1.2-2.93m27.99 7.24a18.31 18.31 0 004-4.31 15.28 15.28 0 001.2-2.93"/></g></g></svg>