<svg xmlns="http://www.w3.org/2000/svg" viewBox="0 0 64.47 74.67"><defs><style>.cls-2{fill:none;stroke:#009190;stroke-linecap:round;stroke-linejoin:round;stroke-width:2px}</style></defs><g id="Layer_2" data-name="Layer 2"><g id="Layer_1-2" data-name="Layer 1"><path fill="#f2eee7" d="M38.78 29.57L26.37 41.98 13.41 29.03l12.42-12.42"/><path class="cls-2" d="M47.83 17l-5.49 5.49v-.25a9.16 9.16 0 00-9.42-9.16l5.5-5.5z"/><path class="cls-2" d="M26.37 42l13.29-13.31a9.11 9.11 0 002.67-6.22 2.26 2.26 0 000-.26 9.16 9.16 0 00-15.63-6.47L13.41 29l6.83 6.82M48 10.75L44.33 7.1l6.1-6.1 7.3 7.29-.22.22a5.14 5.14 0 01-7.29 0z"/><path class="cls-2" transform="rotate(-45 44.559 10.523)" d="M42.31 7.94h4.51v5.16h-4.51z"/><path class="cls-2" d="M38.78 29.57l-7.44-7.45M46.45 55l1 5.47h10l4.75-26.83H42.69l2.73 15.51m2.12 11.33h9.93v8.78h-9.93zm4.9 4.89h-4.9m-4.09-27.41h17.98M40.08 52.58v10.65a6 6 0 01-6 6H18.3a6 6 0 01-6-6V52.58z"/><path class="cls-2" d="M12.27 57.17v-4.59h27.81v4.59H20.75m-7.53-9.93h25.92a.94.94 0 01.94.94v4.4H12.27v-4.4a.94.94 0 01.94-.94zM9.51 73.67h53.96M1 73.67"/></g></g></svg>