<svg xmlns="http://www.w3.org/2000/svg" viewBox="0 0 50 62.88"><defs><style>.cls-1{fill:none;stroke:#009190;stroke-linecap:round;stroke-linejoin:round;stroke-width:2px}.cls-4{fill:#009190}</style></defs><g id="Layer_2" data-name="Layer 2"><g id="Layer_1-2" data-name="Layer 1"><path class="cls-1" d="M23.35 50.89a2.47 2.47 0 002.57 0"/><path d="M23.35 50.78a2.47 2.47 0 002.57 0" fill="#f2eee7"/><path class="cls-1" d="M5.29 36.77C4 33.62-3.15 20.84 4.48 10.4a21.62 21.62 0 017.67-6.29 28.06 28.06 0 0125.69 0 21.59 21.59 0 017.66 6.29c7.64 10.44.58 23.22-.76 26.37"/><path d="M17.28 59.12c-3.38-1.67-6.38-4.38-7.66-7C6.76 46.08 4.74 34 4.74 34a23.49 23.49 0 01.94-10.92c5.75-16.77 32.89-16.77 38.63 0A23.35 23.35 0 0145.26 34s-2 12.07-4.88 18.06c-1.28 2.67-4.28 5.38-7.67 7l-4.27 2a8.19 8.19 0 01-6.88 0z" fill="#f2eee7" stroke="#009190" stroke-linecap="round" stroke-linejoin="round" stroke-width="2"/><path class="cls-1" d="M23.71 50.78a2.91 2.91 0 001.29.36 2.87 2.87 0 001.28-.36M25 10.51c-.08 3.62-1.77 8.25-9.45 9.45M25 10.51c.08 3.62 1.77 8.25 9.44 9.45"/><circle class="cls-4" cx="10.6" cy="36.14" r=".97"/><circle class="cls-4" cx="16.38" cy="36.14" r=".97"/><circle class="cls-4" cx="13.49" cy="40.85" r=".97"/><circle class="cls-4" cx="33.62" cy="36.14" r=".97"/><circle class="cls-4" cx="39.4" cy="36.14" r=".97"/><circle class="cls-4" cx="36.51" cy="40.85" r=".97"/></g></g></svg>