<svg xmlns="http://www.w3.org/2000/svg" viewBox="0 0 50 62.88"><defs><style>.cls-1{fill:none;stroke:#009190;stroke-linecap:round;stroke-linejoin:round;stroke-width:2px}.cls-2{fill:#f2eee7}</style></defs><g id="Layer_2" data-name="Layer 2"><g id="Layer_1-2" data-name="Layer 1"><path class="cls-1" d="M23.54 50.89a2.91 2.91 0 001.29.36 2.84 2.84 0 001.28-.36"/><path class="cls-2" d="M23.54 50.78a2.91 2.91 0 001.29.36 2.84 2.84 0 001.28-.36"/><path class="cls-1" d="M5.29 36.77c-1.35-3.15-8.44-15.93-.81-26.36a21.63 21.63 0 017.67-6.3 28.06 28.06 0 0125.69 0 21.54 21.54 0 017.67 6.3c7.63 10.43.57 23.21-.77 26.36"/><path class="cls-2" d="M17.29 59.12c-3.39-1.67-6.39-4.38-7.67-7C6.76 46.09 4.74 34 4.74 34a23.35 23.35 0 011-10.92c5.74-16.77 32.88-16.77 38.63 0A23.49 23.49 0 0145.26 34s-2 12.08-4.88 18.06c-1.28 2.67-4.28 5.38-7.67 7l-4.27 2a8.17 8.17 0 01-6.88 0z"/><path class="cls-1" d="M42.07 47.64a36.21 36.21 0 01-1.69 4.43c-1.28 2.67-4.28 5.38-7.67 7l-4.27 2a8.17 8.17 0 01-6.88 0l-4.27-2c-3.39-1.67-6.39-4.38-7.67-7a36.34 36.34 0 01-1.71-4.51m-2.36-9.33C5 35.75 4.74 34 4.74 34a23.35 23.35 0 011-10.92c5.74-16.77 32.88-16.77 38.63 0A23.49 23.49 0 0145.26 34s-.29 1.74-.81 4.22"/><path class="cls-1" d="M23.54 50.78a2.91 2.91 0 001.29.36 2.84 2.84 0 001.28-.36m-1.24-39.62c-.07 3.27-1.45 7.35-7.36 9m7.36-9c.08 3.27 1.46 7.35 7.37 9m8.12 21.68a11.65 11.65 0 00-2.47 1.42 7.76 7.76 0 00-2.75 3.93A3.93 3.93 0 0133 49.53M9.64 41.84a11.65 11.65 0 012.47 1.42 7.76 7.76 0 012.75 3.93A3.93 3.93 0 0017 49.53"/></g></g></svg>