<svg xmlns="http://www.w3.org/2000/svg" viewBox="0 0 73.72 57.12"><defs><style>.cls-2{fill:none;stroke:#009190;stroke-linecap:round;stroke-linejoin:round;stroke-width:2px}</style></defs><g id="Layer_2" data-name="Layer 2"><g id="Layer_1-2" data-name="Layer 1"><path d="M19.67 7.1h-13a5.69 5.69 0 000 11.38h30.7V7.1z" fill="#f2eee7"/><rect class="cls-2" x="37.39" y="1" width="5.47" height="23.39" rx="2.73"/><path class="cls-2" d="M14 18.28H6.69A5.69 5.69 0 011 12.59 5.69 5.69 0 016.69 6.9h30.7v11.38H21.15M1 12.59h31.08M47.85 7.7v5.55m7.84-5.55H42.85v10h12.84a5 5 0 000-10zm0 0v9.99"/><path class="cls-2" d="M60.68 12.69h.56A9.76 9.76 0 0171 22.44v.95a9.75 9.75 0 01-9.75 9.74h-50.5A9.75 9.75 0 001 42.88a9.74 9.74 0 009.75 9.75h51.47"/><path class="cls-2" d="M65.6 49.36H69v6.77h-3.4a3.38 3.38 0 01-3.38-3.38 3.38 3.38 0 013.38-3.39zm3.38 1.58h3.74m-3.74 3.6h3.74"/></g></g></svg>