<svg xmlns="http://www.w3.org/2000/svg" viewBox="0 0 44.64 42.94"><g data-name="Layer 2"><path d="M32.94 35.8a4.22 4.22 0 00-.07.76 5.39 5.39 0 0010.77 0 5.14 5.14 0 00-.08-.76 5.3 5.3 0 00-.37-1.38 13.92 13.92 0 00-4.82-6.21.21.21 0 00-.24 0 14 14 0 00-4.82 6.21 5.3 5.3 0 00-.37 1.38zm-31.86 0a3.84 3.84 0 00-.08.76 5.39 5.39 0 0010.77 0 3.84 3.84 0 00-.08-.76 5.29 5.29 0 00-.36-1.38 14 14 0 00-4.82-6.21.23.23 0 00-.25 0 14 14 0 00-4.82 6.21 5.29 5.29 0 00-.36 1.38zM17 8.62a5.14 5.14 0 00-.08.76 5.39 5.39 0 1010.77 0 4.22 4.22 0 00-.07-.76 5.23 5.23 0 00-.37-1.37A13.94 13.94 0 0022.44 1a.21.21 0 00-.24 0 13.87 13.87 0 00-4.82 6.21A5.23 5.23 0 0017 8.62z" fill="#f2eee7" stroke="#009190" stroke-linecap="round" stroke-linejoin="round" stroke-width="2" data-name="Layer 1"/></g></svg>