<svg xmlns="http://www.w3.org/2000/svg" viewBox="0 0 46.58 60.07"><defs><style>.cls-3{fill:none;stroke-linecap:round;stroke-linejoin:round;stroke-width:2px;stroke:#009291}</style></defs><g id="Layer_2" data-name="Layer 2"><g id="Layer_1-2" data-name="Layer 1"><path d="M40 18.27c-19.52 6.15-26.33-5.86-26.33-5.86S2.93 14.91 3.06 28.58c0 0 .33 4 .68 8.12.22 2.61.31 7.33.31 7.45 0 8.47 6.09 15.24 14.89 15.15v-.82a3.84 3.84 0 013.28-3.69 15 15 0 013 0 3.84 3.84 0 013.28 3.69v.8a2.32 2.32 0 01.48 0c4.69.3 7.28-1.36 9.83-4a16.13 16.13 0 004.48-11.08c0-.13.47-6.43.65-9.67.07-1.28.17-2.56.26-3.84.85-11.54-4.2-12.42-4.2-12.42z" fill="#f2eee7"/><path d="M12.39 58.07S4 54.21 4.1 41.47m30.95 16.6s8.38-3.86 8.29-16.6M19 49.9a3.84 3.84 0 002.7-.23 1.4 1.4 0 01.92-.09 1.39 1.39 0 01.63.52 4.82 4.82 0 00.51.66 4.82 4.82 0 00.51-.66 1.13 1.13 0 011.55-.43 3.84 3.84 0 002.7.23m-9.58 9.17v-.59a3.84 3.84 0 013.28-3.69 15 15 0 013 0 3.84 3.84 0 013.28 3.69v.59" stroke="#009190" fill="none" stroke-linecap="round" stroke-linejoin="round" stroke-width="2"/><path class="cls-3" d="M10.65 4.56a14.64 14.64 0 011.43-.84 23.29 23.29 0 0131.32 9.54 16.27 16.27 0 012 10.38c-.28 1.76-2.12 15.67-2.06 17.83"/><path class="cls-3" d="M44.66 29.1C45.89 20 40 18.76 40 18.76a11.56 11.56 0 01-2.79 1.3 21 21 0 01-9.49.76C14.16 18.93 11.77 9.09 11.77 9.09m-1.12-4.53s-6.94-.34-9.14 8.18a16.26 16.26 0 00-.49 3 12.43 12.43 0 00.32 3.54A122.2 122.2 0 014.1 41.47m-1.03-12.4C2.94 15.4 13.63 12.9 13.63 12.9"/></g></g></svg>