<svg xmlns="http://www.w3.org/2000/svg" viewBox="0 0 73.89 68.32"><defs><style>.cls-2{fill:none;stroke:#009190;stroke-linecap:round;stroke-linejoin:round;stroke-width:2px}</style></defs><g id="Layer_2" data-name="Layer 2"><g id="Layer_1-2" data-name="Layer 1"><path d="M66.81 31.52v-.14a8.87 8.87 0 00-17.73 0v.14a5.72 5.72 0 00-5.73 5.72V43h29.18v-5.76a5.72 5.72 0 00-5.72-5.72z" fill="#f2eee7"/><path class="cls-2" d="M48.55 49.86a21.31 21.31 0 110-31.41M34.16 4.49V1M19.33 8.47l-1.75-3.03M8.47 19.33l-3.03-1.75m-.95 16.58H1m7.47 14.83l-3.03 1.75m13.89 9.11l-1.75 3.02m16.58.95v3.5m9.19-30.08a5.73 5.73 0 0111.45 0"/><path class="cls-2" d="M66.81 31.52v-.14a8.87 8.87 0 00-17.73 0v.14a5.72 5.72 0 00-5.73 5.72V43h29.18v-5.76a5.84 5.84 0 00-.57-2.5M61.05 54.23v-3.49m-5.92 3.49v-3.49m11.84 3.49v-3.49m5.92 3.49v-3.49"/></g></g></svg>