<svg version="1.1" id="Layer_1" xmlns="http://www.w3.org/2000/svg" x="0" y="0" viewBox="0 0 64.5 74.7" xml:space="preserve"><style>.st1{fill:none;stroke:#004542;stroke-width:2;stroke-linecap:round;stroke-linejoin:round}</style><g id="Layer_2_1_"><g id="Layer_1-2"><path fill="#f2eee7" d="M38.8 29.6L26.4 42l-13-13 12.4-12.4"/><path class="st1" d="M47.8 17l-5.5 5.5v-.2c0-5.1-4.1-9.2-9.2-9.2h-.3l5.5-5.5 9.5 9.4z"/><path class="st1" d="M26.4 42l13.3-13.3c1.7-1.7 2.6-3.9 2.7-6.2v-.3c0-5.1-4.1-9.2-9.2-9.1-2.4 0-4.7 1-6.5 2.7L13.4 29l6.8 6.8m27.8-25l-3.7-3.7L50.4 1l7.3 7.3-.2.2c-2 2-5.3 2-7.3 0L48 10.8z"/><path transform="rotate(-45.001 44.561 10.517)" class="st1" d="M42.3 7.9h4.5v5.2h-4.5z"/><path class="st1" d="M38.8 29.6l-7.5-7.5M46.5 55l1 5.5h10l4.8-26.8H42.7l2.7 15.5m2.1 11.3h9.9v8.8h-9.9zm4.9 4.9h-4.9m-4-27.4h17.9M40.1 52.6v10.6c0 3.3-2.7 6-6 6H18.3c-3.3 0-6-2.7-6-6V52.6h27.8z"/><path class="st1" d="M12.3 57.2v-4.6h27.8v4.6H20.8m-7.6-10h25.9c.5 0 .9.4.9.9v4.4H12.3v-4.4c0-.4.4-.9.9-.9zM9.5 73.7h54M1 73.7"/></g></g></svg>