<svg version="1.1" id="Layer_1" xmlns="http://www.w3.org/2000/svg" x="0" y="0" viewBox="0 0 64.5 66.3" xml:space="preserve"><style>.st0{fill:none;stroke:#004542;stroke-width:2;stroke-linecap:round;stroke-linejoin:round}</style><g id="Layer_2_1_"><g id="Layer_1-2"><path class="st0" d="M9.5 65.3h54M1 65.3"/><path d="M32.2 60.9c3.5.1 7.8-2.2 11-4.3.9-.6 1.1-1.7.5-2.6-.4-.5-1-.8-1.6-.8-2.5.1-4.9-.3-7.2-1.2-1.7-.7-3.7-.7-5.4 0-2.3.8-4.8 1.2-7.2 1.1-1 0-1.9.8-1.9 1.8 0 .6.3 1.2.8 1.6 3.3 2.3 7.5 4.5 11 4.4zm-7.3-16.3c-1.2 1.8-3.8 1.2-4.7.5-4.4-4-7-12.5-3.1-11.3.4.1 5 2 7.4 1.9 1 0 1.9.6 1.9 1.4 0 2.1-.3 5.7-1.5 7.5zm14.6 0c1.2 1.8 3.8 1.2 4.7.5 4.4-4 7-12.5 3.2-11.3-.3.1-5 2-7.4 1.9-1 0-1.9.6-1.9 1.4 0 2.1.2 5.7 1.4 7.5zm-7.3-34.1c-10.6 0-17 6.5-18.8 11.1-.3.8-.1 1.5.7 1.3h.4c1.7-.2 3.4-.4 5.1-.8 3.9-.7 6.6.3 10.3 3l.2.2c1.3.9 3 .9 4.3 0l.2-.2c3.7-2.7 6.5-3.7 10.3-3 1.7.3 3.4.6 5.1.8h.4c.8.2 1-.5.7-1.3-1.9-4.6-8.2-11.1-18.9-11.1" fill="#f2eee7" stroke="#004542" stroke-width="2" stroke-linecap="round" stroke-linejoin="round"/><path class="st0" d="M10.7 33.2c.8-8.1 2.7-11.6 2.7-11.6 1.9-4.6 8.2-11 18.8-11.1s17 6.5 18.8 11c0 0 2 3.5 2.7 11.6"/><path class="st0" d="M10.7 33.2c-2.2-5.4-4.9-14.7.9-22.7 2-2.7 4.7-4.9 7.7-6.3C27.4 0 37 0 45.2 4.1c3 1.5 5.7 3.7 7.7 6.3 5.8 7.9 3.2 17.1 1 22.5m-33 23.4c-1.6-1.2-2.9-2.7-4-4.3-.5-.9-.9-1.9-1.2-2.9m28 7.2c1.6-1.2 2.9-2.7 4-4.3.5-.9.9-1.9 1.2-2.9"/></g></g></svg>