<svg xmlns="http://www.w3.org/2000/svg" viewBox="0 0 50 62.88"><defs><style>.cls-1{fill:none;stroke:#009190;stroke-linecap:round;stroke-linejoin:round;stroke-width:2px}.cls-2{fill:#f2eee7}</style></defs><g id="Layer_2" data-name="Layer 2"><g id="Layer_1-2" data-name="Layer 1"><path class="cls-1" d="M23.54 50.89a2.47 2.47 0 002.57 0"/><path class="cls-2" d="M23.54 50.78a2.47 2.47 0 002.57 0"/><path class="cls-1" d="M5.29 36.78C4 33.62-3.15 20.84 4.48 10.41a21.54 21.54 0 017.67-6.3 28.06 28.06 0 0125.69 0 21.63 21.63 0 017.67 6.3c7.63 10.43.57 23.21-.77 26.37"/><path class="cls-2" d="M17.28 59.12c-3.38-1.67-6.38-4.38-7.66-7C6.76 46.09 4.74 34 4.74 34a23.49 23.49 0 01.94-10.92c5.75-16.77 32.89-16.77 38.63 0A23.35 23.35 0 0145.26 34s-2 12.08-4.88 18.06c-1.28 2.67-4.28 5.38-7.67 7l-4.27 2a8.17 8.17 0 01-6.88 0z"/><path class="cls-1" d="M35.2 57.66a20 20 0 01-2.49 1.46l-4.27 2a8.17 8.17 0 01-6.88 0l-4.28-2c-3.38-1.67-6.38-4.38-7.66-7C6.76 46.09 4.74 34 4.74 34a23.49 23.49 0 01.94-10.92c5.75-16.77 32.89-16.77 38.63 0A23.35 23.35 0 0145.26 34s-.31 1.86-.86 4.47M23.54 50.78a2.47 2.47 0 002.57 0m-1.24-39.62c-.07 3.27-1.46 7.35-7.36 9m14.72 0c-5.9-1.65-7.28-5.73-7.36-9"/><path class="cls-1" d="M46.75 43.74c-1.47 0-1.47-1.47-2.93-1.47s-1.47 1.47-2.94 1.47-1.46-1.47-2.88-1.47-1.52 1.47-3 1.47-1.47-1.47-2.94-1.47m14.69 5.59c-1.47 0-1.47-1.46-2.93-1.46s-1.47 1.46-2.94 1.46S39.42 46.4 38 46.4s-1.52 1.46-3 1.46-1.47-1.46-2.94-1.46M46.75 52c-1.47 0-1.47-1.47-2.93-1.47S42.35 52 40.88 52s-1.46-1.48-2.88-1.48S36.48 52 35 52s-1.47-1.47-2.94-1.47"/></g></g></svg>