<svg width="37" height="49" fill="none" xmlns="http://www.w3.org/2000/svg"><path d="M31.894 14.93c-15.486 4.953-20.879-4.72-20.879-4.72s-8.47 2.016-8.369 13.02c0 0 .274 3.2.547 6.546.172 2.105.244 5.904.244 6.006.043 6.825 4.832 12.276 11.806 12.203v-.658c0-1.52 1.136-2.689 2.603-2.966.417-.088 1.955-.088 2.372 0 1.467.277 2.603 1.46 2.603 2.966v.643c.1 0 .23-.03.388-.015 3.724.249 5.78-1.096 7.794-3.244a13.073 13.073 0 003.552-8.928c0-.103.373-5.188.517-7.804.058-1.038.13-2.06.216-3.098.676-9.25-3.365-9.966-3.365-9.966l-.029.014z" fill="#F2EEE7"/><path d="M10.037 46.991S3.394 43.878 3.466 33.62m24.546 13.371s6.643-3.113 6.571-13.371m-19.34 6.78c.661.293 1.495.044 2.142-.19.23-.087.49-.146.734-.073.215.073.374.234.503.424.13.19.244.38.403.526.158-.16.273-.35.402-.526.13-.175.288-.35.504-.424.23-.073.488-.014.733.073.633.234 1.481.483 2.142.19m-7.577 7.395v-.468c0-1.52 1.136-2.689 2.602-2.966.417-.088 1.956-.088 2.373 0 1.466.277 2.602 1.461 2.602 2.966v.468" stroke="#009190" stroke-linecap="round" stroke-linejoin="round"/><path d="M8.657 3.867s.403-.277 1.136-.672c9.534-5.115 20.275-.775 24.834 7.687 1.38 2.557 2.041 5.48 1.581 8.358-.23 1.418-1.682 12.626-1.639 14.365" stroke="#009291" stroke-linecap="round" stroke-linejoin="round"/><path d="M35.619 23.654c.977-7.307-3.725-8.33-3.725-8.33-.618.424-1.409.775-2.214 1.038-2.416.818-5.004.979-7.52.613-10.728-1.52-12.626-9.454-12.626-9.454m-.877-3.654s-5.493-.277-7.247 6.59a13.877 13.877 0 00-.388 2.427c-.072.95.043 1.914.244 2.85.604 2.79 2.013 10.053 2.186 17.871m-.806-9.981c-.1-11.004 8.37-13.02 8.37-13.02" stroke="#009291" stroke-linecap="round" stroke-linejoin="round"/></svg>