<svg width="45" height="55" fill="none" xmlns="http://www.w3.org/2000/svg"><path d="M14.789 51.792c-2.973-1.47-5.604-3.847-6.731-6.207-2.512-5.267-4.288-15.87-4.288-15.87-.496-3.66-.12-6.84.837-9.61 5.04-14.74 28.872-14.74 33.912 0 .94 2.753 1.332 5.95.837 9.61 0 0-1.777 10.603-4.288 15.87-1.128 2.343-3.759 4.72-6.731 6.207l-3.759 1.762a7.189 7.189 0 01-6.048 0l-3.758-1.762h.017z" fill="#E4E1DB"/><path d="M20.444 44.542c.478.222.803.325 1.127.325.325 0 .65-.103 1.128-.325m2.87-28.302c-3.536-1.71-4.442-4.72-4.51-7.182-.086 3.403-1.777 7.832-9.824 8.482" fill="#E4E1DB"/><path d="M14.789 51.792c-2.973-1.47-5.604-3.847-6.731-6.207-2.512-5.267-4.288-15.87-4.288-15.87-.496-3.66-.12-6.84.837-9.61 5.04-14.74 28.872-14.74 33.912 0 .94 2.753 1.332 5.95.837 9.61 0 0-1.777 10.603-4.288 15.87-1.128 2.343-3.759 4.72-6.731 6.207l-3.759 1.762a7.189 7.189 0 01-6.048 0l-3.758-1.762h.017z" stroke="#00A595" stroke-width="1.5" stroke-linecap="round" stroke-linejoin="round"/><path d="M20.444 44.542c.478.222.803.325 1.127.325.325 0 .65-.103 1.128-.325m2.87-28.302c-3.536-1.71-4.442-4.72-4.51-7.182-.069 2.873-1.282 6.464-6.458 7.918m16.708.598c-.101 0 .101 0 0 0" stroke="#00A595" stroke-width="1.5" stroke-linecap="round" stroke-linejoin="round"/><path d="M4.8 32.463C3.61 29.691-2.683 18.45 4.093 9.278c1.828-2.464 4.277-4.244 6.794-5.544 7.104-3.645 15.639-3.645 22.742 0 2.518 1.283 4.983 3.08 6.794 5.544 6.759 9.171.517 20.413-.673 23.185" stroke="#00A595" stroke-width="1.5" stroke-linecap="round" stroke-linejoin="round"/><path d="M14.789 51.792c-2.973-1.47-5.604-3.847-6.731-6.207-2.512-5.267-4.288-15.87-4.288-15.87-.496-3.66-.12-6.84.837-9.61 5.04-14.74 28.872-14.74 33.912 0 .94 2.753 1.332 5.95.837 9.61 0 0-1.777 10.603-4.288 15.87-1.128 2.343-3.759 4.72-6.731 6.207l-3.759 1.762a7.189 7.189 0 01-6.048 0l-3.758-1.762h.017z" fill="#F2EEE7"/><path d="M20.444 44.542c.478.222.803.325 1.127.325.325 0 .65-.103 1.128-.325m2.87-28.302c-3.536-1.71-4.442-4.72-4.51-7.182-.086 3.403-1.777 7.832-9.824 8.482" fill="#F2EEE7"/><path d="M14.789 51.792c-2.973-1.47-5.604-3.847-6.731-6.207-2.512-5.267-4.288-15.87-4.288-15.87-.496-3.66-.12-6.84.837-9.61 5.04-14.74 28.872-14.74 33.912 0 .94 2.753 1.332 5.95.837 9.61 0 0-1.777 10.603-4.288 15.87-1.128 2.343-3.759 4.72-6.731 6.207l-3.759 1.762a7.189 7.189 0 01-6.048 0l-3.758-1.762h.017z" stroke="#009190" stroke-width="1.5" stroke-linecap="round" stroke-linejoin="round"/><path d="M20.444 44.542c.478.222.803.325 1.127.325.325 0 .65-.103 1.128-.325m2.87-28.302c-3.536-1.71-4.442-4.72-4.51-7.182-.069 2.873-1.282 6.464-6.458 7.918m16.708.598c-.101 0 .101 0 0 0" stroke="#009190" stroke-width="1.5" stroke-linecap="round" stroke-linejoin="round"/><path d="M4.093 31.188c-1.19-2.772-6.16-13.606 0-21.91 1.828-2.464 4.277-4.244 6.794-5.544 7.104-3.645 15.639-3.645 22.742 0 2.518 1.283 4.983 3.08 6.794 5.544 7.347 9.999-.818 23.39-2.007 26.162" stroke="#009190" stroke-width="1.5" stroke-linecap="round" stroke-linejoin="round"/></svg>