<svg version="1.1" id="Layer_1" xmlns="http://www.w3.org/2000/svg" x="0" y="0" viewBox="0 0 45 55" xml:space="preserve"><style>.st0{fill:#e4e1db}.st1{fill:none;stroke:#00a595;stroke-width:1.5;stroke-linecap:round;stroke-linejoin:round}.st2{fill:#f2eee7}.st3{fill:none;stroke:#004542;stroke-width:1.5;stroke-linecap:round;stroke-linejoin:round}</style><path class="st0" d="M14.8 51.8c-3-1.5-5.6-3.8-6.7-6.2-2.5-5.3-4.3-15.9-4.3-15.9-.5-3.7-.1-6.8.8-9.6 5-14.7 28.9-14.7 33.9 0 .9 2.8 1.3 6 .8 9.6 0 0-1.8 10.6-4.3 15.9-1.1 2.3-3.8 4.7-6.7 6.2l-3.8 1.8c-1.9.9-4.2.9-6 0l-3.7-1.8z"/><path class="st0" d="M20.4 44.5c.5.2.8.3 1.1.3s.6-.1 1.1-.3m3-28.3c-3.5-1.7-4.4-4.7-4.5-7.2-.1 3.4-1.8 7.8-9.8 8.5"/><path class="st1" d="M14.8 51.8c-3-1.5-5.6-3.8-6.7-6.2-2.5-5.3-4.3-15.9-4.3-15.9-.5-3.7-.1-6.8.8-9.6 5-14.7 28.9-14.7 33.9 0 .9 2.8 1.3 6 .8 9.6 0 0-1.8 10.6-4.3 15.9-1.1 2.3-3.8 4.7-6.7 6.2l-3.8 1.8c-1.9.9-4.2.9-6 0l-3.7-1.8z"/><path class="st1" d="M20.4 44.5c.5.2.8.3 1.1.3s.6-.1 1.1-.3m3-28.3c-3.5-1.7-4.4-4.7-4.5-7.2-.1 2.9-1.3 6.5-6.5 7.9m16.7.7c-.1 0 .1 0 0 0"/><path class="st1" d="M4.8 32.5c-1.2-2.8-7.5-14-.7-23.2C5.9 6.8 8.4 5 10.9 3.7 18 .1 26.5.1 33.6 3.7c2.5 1.3 5 3.1 6.8 5.5 6.8 9.2.5 20.4-.7 23.2"/><path class="st2" d="M14.8 51.8c-3-1.5-5.6-3.8-6.7-6.2-2.5-5.3-4.3-15.9-4.3-15.9-.5-3.7-.1-6.8.8-9.6 5-14.7 28.9-14.7 33.9 0 .9 2.8 1.3 6 .8 9.6 0 0-1.8 10.6-4.3 15.9-1.1 2.3-3.8 4.7-6.7 6.2l-3.8 1.8c-1.9.9-4.2.9-6 0l-3.7-1.8z"/><path class="st2" d="M20.4 44.5c.5.2.8.3 1.1.3s.6-.1 1.1-.3m3-28.3c-3.5-1.7-4.4-4.7-4.5-7.2-.1 3.4-1.8 7.8-9.8 8.5"/><path class="st3" d="M14.8 51.8c-3-1.5-5.6-3.8-6.7-6.2-2.5-5.3-4.3-15.9-4.3-15.9-.5-3.7-.1-6.8.8-9.6 5-14.7 28.9-14.7 33.9 0 .9 2.8 1.3 6 .8 9.6 0 0-1.8 10.6-4.3 15.9-1.1 2.3-3.8 4.7-6.7 6.2l-3.8 1.8c-1.9.9-4.2.9-6 0l-3.7-1.8z"/><path class="st3" d="M20.4 44.5c.5.2.8.3 1.1.3s.6-.1 1.1-.3m3-28.3c-3.5-1.7-4.4-4.7-4.5-7.2-.1 2.9-1.3 6.5-6.5 7.9m16.7.7c-.1 0 .1 0 0 0"/><path class="st3" d="M4.1 31.2c-1.2-2.8-6.2-13.6 0-21.9C5.9 6.8 8.4 5 10.9 3.7 18 .1 26.5.1 33.6 3.7c2.5 1.3 5 3.1 6.8 5.5 7.3 10-.8 23.4-2 26.2"/></svg>