<svg width="41" height="40" fill="none" xmlns="http://www.w3.org/2000/svg"><path d="M5.513 0C2.894 0 .75 2.143.75 4.76v30.467c0 2.618 2.143 4.76 4.762 4.76h16.03a.958.958 0 00.311 0h5.404a.958.958 0 00.31 0h8.421c2.619 0 4.762-2.142 4.762-4.76V4.76c0-2.617-2.143-4.76-4.762-4.76H5.513zm0 1.904h30.476a2.843 2.843 0 012.857 2.856v30.467a2.843 2.843 0 01-2.857 2.856H28.37V24.754h3.638l1.334-6.665H28.37v-1.904c0-.53.05-.572.229-.688.178-.115.729-.264 1.676-.264h2.857v-5.36l-.543-.26S30.4 8.57 27.418 8.57c-2.143 0-3.904.853-5.03 2.26-1.127 1.409-1.637 3.293-1.637 5.356v1.905h-2.857v6.664h2.857v13.33H5.513a2.843 2.843 0 01-2.857-2.857V4.76a2.843 2.843 0 012.857-2.856zm21.905 8.569c1.98 0 3.226.436 3.81.667v2.19h-.953c-1.096 0-1.974.09-2.714.57s-1.096 1.392-1.096 2.285v3.809h4.552l-.571 2.856h-3.98v15.233h-3.81V22.85h-2.857v-2.856h2.857v-3.809c0-1.745.442-3.192 1.22-4.165.778-.973 1.875-1.547 3.542-1.547z" fill="#796049"/><path d="M5.513 0C2.894 0 .75 2.143.75 4.76v30.467c0 2.618 2.143 4.76 4.762 4.76h16.03a.958.958 0 00.311 0h5.404a.958.958 0 00.31 0h8.421c2.619 0 4.762-2.142 4.762-4.76V4.76c0-2.617-2.143-4.76-4.762-4.76H5.513zm0 1.904h30.476a2.843 2.843 0 012.857 2.856v30.467a2.843 2.843 0 01-2.857 2.856H28.37V24.754h3.638l1.334-6.665H28.37v-1.904c0-.53.05-.572.229-.688.178-.115.729-.264 1.676-.264h2.857v-5.36l-.543-.26S30.4 8.57 27.418 8.57c-2.143 0-3.904.853-5.03 2.26-1.127 1.409-1.637 3.293-1.637 5.356v1.905h-2.857v6.664h2.857v13.33H5.513a2.843 2.843 0 01-2.857-2.857V4.76a2.843 2.843 0 012.857-2.856zm21.905 8.569c1.98 0 3.226.436 3.81.667v2.19h-.953c-1.096 0-1.974.09-2.714.57s-1.096 1.392-1.096 2.285v3.809h4.552l-.571 2.856h-3.98v15.233h-3.81V22.85h-2.857v-2.856h2.857v-3.809c0-1.745.442-3.192 1.22-4.165.778-.973 1.875-1.547 3.542-1.547z" stroke="#796049"/></svg>