<svg width="55" height="40" fill="none" xmlns="http://www.w3.org/2000/svg"><path d="M27.69 0C19.457 0 11.725.625 7.609 1.499c-2.743.625-5.116 2.5-5.613 5.376C1.5 9.873.998 14.375.998 20s.496 10 1.12 13.125c.502 2.749 2.87 4.751 5.612 5.376C12.1 39.375 19.578 40 27.812 40c8.233 0 15.711-.625 20.076-1.499 2.748-.625 5.116-2.5 5.612-5.376.502-3.125 1.126-7.622 1.248-13.247 0-5.625-.624-10.127-1.248-13.252-.496-2.75-2.864-4.751-5.612-5.376C43.523.625 35.918 0 27.69 0zm0 2.5c8.979 0 16.208.747 19.701 1.372 1.871.503 3.367 1.753 3.615 3.379.75 3.999 1.247 8.252 1.247 12.627-.122 5.371-.745 9.746-1.247 12.871-.357 2.29-2.691 3.07-3.53 3.35l-.085.029c-4.491.874-11.974 1.494-19.457 1.494-7.484 0-15.088-.498-19.453-1.494-1.871-.503-3.367-1.753-3.615-3.379C3.867 29.248 3.492 24.624 3.492 20c0-5.752.502-10 .999-12.622.343-2.174 2.559-2.989 3.413-3.303l.201-.076C12.222 3.125 19.832 2.5 27.69 2.5zM20.952 30l17.46-10-17.46-10v20zm2.495-15.747L33.424 20l-9.977 5.747V14.253z" fill="#796049"/><path d="M27.69 0C19.457 0 11.725.625 7.609 1.499c-2.743.625-5.116 2.5-5.613 5.376C1.5 9.873.998 14.375.998 20s.496 10 1.12 13.125c.502 2.749 2.87 4.751 5.612 5.376C12.1 39.375 19.578 40 27.812 40c8.233 0 15.711-.625 20.076-1.499 2.748-.625 5.116-2.5 5.612-5.376.502-3.125 1.126-7.622 1.248-13.247 0-5.625-.624-10.127-1.248-13.252-.496-2.75-2.864-4.751-5.612-5.376C43.523.625 35.918 0 27.69 0zm0 2.5c8.979 0 16.208.747 19.701 1.372 1.871.503 3.367 1.753 3.615 3.379.75 3.999 1.247 8.252 1.247 12.627-.122 5.371-.745 9.746-1.247 12.871-.357 2.29-2.691 3.07-3.53 3.35l-.085.029c-4.491.874-11.974 1.494-19.457 1.494-7.484 0-15.088-.498-19.453-1.494-1.871-.503-3.367-1.753-3.615-3.379C3.867 29.248 3.492 24.624 3.492 20c0-5.752.502-10 .999-12.622.343-2.174 2.559-2.989 3.413-3.303l.201-.076C12.222 3.125 19.832 2.5 27.69 2.5zM20.952 30l17.46-10-17.46-10v20zm2.495-15.747L33.424 20l-9.977 5.747V14.253z" stroke="#fff"/></svg>