<svg width="41" height="40" fill="none" xmlns="http://www.w3.org/2000/svg"><path d="M32.592 10.023l.354.354-.354-.354a1.318 1.318 0 11-1.864-1.864 1.318 1.318 0 011.864 1.864zM1.251 11.818C1.251 5.578 6.329.5 12.569.5h16.364c6.24 0 11.318 5.078 11.318 11.318v16.364c0 6.24-5.078 11.318-11.318 11.318H12.569c-6.24 0-11.318-5.078-11.318-11.318V11.818zm27.682-10.5H12.569c-5.81 0-10.5 4.69-10.5 10.5v16.364c0 5.81 4.69 10.5 10.5 10.5h16.364c5.81 0 10.5-4.69 10.5-10.5V11.818c0-5.81-4.69-10.5-10.5-10.5zM11.25 20c0-5.236 4.264-9.5 9.5-9.5s9.5 4.264 9.5 9.5-4.264 9.5-9.5 9.5-9.5-4.264-9.5-9.5zm18.182 0a8.668 8.668 0 00-8.682-8.682A8.668 8.668 0 0012.069 20a8.668 8.668 0 008.682 8.682A8.668 8.668 0 0029.433 20z" fill="#796049" stroke="#796049"/></svg>