<svg width="24" height="23" fill="none" xmlns="http://www.w3.org/2000/svg"><path d="M19.515.554H3.987A2.985 2.985 0 001 3.537V19.04a2.985 2.985 0 002.987 2.982h15.528a2.985 2.985 0 002.987-2.982V3.537A2.985 2.985 0 0019.515.554z" fill="#F2EFE7"/><path d="M1 15.938V3.539A2.986 2.986 0 013.987.556h15.528a2.986 2.986 0 012.987 2.983v15.504a2.986 2.986 0 01-2.987 2.983H3.987A2.986 2.986 0 011 19.043" stroke="#004542" stroke-linecap="round" stroke-linejoin="round"/><path d="M10.002 14.87V7.1l6.842 3.883c-2.304 1.31-4.549 2.587-6.842 3.889v-.003z" fill="#fff" stroke="#004542" stroke-linecap="round" stroke-linejoin="round"/></svg>