<svg width="36" height="40" fill="none" xmlns="http://www.w3.org/2000/svg"><path d="M12.687 40a12.594 12.594 0 01-8.97-3.717A12.602 12.602 0 010 27.313a12.64 12.64 0 013.717-8.971 12.602 12.602 0 018.97-3.718c.635 0 1.28.045 1.904.145a.836.836 0 01.712.824v6.332a.854.854 0 01-.345.68.835.835 0 01-.757.11 4.687 4.687 0 00-1.514-.244 4.84 4.84 0 00-4.83 4.83 4.84 4.84 0 004.83 4.83 4.824 4.824 0 004.82-4.808V.835A.84.84 0 0118.34 0h6.188a.84.84 0 01.835.835c0 4.852 3.951 8.792 8.804 8.792a.84.84 0 01.834.835v6.21a.84.84 0 01-.834.835c-2.249 0-4.43-.445-6.489-1.313a17.535 17.535 0 01-2.315-1.202v12.387a12.585 12.585 0 01-3.717 8.915 12.534 12.534 0 01-7.056 3.572 13.55 13.55 0 01-1.904.134zm0-23.684c-2.938 0-5.71 1.146-7.78 3.228a10.928 10.928 0 00-3.227 7.78 10.91 10.91 0 003.228 7.779 10.928 10.928 0 007.78 3.228c.556 0 1.112-.045 1.658-.123a10.898 10.898 0 006.132-3.105 10.938 10.938 0 003.228-7.735V13.389c0-.323.178-.612.467-.746a.816.816 0 01.88.09 14.877 14.877 0 008.292 3.083v-4.52c-5.11-.4-9.194-4.496-9.606-9.593h-4.563v25.654a6.498 6.498 0 01-4.452 6.143 6.417 6.417 0 01-2.048.334 6.507 6.507 0 01-6.5-6.5 6.507 6.507 0 017.446-6.433v-4.54a8.622 8.622 0 00-.935-.045z" fill="#796049"/></svg>