<svg width="24" height="23" fill="none" xmlns="http://www.w3.org/2000/svg"><path d="M19.515 1H3.987A2.985 2.985 0 001 3.983v15.504a2.985 2.985 0 002.987 2.983h15.528a2.985 2.985 0 002.987-2.983V3.983A2.985 2.985 0 0019.515 1z" fill="#F2EFE7"/><path d="M10.84 13.912c-.16.598-.309 1.131-.442 1.668-.268 1.081-.79 2.035-1.473 2.903-.078.096-.144.21-.33.213-.027-.128-.064-.263-.085-.399-.168-1.158-.048-2.292.236-3.42.288-1.135.559-2.272.84-3.406.044-.17.012-.319-.039-.475-.213-.646-.245-1.297-.019-1.947.133-.383.357-.699.697-.927.34-.229.719-.274 1.107-.186a.903.903 0 01.641.53c.184.397.17.806.067 1.21-.133.52-.306 1.027-.45 1.545-.085.314-.175.63-.215.949-.11.873.779 1.394 1.465 1.274.663-.114 1.17-.459 1.556-1 .453-.633.679-1.35.796-2.107.088-.571.122-1.145.016-1.716-.205-1.124-.865-1.878-1.942-2.218-1.442-.451-2.825-.295-4.04.648-1.025.794-1.496 1.875-1.419 3.177.03.47.187.9.498 1.262.157.18.215.374.135.61-.058.173-.082.356-.14.53-.08.23-.221.297-.45.214a2.108 2.108 0 01-.891-.616c-.516-.6-.737-1.315-.782-2.09-.088-1.498.465-2.742 1.537-3.764.756-.72 1.673-1.148 2.682-1.392.705-.17 1.423-.263 2.144-.189 1.29.133 2.468.542 3.423 1.475.676.658 1.112 1.442 1.285 2.364.146.783.072 1.567-.096 2.34-.204.945-.58 1.811-1.242 2.528-.777.842-1.729 1.323-2.897 1.339-.468.008-.92-.034-1.351-.228a1.894 1.894 0 01-.828-.702l.006.003z" fill="#fff" stroke="#004542" stroke-linecap="round" stroke-linejoin="round"/><path d="M1 16.382v-12.4A2.986 2.986 0 013.987 1h15.528a2.986 2.986 0 012.987 2.983v15.504a2.986 2.986 0 01-2.987 2.983H3.987A2.986 2.986 0 011 19.487" stroke="#004542" stroke-linecap="round" stroke-linejoin="round"/></svg>