<svg width="50" height="40" fill="none" xmlns="http://www.w3.org/2000/svg"><path d="M34.105 0c-5.828 0-10.567 4.741-10.567 10.571 0 .35.087.693.122 1.036-7.206-.69-13.579-4.162-17.907-9.474a.98.98 0 00-.841-.37.97.97 0 00-.773.491 10.49 10.49 0 00-1.431 5.301c0 2.342.837 4.486 2.132 6.245-.252-.11-.526-.17-.762-.304a.971.971 0 00-.955.023.98.98 0 00-.476.83v.122c0 3.59 1.858 6.71 4.598 8.621-.03-.004-.06.008-.091 0a.975.975 0 00-1.096 1.25c1.088 3.385 3.867 5.97 7.309 6.915-2.741 1.63-5.92 2.59-9.35 2.59-.742 0-1.454-.039-2.162-.123a.972.972 0 00-1.047.64.972.972 0 00.408 1.158A28.097 28.097 0 0016.442 40c9.095 0 16.228-3.8 21.013-9.23 4.785-5.431 7.279-12.484 7.279-19.072 0-.278-.023-.548-.03-.822 1.784-1.367 3.38-2.97 4.628-4.844a.973.973 0 00-.065-1.18.97.97 0 00-1.153-.252c-.503.225-1.089.248-1.614.427.693-.926 1.286-1.923 1.644-3.047a.98.98 0 00-.327-1.058.976.976 0 00-1.104-.069c-1.663.986-3.506 1.68-5.451 2.102C39.374 1.188 36.888 0 34.105 0zm0 1.95a8.626 8.626 0 016.304 2.742.98.98 0 00.914.274 20.052 20.052 0 003.654-1.097 8.677 8.677 0 01-2.497 2.285.974.974 0 00-.491 1.2.973.973 0 001.13.628c.975-.118 1.843-.514 2.772-.762a18.514 18.514 0 01-2.741 2.437.972.972 0 00-.396.853c.015.396.03.789.03 1.188 0 6.093-2.337 12.708-6.79 17.761C31.54 34.513 25 38.05 16.441 38.05c-3.886 0-7.556-.86-10.872-2.376 4.112-.316 7.903-1.77 10.964-4.174a.973.973 0 00.316-1.07.973.973 0 00-.895-.666c-3.213-.057-5.904-1.927-7.34-4.57h.153c.963 0 1.915-.122 2.802-.365a.977.977 0 00.704-.968.978.978 0 00-.765-.921c-3.468-.7-6.068-3.526-6.67-7.038.983.34 1.988.606 3.076.64a.975.975 0 00.579-1.797 8.633 8.633 0 01-3.837-7.19c0-1.112.29-2.132.67-3.107 4.872 5.35 11.694 8.903 19.399 9.291a.986.986 0 00.8-.342.975.975 0 00.205-.846 8.707 8.707 0 01-.244-1.98 8.602 8.602 0 018.618-8.621z" fill="#796049"/></svg>