<svg width="41" height="40" fill="none" xmlns="http://www.w3.org/2000/svg"><path d="M20.751 0c-11.035 0-20 8.965-20 20s8.965 20 20 20 20-8.965 20-20-8.965-20-20-20zm0 1.74c10.095 0 18.26 8.165 18.26 18.26 0 10.096-8.165 18.26-18.26 18.26-1.847 0-3.628-.276-5.307-.784.748-1.25 1.713-3.038 2.097-4.514.228-.875 1.165-4.445 1.165-4.445.61 1.163 2.389 2.147 4.283 2.147 5.639 0 9.703-5.185 9.703-11.629 0-6.177-5.04-10.798-11.527-10.798-8.069 0-12.352 5.416-12.352 11.313 0 2.742 1.459 6.156 3.794 7.244.354.164.544.093.625-.25.063-.26.378-1.53.52-2.12a.56.56 0 00-.13-.536c-.772-.938-1.392-2.66-1.392-4.267 0-4.124 3.122-8.114 8.441-8.114 4.593 0 7.81 3.13 7.81 7.606 0 5.058-2.554 8.562-5.877 8.562-1.835 0-3.21-1.518-2.768-3.38.528-2.222 1.549-4.62 1.549-6.224 0-1.436-.77-2.633-2.366-2.633-1.876 0-3.383 1.94-3.383 4.54 0 1.654.56 2.775.56 2.775s-1.853 7.835-2.193 9.294c-.34 1.457-.249 3.42-.108 4.88C7.205 34.22 2.49 27.67 2.49 20c0-10.095 8.165-18.26 18.261-18.26z" fill="#796049"/></svg>