<svg xmlns="http://www.w3.org/2000/svg" viewBox="-293 385 24 23"><path d="M-273.5 385.6H-289c-1.6 0-3 1.3-3 3V404c0 1.6 1.3 3 3 3h15.5c1.6 0 3-1.3 3-3v-15.5c0-1.6-1.3-2.9-3-2.9z" fill="#f9f9f9"/><path d="M-292 400.9v-12.4c0-1.6 1.3-3 3-3h15.5c1.6 0 3 1.3 3 3V404c0 1.6-1.3 3-3 3H-289c-1.6 0-3-1.3-3-3" fill="none" stroke="#004542" stroke-linecap="round" stroke-linejoin="round"/><path d="M-283 399.9v-7.8c2.3 1.3 4.5 2.6 6.8 3.9-2.3 1.3-4.5 2.6-6.8 3.9h0z" fill="#fff" stroke="#004542" stroke-linecap="round" stroke-linejoin="round"/></svg>