<svg xmlns="http://www.w3.org/2000/svg" viewBox="-293 385 24 23"><path d="M-273.5 385.6H-289c-1.6 0-3 1.3-3 3V404c0 1.6 1.3 3 3 3h15.5c1.6 0 3-1.3 3-3v-15.5c0-1.6-1.3-2.9-3-2.9z" fill="#f9f9f9"/><path d="M-283.6 395.2h-1.8v-2.6h1.8v-2c0-.3.1-.6.1-.9.2-.9.8-1.4 1.6-1.8.4-.2.9-.3 1.4-.4 1.1-.1 2.1 0 3.1.3.1 0 .2.1.3.1-.1.8-.3 1.5-.4 2.3-.3 0-.6-.1-.9-.1h-.8c-.6 0-1 .5-1.1 1.2v1.2c.3.1.5 0 .8 0h1.6v2.6h-2.4v9.8h-3.3v-9.7h0z" fill="#fff" stroke="#004542" stroke-linecap="round" stroke-linejoin="round"/><path d="M-292 400.9v-12.4c0-1.6 1.3-3 3-3h15.5c1.6 0 3 1.3 3 3V404c0 1.6-1.3 3-3 3H-289c-1.6 0-3-1.3-3-3" fill="none" stroke="#004542" stroke-linecap="round" stroke-linejoin="round"/></svg>