<svg width="41" height="37" fill="none" xmlns="http://www.w3.org/2000/svg"><path d="M20.493 23.556a5.288 5.288 0 005.287-5.29 5.288 5.288 0 10-10.574 0 5.288 5.288 0 005.287 5.29z" fill="#F1EDE6" stroke="#00908F" stroke-width="1.3" stroke-linecap="round" stroke-linejoin="round"/><path d="M28.894 3.705H12.087L3.682 18.267l8.405 14.562h16.807l8.405-14.562-8.405-14.562z" stroke="#00908F" stroke-width="1.3" stroke-linecap="round" stroke-linejoin="round"/><path d="M12.06 6.41a2.704 2.704 0 100-5.409 2.704 2.704 0 000 5.409zm16.85 0a2.704 2.704 0 100-5.41 2.704 2.704 0 00.001 5.409zM12.06 35.534a2.704 2.704 0 100-5.409 2.704 2.704 0 000 5.409zm16.85 0a2.704 2.704 0 10-.001-5.409 2.704 2.704 0 00.001 5.409zm8.368-14.545a2.704 2.704 0 10-.001-5.409 2.704 2.704 0 000 5.409zm-33.574 0a2.704 2.704 0 10-.002-5.409 2.704 2.704 0 00.002 5.409z" fill="#fff" stroke="#00908F" stroke-width="1.3" stroke-linecap="round" stroke-linejoin="round"/></svg>