<svg width="22" height="20" fill="none" xmlns="http://www.w3.org/2000/svg"><path d="M5.893.535C2.643.535 0 3.208 0 6.428 0 7.55.51 8.524.982 9.227c.473.702.958 1.154.958 1.154l8.495 8.52.565.564.565-.564 8.495-8.52S22 8.67 22 6.428c0-3.22-2.643-5.893-5.893-5.893-2.698 0-4.435 1.623-5.107 2.308C10.328 2.158 8.59.535 5.893.535zm0 1.571c2.348 0 4.518 2.284 4.518 2.284l.589.663.59-.663s2.17-2.284 4.517-2.284c2.391 0 4.322 1.961 4.322 4.322 0 1.212-1.474 2.848-1.474 2.848L11 17.23 3.045 9.276s-.38-.365-.762-.933c-.38-.568-.712-1.308-.712-1.915 0-2.36 1.931-4.322 4.322-4.322z" fill="#796049" opacity=".3"/></svg>