<svg version="1.1" id="Layer_1" xmlns="http://www.w3.org/2000/svg" x="0" y="0" viewBox="0 0 72.8 57.8" xml:space="preserve"><style>.st1{fill:none;stroke:#004542;stroke-width:2;stroke-linecap:round;stroke-linejoin:round}</style><g id="Layer_2_1_"><g id="Layer_1-2"><path d="M3.5 1h65.8c1.4 0 2.5 1.1 2.5 2.5v36.3H1V3.5C1 2.1 2.1 1 3.5 1z" fill="#f2eee7"/><path class="st1" d="M3.5 1h65.8c1.4 0 2.5 1.1 2.5 2.5v41c0 1.4-1.1 2.5-2.5 2.5H3.5C2.1 47 1 45.9 1 44.5v-41C1 2.1 2.1 1 3.5 1z"/><path class="st1" d="M1 39.8V3.5C1 2.1 2.1 1 3.5 1h65.8c1.4 0 2.5 1.1 2.5 2.5v36.3H18.9M27 47h18.8v7.5c0 1.3-1 2.3-2.3 2.3H29.3c-1.3 0-2.3-1-2.3-2.3V47zm31.4 9.8h-44"/></g></g></svg>