<svg version="1.1" id="Layer_1" xmlns="http://www.w3.org/2000/svg" x="0" y="0" viewBox="0 0 70.7 66.9" xml:space="preserve"><style>.st1{fill:#fff;stroke:#004542;stroke-width:2;stroke-linecap:round;stroke-linejoin:round}</style><g id="Layer_2_1_"><g id="Layer_1-2"><path d="M56.1 65.9c3.1 0 5.6-2.5 5.6-5.6V40h3c2.8-.1 4.9-2.4 4.9-5.1 0-1.2-.5-2.4-1.4-3.3L39.3 2.7c-2.2-2.2-5.8-2.2-8 0L2.5 31.5c-1.9 2-1.8 5.2.2 7.1.8.9 2 1.4 3.3 1.4h3v20.3c0 3.1 2.5 5.6 5.6 5.6h41.5z" fill="#f2eee7"/><path class="st1" d="M41.3 65.9V53c0-3.3-2.7-6-6-6s-6 2.7-6 6v13"/><path d="M25.6 8.4l5.7-5.7c2.2-2.2 5.8-2.2 8 0l28.9 28.9c1.9 2 1.8 5.2-.2 7.1-.8.8-2 1.3-3.3 1.3h-3v20.3c0 3.1-2.5 5.6-5.6 5.6H41.3m-11.9 0H14.6c-3.1 0-5.6-2.5-5.6-5.6V40H6c-2.8-.1-4.9-2.4-4.9-5.1 0-1.2.5-2.4 1.4-3.3l12.2-12.3" fill="none" stroke="#004542" stroke-width="2" stroke-linecap="round" stroke-linejoin="round"/><circle class="st1" cx="35.4" cy="27.6" r="5.9"/></g></g></svg>