<svg xmlns="http://www.w3.org/2000/svg" viewBox="0 0 70.68 66.94"><defs><style>.cls-2{fill:#fff;stroke:#009190;stroke-linecap:round;stroke-linejoin:round;stroke-width:2px}</style></defs><g id="Layer_2" data-name="Layer 2"><g id="Layer_1-2" data-name="Layer 1"><path d="M56.13 65.94a5.63 5.63 0 005.64-5.64V40h2.95a5 5 0 003.5-8.45l-28.9-28.9a5.63 5.63 0 00-8 0L2.46 31.55A5 5 0 006 40h3v20.3a5.63 5.63 0 005.64 5.64h41.49z" fill="#f2eee7"/><path class="cls-2" d="M41.29 65.94V53a6 6 0 00-5.95-6 6 6 0 00-6 5.95v13"/><path d="M25.62 8.38l5.74-5.73a5.63 5.63 0 018 0l28.9 28.9A5 5 0 0164.72 40h-2.95v20.3a5.63 5.63 0 01-5.64 5.64H41.29m-11.9 0H14.56a5.63 5.63 0 01-5.64-5.64V40H6a5 5 0 01-3.5-8.45l12.22-12.26" fill="none" stroke="#009190" stroke-linecap="round" stroke-linejoin="round" stroke-width="2"/><circle class="cls-2" cx="35.38" cy="27.56" r="5.91"/></g></g></svg>