<svg xmlns="http://www.w3.org/2000/svg" viewBox="0 0 62.17 55.48"><defs><style>.cls-1{fill:none;stroke:#009190;stroke-linecap:round;stroke-linejoin:round;stroke-width:2px}</style></defs><g id="Layer_2" data-name="Layer 2"><g id="Layer_1-2" data-name="Layer 1"><path class="cls-1" d="M1 23.34h40.21a7.42 7.42 0 007.43-7.43 6.12 6.12 0 00-6.12-6.12 6.12 6.12 0 00-6.12 6.12M8 7.12A6.12 6.12 0 0114.16 1a6.12 6.12 0 016.12 6.12 7.42 7.42 0 01-7.43 7.43H1m0 17.58h50.79a9.39 9.39 0 019.38 9.39 7.73 7.73 0 01-7.73 7.73 7.73 7.73 0 01-7.73-7.73"/><path class="cls-1" d="M1 40.92h26a7.43 7.43 0 017.43 7.43 6.12 6.12 0 11-12.24 0"/></g></g></svg>