<svg width="69" height="50" fill="none" xmlns="http://www.w3.org/2000/svg"><path d="M54.43.003a7.956 7.956 0 00-1.097.052c-1.606.186-3.48.806-5.591 1.978-3.057 1.7-6.601 4.571-10.395 9.02l-3.069-3.068c-3.915-3.916-9.06-5.87-14.205-5.87s-10.285 1.954-14.2 5.87c-7.83 7.83-7.83 20.574 0 28.405l4.385 4.38c4.42 4.42 10.407 6.322 16.19 5.748.62 1.49 1.41 2.645 2.842 3.05l.052.013.058.011c1.526.308 2.837-.238 3.846-.713.626-.296.777-.43 1.085-.627.934.33 4.895 1.688 10.388 1.746 6.172.07 13.858-1.786 18.87-9.229 3.671-5.452 4.675-10.54 4.71-14.895.098-11.584-8.411-18.533-10.302-19.949.07-.423.122-.638.18-1.328.052-.58.081-1.177.035-1.763a3.527 3.527 0 00-.174-.917c-.105-.307-.366-.73-.87-1.044C56.407.3 55.48.032 54.43.003zm-.122 2.97c.545.017.818.15.945.22a9.16 9.16 0 01-.034 1.149 25.28 25.28 0 01-.261 1.949l-.169.945.79.546s9.843 6.833 9.75 18.068c-.035 3.939-.864 8.301-4.2 13.26-4.367 6.48-10.794 7.982-16.38 7.918-5.586-.058-10.07-1.763-10.07-1.763l-.748-.284-.65.464s-.551.388-1.3.742c-.725.342-1.56.516-1.92.47.087.012-.632-.505-1.13-1.903a11.286 11.286 0 01-.273-.928 16.441 16.441 0 01-.302-1.462 11.79 11.79 0 01-.087-.69c-.023-.185-.04-.388-.064-.586-.162-1.914-.087-4.228.383-6.85.023-.116.046-.238.064-.354.191-.992.44-2.024.748-3.092.04-.133.076-.26.11-.394.093-.296.203-.603.302-.91.128-.372.255-.749.394-1.138.018-.046.035-.098.059-.145.11-.301.226-.603.348-.904.208-.517.435-1.039.672-1.567.134-.307.267-.609.418-.916.296-.62.627-1.247.969-1.88.162-.295.313-.591.487-.887a43.81 43.81 0 011.143-1.874c.348-.556.678-1.107 1.067-1.67a65.79 65.79 0 011.7-2.35 86.508 86.508 0 011.53-1.966l.767-.94c3.706-4.39 7.088-7.105 9.814-8.62 1.845-1.02 3.394-1.502 4.496-1.623.243-.03.452-.04.632-.035zM20.073 5.067a17.06 17.06 0 0112.1 5.017l3.289 3.29a82.13 82.13 0 00-2.54 3.445l-.192.302c-.673.005-1.218.121-1.601.139-.569.029-.737.058-1.247-.453-.32-.325-.343-.446-.372-.638-.029-.191 0-.51.07-1.003.145-.998.15-2.872-1.328-4.357-1.23-1.223-2.692-1.647-3.811-1.6-1.12.052-1.897.319-2.175.319.087 0-.702-.407-1.787-.946-.54-.273-1.23-.54-2.065-.499-.835.035-1.711.453-2.396 1.137-1.108 1.108-1.328 2.72-.992 3.921.337 1.201.998 2.17 1.572 3.075.575.91 1.056 1.746 1.195 2.29.14.54.18.639-.29 1.109s-.557.429-1.09.284c-.54-.145-1.375-.627-2.274-1.207-.905-.58-1.88-1.247-3.092-1.583-1.206-.337-2.825-.093-3.938 1.02-.708.708-1.143 1.596-1.19 2.454-.052.859.227 1.572.51 2.123.285.557.598.992.79 1.311.133.232.174.389.185.406-.011.267-.266.998-.324 2.089-.058 1.12.377 2.587 1.63 3.84 1.479 1.479 3.358 1.473 4.35 1.334.499-.07.818-.105 1.01-.076.185.03.313.053.632.377.65.65.51.836.4 1.787-.052.476-.145 1.085-.04 1.827a4.04 4.04 0 001.142 2.24c1.044 1.049 2.378 1.403 3.463 1.46 1.09.065 2.03-.075 2.598-.075.575 0 1.01.238 1.665.633.33.203.743.481 1.247.678a21.27 21.27 0 00.377 2.994c-4.739.307-9.57-1.23-13.196-4.861l-4.385-4.386c-6.694-6.694-6.694-17.506 0-24.2a17.06 17.06 0 0112.1-5.017zm30.372 4.455c-.232.006-.464.07-.667.185-2.976 1.595-9.194 6.41-12.541 14.072a1.5 1.5 0 00.145 1.509 1.486 1.486 0 002.581-.313c2.964-6.816 8.997-11.462 11.218-12.657.615-.32.928-1.021.749-1.694a1.473 1.473 0 00-1.485-1.102zm-31.892 1.525c.081-.006.284.03.603.192.644.319 1.474 1.258 3.11 1.258 1.09 0 1.792-.295 2.302-.319.51-.023.836-.011 1.578.737.824.812.627.917.499 1.833-.07.458-.186 1.079-.07 1.85.11.766.51 1.613 1.213 2.31.94.939 2.088 1.223 3.016 1.264a46.571 46.571 0 00-2.894 5.852c-.343.841-.662 1.67-.929 2.483-.058.186-.104.354-.162.534-.174.545-.33 1.084-.47 1.612a31.2 31.2 0 00-.33 1.334 1.335 1.335 0 00-.041.163 32.887 32.887 0 00-.754 5.075c-.685-.417-1.636-.968-2.959-.968-.922 0-1.745.121-2.418.087-.679-.041-1.108-.163-1.543-.598-.255-.255-.273-.348-.302-.563-.029-.214 0-.574.058-1.078.11-1.004.14-2.825-1.253-4.223-.702-.696-1.549-1.097-2.314-1.213-.766-.11-1.387.012-1.85.076-.917.127-1.016.325-1.834-.493-.788-.79-.788-1.108-.76-1.595.024-.482.337-1.166.337-2.28 0-.847-.342-1.41-.615-1.874-.273-.464-.54-.846-.702-1.16-.162-.307-.191-.493-.191-.586.006-.092 0-.197.33-.527.447-.447.517-.407 1.05-.261.534.15 1.37.643 2.28 1.223.905.58 1.885 1.253 3.109 1.578 1.218.325 2.836.064 3.956-1.055 1.12-1.12 1.38-2.732 1.061-3.956-.313-1.23-.974-2.216-1.554-3.127-.58-.916-1.073-1.758-1.224-2.297-.15-.534-.197-.586.232-1.015.29-.29.36-.267.435-.273zm37.82 2.935a1.48 1.48 0 00-1.444 1.306 1.491 1.491 0 001.096 1.618c.035.023.058.035.127.093.215.168.534.464.853.812.644.69 1.328 1.636 1.572 2.21.203.504.661.864 1.2.934a1.47 1.47 0 001.387-.604c.32-.44.371-1.02.14-1.514-.5-1.142-1.317-2.186-2.124-3.05-.4-.43-.794-.807-1.177-1.109a4.39 4.39 0 00-.586-.411c-.215-.122-.412-.302-1.044-.285zm-5.91 4.438a1.505 1.505 0 00-1.376.928c-.226.563-.093 1.2.343 1.624 0 0 1.24 1.23 1.055 3.272a1.484 1.484 0 001.346 1.612 1.484 1.484 0 001.613-1.346c.307-3.399-1.915-5.638-1.915-5.638a1.496 1.496 0 00-1.067-.452zm7.435 5.94c-.55 0-1.055.301-1.316.788a1.473 1.473 0 00.08 1.526s.97 1.456.378 3.417a1.482 1.482 0 00.986 1.856 1.49 1.49 0 001.856-.992c.986-3.272-.736-5.905-.736-5.905a1.48 1.48 0 00-1.248-.69zm-11.154 3.637a1.469 1.469 0 00-1.079.527 1.5 1.5 0 00-.33 1.16s.231 1.735-1.166 3.231a1.495 1.495 0 00-.366 1.462 1.488 1.488 0 002.535.563c2.326-2.494 1.943-5.627 1.943-5.627a1.481 1.481 0 00-1.537-1.316zm5.644 6.206a1.491 1.491 0 00-1.468 1.786c0 .053-.006.152-.029.285-.046.302-.15.737-.295 1.183-.285.9-.813 1.868-1.132 2.17a1.485 1.485 0 102.03 2.17c1.045-.981 1.56-2.275 1.932-3.44.192-.587.32-1.132.395-1.613.04-.238.07-.458.075-.69.006-.227.058-.412-.128-.888a1.495 1.495 0 00-1.38-.963z" fill="#796049"/></svg>