<svg width="37" height="17" fill="none" xmlns="http://www.w3.org/2000/svg"><g clip-path="url(#clip0_725_13186)"><path d="M6.577 2.434c-.423.506-1.097.907-1.77.848-.09-.682.246-1.413.633-1.865C5.862.9 6.6.53 7.2.5c.07.712-.206 1.412-.621 1.934h-.001zm.615.982c-.978-.06-1.817.564-2.28.564-.474 0-1.184-.534-1.957-.516-1.003.012-1.94.587-2.45 1.511-1.06 1.84-.275 4.563.744 6.062.498.74 1.095 1.552 1.881 1.53.744-.03 1.043-.494 1.94-.494.908 0 1.166.494 1.958.476.813-.013 1.329-.74 1.827-1.481.568-.842.802-1.666.815-1.706-.013-.018-1.577-.624-1.588-2.447-.012-1.53 1.23-2.258 1.283-2.3-.698-1.058-1.8-1.17-2.174-1.198h.001zm5.644-2.07v11.126h1.704V8.668h2.357c2.15 0 3.663-1.499 3.663-3.663 0-2.17-1.482-3.658-3.604-3.658l-4.12-.001zm1.704 1.458h1.964c1.476 0 2.32.8 2.32 2.205 0 1.406-.844 2.212-2.332 2.212H14.54V2.804zm9.124 9.75c1.072 0 2.062-.546 2.515-1.418h.036v1.336h1.575v-5.54c0-1.599-1.265-2.639-3.217-2.639-1.805 0-3.141 1.053-3.187 2.493h1.529c.13-.687.75-1.134 1.612-1.134 1.043 0 1.624.493 1.624 1.4v.61l-2.121.13c-1.982.123-3.048.94-3.048 2.37 0 1.44 1.102 2.393 2.683 2.393h-.001zm.464-1.317c-.91 0-1.489-.442-1.489-1.117 0-.7.557-1.112 1.617-1.177l1.893-.118v.63c0 1.041-.873 1.782-2.028 1.782h.007zm5.766 4.263c1.657 0 2.438-.647 3.118-2.593L36 4.404h-1.728l-2.004 6.568h-.036l-2.004-6.568h-1.781l2.884 8.097-.153.494c-.265.83-.686 1.151-1.436 1.151-.135 0-.393-.017-.498-.028v1.336c.099.028.522.04.644.04l.006.006z" fill="#fff"/></g><defs><clipPath id="clip0_725_13186"><path fill="#fff" transform="translate(0 .5)" d="M0 0h37v16H0z"/></clipPath></defs></svg>