<svg xmlns="http://www.w3.org/2000/svg" viewBox="0 0 51.5 59.16"><defs><style>.cls-2{fill:none;stroke:#009190;stroke-linecap:round;stroke-linejoin:round;stroke-width:2px}</style></defs><g id="Layer_2" data-name="Layer 2"><g id="Layer_1-2" data-name="Layer 1"><path d="M25.75 1C15.87 1.05 6 6.09 2.59 16.15a28.21 28.21 0 00-1.22 12.5 33.48 33.48 0 013.28-5.85 9.32 9.32 0 015.43-3.67A12.83 12.83 0 0013.49 18c2.45-.5 5-2.14 7-3.13s2.88-7.46 5.25-7.54zm0 0c9.87 0 19.71 5.08 23.15 15.14a28.21 28.21 0 011.22 12.5 33.48 33.48 0 00-3.28-5.85 9.3 9.3 0 00-5.42-3.67A12.83 12.83 0 0138 18c-2.45-.5-5-2.14-7-3.13s-2.88-7.49-5.25-7.57z" fill="#f2eee7"/><path class="cls-2" d="M5.23 21.34a12.61 12.61 0 00-4 7.32v29.5h15.21s-8.38-3.86-8.29-16.6"/><path class="cls-2" d="M5.23 21.34a14.55 14.55 0 00-3.9 8l-.08 28.82h15.19s-8.38-3.86-8.29-16.6M25.72 1s.53 14.31-11.32 16.88M49 16.14a28.22 28.22 0 011.21 13.16"/><path class="cls-2" d="M25.73 1s-.57 15.58 13 17.14a13.33 13.33 0 017.55 3.2 12.61 12.61 0 014 7.32"/><path class="cls-2" d="M46.23 21.34a12.61 12.61 0 014 7.32v29.5H35s8.38-3.86 8.29-16.6"/><path class="cls-2" d="M25.73 1c9.9 0 19.8 5.05 23.27 15.14a25.54 25.54 0 011.22 12.52"/><path class="cls-2" d="M25.73 1s-.57 15.58 13 17.14a13.33 13.33 0 017.55 3.2 12.61 12.61 0 014 7.32"/><path class="cls-2" d="M46.23 21.34a12.61 12.61 0 014 7.32v29.5H35s8.38-3.86 8.29-16.6M2.51 16.15A28.16 28.16 0 001.28 29.3"/><path class="cls-2" d="M25.76 1C15.86 1 6 6.05 2.51 16.15a25.48 25.48 0 00-1.23 12.51"/></g></g></svg>