<svg width="17" height="14" fill="none" xmlns="http://www.w3.org/2000/svg"><path d="M8.265 12.806l-.152-.037-5.75-1.394c-.428-.111-.379-.607-.111-.947.805-1.019 2.17-3.288.337-9.121-.102-.328 11.684-.328 11.582 0-1.836 5.84-.484 8.107.31 9.124.264.34.078.83-.348.944l-5.72 1.394-.15.037h.002z" fill="#F3EFE8"/><path d="M3.23 7.958c-.206 1.038-.585 2.136-1.257 3.109A7.44 7.44 0 001 13.04m12.421-5.082c.205 1.038.585 2.136 1.257 3.109.444.642.758 1.305.973 1.973" stroke="#004542" stroke-width=".8" stroke-linecap="round" stroke-linejoin="round"/><path d="M1.973 11.066s3.08 1.562 6.187 1.562 6.185-1.562 6.185-1.562M8.16 7.958V1M2.664 1c.179.447.39 1.12.39 1.801M14.1 1c-.178.447-.39 1.12-.39 1.801" stroke="#004542" stroke-width=".8" stroke-linecap="round" stroke-linejoin="round"/><path d="M3.23 7.958c-.206 1.038-.585 2.136-1.257 3.109A7.44 7.44 0 001 13.04m12.421-5.082c.205 1.038.585 2.136 1.257 3.109.444.642.758 1.305.973 1.973" stroke="#004542" stroke-width=".8" stroke-linecap="round" stroke-linejoin="round"/><path d="M1.973 11.066s3.08 1.562 6.187 1.562 6.185-1.562 6.185-1.562M8.16 7.958V1M2.664 1c.179.447.39 1.12.39 1.801M14.1 1c-.178.447-.39 1.12-.39 1.801" stroke="#004542" stroke-width=".8" stroke-linecap="round" stroke-linejoin="round"/></svg>