<svg id="Layer_1" data-name="Layer 1" xmlns="http://www.w3.org/2000/svg" viewBox="0 0 15.45 12.84"><defs><style>.cls-2,.cls-3{fill:none;stroke-linecap:round;stroke-linejoin:round;stroke-width:.8px}.cls-2{stroke:#004542}.cls-3{stroke:#009190}</style></defs><path d="M8.26 12.81h-.15l-5.75-1.43c-.42-.12-.38-.61-.11-1 .81-1 2.17-3.29.34-9.12-.1-.26 11.68-.26 11.58.05-1.84 5.84-.48 8.1.31 9.12a.6.6 0 01-.35 1l-5.72 1.34h-.15z" transform="translate(-.6 -.6)" fill="#f3efe8"/><path class="cls-2" d="M3.23 8A8.27 8.27 0 012 11.07a7.36 7.36 0 00-1 2M13.42 8a8.44 8.44 0 001.26 3.11 7.36 7.36 0 011 2" transform="translate(-.6 -.6)"/><path class="cls-2" d="M2 11.07a15.81 15.81 0 006.19 1.56 15.81 15.81 0 006.19-1.56M8.16 8V1m-5.5 0a5 5 0 01.39 1.8M14.1 1a5 5 0 00-.39 1.8" transform="translate(-.6 -.6)"/><path class="cls-3" d="M3.23 8A8.27 8.27 0 012 11.07a7.36 7.36 0 00-1 2M13.42 8a8.44 8.44 0 001.26 3.11 7.36 7.36 0 011 2" transform="translate(-.6 -.6)"/><path class="cls-3" d="M2 11.07a15.81 15.81 0 006.19 1.56 15.81 15.81 0 006.19-1.56M8.16 8V1m-5.5 0a5 5 0 01.39 1.8M14.1 1a5 5 0 00-.39 1.8" transform="translate(-.6 -.6)"/></svg>