<svg version="1.1" id="Layer_1" xmlns="http://www.w3.org/2000/svg" x="0" y="0" viewBox="0 0 60 50" xml:space="preserve"><style>.st1,.st2{fill:none;stroke:#009291;stroke-width:1.5;stroke-linecap:round;stroke-linejoin:round}.st2{stroke:#004542}</style><path d="M29.8 47.7l-.6-.1L6.4 42c-1.7-.4-1.5-2.4-.4-3.7 3.2-4 8.6-13 1.3-36.1C6.9.9 53.6.9 53.2 2.2c-7.3 23.1-1.9 32.1 1.2 36.1 1.1 1.3.3 3.3-1.4 3.7l-22.7 5.5c.1 0-.2.1-.5.2z" fill="#f3efe8"/><path class="st1" d="M9.8 28.5C9 32.6 7.5 37 4.9 40.8c-1.8 2.5-3 5.2-3.9 7.8m49.2-20.1c.8 4.1 2.3 8.4 5 12.3 1.8 2.5 3 5.2 3.9 7.8"/><path class="st2" d="M4.9 40.8S17.1 47 29.4 47s24.5-6.2 24.5-6.2"/><path class="st1" d="M29.4 28.5V1M7.6 1c.7 1.8 1.5 4.4 1.5 7.1M52.9 1c-.7 1.8-1.5 4.4-1.5 7.1"/><path class="st2" d="M9.8 28.5C9 32.6 7.5 37 4.9 40.8c-1.8 2.5-3 5.2-3.9 7.8m49.2-20.1c.8 4.1 2.3 8.4 5 12.3 1.8 2.5 3 5.2 3.9 7.8"/><path class="st2" d="M4.9 40.8S17.1 47 29.4 47s24.5-6.2 24.5-6.2M29.4 28.5V1M7.6 1c.7 1.8 1.5 4.4 1.5 7.1M52.9 1c-.7 1.8-1.5 4.4-1.5 7.1"/></svg>