<svg width="19" height="20" fill="none" xmlns="http://www.w3.org/2000/svg"><path d="M9.434.002a.499.499 0 00-.056.015.472.472 0 00-.35.476v2.853a.484.484 0 00.222.418.43.43 0 00.452 0 .485.485 0 00.222-.418V.493a.488.488 0 00-.14-.363.432.432 0 00-.35-.128zM3.05 2.796a.456.456 0 00-.35.335.497.497 0 00.126.483L4.73 5.635a.436.436 0 00.45.166.465.465 0 00.336-.357.495.495 0 00-.156-.477L3.456 2.945a.436.436 0 00-.364-.149H3.05zm12.712 0a.443.443 0 00-.266.15l-1.904 2.02a.494.494 0 00-.155.478c.038.177.17.316.336.357a.436.436 0 00.45-.166l1.903-2.021a.499.499 0 00.098-.548.443.443 0 00-.462-.27zM9.434 5.25a.38.38 0 00-.042.015.443.443 0 00-.084.015l-.014.015c-2.377.107-4.298 2.162-4.298 4.711 0 2.618 2.014 4.757 4.48 4.757 2.466 0 4.48-2.139 4.48-4.757 0-2.54-1.905-4.587-4.27-4.711-.016 0-.026-.015-.042-.015a.412.412 0 00-.14-.03h-.07zm.014.951h.07c1.96.024 3.542 1.719 3.542 3.805 0 2.103-1.603 3.805-3.584 3.805-1.98 0-3.584-1.702-3.584-3.805 0-2.092 1.589-3.788 3.556-3.805zM.39 9.53a.477.477 0 00-.386.542c.035.262.265.446.512.409h2.688a.446.446 0 00.393-.236.506.506 0 000-.48.446.446 0 00-.393-.235H.39zm15.232 0a.477.477 0 00-.385.542c.035.262.265.446.511.409h2.689a.446.446 0 00.393-.236.506.506 0 000-.48.446.446 0 00-.393-.235h-2.815zM4.996 14.227a.442.442 0 00-.266.148l-1.904 2.021a.495.495 0 00-.156.478c.038.177.17.316.336.357a.436.436 0 00.45-.166l1.904-2.021a.496.496 0 00.101-.526.449.449 0 00-.423-.292h-.042zm8.82 0a.456.456 0 00-.35.334.498.498 0 00.126.483l1.904 2.021a.436.436 0 00.45.166.465.465 0 00.336-.357.495.495 0 00-.155-.477l-1.905-2.022a.436.436 0 00-.322-.149h-.084zm-4.382 1.947a.49.49 0 00-.056.015.472.472 0 00-.35.475v2.854c-.002.17.082.33.222.418a.43.43 0 00.452 0 .485.485 0 00.222-.418v-2.854a.488.488 0 00-.14-.362.432.432 0 00-.35-.128z" fill="#019392"/></svg>