<svg width="19" height="20" fill="none" xmlns="http://www.w3.org/2000/svg"><path d="M9.806 0a.42.42 0 00-.383.374.44.44 0 00.272.472c2.712 1.007 4.64 3.748 4.64 6.98 0 4.088-3.112 7.391-6.963 7.391-3.044 0-5.626-2.046-6.575-4.925a.41.41 0 00-.464-.285c-.2.04-.34.23-.333.447C.211 15.774 4.358 20 9.42 20c5.198 0 9.42-4.482 9.42-10 0-5.374-3.98-9.776-8.993-10h-.041zm2.417 1.393C15.593 2.626 18.02 5.992 18.02 10c0 5.048-3.845 9.13-8.6 9.13-3.776 0-6.946-2.576-8.108-6.154 1.429 1.886 3.603 3.111 6.06 3.111 4.293 0 7.782-3.704 7.782-8.26 0-2.61-1.154-4.918-2.931-6.434z" fill="#019392"/></svg>