<svg version="1.1" id="Layer_1" xmlns="http://www.w3.org/2000/svg" x="0" y="0" viewBox="-285 376 41 42" xml:space="preserve"><style>.st1{fill:none;stroke:#004542;stroke-width:1.5;stroke-linecap:round;stroke-linejoin:round}</style><path d="M-262.4 385.9l-12.7 12.6 8.3 8.3 12.7-12.6-8.3-8.3z" fill="#f1ede6"/><path class="st1" d="M-250.1 398.2l4.9 4.9-12.7 12.7-26.1-26.1 12.7-12.7 13 13"/><path d="M-264.6 399.3c1.6 0 2.9-1.3 2.9-2.9 0-1.6-1.3-2.9-2.9-2.9-1.6 0-2.9 1.3-2.9 2.9 0 1.6 1.3 2.9 2.9 2.9z" fill="#fff" stroke="#004542" stroke-width="1.5" stroke-linecap="round" stroke-linejoin="round"/><path d="M-269 379.4a3.32 3.32 0 01-4.7 0l2.4-2.4 2.3 2.4zm21.3 21.2a3.32 3.32 0 000 4.7l2.5-2.3-2.5-2.4zm-33.9-13.3c1.3 1.3 1.3 3.4 0 4.7l-2.4-2.4 2.4-2.3zm26 26a3.32 3.32 0 00-4.7 0l2.5 2.5 2.2-2.5z" fill="#f1ede6" stroke="#004542" stroke-width="1.5" stroke-linecap="round" stroke-linejoin="round"/><path class="st1" d="M-254.1 394.2l-12.7 12.6m4.4-20.9l-12.7 12.6m9.9 18.5H-284m12.8-5.8H-284m6.7-6.3h-6.7"/></svg>