<svg width="41" height="42" fill="none" xmlns="http://www.w3.org/2000/svg"><path d="M22.573 9.902L9.867 22.536l8.336 8.343 12.712-12.634-8.342-8.343z" fill="#F1EDE6"/><path d="M34.888 22.212l4.894 4.894-12.676 12.676L1 13.67 13.67 1l12.954 12.954" stroke="#00908F" stroke-width="1.5" stroke-linecap="round" stroke-linejoin="round"/><path d="M20.391 23.272a2.881 2.881 0 100-5.762 2.881 2.881 0 000 5.762z" fill="#fff" stroke="#00908F" stroke-width="1.5" stroke-linecap="round" stroke-linejoin="round"/><path d="M16.033 3.363a3.34 3.34 0 01-4.72 0L13.676 1l2.363 2.363h-.006zm21.29 21.285a3.34 3.34 0 000 4.72l2.459-2.261-2.46-2.46zM3.363 11.314a3.34 3.34 0 010 4.72L1 13.67l2.363-2.363v.006zm26.003 26.009a3.34 3.34 0 00-4.72 0l2.46 2.46 2.26-2.46z" fill="#F1EDE6" stroke="#00908F" stroke-width="1.5" stroke-linecap="round" stroke-linejoin="round"/><path d="M30.916 18.246L18.203 30.88m4.37-20.978L9.867 22.536M19.788 41H1m12.76-5.804H1m6.733-6.329H1" stroke="#00908F" stroke-width="1.5" stroke-linecap="round" stroke-linejoin="round"/></svg>