<svg xmlns="http://www.w3.org/2000/svg" viewBox="0 0 57.62 69.41"><g data-name="Layer 2"><g data-name="Layer 1"><rect y=".43" width="57.62" height="68.54" rx="2.49" fill="#f2eee7"/><path d="M16.28 1s0 12.06-6.7 12.06a3.43 3.43 0 01-3.46-3.71 3.41 3.41 0 013.46-3.56c6.7 0 6.7 12.06 6.7 12.06s0 12.06-6.7 12.06a3.43 3.43 0 01-3.46-3.7 3.41 3.41 0 013.46-3.57c6.7 0 6.7 12.06 6.7 12.06s0 12.06-6.7 12.06a3.64 3.64 0 010-7.27c6.7 0 6.7 12.06 6.7 12.06s0 12.06-6.7 12.06a3.63 3.63 0 010-7.26c6.7 0 6.7 12.06 6.7 12.06M33.89 1s0 12.06-6.71 12.06a3.42 3.42 0 01-3.45-3.71 3.41 3.41 0 013.45-3.56c6.71 0 6.71 12.06 6.71 12.06s0 12.06-6.71 12.06a3.42 3.42 0 01-3.45-3.7 3.41 3.41 0 013.45-3.57c6.71 0 6.71 12.06 6.71 12.06s0 12.06-6.71 12.06a3.42 3.42 0 01-3.45-3.7 3.41 3.41 0 013.45-3.57c6.71 0 6.71 12.06 6.71 12.06s0 12.06-6.71 12.06a3.63 3.63 0 010-7.26c6.71 0 6.71 12.06 6.71 12.06M51.49 1s0 12.06-6.71 12.06a3.42 3.42 0 01-3.45-3.71 3.41 3.41 0 013.45-3.56c6.71 0 6.71 12.06 6.71 12.06s0 12.06-6.71 12.06a3.42 3.42 0 01-3.45-3.7 3.41 3.41 0 013.45-3.57c6.71 0 6.71 12.06 6.71 12.06s0 12.06-6.71 12.06a3.42 3.42 0 01-3.45-3.7 3.41 3.41 0 013.45-3.57c6.71 0 6.71 12.06 6.71 12.06s0 12.06-6.71 12.06a3.63 3.63 0 010-7.26c6.71 0 6.71 12.06 6.71 12.06" fill="none" stroke="#009190" stroke-linecap="round" stroke-linejoin="round" stroke-width="2"/></g></g></svg>