<svg xmlns="http://www.w3.org/2000/svg" viewBox="0 0 51.5 59.16"><defs><style>.cls-2{fill:none;stroke:#009190;stroke-linecap:round;stroke-linejoin:round;stroke-width:2px}</style></defs><g id="Layer_2" data-name="Layer 2"><g id="Layer_1-2" data-name="Layer 1"><path d="M25.68 7.29c2.37.08 3.06 6.48 5.24 7.54s4.57 2.63 7 3.13a15.08 15.08 0 016.17 10.33 21.14 21.14 0 010 4.9l-1 8.37c.09 12.74-8.29 16.6-8.29 16.6h15.25V28.64a28.21 28.21 0 00-1.22-12.5C45.39 6.08 35.55 1 25.68 1m0 6.29c-2.37.08-3.06 6.48-5.25 7.54s-4.56 2.63-7 3.13a15 15 0 00-6.18 10.33 21.15 21.15 0 000 4.9l1 8.37c-.09 12.74 8.29 16.6 8.29 16.6H1.31V28.64a28.21 28.21 0 011.22-12.5C6 6.08 15.8 1 25.68 1" fill="#f2eee7"/><path class="cls-2" d="M5.23 21.34a12.61 12.61 0 00-4 7.32v29.5h15.21s-8.38-3.86-8.29-16.6"/><path class="cls-2" d="M5.23 21.34a14.55 14.55 0 00-3.9 8l-.08 28.82h15.19s-8.38-3.86-8.29-16.6M25.72 1s.53 14.31-11.32 16.88M49 16.14a28.22 28.22 0 011.21 13.16"/><path class="cls-2" d="M25.73 1s-.57 15.58 13 17.14a13.33 13.33 0 017.55 3.2 12.61 12.61 0 014 7.32"/><path class="cls-2" d="M46.23 21.34a12.61 12.61 0 014 7.32v29.5H35s8.38-3.86 8.29-16.6"/><path class="cls-2" d="M25.73 1c9.9 0 19.8 5.05 23.27 15.14a25.54 25.54 0 011.22 12.52"/><path class="cls-2" d="M25.73 1s-.57 15.58 13 17.14a13.33 13.33 0 017.55 3.2 12.61 12.61 0 014 7.32"/><path class="cls-2" d="M46.23 21.34a12.61 12.61 0 014 7.32v29.5H35s8.38-3.86 8.29-16.6M2.51 16.15A28.16 28.16 0 001.28 29.3"/><path class="cls-2" d="M25.76 1C15.86 1 6 6.05 2.51 16.15a25.48 25.48 0 00-1.23 12.51"/></g></g></svg>