<svg width="20" height="20" fill="none" xmlns="http://www.w3.org/2000/svg"><g clip-path="url(#clip0_1190_7214)"><path d="M18.896 20c.61 0 1.104-.494 1.104-1.104V1.104C20 .494 19.506 0 18.896 0H1.104C.494 0 0 .494 0 1.104v17.792C0 19.506.494 20 1.104 20h17.792z" fill="#395185"/><path d="M13.804 20v-7.697h2.58l.386-3h-2.966V7.387c0-.868.241-1.46 1.485-1.46h1.586V3.242a21.17 21.17 0 00-2.311-.118c-2.287 0-3.853 1.398-3.853 3.965v2.213H8.125v3h2.586V20h3.093z" fill="#fff"/></g><defs><clipPath id="clip0_1190_7214"><path fill="#fff" d="M0 0h20v20H0z"/></clipPath></defs></svg>