<svg width="30" height="30" fill="none" xmlns="http://www.w3.org/2000/svg"><path d="M7.103 1.793c-.461-.037-.975.096-1.448.43-.417.29-1.317 1.005-2.159 1.813-.42.403-.82.823-1.13 1.235-.311.413-.583.79-.566 1.339.016.492.065 1.947 1.113 4.179 1.047 2.229 3.08 5.287 7.043 9.253 3.965 3.965 7.024 5.997 9.253 7.045s3.687 1.097 4.179 1.113c.546.017.923-.255 1.336-.567.412-.312.832-.71 1.235-1.13.806-.841 1.521-1.741 1.812-2.158.663-.945.553-2.06-.186-2.578-.464-.326-4.732-3.167-5.374-3.56-.651-.399-1.401-.219-2.072.136-.527.278-1.954 1.096-2.362 1.33-.307-.194-1.472-.97-3.978-3.475-2.507-2.505-3.28-3.67-3.475-3.977.234-.408 1.05-1.829 1.331-2.365.352-.668.548-1.425.129-2.082-.176-.278-.975-1.495-1.781-2.716-.809-1.221-1.575-2.379-1.775-2.655V2.4c-.26-.358-.665-.57-1.125-.607zM15 3v1.2c5.956 0 10.8 4.845 10.8 10.8H27c0-6.616-5.383-12-12-12zm-8.006.019a.663.663 0 01.263.087c.096.133.937 1.394 1.744 2.613a345.471 345.471 0 011.771 2.7c.024.035.057.434-.178.877v.002c-.265.504-1.5 2.662-1.5 2.662l-.17.303.175.3s.921 1.554 3.85 4.483c2.933 2.93 4.487 3.854 4.487 3.854l.3.175.302-.17s2.154-1.234 2.663-1.5c.442-.233.84-.202.888-.174.415.255 5.025 3.318 5.308 3.518.01.007.26.386-.105.907h-.002a20.76 20.76 0 01-1.695 2.015c-.377.392-.764.757-1.092 1.003-.328.247-.621.324-.574.326-.511-.016-1.639-.028-3.708-1-2.07-.97-5.023-2.914-8.916-6.81-3.89-3.89-5.833-6.843-6.806-8.915-.97-2.07-.982-3.197-.998-3.705.002.047.08-.249.325-.577a9.87 9.87 0 011-1.093c.785-.753 1.7-1.475 2.016-1.695v.003c.26-.183.487-.207.651-.188zM15 6.326v1.2c4.123 0 7.475 3.354 7.475 7.474h1.2c0-4.783-3.89-8.674-8.675-8.674zM15 9.6v1.2c2.316 0 4.2 1.885 4.2 4.2h1.2c0-2.979-2.423-5.4-5.4-5.4z" fill="#796049"/></svg>