<svg width="30" height="30" fill="none" xmlns="http://www.w3.org/2000/svg"><path d="M15 1.2C7.386 1.2 1.2 7.384 1.2 15c0 2.447.671 4.73 1.79 6.725l-1.768 6.313a.6.6 0 00.722.744l6.583-1.632C10.46 28.183 12.656 28.8 15 28.8c7.614 0 13.8-6.187 13.8-13.8 0-7.615-6.186-13.8-13.8-13.8zm0 1.2c6.966 0 12.6 5.634 12.6 12.6 0 6.965-5.634 12.6-12.6 12.6-2.233 0-4.325-.583-6.143-1.6a.6.6 0 00-.437-.059l-5.764 1.428L4.2 21.855a.6.6 0 00-.06-.468A12.528 12.528 0 012.402 15C2.4 8.033 8.033 2.4 15 2.4zM9.986 7.8c-.385 0-.934.142-1.385.629-.271.292-1.4 1.392-1.4 3.326 0 2.017 1.398 3.758 1.567 3.981h.001v.002c-.016-.022.215.313.523.713.308.4.739.927 1.28 1.497 1.082 1.139 2.603 2.456 4.492 3.261.87.37 1.555.594 2.075.757.963.302 1.84.256 2.5.16.493-.073 1.035-.31 1.572-.65.537-.34 1.063-.762 1.295-1.404.166-.46.25-.885.281-1.235a2.69 2.69 0 00.006-.472c-.011-.143 0-.253-.132-.471-.28-.459-.596-.47-.926-.634-.183-.091-.706-.346-1.23-.596-.522-.249-.976-.47-1.254-.57-.177-.063-.392-.154-.702-.119-.31.036-.617.26-.796.524-.17.251-.85 1.055-1.058 1.292-.003-.002.015.006-.067-.034-.257-.128-.571-.236-1.036-.48a8.57 8.57 0 01-1.683-1.17c-.947-.834-1.61-1.881-1.82-2.233.014-.017-.001.004.028-.026h.002c.213-.211.403-.463.563-.648.227-.261.328-.492.436-.707.217-.43.096-.902-.03-1.151v-.001c.01.017-.067-.152-.15-.346l-.3-.717c-.224-.54-.475-1.144-.624-1.498-.175-.417-.413-.718-.724-.863-.31-.145-.585-.103-.596-.104h-.002c-.221-.01-.465-.013-.706-.013zm0 1.2c.231 0 .46.002.65.01.197.01.184.012.147-.006-.039-.018.013-.024.125.241.146.347.398.954.623 1.495l.303.723c.084.199.13.31.183.416v.002c.053.102.048.037.03.072-.127.252-.144.314-.272.461-.195.225-.394.475-.499.579-.092.09-.258.231-.362.507-.104.277-.056.656.111.94.222.376.954 1.567 2.09 2.568a9.812 9.812 0 001.917 1.33c.533.281.967.445 1.064.493.23.114.483.203.776.168.293-.035.546-.213.706-.395l.002-.001c.214-.243.85-.97 1.155-1.417.013.005.009.001.11.037v.002h.001c.047.016.627.276 1.144.522.517.247 1.042.503 1.213.587.246.122.363.201.393.202.002.053.004.11-.004.197a3.818 3.818 0 01-.214.931c-.064.175-.393.536-.808.798-.415.263-.92.449-1.107.476-.563.083-1.23.113-1.964-.117a20.066 20.066 0 01-1.964-.716c-1.666-.71-3.081-1.919-4.093-2.983a17.819 17.819 0 01-1.198-1.403c-.288-.374-.414-.57-.518-.707l-.002-.001C9.54 14.765 8.4 13.18 8.4 11.756c0-1.51.701-2.102 1.08-2.51a.711.711 0 01.506-.247z" fill="#796049"/></svg>