<svg xmlns="http://www.w3.org/2000/svg" viewBox="0 0 54.23 57"><g data-name="Layer 2"><g data-name="Layer 1" stroke="#009291" stroke-linecap="round" stroke-linejoin="round" stroke-width="2"><path d="M33.84 40c-3.08.15-5.73-1.14-8.28-2.6a27.49 27.49 0 01-10.06-9.48 21.54 21.54 0 01-2.23-5.36c-.68-2.44.26-4.63 1.83-6.47 1.78-2.09 4.19-1.67 5.36.82.54 1.09.93 2.23 1.54 3.26.88 1.48.49 2.68-.5 3.91-1.12 1.41-1.09 1.45-.12 2.87a17.78 17.78 0 007.07 6.14c2 1 2.44.81 3.78-.94a7.54 7.54 0 00.53-.73 1.94 1.94 0 012.7-.85c1.6.66 3.18 1.35 4.73 2.12 1 .52 1.25 1.76.69 3.17A6.4 6.4 0 0135 40z" fill="#fff"/><path d="M27.11 1a26.11 26.11 0 00-20 42.88L4.08 56l11.68-5.36A26.12 26.12 0 1027.11 1z" fill="none"/></g></g></svg>