<svg width="20" height="20" fill="none" xmlns="http://www.w3.org/2000/svg"><g clip-path="url(#clip0_1190_3815)"><path d="M20 10.164c0-.82-.067-1.418-.213-2.039h-9.464v3.701h5.555c-.112.92-.717 2.305-2.06 3.236l-.02.124 2.993 2.294.207.02C18.902 15.76 20 13.2 20 10.164z" fill="#4285F4"/><path d="M10.553 20c2.8 0 5.15-.9 6.866-2.453l-3.272-2.476c-.875.596-2.05 1.013-3.594 1.013a6.229 6.229 0 01-5.899-4.209l-.121.01-3.2 2.42-.043.113C2.995 17.727 6.498 20 10.553 20z" fill="#34A853"/><path d="M4.516 11.94a5.566 5.566 0 01-.349-1.916c0-.668.128-1.314.337-1.918L4.5 7.978 1.225 5.625l-.108.047A9.119 9.119 0 000 10.024c0 1.561.407 3.037 1.117 4.351l3.4-2.434z" fill="#FBBC05"/><path d="M10.514 3.916c1.938 0 3.246.822 3.992 1.508l2.913-2.79C15.63 1.001 13.301 0 10.514 0 6.475 0 2.988 2.273 1.29 5.582l3.338 2.543c.838-2.442 3.155-4.209 5.886-4.209z" fill="#EB4335"/></g><defs><clipPath id="clip0_1190_3815"><path fill="#fff" d="M0 0h20v20H0z"/></clipPath></defs></svg>