<svg xmlns="http://www.w3.org/2000/svg" viewBox="0 0 63.61 63.6"><g data-name="Layer 2"><g data-name="Layer 1"><path d="M17.47 22.08l4.84-4.84a5.72 5.72 0 000-8.08l-6.85-6.85a4.48 4.48 0 00-5.12-.86C6.31 3.39 0 8.31 1.15 19.77a29.21 29.21 0 008.51 17.62l16.55 16.55a29.26 29.26 0 0017.62 8.51c11.54 1.21 16.44-5.23 18.36-9.26a4.46 4.46 0 00-.89-5l-6.86-6.85a5.7 5.7 0 00-8.07 0l-4.84 4.84a4.2 4.2 0 01-5.94 0L17.47 28a4.19 4.19 0 010-5.92z" fill="#f2eee7"/><path d="M17.47 28a4.19 4.19 0 010-5.93l4.84-4.84a5.72 5.72 0 000-8.08l-6.85-6.84a4.48 4.48 0 00-5.12-.86C6.31 3.39 0 8.31 1.15 19.77a29.21 29.21 0 008.51 17.62l16.55 16.55a29.26 29.26 0 0017.62 8.51c11.54 1.21 16.44-5.23 18.36-9.26a4.46 4.46 0 00-.89-5l-6.86-6.85a5.7 5.7 0 00-8.07 0l-4.84 4.84a4.2 4.2 0 01-5.94 0L28 38.58" fill="none" stroke="#009190" stroke-linecap="round" stroke-linejoin="round" stroke-width="2"/></g></g></svg>