<svg width="36" height="36" fill="none" xmlns="http://www.w3.org/2000/svg"><path d="M2.813 3.375a1.69 1.69 0 00-1.688 1.688v18a1.69 1.69 0 001.688 1.687H6.83c.035.602-.063 1.877-1.127 3.648a.564.564 0 00.606.84c4.345-.966 5.962-3.51 6.434-4.488h4.131v2.813a1.69 1.69 0 001.688 1.687h6.881c.339 1.035 1.48 3.45 4.852 3.93a.564.564 0 00.602-.765c-.677-1.688-.697-2.7-.646-3.165h2.936a1.69 1.69 0 001.687-1.688V15.188a1.69 1.69 0 00-1.688-1.687h-2.812V5.062a1.69 1.69 0 00-1.688-1.687H2.813zm0 1.125h25.875c.31 0 .562.253.562.563v18c0 .31-.253.562-.563.562H12.375a.562.562 0 00-.534.384c-.009.03-.888 2.543-4.555 3.79 1.028-2.308.582-3.721.56-3.79a.562.562 0 00-.534-.384h-4.5a.564.564 0 01-.562-.563v-18c0-.31.253-.562.563-.562zm4.5 6.75a.562.562 0 100 1.125h10.125a.562.562 0 100-1.125H7.313zm12.375 0a.562.562 0 100 1.125h2.25a.562.562 0 100-1.125h-2.25zM7.313 14.625a.562.562 0 100 1.125h12.375a.562.562 0 100-1.125H7.313zm23.062 0h2.813c.31 0 .562.253.562.563v12.374c0 .31-.253.563-.563.563h-3.374a.566.566 0 00-.504.31c-.061.123-.514 1.147.194 3.419-2.615-.824-3.055-3.151-3.074-3.259a.562.562 0 00-.554-.47h-7.313a.564.564 0 01-.562-.563V24.75h10.688a1.69 1.69 0 001.687-1.688v-8.437zM4.5 20.25a.562.562 0 00-.563.563v1.125a.562.562 0 101.126 0v-1.125a.563.563 0 00-.563-.563zm2.813 0a.562.562 0 00-.563.563v1.125a.562.562 0 101.125 0v-1.125c0-.31-.25-.563-.563-.563zm2.812 0a.562.562 0 00-.563.563v1.125a.562.562 0 101.126 0v-1.125a.563.563 0 00-.563-.563zm2.813 0a.562.562 0 00-.563.563v1.125a.562.562 0 101.125 0v-1.125c0-.31-.25-.563-.563-.563zm2.812 0a.562.562 0 00-.563.563v1.125a.562.562 0 101.126 0v-1.125a.563.563 0 00-.563-.563zm2.813 0a.562.562 0 00-.563.563v1.125a.562.562 0 101.125 0v-1.125c0-.31-.25-.563-.563-.563zm2.812 0a.562.562 0 00-.563.563v1.125a.562.562 0 101.125 0v-1.125c0-.31-.25-.563-.562-.563zm2.813 0a.562.562 0 00-.563.563v1.125a.562.562 0 101.125 0v-1.125c0-.31-.25-.563-.563-.563zm2.812 0a.562.562 0 00-.563.563v1.125a.562.562 0 101.125 0v-1.125c0-.31-.25-.563-.562-.563z" fill="#796049"/></svg>