<svg width="37" height="26" fill="none" xmlns="http://www.w3.org/2000/svg"><path d="M35.862 5.843H1v5.425h34.862V5.843z" fill="#F1EDE6"/><path d="M31.468 1H5.394C2.967 1 1 2.955 1 5.367v15.134c0 2.412 1.967 4.367 4.394 4.367h26.074c2.426 0 4.394-1.955 4.394-4.367V5.367C35.862 2.955 33.894 1 31.468 1z" stroke="#00908F" stroke-width="1.5" stroke-linecap="round" stroke-linejoin="round"/><path d="M1 11.268V5.843h34.862v5.425h-24.06m-5.679 6.846h7.848m15.026 2.705a2.713 2.713 0 002.721-2.705 2.712 2.712 0 00-2.72-2.704 2.712 2.712 0 00-2.721 2.704 2.712 2.712 0 002.72 2.705z" stroke="#00908F" stroke-width="1.5" stroke-linecap="round" stroke-linejoin="round"/><path d="M28.997 20.819a2.713 2.713 0 002.721-2.705 2.712 2.712 0 00-2.72-2.704 2.712 2.712 0 00-2.721 2.704 2.712 2.712 0 002.72 2.705z" stroke="#00908F" stroke-width="1.5" stroke-linecap="round" stroke-linejoin="round"/></svg>