<svg width="35" height="35" fill="none" xmlns="http://www.w3.org/2000/svg"><path d="M3.783 3C2.253 3 1 4.241 1 5.757v15.164c0 1.346.99 2.458 2.283 2.692l.913 5.105a2.787 2.787 0 003.217 2.24l23.284-4.114c1.505-.264 2.527-1.696 2.26-3.188L30.285 8.73a.63.63 0 00-.066-.193v-2.78C30.218 4.241 28.966 3 27.436 3H3.783zm0 1.379h23.653c.777 0 1.391.608 1.391 1.378v2.068H2.391V5.757c0-.77.615-1.378 1.392-1.378zM2.39 11.27h26.436v9.65c0 .77-.614 1.378-1.391 1.378H3.783a1.374 1.374 0 01-1.392-1.378v-9.65zm3.48 2.07v1.378H17V13.34H5.87zm24.349 2.908l1.37 7.646a1.367 1.367 0 01-1.131 1.594L7.174 29.601a1.377 1.377 0 01-1.609-1.12l-.87-4.803h22.74c1.53 0 2.784-1.241 2.784-2.757v-4.674z" fill="#796049"/></svg>