<svg width="29" height="29" fill="none" xmlns="http://www.w3.org/2000/svg"><path d="M4.06 4.64a2.909 2.909 0 00-2.9 2.9V20.3c0 1.595 1.305 2.9 2.9 2.9h2.41c1.607 2.77 4.602 4.64 8.03 4.64 3.428 0 6.423-1.87 8.03-4.64h2.41c1.595 0 2.9-1.305 2.9-2.9V7.54c0-1.595-1.305-2.9-2.9-2.9H4.06zm0 1.16h20.88c.968 0 1.74.772 1.74 1.74V8.7H2.32V7.54c0-.968.773-1.74 1.74-1.74zm10.44 4.64a8.11 8.11 0 016.67 3.48H9.316a6.74 6.74 0 00-.833 1.16H21.84a8.127 8.127 0 01.78 3.48 8.113 8.113 0 01-.907 3.752.747.747 0 00-.054.09c-.007.011-.012.025-.019.036v.018c-.031.057-.077.107-.108.164H8.863c.306.426.66.813 1.052 1.16h10.802a8.103 8.103 0 01-6.217 2.9 8.117 8.117 0 01-7.123-4.187.572.572 0 00-.127-.254 8.115 8.115 0 01-.87-3.68c0-4.49 3.63-8.12 8.12-8.12zM2.32 11.6h6.054a9.247 9.247 0 00-3.154 6.96c0 1.23.234 2.404.67 3.48H4.06c-.967 0-1.74-.773-1.74-1.74v-8.7zm18.306 0h6.054v8.7c0 .967-.772 1.74-1.74 1.74h-1.83a9.22 9.22 0 00.67-3.48 9.247 9.247 0 00-3.154-6.96zm-9.769 5.202c-1.067 0-1.74.743-1.74 1.939 0 1.198.673 1.94 1.74 1.94.886 0 1.532-.547 1.595-1.342h-.761c-.075.406-.392.652-.834.652-.582 0-.942-.475-.942-1.25s.364-1.25.942-1.25c.44 0 .759.264.834.688h.761c-.057-.8-.723-1.377-1.595-1.377zm2.302.09l1.232 3.68h.943l1.214-3.68h-.815l-.834 2.828h-.036l-.834-2.828h-.87zm4.024 0l1.232 3.68h.943l1.214-3.68h-.816l-.833 2.828h-.037l-.833-2.828h-.87z" fill="#796049"/></svg>