<svg xmlns="http://www.w3.org/2000/svg" viewBox="-291 382 29 29"><path d="M-286.9 386.6c-1.6 0-2.9 1.3-2.9 2.9v12.8c0 1.6 1.3 2.9 2.9 2.9h2.4c1.6 2.8 4.6 4.6 8 4.6 3.4 0 6.4-1.9 8-4.6h2.4c1.6 0 2.9-1.3 2.9-2.9v-12.8c0-1.6-1.3-2.9-2.9-2.9h-20.8zm0 1.2h20.9c1 0 1.7.8 1.7 1.7v1.2h-24.4v-1.2c0-.9.8-1.7 1.8-1.7zm10.4 4.6c2.8 0 5.2 1.4 6.7 3.5h-11.9c-.3.4-.6.7-.8 1.2h13.4c.5 1.1.8 2.2.8 3.5 0 1.4-.3 2.6-.9 3.8 0 0 0 .1-.1.1 0 .1-.1.1-.1.2h-12.7c.3.4.7.8 1.1 1.2h10.8c-1.5 1.8-3.7 2.9-6.2 2.9-3.1 0-5.7-1.7-7.1-4.2 0-.1-.1-.2-.1-.3-.6-1.1-.9-2.4-.9-3.7-.1-4.5 3.5-8.2 8-8.2zm-12.2 1.2h6.1c-1.9 1.7-3.2 4.2-3.2 7 0 1.2.2 2.4.7 3.5h-1.8c-1 0-1.7-.8-1.7-1.7v-8.8zm18.3 0h6.1v8.7c0 1-.8 1.7-1.7 1.7h-1.8c.4-1.1.7-2.2.7-3.5-.1-2.7-1.3-5.2-3.3-6.9zm-9.7 5.2c-1.1 0-1.7.7-1.7 1.9s.7 1.9 1.7 1.9c.9 0 1.5-.5 1.6-1.3h-.8c-.1.4-.4.7-.8.7-.6 0-.9-.5-.9-1.3s.4-1.3.9-1.3c.4 0 .8.3.8.7h.8c-.1-.7-.8-1.3-1.6-1.3zm2.3.1l1.2 3.7h.9l1.2-3.7h-.8l-.8 2.8-.8-2.8h-.9zm4 0l1.2 3.7h.9l1.2-3.7h-.8l-.8 2.8-.8-2.8h-.9z" fill="#004542"/></svg>