<svg version="1.1" id="Layer_1" xmlns="http://www.w3.org/2000/svg" x="0" y="0" viewBox="-287 384 37 26" xml:space="preserve"><style>.st1{fill:none;stroke:#004542;stroke-width:1.5;stroke-linecap:round;stroke-linejoin:round}</style><path d="M-251.1 389.8H-286v5.4h34.9v-5.4z" fill="#f1ede6"/><path class="st1" d="M-255.5 385h-26.1c-2.4 0-4.4 2-4.4 4.4v15.1c0 2.4 2 4.4 4.4 4.4h26.1c2.4 0 4.4-2 4.4-4.4v-15.1c0-2.4-2-4.4-4.4-4.4z"/><path class="st1" d="M-286 395.3v-5.4h34.9v5.4h-24.1m-5.7 6.8h7.8"/><path d="M-258 404.8c1.5 0 2.7-1.2 2.7-2.7s-1.2-2.7-2.7-2.7-2.7 1.2-2.7 2.7 1.2 2.7 2.7 2.7z" fill="none" stroke="#00908f" stroke-width="1.5" stroke-linecap="round" stroke-linejoin="round"/><path class="st1" d="M-258 404.8c1.5 0 2.7-1.2 2.7-2.7s-1.2-2.7-2.7-2.7-2.7 1.2-2.7 2.7 1.2 2.7 2.7 2.7z"/></svg>