<svg xmlns="http://www.w3.org/2000/svg" viewBox="0 0 57.62 70.54"><g data-name="Layer 2"><g data-name="Layer 1"><rect y="1" width="57.62" height="68.54" rx="2.49" fill="#f2eee7"/><path d="M9.08 1c2.12 0 3.84 1.28 3.84 2.86S11.2 6.71 9.08 6.71m0 5.71c2.12 0 3.84 1.28 3.84 2.86s-1.72 2.85-3.84 2.85m0-11.42C7 6.71 5.25 8 5.25 9.57S7 12.42 9.08 12.42m0 5.71C7 18.13 5.25 19.41 5.25 21S7 23.85 9.08 23.85m0 5.71c-2.11 0-3.83 1.28-3.83 2.85S7 35.27 9.08 35.27m0-11.42c2.12 0 3.84 1.27 3.84 2.85s-1.72 2.86-3.84 2.86m0 5.71c2.12 0 3.84 1.28 3.84 2.85S11.2 41 9.08 41m0 5.69c2.12 0 3.84 1.28 3.84 2.86S11.2 52.4 9.08 52.4m0-11.4C7 41 5.25 42.26 5.25 43.84S7 46.69 9.08 46.69m0 5.71c-2.11 0-3.83 1.28-3.83 2.86S7 58.11 9.08 58.11m0 5.71c-2.11 0-3.83 1.28-3.83 2.86S7 69.54 9.08 69.54m0-11.43c2.12 0 3.84 1.28 3.84 2.86s-1.72 2.85-3.84 2.85M22.23 1c2.12 0 3.83 1.28 3.83 2.86s-1.71 2.85-3.83 2.85m0 5.71c2.12 0 3.83 1.28 3.83 2.86s-1.71 2.85-3.83 2.85m0-11.42c-2.11 0-3.83 1.29-3.83 2.86s1.72 2.85 3.83 2.85m0 5.71c-2.11 0-3.83 1.28-3.83 2.86s1.72 2.86 3.83 2.86m0 5.71c-2.11 0-3.83 1.28-3.83 2.85s1.72 2.86 3.83 2.86m0-11.42c2.12 0 3.83 1.27 3.83 2.85s-1.71 2.86-3.83 2.86m0 5.71c2.12 0 3.83 1.28 3.83 2.85S24.35 41 22.23 41m0 5.69c2.12 0 3.83 1.28 3.83 2.86s-1.71 2.85-3.83 2.85m0-11.4c-2.11 0-3.83 1.28-3.83 2.86s1.72 2.85 3.83 2.85m0 5.69c-2.11 0-3.83 1.28-3.83 2.86s1.72 2.85 3.83 2.85m0 5.71c-2.11 0-3.83 1.28-3.83 2.86s1.72 2.86 3.83 2.86m0-11.43c2.12 0 3.83 1.28 3.83 2.86s-1.71 2.85-3.83 2.85M35.38 1c2.12 0 3.83 1.28 3.83 2.86s-1.71 2.85-3.83 2.85m0 5.71c2.12 0 3.83 1.28 3.83 2.86s-1.71 2.85-3.83 2.85m0-11.42c-2.11 0-3.83 1.28-3.83 2.86s1.72 2.85 3.83 2.85m0 5.71c-2.11 0-3.83 1.28-3.83 2.86s1.72 2.86 3.83 2.86m0 5.71c-2.11 0-3.83 1.28-3.83 2.85s1.72 2.86 3.83 2.86m0-11.42c2.12 0 3.83 1.27 3.83 2.85s-1.71 2.86-3.83 2.86m0 5.71c2.12 0 3.83 1.28 3.83 2.85S37.5 41 35.38 41m0 5.69c2.12 0 3.83 1.28 3.83 2.86s-1.71 2.85-3.83 2.85m0-11.4c-2.11 0-3.83 1.28-3.83 2.86s1.72 2.85 3.83 2.85m0 5.69c-2.11 0-3.83 1.28-3.83 2.86s1.72 2.85 3.83 2.85m0 5.71c-2.11 0-3.83 1.28-3.83 2.86s1.72 2.86 3.83 2.86m0-11.43c2.12 0 3.83 1.28 3.83 2.86s-1.71 2.85-3.83 2.85M48.53 1c2.12 0 3.83 1.28 3.83 2.86s-1.71 2.85-3.83 2.85m0 5.71c2.12 0 3.83 1.28 3.83 2.86s-1.71 2.85-3.83 2.85m0-11.42c-2.12 0-3.83 1.29-3.83 2.86s1.71 2.85 3.83 2.85m0 5.71c-2.12 0-3.83 1.28-3.83 2.86s1.71 2.86 3.83 2.86m0 5.71c-2.12 0-3.83 1.28-3.83 2.85s1.71 2.86 3.83 2.86m0-11.42c2.12 0 3.83 1.27 3.83 2.85s-1.71 2.86-3.83 2.86m0 5.71c2.12 0 3.83 1.28 3.83 2.85S50.65 41 48.53 41m0 5.69c2.12 0 3.83 1.28 3.83 2.86s-1.71 2.85-3.83 2.85m0-11.4c-2.12 0-3.83 1.28-3.83 2.86s1.71 2.85 3.83 2.85m0 5.69c-2.12 0-3.83 1.28-3.83 2.86s1.71 2.85 3.83 2.85m0 5.71c-2.12 0-3.83 1.28-3.83 2.86s1.71 2.86 3.83 2.86m0-11.43c2.12 0 3.83 1.28 3.83 2.86s-1.71 2.85-3.83 2.85" fill="none" stroke="#009190" stroke-linecap="round" stroke-linejoin="round" stroke-width="2"/></g></g></svg>