<svg width="28" height="28" fill="none" xmlns="http://www.w3.org/2000/svg"><g clip-path="url(#clip0_192_2638)"><path d="M14 4a2.53 2.53 0 00-2.52 2.52H9.613l-.034.315-.979 8.64-.045.405h10.89l-.045-.405-.979-8.64-.033-.315H16.52A2.53 2.53 0 0014 4zm0 .72c.992 0 1.8.809 1.8 1.8h-3.6c0-.991.809-1.8 1.8-1.8zm-3.746 2.52h1.226v.461a.713.713 0 00-.36.619.72.72 0 101.44 0 .714.714 0 00-.36-.619V7.24h3.6v.461a.713.713 0 00-.36.619.72.72 0 101.44 0 .714.714 0 00-.36-.619V7.24h1.226l.89 7.92h-9.27l.888-7.92zm-2.43 6.401a.346.346 0 00-.09.034L5.304 14.8a.297.297 0 00-.034.011l-.034.011a.363.363 0 00-.1.046.158.158 0 00-.023.01v.012a.36.36 0 00-.113.439V16.6a.36.36 0 00.18.315l8.64 5.04a.358.358 0 00.36 0l8.64-5.04A.36.36 0 0023 16.6v-1.26a.36.36 0 00-.135-.461.334.334 0 00-.079-.045l-.01-.011a.382.382 0 00-.068-.023l-2.442-1.125a.349.349 0 00-.168-.034.361.361 0 00-.353.297.36.36 0 00.229.4l1.879.856L14 19.784l-7.852-4.59 1.878-.855a.36.36 0 00-.168-.698h-.034zM5.72 15.79l8.1 4.725a.358.358 0 00.36 0l8.1-4.725v.596L14 21.224l-8.28-4.838v-.596z" fill="#796049" fill-opacity=".5"/></g><circle cx="14" cy="14" r="13.5" stroke="#796049" stroke-opacity=".5"/><defs><clipPath id="clip0_192_2638"><path fill="#fff" transform="translate(5 4)" d="M0 0h18v18H0z"/></clipPath></defs></svg>