<svg xmlns="http://www.w3.org/2000/svg" viewBox="0 0 50 62.88"><defs><style>.cls-1{fill:#f2eee7}.cls-2{fill:none;stroke:#009190;stroke-linecap:round;stroke-linejoin:round;stroke-width:2px}</style></defs><g id="Layer_2" data-name="Layer 2"><g id="Layer_1-2" data-name="Layer 1"><path class="cls-1" d="M24.87 10.51c8.26 0 16.56 4.15 19.44 12.58A23.35 23.35 0 0145.26 34s-2 12.07-4.88 18.06c-1.28 2.67-4.28 5.38-7.67 7l-4.27 2a8.06 8.06 0 01-3.44.76z"/><path class="cls-2" d="M23.54 50.89a2.47 2.47 0 002.57 0"/><path class="cls-1" d="M23.54 50.78a2.47 2.47 0 002.57 0"/><path class="cls-2" d="M5.29 36.78C4 33.62-3.15 20.84 4.48 10.4a21.76 21.76 0 017.67-6.3 28.18 28.18 0 0125.69 0 21.84 21.84 0 017.67 6.3c7.63 10.44.57 23.22-.77 26.38"/><path class="cls-2" d="M17.28 59.12c-3.38-1.67-6.39-4.38-7.66-7C6.76 46.08 4.74 34 4.74 34a23.49 23.49 0 01.94-10.92c5.75-16.77 32.89-16.77 38.63 0A23.35 23.35 0 0145.26 34s-2 12.07-4.88 18.06c-1.28 2.67-4.28 5.38-7.67 7l-4.27 2a8.17 8.17 0 01-6.88 0zm6.26-8.34a2.47 2.47 0 002.57 0m-1.24-39.62c-.07 3.27-1.46 7.35-7.36 9m14.72 0c-5.9-1.65-7.29-5.73-7.36-9"/></g></g></svg>