<svg width="35" height="26" fill="none" xmlns="http://www.w3.org/2000/svg"><path d="M14.645 24.846H4.385l13.118-14.385 13.112 14.385H20.36" stroke="#00908F" stroke-width="1.3" stroke-linecap="round" stroke-linejoin="round"/><path d="M31.962 3.194L20.17 15.23c-1.51 1.54-3.822 1.54-5.332 0L3.037 3.194c-.709-.724-.252-2.04.71-2.04h27.506c.962 0 1.42 1.316.71 2.04z" fill="#F1EDE6"/><path d="M33.054 2.13l-3.388 3.392M25.33 9.853L19.478 15.7c-1.11 1.11-2.815 1.11-3.926 0L7.888 8.036m-2.46-2.455L2.041 2.19m2.344-1.036h26.23" stroke="#00908F" stroke-width="1.3" stroke-linecap="round" stroke-linejoin="round"/><path d="M14.604 24.846H4.194A3.194 3.194 0 011 21.652V4.348a3.194 3.194 0 013.195-3.194h26.61A3.194 3.194 0 0134 4.348v17.304a3.194 3.194 0 01-3.195 3.194H20.401" stroke="#00908F" stroke-width="1.3" stroke-linecap="round" stroke-linejoin="round"/></svg>