<svg version="1.1" id="Layer_1" xmlns="http://www.w3.org/2000/svg" x="0" y="0" viewBox="-288 384 35 26" xml:space="preserve"><style>.st0{fill:none;stroke:#00241a;stroke-width:1.3;stroke-linecap:round;stroke-linejoin:round}</style><path class="st0" d="M-273.4 408.8h-10.3l13.1-14.4 13.1 14.4h-10.3"/><path d="M-256 387.2l-11.8 12c-1.5 1.5-3.8 1.5-5.3 0l-11.8-12c-.7-.7-.3-2 .7-2h27.5c.9 0 1.4 1.3.7 2z" fill="#f1ede6"/><path class="st0" d="M-254.9 386.1l-3.4 3.4m-4.4 4.4l-5.9 5.8c-1.1 1.1-2.8 1.1-3.9 0l-7.7-7.7m-2.4-2.4l-3.4-3.4"/><path d="M-283.6 385.2h26.2" fill="none" stroke="#00908f" stroke-width="1.3" stroke-linecap="round" stroke-linejoin="round"/><path class="st0" d="M-273.4 408.8h-10.4c-1.8 0-3.2-1.4-3.2-3.2v-17.3c0-1.8 1.4-3.2 3.2-3.2h26.6c1.8 0 3.2 1.4 3.2 3.2v17.3c0 1.8-1.4 3.2-3.2 3.2h-10.4"/></svg>