<svg width="16" height="12" fill="none" xmlns="http://www.w3.org/2000/svg"><g clip-path="url(#clip0_969_13926)"><path d="M15 0H1a.961.961 0 00-.703.297A.961.961 0 000 1v10c0 .27.099.505.297.703A.961.961 0 001 12h14c.27 0 .505-.099.703-.297A.961.961 0 0016 11V1a.961.961 0 00-.297-.703A.961.961 0 0015 0zM5.687 7.031L8 8.594l2.313-1.563L14.28 11H1.72l3.968-3.969zM1 10.281V3.844l3.844 2.625L1 10.28zm10.156-3.844L15 3.781v6.5l-3.844-3.844zM15 1v1.625l-.031-.031L8 7.406 1 2.625V1h14z" fill="#796049"/></g><defs><clipPath id="clip0_969_13926"><path fill="#fff" d="M0 0h16v12H0z"/></clipPath></defs></svg>