<svg id="Layer_1" data-name="Layer 1" xmlns="http://www.w3.org/2000/svg" viewBox="0 0 14.24 18.22"><defs><style>.cls-1{fill:#e5e2dc}.cls-2,.cls-4{fill:none;stroke-linecap:round;stroke-linejoin:round;stroke-width:.8px}.cls-2{stroke:#00a696}.cls-3{fill:#f3efe8}.cls-4{stroke:#009190}</style></defs><path class="cls-1" d="M5.56 17.63a4.74 4.74 0 01-2.14-2 25.87 25.87 0 01-1.37-5.18 6.74 6.74 0 01.27-3.15c1.6-4.81 9.2-4.81 10.81 0a7 7 0 01.27 3.13 26.8 26.8 0 01-1.4 5.18 4.79 4.79 0 01-2.14 2l-1.2.58a2.25 2.25 0 01-1.93 0l-1.19-.58z" transform="translate(-.6 -.6)"/><path class="cls-1" d="M7.36 15.27a.73.73 0 00.36.11.7.7 0 00.35-.11M9 6a2.53 2.53 0 01-1.44-2.31c0 1.12-.57 2.56-3.13 2.77" transform="translate(-.6 -.6)"/><path class="cls-2" d="M5.56 17.63a4.74 4.74 0 01-2.14-2 25.87 25.87 0 01-1.37-5.18 6.74 6.74 0 01.27-3.15c1.6-4.81 9.2-4.81 10.81 0a7 7 0 01.27 3.13 26.8 26.8 0 01-1.4 5.18 4.79 4.79 0 01-2.14 2l-1.2.58a2.25 2.25 0 01-1.93 0l-1.19-.58z" transform="translate(-.6 -.6)"/><path class="cls-2" d="M7.36 15.27a.73.73 0 00.36.11.7.7 0 00.35-.11M9 6a2.53 2.53 0 01-1.44-2.31A2.59 2.59 0 015.5 6.28m5.32.19" transform="translate(-.6 -.6)"/><path class="cls-2" d="M2.2 11.26c-.37-.9-2.36-4.57-.2-7.56a6 6 0 012.12-1.81 7.69 7.69 0 017.19 0 6.05 6.05 0 012.15 1.8c2.14 3 .16 6.66-.22 7.57" transform="translate(-.6 -.6)"/><path class="cls-3" d="M5.56 17.63a4.74 4.74 0 01-2.14-2 25.87 25.87 0 01-1.37-5.18 6.74 6.74 0 01.27-3.15c1.6-4.81 9.2-4.81 10.81 0a7 7 0 01.27 3.13 26.8 26.8 0 01-1.4 5.18 4.79 4.79 0 01-2.14 2l-1.2.58a2.25 2.25 0 01-1.93 0l-1.19-.58z" transform="translate(-.6 -.6)"/><path class="cls-3" d="M7.36 15.27a.73.73 0 00.36.11.7.7 0 00.35-.11M9 6a2.53 2.53 0 01-1.44-2.31c0 1.12-.57 2.56-3.13 2.77" transform="translate(-.6 -.6)"/><path class="cls-4" d="M5.56 17.63a4.74 4.74 0 01-2.14-2 25.87 25.87 0 01-1.37-5.18 6.74 6.74 0 01.27-3.15c1.6-4.81 9.2-4.81 10.81 0a7 7 0 01.27 3.13 26.8 26.8 0 01-1.4 5.18 4.79 4.79 0 01-2.14 2l-1.2.58a2.25 2.25 0 01-1.93 0l-1.19-.58z" transform="translate(-.6 -.6)"/><path class="cls-4" d="M7.36 15.27a.73.73 0 00.36.11.7.7 0 00.35-.11M9 6a2.53 2.53 0 01-1.44-2.31A2.59 2.59 0 015.5 6.28m5.32.19" transform="translate(-.6 -.6)"/><path class="cls-4" d="M2.2 11.26c-.37-.9-2.36-4.57-.2-7.56a6 6 0 012.12-1.81 7.69 7.69 0 017.19 0 6.05 6.05 0 012.15 1.8c2.14 3 .16 6.66-.22 7.57" transform="translate(-.6 -.6)"/></svg>