<svg width="15" height="19" fill="none" xmlns="http://www.w3.org/2000/svg"><path d="M5.56 17.634c-.949-.482-1.789-1.256-2.145-2.022-.8-1.714-1.366-5.179-1.366-5.179-.16-1.192-.036-2.233.266-3.134 1.607-4.809 9.21-4.809 10.817 0 .3.9.422 1.939.266 3.134 0 0-.566 3.462-1.367 5.18-.358.765-1.198 1.542-2.145 2.021l-1.195.573c-.602.29-1.325.29-1.927 0l-1.195-.573H5.56z" fill="#E5E2DC"/><path d="M7.358 15.274c.151.072.255.107.358.104a.82.82 0 00.359-.104m.921-9.237C7.867 5.478 7.579 4.5 7.559 3.694c-.025 1.113-.565 2.555-3.133 2.77" fill="#E5E2DC"/><path d="M5.56 17.634c-.949-.482-1.789-1.256-2.145-2.022-.8-1.714-1.366-5.179-1.366-5.179-.16-1.192-.036-2.233.266-3.134 1.607-4.809 9.21-4.809 10.817 0 .3.9.422 1.939.266 3.134 0 0-.566 3.462-1.367 5.18-.358.765-1.198 1.542-2.145 2.021l-1.195.573c-.602.29-1.325.29-1.927 0l-1.195-.573H5.56z" stroke="#00A696" stroke-width=".8" stroke-linecap="round" stroke-linejoin="round"/><path d="M7.358 15.274c.151.072.255.107.358.104a.82.82 0 00.359-.104m.921-9.237C7.867 5.478 7.579 4.5 7.559 3.694c-.02.938-.408 2.108-2.06 2.581m5.325.198c-.03 0 .031 0 0 0" stroke="#00A696" stroke-width=".8" stroke-linecap="round" stroke-linejoin="round"/><path d="M2.2 11.26c-.375-.904-2.363-4.569-.224-7.563.574-.803 1.35-1.385 2.145-1.806a7.717 7.717 0 017.193-.003c.796.421 1.571 1.004 2.145 1.806 2.14 2.994.16 6.66-.216 7.562" stroke="#00A696" stroke-width=".8" stroke-linecap="round" stroke-linejoin="round"/><path d="M5.56 17.634c-.949-.482-1.789-1.256-2.145-2.022-.8-1.714-1.366-5.179-1.366-5.179-.16-1.192-.036-2.233.266-3.134 1.607-4.809 9.21-4.809 10.817 0 .3.9.422 1.939.266 3.134 0 0-.566 3.462-1.367 5.18-.358.765-1.198 1.542-2.145 2.021l-1.195.573c-.602.29-1.325.29-1.927 0l-1.195-.573H5.56z" fill="#F3EFE8"/><path d="M7.358 15.274c.151.072.255.107.358.104a.82.82 0 00.359-.104m.921-9.237C7.867 5.478 7.579 4.5 7.559 3.694c-.025 1.113-.565 2.555-3.133 2.77" fill="#F3EFE8"/><path d="M5.56 17.634c-.949-.482-1.789-1.256-2.145-2.022-.8-1.714-1.366-5.179-1.366-5.179-.16-1.192-.036-2.233.266-3.134 1.607-4.809 9.21-4.809 10.817 0 .3.9.422 1.939.266 3.134 0 0-.566 3.462-1.367 5.18-.358.765-1.198 1.542-2.145 2.021l-1.195.573c-.602.29-1.325.29-1.927 0l-1.195-.573H5.56z" stroke="#004542" stroke-width=".8" stroke-linecap="round" stroke-linejoin="round"/><path d="M7.358 15.274c.151.072.255.107.358.104a.82.82 0 00.359-.104m.921-9.237C7.867 5.478 7.579 4.5 7.559 3.694c-.02.938-.408 2.108-2.06 2.581m5.325.198c-.03 0 .031 0 0 0" stroke="#004542" stroke-width=".8" stroke-linecap="round" stroke-linejoin="round"/><path d="M2.2 11.26c-.375-.904-2.363-4.569-.224-7.563.574-.803 1.35-1.385 2.145-1.806a7.717 7.717 0 017.193-.003c.796.421 1.571 1.004 2.145 1.806 2.14 2.994.16 6.66-.216 7.562" stroke="#004542" stroke-width=".8" stroke-linecap="round" stroke-linejoin="round"/></svg>