<svg xmlns="http://www.w3.org/2000/svg" viewBox="0 0 50 62.77"><defs><style>.cls-1{fill:#e4e1db}.cls-2,.cls-4{fill:none;stroke-linecap:round;stroke-linejoin:round;stroke-width:2px}.cls-2{stroke:#00a595}.cls-3{fill:#f2eee7}.cls-4{stroke:#009190}</style></defs><g id="Layer_2" data-name="Layer 2"><g id="Layer_1-2" data-name="Layer 1"><path class="cls-1" d="M17.29 59c-3.39-1.67-6.39-4.38-7.67-7-2.86-6-4.88-18.1-4.88-18.1A23.49 23.49 0 015.68 23c5.75-16.79 32.89-16.79 38.63 0a23.35 23.35 0 01.95 10.92S43.24 46 40.38 52c-1.28 2.67-4.28 5.38-7.67 7l-4.27 2a8.19 8.19 0 01-6.88 0z"/><path class="cls-1" d="M23.71 50.78a2.91 2.91 0 001.29.36 2.84 2.84 0 001.28-.36m3.28-32.21a8.75 8.75 0 01-5.12-8.17c-.09 3.88-2 8.91-11.19 9.66m22.84.03c-.11 0 .11 0 0 0"/><path class="cls-2" d="M17.29 59c-3.39-1.67-6.39-4.38-7.67-7-2.86-6-4.88-18.1-4.88-18.1A23.49 23.49 0 015.68 23c5.75-16.79 32.89-16.79 38.63 0a23.35 23.35 0 01.95 10.92S43.24 46 40.38 52c-1.28 2.67-4.28 5.38-7.67 7l-4.27 2a8.19 8.19 0 01-6.88 0z"/><path class="cls-2" d="M23.71 50.78a2.91 2.91 0 001.29.36 2.84 2.84 0 001.28-.36m3.28-32.21a8.75 8.75 0 01-5.12-8.17c-.08 3.27-1.46 7.35-7.37 9m19.02.69c-.11 0 .11 0 0 0"/><path class="cls-2" d="M5.29 36.78C4 33.62-3.15 20.84 4.48 10.41a21.54 21.54 0 017.67-6.3 28.06 28.06 0 0125.69 0 21.62 21.62 0 017.66 6.3c7.64 10.43.58 23.21-.76 26.37"/><path class="cls-3" d="M17.29 59c-3.39-1.67-6.39-4.38-7.67-7-2.86-6-4.88-18.1-4.88-18.1A23.49 23.49 0 015.68 23c5.75-16.79 32.89-16.79 38.63 0a23.35 23.35 0 01.95 10.92S43.24 46 40.38 52c-1.28 2.67-4.28 5.38-7.67 7l-4.27 2a8.19 8.19 0 01-6.88 0z"/><path class="cls-3" d="M23.71 50.78a2.91 2.91 0 001.29.36 2.84 2.84 0 001.28-.36m3.28-32.21a8.75 8.75 0 01-5.12-8.17c-.09 3.88-2 8.91-11.19 9.66m22.84.03c-.11 0 .11 0 0 0"/><path class="cls-4" d="M17.29 59c-3.39-1.67-6.39-4.38-7.67-7-2.86-6-4.88-18.1-4.88-18.1A23.49 23.49 0 015.68 23c5.75-16.79 32.89-16.79 38.63 0a23.35 23.35 0 01.95 10.92S43.24 46 40.38 52c-1.28 2.67-4.28 5.38-7.67 7l-4.27 2a8.19 8.19 0 01-6.88 0z"/><path class="cls-4" d="M23.71 50.78a2.91 2.91 0 001.29.36 2.84 2.84 0 001.28-.36m3.28-32.21a8.75 8.75 0 01-5.12-8.17c-.08 3.27-1.46 7.35-7.37 9m19.02.69c-.11 0 .11 0 0 0"/><path class="cls-4" d="M5.29 36.78C4 33.62-3.15 20.84 4.48 10.41a21.54 21.54 0 017.67-6.3 28.06 28.06 0 0125.69 0 21.62 21.62 0 017.66 6.3c7.64 10.43.58 23.21-.76 26.37"/></g></g></svg>