<svg width="56" height="66" fill="none" xmlns="http://www.w3.org/2000/svg"><path d="M26.223 44.318H9.946a1.117 1.117 0 010-2.233h16.277a1.117 1.117 0 010 2.233z" fill="#019392"/><path d="M29.533 65.701H6.642a5.66 5.66 0 01-4.847-2.703 5.66 5.66 0 01-.245-5.544l10.81-21.546V22.552a1.117 1.117 0 012.234 0v13.622a1.1 1.1 0 01-.12.5L3.546 58.453a3.446 3.446 0 00.149 3.371 3.44 3.44 0 002.947 1.643h22.891a3.44 3.44 0 002.949-1.645 3.442 3.442 0 00.147-3.369l-10.93-21.782a1.114 1.114 0 01-.12-.5V22.547a1.117 1.117 0 012.233 0v13.356L34.623 57.45a5.65 5.65 0 01-.242 5.543 5.653 5.653 0 01-4.848 2.708z" fill="#004542"/><path d="M11.799 61.301a3.932 3.932 0 01-3.927-3.927 3.932 3.932 0 013.927-3.928 3.932 3.932 0 013.928 3.928 3.932 3.932 0 01-3.928 3.927zm0-5.622c-.934 0-1.695.76-1.695 1.695 0 .934.761 1.695 1.695 1.695s1.695-.761 1.695-1.695-.76-1.695-1.695-1.695zm10.22-.444a3.636 3.636 0 01-3.632-3.632 3.636 3.636 0 013.632-3.631 3.636 3.636 0 013.631 3.631 3.635 3.635 0 01-3.631 3.632zm0-5.03a1.4 1.4 0 10.001 2.799 1.4 1.4 0 00-.001-2.8zm29.633 3.5H41.76a1.117 1.117 0 010-2.232h9.892a1.117 1.117 0 010 2.232z" fill="#019392"/><path d="M46.707 65.472a6.068 6.068 0 01-6.061-6.061V24.112a.549.549 0 00-.55-.548h-.624a1.117 1.117 0 010-2.233h.625a2.785 2.785 0 012.781 2.781v35.299a3.833 3.833 0 003.829 3.829 3.833 3.833 0 003.829-3.83v-35.3a2.785 2.785 0 012.781-2.78h.623a1.117 1.117 0 010 2.232h-.623a.549.549 0 00-.549.548v35.3a6.067 6.067 0 01-6.061 6.062z" fill="#004542"/><path d="M11.821 17.107a3.787 3.787 0 01-3.782-3.783 3.787 3.787 0 013.782-3.782 3.787 3.787 0 013.783 3.782 3.787 3.787 0 01-3.783 3.783zm0-5.334c-.854 0-1.55.696-1.55 1.55 0 .853.696 1.55 1.55 1.55a1.551 1.551 0 000-3.1zm16.352.857a6.173 6.173 0 01-6.166-6.166A6.172 6.172 0 0128.173.3c3.4 0 6.166 2.766 6.166 6.165a6.175 6.175 0 01-6.166 6.166zm0-10.099a3.937 3.937 0 00-3.933 3.933 3.937 3.937 0 003.933 3.933 3.937 3.937 0 003.933-3.933 3.938 3.938 0 00-3.933-3.933zM46.75 17.439a4.215 4.215 0 01-4.21-4.21 4.215 4.215 0 014.21-4.21 4.215 4.215 0 014.21 4.21 4.215 4.215 0 01-4.21 4.21zm0-6.19a1.98 1.98 0 00-1.978 1.978 1.98 1.98 0 001.978 1.978 1.98 1.98 0 001.977-1.978 1.98 1.98 0 00-1.977-1.978z" fill="#019392"/></svg>