<svg id="Layer_1" data-name="Layer 1" xmlns="http://www.w3.org/2000/svg" viewBox="0 0 14.79 16.96"><defs><style>.cls-1,.cls-3{fill:none;stroke-linecap:round;stroke-linejoin:round;stroke-width:.8px}.cls-1{stroke:#009190}.cls-3{stroke:#004542}</style></defs><path class="cls-1" d="M7.56 15.09a.94.94 0 00.44.12 1 1 0 00.44-.12" transform="translate(-.6 -.6)"/><path d="M8 2.78c.67 0 .86 1.83 1.48 2.13a9 9 0 002 .88 4.29 4.29 0 011.74 2.92 5.89 5.89 0 010 1.39l-.28 2.37c0 3.6-2.34 4.69-2.34 4.69h4.29V8.81a8 8 0 00-.34-3.53A6.7 6.7 0 008 1m0 1.78c-.67 0-.87 1.83-1.49 2.13a8.69 8.69 0 01-2 .88 4.25 4.25 0 00-1.74 2.92 5.89 5.89 0 000 1.39L3 12.47c0 3.6 2.34 4.69 2.34 4.69H1.09V8.81a8 8 0 01.34-3.53A6.7 6.7 0 018 1" transform="translate(-.6 -.6)" fill="#f3efe8"/><path class="cls-3" d="M2.2 6.75a3.58 3.58 0 00-1.13 2.07v8.34h4.3S3 16.07 3 12.47" transform="translate(-.6 -.6)"/><path class="cls-1" d="M2.2 6.75A4.12 4.12 0 001.09 9v8.16h4.3S3 16.07 3 12.47M8 1s.15 4.05-3.2 4.77" transform="translate(-.6 -.6)"/><path class="cls-3" d="M14.57 5.28A8 8 0 0114.91 9M8 1s-.16 4.4 3.66 4.85a3.81 3.81 0 012.14.9 3.57 3.57 0 011.12 2.07" transform="translate(-.6 -.6)"/><path class="cls-3" d="M13.79 6.75a3.57 3.57 0 011.12 2.07v8.34h-4.29S13 16.07 13 12.47" transform="translate(-.6 -.6)"/><path class="cls-1" d="M8 1a6.71 6.71 0 016.58 4.28 7.22 7.22 0 01.34 3.54" transform="translate(-.6 -.6)"/><path class="cls-1" d="M8 1s-.16 4.4 3.66 4.85a3.81 3.81 0 012.14.9 3.57 3.57 0 011.12 2.07" transform="translate(-.6 -.6)"/><path class="cls-1" d="M13.79 6.75a3.57 3.57 0 011.12 2.07v8.34h-4.29S13 16.07 13 12.47M1.43 5.28A8 8 0 001.08 9" transform="translate(-.6 -.6)"/><path class="cls-1" d="M8 1a6.69 6.69 0 00-6.57 4.28 7.21 7.21 0 00-.35 3.54" transform="translate(-.6 -.6)"/></svg>