<svg width="16" height="18" fill="none" xmlns="http://www.w3.org/2000/svg"><path d="M7.56 15.088c.184.085.312.127.439.124.127 0 .254-.037.438-.124" stroke="#004542" stroke-width=".8" stroke-linecap="round" stroke-linejoin="round"/><path d="M7.979 2.778c.67.023.865 1.832 1.484 2.132.58.28 1.29.743 1.985.885.955.692 1.603 1.747 1.744 2.917.057.473.057.945.003 1.389l-.274 2.366c.025 3.602-2.344 4.693-2.344 4.693h4.295V8.814c.155-1.34.002-2.513-.345-3.534C13.55 2.436 10.769 1.011 7.979 1" fill="#F3EFE8"/><path d="M7.979 2.778c-.67.023-.865 1.832-1.484 2.132-.58.28-1.29.743-1.985.885-.955.692-1.603 1.747-1.744 2.917a5.848 5.848 0 00-.003 1.389l.274 2.366c-.025 3.602 2.344 4.693 2.344 4.693H1.089V8.814c-.155-1.34-.003-2.513.345-3.534C2.404 2.436 5.186 1.011 7.98 1" fill="#F3EFE8"/><path d="M2.197 6.75a3.565 3.565 0 00-1.125 2.07v8.34h4.295s-2.37-1.092-2.344-4.694" stroke="#004542" stroke-width=".8" stroke-linecap="round" stroke-linejoin="round"/><path d="M2.197 6.75C1.703 7.202 1.26 8.048 1.095 9l-.023 8.16h4.295s-2.37-1.092-2.344-4.694M7.99 1s.15 4.046-3.203 4.772m9.783-.492A7.974 7.974 0 0114.913 9" stroke="#004542" stroke-width=".8" stroke-linecap="round" stroke-linejoin="round"/><path d="M7.993 1s-.164 4.405 3.659 4.846c.786.09 1.549.37 2.134.904a3.565 3.565 0 011.125 2.07" stroke="#004542" stroke-width=".8" stroke-linecap="round" stroke-linejoin="round"/><path d="M13.789 6.75a3.564 3.564 0 011.125 2.07v8.34H10.62s2.369-1.092 2.343-4.694" stroke="#004542" stroke-width=".8" stroke-linecap="round" stroke-linejoin="round"/><path d="M7.993 1c2.799 0 5.598 1.428 6.576 4.28.365 1.069.54 2.12.345 3.537" stroke="#004542" stroke-width=".8" stroke-linecap="round" stroke-linejoin="round"/><path d="M7.993 1s-.164 4.405 3.659 4.846c.786.09 1.549.37 2.134.904a3.565 3.565 0 011.125 2.07" stroke="#004542" stroke-width=".8" stroke-linecap="round" stroke-linejoin="round"/><path d="M13.789 6.75a3.564 3.564 0 011.125 2.07v8.34H10.62s2.369-1.092 2.343-4.694M1.428 5.283a7.974 7.974 0 00-.344 3.72" stroke="#004542" stroke-width=".8" stroke-linecap="round" stroke-linejoin="round"/><path d="M8.002 1c-2.8 0-5.598 1.428-6.576 4.28C1.06 6.35.886 7.4 1.08 8.817" stroke="#004542" stroke-width=".8" stroke-linecap="round" stroke-linejoin="round"/></svg>