<svg width="49" height="56" fill="none" xmlns="http://www.w3.org/2000/svg"><path d="M22.853 47.791c.612.282 1.036.423 1.46.413.423 0 .847-.122 1.46-.413" stroke="#004542" stroke-width="1.5" stroke-linecap="round" stroke-linejoin="round"/><path d="M24.247 6.906c2.231.076 2.881 6.085 4.944 7.08 1.93.93 4.294 2.47 6.61 2.94 3.183 2.3 5.34 5.803 5.81 9.69a19.37 19.37 0 01.01 4.61l-.913 7.86C40.792 51.05 32.9 54.674 32.9 54.674h14.304v-27.72c.518-4.45.01-8.348-1.149-11.737C42.808 5.77 33.541 1.037 24.246 1" fill="#F3EFE8"/><path d="M24.247 6.906c-2.232.076-2.882 6.085-4.945 7.08-1.93.93-4.294 2.47-6.61 2.94-3.183 2.3-5.34 5.803-5.81 9.69a19.368 19.368 0 00-.01 4.61l.913 7.86c-.084 11.963 7.807 15.588 7.807 15.588H1.297v-27.72c-.518-4.45-.01-8.348 1.149-11.737C5.676 5.77 14.942 1.037 24.246 1" fill="#F3EFE8"/><path d="M4.989 20.1c-1.648 1.502-3.202 3.709-3.748 6.873v27.701h14.304S7.654 51.05 7.738 39.087" stroke="#00241A" stroke-width="1.5" stroke-linecap="round" stroke-linejoin="round"/><path d="M4.989 20.1c-1.648 1.502-3.127 4.31-3.673 7.474l-.075 27.1h14.304S7.654 51.05 7.738 39.087M24.284 1s.5 13.437-10.67 15.85m32.584-1.633c1.214 3.55 1.798 7.643 1.148 12.357" stroke="#004542" stroke-width="1.5" stroke-linecap="round" stroke-linejoin="round"/><path d="M24.294 1s-.547 14.63 12.185 16.095c2.618.3 5.16 1.23 7.11 3.005 1.648 1.502 3.202 3.709 3.748 6.873" stroke="#004542" stroke-width="1.5" stroke-linecap="round" stroke-linejoin="round"/><path d="M43.599 20.1c1.648 1.502 3.201 3.709 3.748 6.873v27.701H33.041s7.892-3.624 7.807-15.587" stroke="#004542" stroke-width="1.5" stroke-linecap="round" stroke-linejoin="round"/><path d="M24.294 1c9.322 0 18.645 4.742 21.903 14.217 1.215 3.55 1.8 7.042 1.15 11.747" stroke="#004542" stroke-width="1.5" stroke-linecap="round" stroke-linejoin="round"/><path d="M24.294 1s-.547 14.63 12.185 16.095c2.618.3 5.16 1.23 7.11 3.005 1.648 1.502 3.202 3.709 3.748 6.873" stroke="#004542" stroke-width="1.5" stroke-linecap="round" stroke-linejoin="round"/><path d="M43.599 20.1c1.648 1.502 3.201 3.709 3.748 6.873v27.701H33.041s7.892-3.624 7.807-15.587" stroke="#004542" stroke-width="1.5" stroke-linecap="round" stroke-linejoin="round"/><path d="M2.427 15.226C1.212 18.776.63 22.87 1.278 27.583" stroke="#00241A" stroke-width="1.5" stroke-linecap="round" stroke-linejoin="round"/><path d="M24.322 1C14.999 1 5.676 5.742 2.418 15.217c-1.215 3.55-1.799 7.042-1.15 11.747" stroke="#004542" stroke-width="1.5" stroke-linecap="round" stroke-linejoin="round"/></svg>