<svg xmlns="http://www.w3.org/2000/svg" viewBox="0 0 74.86 58.06"><defs><style>.cls-2{fill:none;stroke:#009190;stroke-linecap:round;stroke-linejoin:round;stroke-width:2px}</style></defs><g id="Layer_2" data-name="Layer 2"><g id="Layer_1-2" data-name="Layer 1"><path d="M28.38 20.2l-8 6.19a.75.75 0 01-1.21-.59V2.44a.75.75 0 011.21-.6l8 6.2z" fill="#f2eee7"/><path class="cls-2" d="M1.49 5.14C3.7 5.3 3.58 6.86 5.8 7s2.32-1.39 4.53-1.24 2.1 1.72 4.32 1.88S17 6.25 19.19 6.41m-.49 8.86c-2.21-.16-2.1-1.72-4.31-1.88s-2.32 1.4-4.53 1.24-2.11-1.71-4.32-1.87S3.21 14.16 1 14m13.39 6.69c-2.21-.16-2.32 1.4-4.53 1.24s-2.11-1.71-4.32-1.87S3.21 21.46 1 21.3m56.53 22.4S59 57 49.69 57.06"/><path class="cls-2" d="M19.13 17.27V2.44a.75.75 0 011.21-.6l8 6.2V20.2l-8 6.19a.75.75 0 01-1.21-.59M46.58 3.86l10.91-2.51A13.34 13.34 0 0172.44 8.1a13.35 13.35 0 011.42 6 13.38 13.38 0 01-1.42 6 13.34 13.34 0 01-14.95 6.75L28.38 20.2V8l10.34-2.34M60.62 1a33.42 33.42 0 012.49 18.6"/><path class="cls-2" d="M60.58 42.02h-6.52l-5.09-17.09 11.61 2.31v14.78zm-9.06-8.54h4.27"/></g></g></svg>