<svg xmlns="http://www.w3.org/2000/svg" viewBox="0 0 51.5 59.16"><defs><style>.cls-2{fill:none;stroke:#009190;stroke-linecap:round;stroke-linejoin:round;stroke-width:2px}</style></defs><g id="Layer_2" data-name="Layer 2"><g id="Layer_1-2" data-name="Layer 1"><path d="M1.48 28.64v29.52h15.19s-8.38-3.86-8.29-16.6l-1-8.37a20.6 20.6 0 010-4.9c.34-2.86 4.29-8.75 7.69-9.76 1.23-.37-1.52-.57-1.52-.57s-11.16.18-12 10.7M50 28.19v29.52H34.83s8.38-3.86 8.29-16.6l1-8.37a21.24 21.24 0 000-4.91c-.34-2.85-4.28-8.74-7.69-9.75-1.22-.37 1.53-.57 1.53-.57s11.15.17 12 10.7" fill="#f2eee7"/><path class="cls-2" d="M5.23 21.34a12.61 12.61 0 00-4 7.32v29.5h15.21s-8.38-3.86-8.29-16.6"/><path class="cls-2" d="M5.23 21.34a14.55 14.55 0 00-3.9 8l-.08 28.82h15.19s-8.38-3.86-8.29-16.6M25.72 1s.53 14.31-11.32 16.88M49 16.14a28.22 28.22 0 011.21 13.16"/><path class="cls-2" d="M25.73 1s-.57 15.58 13 17.14a13.33 13.33 0 017.55 3.2 12.61 12.61 0 014 7.32"/><path class="cls-2" d="M46.23 21.34a12.61 12.61 0 014 7.32v29.5H35s8.38-3.86 8.29-16.6"/><path class="cls-2" d="M25.73 1c9.9 0 19.8 5.05 23.27 15.14a25.54 25.54 0 011.22 12.52"/><path class="cls-2" d="M25.73 1s-.57 15.58 13 17.14a13.33 13.33 0 017.55 3.2 12.61 12.61 0 014 7.32"/><path class="cls-2" d="M46.23 21.34a12.61 12.61 0 014 7.32v29.5H35s8.38-3.86 8.29-16.6M2.51 16.15A28.16 28.16 0 001.28 29.3"/><path class="cls-2" d="M25.76 1C15.86 1 6 6.05 2.51 16.15a25.48 25.48 0 00-1.23 12.51"/></g></g></svg>