<svg xmlns="http://www.w3.org/2000/svg" viewBox="0 0 72.61 65.83"><defs><style>.cls-2{fill:none;stroke:#009190;stroke-linecap:round;stroke-linejoin:round;stroke-width:2px}</style></defs><g id="Layer_2" data-name="Layer 2"><g id="Layer_1-2" data-name="Layer 1"><path d="M53.42 32.91a20.51 20.51 0 11-6.65-15.11 20.44 20.44 0 016.65 15.11z" fill="#f2eee7"/><path class="cls-2" d="M46.77 48a20.51 20.51 0 110-30.23M32.91 4.36V1M18.64 8.19l-1.68-2.91M8.19 18.64l-2.91-1.68m-.92 15.95H1m7.19 14.28l-2.91 1.68m13.36 8.77l-1.68 2.91m15.95.92v3.36"/><path class="cls-2" d="M37.08 35.87c5.75 0 5.75 4.62 11.51 4.62s5.75-4.62 11.51-4.62 5.76 4.62 11.51 4.62M37.08 25.34c5.75 0 5.75 4.62 11.51 4.62s5.75-4.62 11.51-4.62S65.86 30 71.61 30"/></g></g></svg>