<svg width="36" height="36" fill="none" xmlns="http://www.w3.org/2000/svg"><path d="M20.16 3.6v1.44h9.765l-9.652 9.652a10.046 10.046 0 00-6.593-2.452c-5.558 0-10.08 4.522-10.08 10.08 0 5.557 4.522 10.08 10.08 10.08s10.08-4.523 10.08-10.08c0-2.518-.923-4.824-2.453-6.593l9.653-9.652v9.765h1.44V3.6H20.16zm-6.48 10.08c2.32 0 4.435.9 5.985 2.385.003.002-.003.02 0 .022a.742.742 0 00.248.248 8.61 8.61 0 012.407 5.985 8.628 8.628 0 01-8.64 8.64 8.628 8.628 0 01-8.64-8.64 8.628 8.628 0 018.64-8.64z" fill="#796049"/></svg>