<svg width="52" height="52" fill="none" xmlns="http://www.w3.org/2000/svg"><path d="M2.974 51l.059-.08.06-.08.058-.079.059-.08.059-.08.058-.079.058-.08.058-.079.057-.08.057-.08.056-.079.056-.08.055-.079.054-.08.054-.08.053-.079.052-.08.051-.08.05-.079.05-.08.048-.079.048-.08.046-.08.045-.079.044-.08.043-.08.041-.079.04-.08.04-.079.037-.08.036-.08.035-.079.033-.08.032-.079.03-.08.028-.08.028-.079.025-.08.024-.08.022-.079.02-.08.02-.079.017-.08.016-.08.013-.079.013-.08.01-.079.009-.08.006-.08.005-.079.004-.08.001-.08v-.079l-.002-.08-.004-.079-.005-.08-.008-.08-.009-.079-.01-.08-.013-.08-.015-.079-.016-.08-.017-.079-.02-.08-.02-.08-.024-.079-.024-.08-.026-.079-.027-.08-.03-.08-.03-.079-.032-.08-.034-.08-.035-.079-.037-.08-.037-.079-.04-.08-.04-.08-.042-.079-.043-.08-.044-.079-.046-.08-.046-.08-.048-.079-.049-.08-.05-.08-.05-.079-.051-.08-.053-.079-.053-.08-.054-.08-.054-.079-.056-.08-.055-.08-.057-.079-.057-.08-.057-.079-.058-.08-.058-.08-.059-.079-.058-.08-.06-.079-.059-.08-.059-.08-.059-.079-.06-.08-.058-.08-.06-.079-.058-.08-.059-.079-.058-.08-.058-.08-.058-.079-.057-.08-.056-.08-.057-.079-.055-.08-.055-.079-.054-.08-.054-.08-.052-.079-.052-.08-.051-.079-.05-.08-.05-.08-.047-.079-.047-.08-.046-.08-.045-.079-.044-.08-.042-.079-.041-.08-.04-.08-.039-.079-.037-.08-.035-.079-.035-.08-.032-.08-.032-.079-.03-.08-.028-.08-.026-.079-.026-.08-.023-.079-.022-.08-.02-.08-.018-.079-.017-.08-.015-.08-.014-.079-.011-.08-.01-.079-.008-.08-.007-.08-.004-.079L1 38.58v-.16l.003-.08.005-.079.006-.08.007-.08.01-.079.011-.08.013-.079.015-.08.017-.08.018-.079.02-.08.021-.079.024-.08.024-.08.027-.079.028-.08.03-.08.03-.079.033-.08.034-.079.036-.08.036-.08.039-.079.04-.08.04-.08.042-.079.044-.08.044-.079.046-.08.047-.08.048-.079.049-.08.05-.079.05-.08.052-.08.053-.079.053-.08.054-.08.055-.079.056-.08.056-.079.056-.08.057-.08.058-.079.058-.08.058-.079.059-.08.058-.08.06-.079.058-.08.06-.08.059-.079.06-.08.058-.079.06-.08.058-.08.058-.079.059-.08.058-.08.057-.079.057-.08.057-.079.056-.08.055-.08.055-.079.054-.08.053-.079.052-.08.052-.08.05-.079.05-.08.05-.08.047-.079.047-.08.045-.079.045-.08.043-.08.042-.079.04-.08.04-.079.038-.08.037-.08.035-.079.034-.08.033-.08.03-.079.03-.08.028-.079.026-.08.025-.08.023-.079.021-.08.02-.08.018-.079.016-.08.015-.079.012-.08.012-.08.009-.079.008-.08.005-.079.005-.08.002-.08v-.159l-.004-.08-.005-.079-.006-.08-.009-.079-.01-.08-.011-.08-.014-.079-.015-.08-.017-.08-.019-.079-.02-.08-.022-.079-.024-.08-.025-.08-.027-.079-.029-.08-.03-.079-.031-.08-.033-.08-.035-.079-.035-.08-.038-.08-.038-.079-.04-.08-.042-.079-.042-.08-.044-.08-.045-.079-.046-.08-.047-.079-.048-.08-.05-.08-.05-.079-.05-.08-.053-.08-.052-.079-.054-.08-.054-.079-.055-.08-.056-.08-.056-.079-.057-.08-.057-.08-.058-.079-.058-.08-.058-.079-.059-.08-.059-.08-.059-.079-.059-.08L2.983 26l-.06-.08-.058-.08-.06-.079-.058-.08-.059-.08-.058-.079-.059-.08-.057-.079-.058-.08-.057-.08-.056-.079-.056-.08-.055-.079-.054-.08-.054-.08-.053-.079-.053-.08-.05-.08-.051-.079-.05-.08-.048-.079-.048-.08-.046-.08-.046-.079-.044-.08-.043-.08-.041-.079-.04-.08-.04-.079-.037-.08-.037-.08-.035-.079-.033-.08-.032-.079-.03-.08-.03-.08-.027-.079-.026-.08-.024-.08-.022-.079-.021-.08-.02-.079-.017-.08-.016-.08-.014-.079-.012-.08-.011-.079-.009-.08-.007-.08-.005-.079-.004-.08L1 21.86v-.079l.002-.08.003-.079.006-.08.007-.08.009-.079.01-.08.012-.08.015-.079.015-.08.018-.079.019-.08.02-.08.023-.079.024-.08.026-.079.027-.08.03-.08.03-.079.032-.08.033-.08.035-.079.036-.08.038-.079.039-.08.04-.08.042-.079.043-.08.044-.079.045-.08.046-.08.048-.079.048-.08.05-.08.05-.079.051-.08.053-.079.053-.08.053-.08.055-.079.055-.08.056-.08.056-.079.057-.08.058-.079.057-.08.058-.08.059-.079.059-.08.058-.079.06-.08.059-.08.059-.079.06-.08.058-.08.06-.079.058-.08.059-.079.058-.08.058-.08.058-.079.057-.08.057-.08.056-.079.056-.08.055-.079.054-.08.054-.08.052-.079.052-.08.052-.079.05-.08.049-.08.048-.079.047-.08.047-.08.045-.079.043-.08.043-.079.041-.08.04-.08.039-.079.037-.08.036-.079.035-.08.033-.08.031-.079.03-.08.029-.08.027-.079.025-.08.024-.079.022-.08.02-.08.019-.079.017-.08.015-.08.014-.079.012-.08.01-.079.008-.08.007-.08.005-.079.003-.08.001-.079v-.08l-.002-.08-.004-.079-.006-.08-.008-.08-.009-.079-.011-.08-.013-.079-.014-.08-.017-.08-.018-.079-.02-.08-.02-.079-.023-.08-.025-.08-.026-.079-.028-.08-.03-.08-.03-.079-.032-.08-.034-.079-.035-.08-.037-.08-.038-.079-.04-.08-.04-.08-.042-.079-.043-.08-.045-.079-.045-.08-.047-.08-.048-.079-.049-.08-.05-.079-.05-.08-.052-.08-.052-.079-.053-.08-.054-.08-.055-.079-.055-.08-.056-.079-.057-.08-.057-.08-.057-.079-.058-.08-.058-.079-.059-.08-.059-.08-.059-.079-.059-.08-.059-.08-.06-.079-.058-.08-.06-.079-.058-.08-.06-.08-.058-.079-.058-.08-.058-.08-.057-.079-.058-.08-.056-.079-.056-.08-.056-.08-.055-.079-.054-.08-.053-.079-.053-.08-.051-.08-.051-.079-.05-.08-.05-.08-.047-.079-.047-.08-.046-.079-.044-.08-.044-.08-.042-.079-.041-.08-.04-.079-.038-.08-.037-.08-.036-.079-.034-.08-.032-.08-.031-.079-.03-.08-.028-.079-.027-.08-.024-.08-.024-.079-.021-.08-.02-.08-.019-.079-.016-.08-.015-.079-.013-.08-.012-.08-.01-.079-.007-.08-.006-.079-.005-.08-.002-.08L1 5.14l.001-.08.003-.08.004-.079.006-.08.009-.079.01-.08.01-.08.014-.079.015-.08.017-.079.018-.08.02-.08.022-.079.024-.08.025-.08.026-.079.028-.08.03-.079.031-.08.033-.08.034-.079.036-.08.037-.08.038-.079.04-.08.041-.079.043-.08.043-.08.045-.079.046-.08.047-.079.048-.08.049-.08.05-.079.05-.08.053-.08.052-.079.054-.08.054-.079.055-.08.055-.08.056-.079.057-.08.057-.08.058-.079.058-.08.058-.079.059-.08.059-.08.059-.079.059-.08L2.955 1m6.598 50l.059-.08.059-.08.06-.079.058-.08.059-.08.058-.079.058-.08.058-.079.057-.08.057-.08.056-.079.056-.08.055-.079.054-.08.054-.08.053-.079.052-.08.051-.08.05-.079.05-.08.049-.079.047-.08.046-.08.045-.079.044-.08.043-.08.041-.079.04-.08.04-.079.037-.08.036-.08.034-.079.034-.08.032-.079.03-.08.028-.08.027-.079.026-.08.024-.08.022-.079.02-.08.02-.079.017-.08.016-.08.014-.079.012-.08.01-.079.008-.08.007-.08.005-.079.004-.08.001-.08v-.079l-.002-.08-.004-.079-.005-.08-.008-.08-.009-.079-.01-.08-.013-.08-.014-.079-.017-.08-.017-.079-.02-.08-.02-.08-.024-.079-.024-.08-.026-.079-.027-.08-.03-.08-.03-.079-.032-.08-.034-.08-.035-.079-.037-.08-.037-.079-.04-.08-.04-.08-.042-.079-.043-.08-.044-.079-.046-.08-.046-.08-.048-.079-.049-.08-.05-.08-.05-.079-.051-.08-.053-.079-.053-.08-.054-.08-.054-.079-.056-.08-.055-.08-.057-.079-.057-.08-.057-.079-.058-.08-.058-.08-.059-.079-.059-.08-.058-.079-.06-.08-.059-.08-.059-.079-.06-.08-.058-.08-.06-.079-.058-.08-.059-.079-.058-.08-.058-.08-.058-.079-.057-.08-.056-.08-.057-.079-.055-.08-.055-.079-.054-.08-.054-.08-.052-.079-.052-.08-.051-.079-.05-.08-.05-.08-.047-.079-.048-.08-.045-.08-.045-.079-.044-.08-.042-.079-.041-.08-.04-.08-.039-.079-.037-.08-.035-.079-.035-.08-.032-.08-.032-.079-.03-.08-.028-.08-.026-.079-.026-.08-.023-.079-.022-.08-.02-.08-.018-.079-.017-.08-.015-.08-.014-.079-.011-.08-.01-.079-.008-.08-.007-.08-.004-.079-.003-.08-.001-.079v-.08l.003-.08.005-.079.006-.08.007-.08.01-.079.011-.08.013-.079.015-.08.017-.08.018-.079.02-.08.021-.079.024-.08.024-.08.027-.079.028-.08.03-.08.03-.079.033-.08.034-.079.036-.08.036-.08.039-.079.04-.08.04-.08.042-.079.044-.08.044-.079.046-.08.047-.08.048-.079.049-.08.05-.079.05-.08.052-.08.053-.079.053-.08.054-.08.055-.079.056-.08.056-.079.056-.08.057-.08.058-.079.058-.08.058-.079.059-.08.058-.08.06-.079.058-.08.06-.08.059-.079.059-.08.06-.079.058-.08.059-.08.058-.079.059-.08.058-.08.057-.079.057-.08.057-.079.056-.08.055-.08.055-.079.054-.08.053-.079.052-.08.052-.08.05-.079.05-.08.05-.08.047-.079.047-.08.045-.079.045-.08.043-.08.042-.079.04-.08.04-.079.038-.08.037-.08.036-.079.033-.08.033-.08.03-.079.03-.08.028-.079.026-.08.025-.08.023-.079.021-.08.02-.08.018-.079.016-.08.015-.079.012-.08.012-.08.009-.079.008-.08.005-.079.005-.08.002-.08v-.159l-.004-.08-.005-.079-.006-.08-.009-.079-.01-.08-.012-.08-.013-.079-.015-.08-.017-.08-.019-.079-.02-.08-.022-.079-.024-.08-.025-.08-.027-.079-.029-.08-.03-.079-.031-.08-.033-.08-.035-.079-.035-.08-.038-.08-.038-.079-.04-.08-.042-.079-.042-.08-.044-.08-.045-.079-.046-.08-.047-.079-.048-.08-.05-.08-.05-.079-.05-.08-.053-.08-.052-.079-.054-.08-.054-.079-.055-.08-.056-.08-.056-.079-.057-.08-.057-.08-.058-.079-.058-.08-.058-.079-.059-.08-.059-.08-.059-.079-.059-.08L9.562 26l-.06-.08-.058-.08-.06-.079-.058-.08-.059-.08-.058-.079-.059-.08-.057-.079-.058-.08-.057-.08-.056-.079-.056-.08-.055-.079-.054-.08-.054-.08-.053-.079-.053-.08-.051-.08-.05-.079-.05-.08-.048-.079-.048-.08-.046-.08-.046-.079-.044-.08-.043-.08-.041-.079-.04-.08-.04-.079-.037-.08-.037-.08-.035-.079-.033-.08-.032-.079-.03-.08-.03-.08-.027-.079-.026-.08-.024-.08-.022-.079-.021-.08-.02-.079-.017-.08-.016-.08-.014-.079-.012-.08-.011-.079-.009-.08-.007-.08-.005-.079-.004-.08-.002-.08v-.079l.002-.08.003-.079.006-.08.007-.08.009-.079.01-.08.012-.08.015-.079.015-.08.018-.079.019-.08.02-.08.023-.079.024-.08.026-.079.027-.08.03-.08.03-.079.032-.08.033-.08.035-.079.036-.08.038-.079.039-.08.04-.08.042-.079.043-.08.044-.079.045-.08.046-.08.048-.079.048-.08.05-.08.05-.079.051-.08.053-.079.053-.08.053-.08.055-.079.055-.08.056-.08.056-.079.057-.08.057-.079.058-.08.058-.08.059-.079.059-.08.058-.079.06-.08.059-.08.059-.079.059-.08.06-.08.058-.079.06-.08.058-.079.058-.08.058-.08.058-.079.057-.08.057-.08.056-.079.056-.08.055-.079.054-.08.054-.08.052-.079.052-.08.052-.079.05-.08.049-.08.048-.079.047-.08.046-.08.046-.079.043-.08.043-.079.041-.08.04-.08.039-.079.037-.08.036-.079.035-.08.033-.08.031-.079.03-.08.029-.08.027-.079.025-.08.024-.079.022-.08.02-.08.019-.079.017-.08.015-.08.014-.079.012-.08.01-.079.008-.08.007-.08.005-.079.003-.08.001-.079v-.08l-.002-.08-.004-.079-.006-.08-.008-.08-.009-.079-.011-.08-.013-.079-.014-.08-.017-.08-.018-.079-.02-.08-.02-.079-.023-.08-.025-.08-.026-.079-.028-.08-.03-.08-.03-.079-.032-.08-.034-.079-.036-.08-.036-.08-.038-.079-.04-.08-.04-.08-.042-.079-.043-.08-.045-.079-.045-.08-.047-.08-.048-.079-.049-.08-.05-.079-.05-.08-.052-.08-.052-.079-.053-.08-.054-.08-.055-.079-.055-.08-.056-.079-.057-.08-.057-.08L10 9.918l-.058-.08-.058-.079-.059-.08-.059-.08-.059-.079-.059-.08-.059-.08-.06-.079-.058-.08-.06-.079-.058-.08-.06-.08-.058-.079-.058-.08-.058-.08-.058-.079-.057-.08-.056-.079-.056-.08-.056-.08-.055-.079-.054-.08-.053-.079-.053-.08-.051-.08-.051-.079-.05-.08-.05-.08-.047-.079-.047-.08-.046-.079-.045-.08-.043-.08-.042-.079-.041-.08-.04-.079-.038-.08-.037-.08-.036-.079-.034-.08-.032-.08-.031-.079-.03-.08-.028-.079-.027-.08-.024-.08-.024-.079-.021-.08-.02-.08-.019-.079-.016-.08-.015-.079-.013-.08-.012-.08-.01-.079-.007-.08-.006-.079-.005-.08-.002-.08-.001-.079v-.08l.004-.08.004-.079.006-.08.009-.079.01-.08.01-.08.014-.079.015-.08.017-.079.018-.08.02-.08.022-.079.024-.08.025-.08.026-.079.028-.08.03-.079.031-.08.033-.08.034-.079.036-.08.037-.08.038-.079.04-.08.041-.079.043-.08.043-.08.045-.079.046-.08.047-.079.048-.08.049-.08.05-.079.05-.08.053-.08.052-.079.054-.08.054-.079.055-.08.055-.08.056-.079.057-.08.057-.08.058-.079.058-.08.058-.079.059-.08.059-.08.059-.079.059-.08.058-.08m6.598 50l.059-.08.059-.08.06-.079.058-.08.059-.08.058-.079.058-.08.058-.079.057-.08.057-.08.056-.079.056-.08.055-.079.054-.08.054-.08.053-.079.052-.08.051-.08.05-.079.05-.08.049-.079.047-.08.046-.08.045-.079.044-.08.043-.08.041-.079.04-.08.04-.079.037-.08.036-.08.035-.079.033-.08.032-.079.03-.08.028-.08.027-.079.026-.08.024-.08.022-.079.02-.08.02-.079.017-.08.016-.08.013-.079.013-.08.01-.079.009-.08.006-.08.005-.079.004-.08.001-.08v-.079l-.002-.08-.004-.079-.005-.08-.008-.08-.009-.079-.01-.08-.013-.08-.015-.079-.016-.08-.017-.079-.02-.08-.02-.08-.024-.079-.024-.08-.026-.079-.027-.08-.03-.08-.03-.079-.032-.08-.034-.08-.035-.079-.037-.08-.038-.079-.039-.08-.04-.08-.042-.079-.043-.08-.044-.079-.046-.08-.046-.08-.048-.079-.049-.08-.05-.08-.05-.079-.051-.08-.053-.079-.053-.08-.054-.08-.054-.079-.056-.08-.055-.08-.057-.079-.057-.08-.057-.079-.058-.08-.058-.08-.059-.079-.058-.08-.06-.079-.059-.08-.059-.08-.059-.079-.06-.08-.058-.08-.06-.079-.058-.08-.059-.079-.058-.08-.058-.08-.058-.079-.057-.08-.056-.08-.057-.079-.055-.08-.055-.079-.054-.08-.054-.08-.052-.079-.052-.08-.051-.079-.05-.08-.05-.08-.047-.079-.047-.08-.046-.08-.045-.079-.044-.08-.042-.079-.041-.08-.04-.08-.038-.079-.038-.08-.035-.079-.035-.08-.033-.08-.03-.079-.03-.08-.029-.08-.026-.079-.026-.08-.023-.079-.022-.08-.02-.08-.018-.079-.017-.08-.015-.08-.014-.079-.011-.08-.01-.079-.008-.08-.007-.08-.004-.079-.003-.08-.001-.079v-.08l.003-.08.005-.079.006-.08.007-.08.01-.079.011-.08.013-.079.015-.08.017-.08.018-.079.02-.08.021-.079.024-.08.024-.08.027-.079.028-.08.03-.08.03-.079.033-.08.034-.079.036-.08.037-.08.038-.079.04-.08.04-.08.042-.079.044-.08.044-.079.046-.08.047-.08.048-.079.049-.08.05-.079.05-.08.052-.08.053-.079.053-.08.054-.08.055-.079.055-.08.057-.079.056-.08.057-.08.058-.079.058-.08.058-.079.059-.08.058-.08.06-.079.059-.08.059-.08.059-.079.059-.08.06-.079.058-.08.059-.08.058-.079.059-.08.058-.08.057-.079.057-.08.057-.079.055-.08.056-.08.055-.079.054-.08.053-.079.052-.08.052-.08.05-.079.05-.08.05-.08.047-.079.047-.08.045-.079.045-.08.043-.08.042-.079.04-.08.04-.079.038-.08.037-.08.035-.079.034-.08.033-.08.03-.079.03-.08.028-.079.026-.08.025-.08.023-.079.021-.08.02-.08.018-.079.016-.08.015-.079.012-.08.012-.08.009-.079.008-.08.005-.079.005-.08.002-.08v-.159l-.004-.08-.005-.079-.006-.08-.009-.079-.01-.08-.012-.08-.013-.079-.015-.08-.017-.08-.019-.079-.02-.08-.022-.079-.024-.08-.025-.08-.027-.079-.029-.08-.03-.079-.031-.08-.033-.08-.035-.079-.035-.08-.038-.08-.038-.079-.04-.08-.042-.079-.042-.08-.044-.08-.045-.079-.046-.08-.047-.079-.048-.08-.05-.08-.05-.079-.05-.08-.053-.08-.052-.079-.054-.08-.054-.079-.055-.08-.056-.08-.056-.079-.057-.08-.057-.08-.058-.079-.058-.08-.058-.079-.059-.08-.059-.08-.059-.079-.059-.08-.059-.079-.06-.08-.058-.08-.06-.079-.058-.08-.059-.08-.058-.079-.059-.08-.057-.079-.058-.08-.057-.08-.056-.079-.056-.08-.055-.079-.055-.08-.053-.08-.053-.079-.053-.08-.051-.08-.05-.079-.05-.08-.049-.079-.047-.08-.046-.08-.046-.079-.044-.08-.043-.08-.041-.079-.04-.08-.04-.079-.037-.08-.037-.08-.035-.079-.033-.08-.032-.079-.03-.08-.03-.08-.027-.079-.026-.08-.024-.08-.022-.079-.021-.08-.02-.079-.017-.08-.016-.08-.014-.079-.012-.08-.011-.079-.009-.08-.007-.08-.005-.079-.004-.08-.002-.08v-.079l.002-.08.003-.079.006-.08.007-.08.009-.079.01-.08.012-.08.014-.079.016-.08.018-.079.019-.08.02-.08.023-.079.024-.08.026-.079.027-.08.03-.08.03-.079.031-.08.034-.08.035-.079.036-.08.038-.079.039-.08.04-.08.042-.079.043-.08.044-.079.045-.08.046-.08.048-.079.048-.08.05-.08.05-.079.051-.08.053-.079.053-.08.053-.08.055-.079.055-.08.056-.08.056-.079.057-.08.057-.079.058-.08.058-.08.059-.079.059-.08.058-.079.06-.08.059-.08.059-.079.059-.08.06-.08.058-.079.059-.08.059-.079.058-.08.058-.08.058-.079.057-.08.057-.08.056-.079.056-.08.055-.079.054-.08.054-.08.052-.079.052-.08.052-.079.05-.08.049-.08.048-.079.047-.08.046-.08.046-.079.043-.08.043-.079.041-.08.04-.08.039-.079.037-.08.036-.079.035-.08.033-.08.031-.079.03-.08.029-.08.027-.079.025-.08.024-.079.022-.08.02-.08.019-.079.017-.08.015-.08.014-.079.012-.08.01-.079.008-.08.007-.08.005-.079.003-.08.001-.079v-.08l-.002-.08-.004-.079-.006-.08-.008-.08-.009-.079-.011-.08-.013-.079-.014-.08-.017-.08-.018-.079-.02-.08-.02-.079-.024-.08-.024-.08-.026-.079-.028-.08-.03-.08-.03-.079-.032-.08-.034-.079-.035-.08-.037-.08-.038-.079-.04-.08-.04-.08-.042-.079-.044-.08-.044-.079-.045-.08-.047-.08-.048-.079-.049-.08-.05-.079-.05-.08-.052-.08-.052-.079-.053-.08-.054-.08-.055-.079-.055-.08-.056-.079-.057-.08-.057-.08-.057-.079-.058-.08-.058-.079-.059-.08-.059-.08-.059-.079-.059-.08-.059-.08-.06-.079-.058-.08-.06-.079-.058-.08-.06-.08-.058-.079-.058-.08-.058-.08-.057-.079-.058-.08-.056-.079-.056-.08-.056-.08-.055-.079-.054-.08-.053-.079-.053-.08-.051-.08-.051-.079-.05-.08-.05-.08-.047-.079-.047-.08-.046-.079-.044-.08-.044-.08-.042-.079-.041-.08-.04-.079-.038-.08-.037-.08-.036-.079-.034-.08-.032-.08-.031-.079-.03-.08-.028-.079-.027-.08-.024-.08-.024-.079-.021-.08-.02-.08-.019-.079-.016-.08-.015-.079-.013-.08-.012-.08-.01-.079-.007-.08-.006-.079-.005-.08-.002-.08-.001-.079v-.08l.004-.08.004-.079.006-.08.008-.079.01-.08.012-.08.013-.079.015-.08.017-.079.018-.08.02-.08.022-.079.024-.08.024-.08.027-.079.028-.08.03-.079.031-.08.033-.08.034-.079.036-.08.037-.08.038-.079.04-.08.041-.079.043-.08.043-.08.045-.079.046-.08.047-.079.048-.08.049-.08.05-.079.05-.08.053-.08.052-.079.054-.08.054-.079.055-.08.055-.08.056-.079.057-.08.057-.08.058-.079.058-.08.058-.079.059-.08.058-.08.06-.079.059-.08.059-.079m6.597 50l.06-.08.059-.08.059-.079.059-.08.058-.08.059-.079.058-.08.058-.079.057-.08.057-.08.056-.079.056-.08.055-.079.054-.08.054-.08.053-.079.052-.08.051-.08.05-.079.05-.08.048-.079.048-.08.046-.08.045-.079.044-.08.043-.08.041-.079.04-.08.039-.079.037-.08.037-.08.034-.079.034-.08.031-.079.03-.08.03-.08.026-.079.026-.08.024-.08.022-.079.02-.08.02-.079.017-.08.015-.08.014-.079.012-.08.01-.079.01-.08.006-.08.005-.079.004-.08.001-.08v-.079l-.002-.08-.004-.079-.006-.08-.007-.08-.009-.079-.01-.08-.013-.08-.015-.079-.016-.08-.018-.079-.019-.08-.021-.08-.023-.079-.024-.08-.026-.079-.028-.08-.029-.08-.03-.079-.033-.08-.033-.08-.035-.079-.037-.08-.038-.079-.039-.08-.04-.08-.042-.079-.043-.08-.045-.079-.045-.08-.047-.08-.047-.079-.049-.08-.05-.08-.05-.079-.051-.08-.053-.079-.053-.08-.054-.08-.055-.079-.055-.08-.056-.08-.056-.079-.057-.08-.058-.079-.057-.08-.059-.08-.058-.079-.059-.08-.059-.079-.059-.08-.059-.08-.06-.079-.058-.08-.06-.08-.058-.079-.06-.08-.058-.079-.058-.08-.058-.08-.058-.079-.057-.08-.057-.08-.056-.079-.055-.08-.055-.079-.054-.08-.054-.08-.053-.079-.051-.08-.052-.079-.05-.08-.049-.08-.048-.079-.047-.08-.046-.08-.044-.079-.044-.08-.042-.079-.041-.08-.04-.08-.039-.079-.037-.08-.035-.079-.035-.08-.033-.08-.03-.079-.03-.08-.029-.08-.027-.079-.025-.08-.023-.079-.022-.08-.02-.08-.019-.079-.016-.08-.015-.08-.014-.079-.011-.08-.01-.079-.009-.08-.006-.08-.004-.079-.003-.08-.001-.079v-.08l.003-.08.004-.079.006-.08.008-.08.01-.079.011-.08.013-.079.015-.08.017-.08.018-.079.02-.08.021-.079.023-.08.025-.08.027-.079.028-.08.03-.08.03-.079.033-.08.034-.079.035-.08.037-.08.039-.079.04-.08.04-.08.042-.079.044-.08.044-.079.046-.08.047-.08.048-.079.049-.08.05-.079.05-.08.052-.08.053-.079.053-.08.054-.08.055-.079.055-.08.056-.079.057-.08.057-.08.058-.079.058-.08.058-.079.058-.08.06-.08.058-.079.06-.08.058-.08.06-.079.059-.08.059-.079.059-.08.059-.08.058-.079.058-.08.058-.08.058-.079.057-.08.056-.079.056-.08.056-.08.054-.079.055-.08.053-.079.052-.08.052-.08.05-.079.05-.08.05-.08.047-.079.047-.08.045-.079.045-.08.043-.08.042-.079.04-.08.04-.079.038-.08.037-.08.035-.079.034-.08.032-.08.031-.079.03-.08.028-.079.026-.08.024-.08.024-.079.02-.08.02-.08.018-.079.017-.08.014-.079.013-.08.011-.08.01-.079.007-.08.006-.079.004-.08.003-.08v-.079l-.001-.08-.003-.08-.005-.079-.006-.08-.009-.079-.01-.08-.012-.08-.013-.079-.015-.08-.017-.08-.02-.079-.02-.08-.022-.079-.023-.08-.025-.08-.027-.079-.029-.08-.03-.079-.031-.08-.033-.08-.035-.079-.036-.08-.037-.08-.039-.079-.04-.08-.04-.079-.043-.08-.044-.08-.045-.079-.046-.08-.047-.079-.048-.08-.05-.08-.05-.079-.05-.08-.053-.08-.052-.079-.054-.08-.054-.079-.055-.08-.056-.08-.056-.079-.057-.08-.057-.08-.058-.079-.058-.08-.058-.079-.059-.08-.059-.08-.059-.079-.059-.08-.06-.079-.058-.08-.06-.08-.058-.079-.06-.08-.058-.08-.059-.079-.058-.08-.058-.079-.057-.08-.057-.08-.056-.079-.056-.08-.055-.079-.055-.08-.054-.08-.053-.079-.052-.08-.051-.08-.05-.079-.05-.08-.049-.079-.047-.08-.047-.08-.045-.079-.044-.08-.043-.08-.041-.079-.04-.08-.04-.079-.038-.08-.036-.08-.035-.079-.033-.08-.032-.079-.03-.08-.03-.08-.027-.079-.026-.08-.024-.08-.023-.079-.02-.08-.02-.079-.017-.08-.016-.08-.014-.079-.013-.08-.01-.079-.01-.08-.006-.08-.006-.079-.003-.08-.002-.08v-.079l.002-.08.003-.079.005-.08.008-.08.008-.079.011-.08.012-.08.014-.079.016-.08.018-.079.019-.08.02-.08.023-.079.024-.08.026-.079.027-.08.029-.08.03-.079.032-.08.034-.08.035-.079.036-.08.038-.079.039-.08.04-.08.041-.079.043-.08.044-.079.046-.08.046-.08.047-.079.049-.08.05-.08.05-.079.051-.08.052-.079.053-.08.054-.08.055-.079.055-.08.056-.08.056-.079.057-.08.057-.079.058-.08.058-.08.059-.079.058-.08.06-.079.058-.08.06-.08.059-.079.059-.08.059-.08.059-.079.059-.08.058-.079.059-.08.058-.08.058-.079.057-.08.057-.08.056-.079.056-.08.055-.079.054-.08.053-.08.053-.079.052-.08.051-.079.05-.08.05-.08.048-.079.047-.08.046-.08.045-.079.044-.08.043-.079.04-.08.041-.08.039-.079.037-.08.036-.079.034-.08.034-.08.031-.079.03-.08.029-.08.027-.079.025-.08.024-.079.022-.08.02-.08.019-.079.017-.08.015-.08.014-.079.012-.08.01-.079.008-.08.007-.08.005-.079.003-.08.001-.079v-.08l-.003-.08-.004-.079-.005-.08-.008-.08-.01-.079-.01-.08-.013-.079-.015-.08-.016-.08-.018-.079-.02-.08-.02-.079-.024-.08-.024-.08-.026-.079-.028-.08-.03-.08-.03-.079-.033-.08-.033-.079-.036-.08-.036-.08-.038-.079-.04-.08-.04-.08-.042-.079-.044-.08-.044-.079-.046-.08-.046-.08-.048-.079-.049-.08-.05-.079-.05-.08-.052-.08-.052-.079-.053-.08-.054-.08-.055-.079-.055-.08-.056-.079-.057-.08-.057-.08-.057-.079-.058-.08-.059-.079-.058-.08-.059-.08-.059-.079-.059-.08-.06-.08-.058-.079-.06-.08-.059-.079-.059-.08-.058-.08-.059-.079-.058-.08-.058-.08-.058-.079-.057-.08-.056-.079-.056-.08-.056-.08-.055-.079-.054-.08-.053-.079-.053-.08-.052-.08-.05-.079-.05-.08-.05-.08-.047-.079-.047-.08-.046-.079-.045-.08-.043-.08-.042-.079-.041-.08-.04-.079-.038-.08-.037-.08-.036-.079-.034-.08-.032-.08-.032-.079-.03-.08-.027-.079-.027-.08-.025-.08-.023-.079-.022-.08-.02-.08-.018-.079-.016-.08-.015-.079-.013-.08-.012-.08-.01-.079-.007-.08-.006-.079-.005-.08-.002-.08-.001-.079v-.08l.004-.08.004-.079.006-.08.008-.079.01-.08.012-.08.013-.079.015-.08.017-.079.018-.08.02-.08.022-.079.023-.08.025-.08.027-.079.028-.08.03-.079.031-.08.033-.08.034-.079.036-.08.037-.08.038-.079.04-.08.041-.079.042-.08.044-.08.045-.079.045-.08.047-.079.049-.08.049-.08.05-.079.05-.08.052-.08.053-.079.053-.08.055-.079.055-.08.055-.08.056-.079.057-.08.057-.08.058-.079.058-.08.058-.079.059-.08.058-.08.06-.079.058-.08.06-.079m6.598 50l.059-.08.059-.08.059-.079.059-.08.058-.08.059-.079.058-.08.058-.079.057-.08.057-.08.056-.079.056-.08.055-.079.054-.08.054-.08.053-.079.052-.08.051-.08.05-.079.05-.08.048-.079.048-.08.046-.08.045-.079.044-.08.042-.08.042-.079.04-.08.039-.079.038-.08.036-.08.034-.079.034-.08.031-.079.03-.08.03-.08.026-.079.026-.08.024-.08.022-.079.02-.08.02-.079.017-.08.015-.08.014-.079.012-.08.01-.079.01-.08.006-.08.005-.079.004-.08.001-.08v-.079l-.002-.08-.004-.079-.006-.08-.007-.08-.009-.079-.01-.08-.013-.08-.015-.079-.016-.08-.018-.079-.019-.08-.021-.08-.023-.079-.024-.08-.026-.079-.028-.08-.029-.08-.03-.079-.033-.08-.033-.08-.035-.079-.037-.08-.038-.079-.039-.08-.04-.08-.042-.079-.043-.08-.045-.079-.045-.08-.047-.08-.047-.079-.049-.08-.05-.08-.05-.079-.052-.08-.052-.079-.053-.08-.054-.08-.055-.079-.055-.08-.056-.08-.056-.079-.057-.08-.058-.079-.057-.08-.058-.08-.059-.079-.059-.08-.059-.079-.059-.08-.059-.08-.06-.079-.058-.08-.06-.08-.058-.079-.06-.08-.058-.079-.058-.08-.058-.08-.058-.079-.057-.08-.057-.08-.056-.079-.055-.08-.055-.079-.055-.08-.053-.08-.053-.079-.052-.08-.05-.079-.05-.08-.05-.08-.048-.079-.047-.08-.046-.08-.044-.079-.044-.08-.042-.079-.041-.08-.04-.08-.039-.079-.037-.08-.036-.079-.034-.08-.033-.08-.031-.079-.03-.08-.028-.08-.027-.079-.025-.08-.023-.079-.022-.08-.02-.08-.019-.079-.017-.08-.015-.08-.013-.079-.011-.08-.01-.079-.008-.08-.007-.08-.004-.079-.003-.08-.001-.079v-.08l.003-.08.004-.079.006-.08.008-.08.01-.079.011-.08.013-.079.015-.08.017-.08.018-.079.02-.08.021-.079.023-.08.025-.08.027-.079.028-.08.03-.08.03-.079.033-.08.034-.079.035-.08.037-.08.038-.079.04-.08.041-.08.042-.079.044-.08.044-.079.046-.08.047-.08.048-.079.049-.08.05-.079.05-.08.052-.08.053-.079.053-.08.054-.08.055-.079.055-.08.056-.079.057-.08.057-.08.058-.079.057-.08.059-.079.058-.08.06-.08.058-.079.06-.08.058-.08.06-.079.059-.08.059-.079.059-.08.059-.08.058-.079.058-.08.058-.08.058-.079.057-.08.056-.079.056-.08.056-.08.054-.079.055-.08.053-.079.052-.08.052-.08.05-.079.05-.08.05-.08.047-.079.047-.08.045-.079.045-.08.043-.08.042-.079.04-.08.04-.079.038-.08.037-.08.035-.079.034-.08.032-.08.031-.079.03-.08.028-.079.026-.08.024-.08.023-.079.022-.08.02-.08.017-.079.017-.08.014-.079.013-.08.011-.08.01-.079.007-.08.006-.079.004-.08.003-.08v-.079l-.001-.08-.003-.08-.005-.079-.007-.08-.008-.079-.01-.08-.012-.08-.013-.079-.015-.08-.017-.08-.02-.079-.02-.08-.022-.079-.023-.08-.026-.08-.026-.079-.029-.08-.03-.079-.031-.08-.033-.08-.035-.079-.036-.08-.037-.08-.039-.079-.04-.08-.04-.079-.043-.08-.044-.08-.045-.079-.046-.08-.047-.079-.048-.08-.05-.08-.05-.079-.05-.08-.053-.08-.053-.079-.053-.08-.054-.079-.055-.08-.056-.08-.056-.079-.057-.08-.057-.08-.058-.079-.058-.08-.058-.079-.059-.08-.059-.08-.059-.079-.059-.08-.06-.079-.058-.08-.06-.08-.058-.079-.06-.08-.058-.08-.059-.079-.058-.08-.058-.079-.057-.08-.057-.08-.056-.079-.056-.08-.055-.079-.055-.08-.053-.08-.054-.079-.052-.08-.051-.08-.05-.079-.05-.08-.049-.079-.047-.08-.047-.08-.045-.079-.044-.08-.043-.08-.042-.079-.04-.08-.039-.079-.038-.08-.036-.08-.035-.079-.033-.08-.032-.079-.03-.08-.03-.08-.027-.079-.026-.08-.024-.08-.023-.079-.02-.08-.02-.079-.017-.08-.016-.08-.014-.079-.013-.08-.01-.079-.01-.08-.006-.08-.006-.079-.003-.08-.002-.08v-.079l.002-.08.003-.079.005-.08.008-.08.008-.079.011-.08.012-.08.014-.079.016-.08.018-.079.019-.08.02-.08.023-.079.024-.08.026-.079.027-.08.029-.08.03-.079.032-.08.034-.08.035-.079.036-.08.037-.079.04-.08.04-.08.042-.079.042-.08.044-.079.046-.08.046-.08.047-.079.049-.08.05-.08.05-.079.051-.08.052-.079.053-.08.054-.08.055-.079.055-.08.056-.08.056-.079.057-.08.057-.079.058-.08.058-.08.059-.079.058-.08.06-.079.058-.08.06-.08.059-.079.059-.08.059-.08.059-.079.059-.08.058-.079.059-.08.058-.08.058-.079.057-.08.057-.08.056-.079.055-.08.056-.079.054-.08.053-.08.053-.079.052-.08.051-.079.05-.08.05-.08.048-.079.047-.08.046-.08.045-.079.044-.08.043-.079.04-.08.04-.08.04-.079.037-.08.036-.079.034-.08.034-.08.031-.079.03-.08.029-.08.027-.079.025-.08.024-.079.022-.08.02-.08.019-.079.017-.08.015-.08.014-.079.012-.08.01-.079.008-.08.007-.08.005-.079.003-.08.001-.079v-.08l-.003-.08-.004-.079-.005-.08-.008-.08-.01-.079-.01-.08-.013-.079-.015-.08-.016-.08-.018-.079-.02-.08-.02-.079-.024-.08-.024-.08-.026-.079-.028-.08-.03-.08-.03-.079-.033-.08-.033-.079-.036-.08-.036-.08-.038-.079-.04-.08-.04-.08-.043-.079-.043-.08-.044-.079-.046-.08-.046-.08-.048-.079-.049-.08-.05-.079-.05-.08-.052-.08-.052-.079-.053-.08-.054-.08-.055-.079-.056-.08-.055-.079-.057-.08-.057-.08-.058-.079-.057-.08-.059-.079-.058-.08-.059-.08-.059-.079-.059-.08-.06-.08-.058-.079-.06-.08-.059-.079-.059-.08-.058-.08-.059-.079-.058-.08-.058-.08-.058-.079-.057-.08-.056-.079-.056-.08-.056-.08-.055-.079-.054-.08-.053-.079-.053-.08-.052-.08-.05-.079-.05-.08-.05-.08-.047-.079-.047-.08-.046-.079-.045-.08-.043-.08-.042-.079-.041-.08-.04-.079-.038-.08-.037-.08-.036-.079-.034-.08-.032-.08-.032-.079-.03-.08-.027-.079-.027-.08-.025-.08-.023-.079-.022-.08-.02-.08-.018-.079-.016-.08-.015-.079-.013-.08-.012-.08-.01-.079-.007-.08-.006-.079-.005-.08-.002-.08-.001-.079v-.08l.004-.08.004-.079.006-.08.008-.079.01-.08.012-.08.013-.079.015-.08.017-.079.018-.08.02-.08.022-.079.023-.08.025-.08.027-.079.028-.08.03-.079.031-.08.033-.08.034-.079.036-.08.037-.08.038-.079.04-.08.041-.079.042-.08.044-.08.045-.079.046-.08.046-.079.049-.08.049-.08.05-.079.05-.08.052-.08.053-.079.053-.08.055-.079.055-.08.055-.08.056-.079.057-.08.057-.08.058-.079.058-.08.058-.079.059-.08.058-.08.06-.079.058-.08.06-.079m6.597 50l.06-.08.059-.08.059-.079.059-.08.058-.08.059-.079.058-.08.058-.079.057-.08.057-.08.056-.079.056-.08.055-.079.054-.08.054-.08.053-.079.052-.08.051-.08.05-.079.05-.08.048-.079.048-.08.046-.08.045-.079.044-.08.043-.08.041-.079.04-.08.039-.079.037-.08.037-.08.034-.079.034-.08.031-.079.03-.08.03-.08.026-.079.026-.08.024-.08.022-.079.02-.08.02-.079.017-.08.015-.08.014-.079.012-.08.01-.079.01-.08.006-.08.005-.079.003-.08.002-.08v-.079l-.002-.08-.004-.079-.006-.08-.007-.08-.009-.079-.01-.08-.014-.08-.014-.079-.016-.08-.018-.079-.019-.08-.021-.08-.023-.079-.024-.08-.026-.079-.028-.08-.029-.08-.03-.079-.033-.08-.033-.08-.035-.079-.037-.08-.038-.079-.039-.08-.04-.08-.042-.079-.043-.08-.045-.079-.045-.08-.047-.08-.047-.079-.049-.08-.05-.08-.05-.079-.052-.08-.052-.079-.053-.08-.054-.08-.055-.079-.055-.08-.056-.08-.056-.079-.057-.08-.057-.079-.058-.08-.059-.08-.058-.079-.059-.08-.059-.079-.059-.08-.059-.08-.06-.079-.058-.08-.06-.08-.058-.079-.06-.08-.058-.079-.058-.08-.058-.08-.058-.079-.057-.08-.057-.08-.056-.079-.055-.08-.055-.079-.055-.08-.053-.08-.053-.079-.051-.08-.051-.079-.05-.08-.05-.08-.048-.079-.047-.08-.046-.08-.044-.079-.044-.08-.042-.079-.041-.08-.04-.08-.039-.079-.037-.08-.036-.079-.034-.08-.033-.08-.031-.079-.03-.08-.028-.08-.027-.079-.025-.08-.023-.079-.022-.08-.02-.08-.019-.079-.017-.08-.015-.08-.013-.079-.011-.08-.01-.079-.008-.08-.007-.08-.004-.079-.003-.08-.001-.079v-.08l.003-.08.004-.079.006-.08.008-.08.01-.079.011-.08.013-.079.015-.08.016-.08.019-.079.02-.08.021-.079.023-.08.025-.08.027-.079.028-.08.03-.08.03-.079.033-.08.034-.079.035-.08.037-.08.038-.079.04-.08.041-.08.042-.079.044-.08.044-.079.046-.08.047-.08.048-.079.049-.08.05-.079.05-.08.052-.08.053-.079.053-.08.054-.08.055-.079.055-.08.056-.079.057-.08.057-.08.058-.079.057-.08.059-.079.058-.08.06-.08.058-.079.06-.08.058-.08.06-.079.059-.08.059-.079.059-.08.059-.08.058-.079.058-.08.058-.08.058-.079.057-.08.056-.079.056-.08.056-.08.054-.079.054-.08.054-.079.052-.08.052-.08.05-.079.05-.08.05-.08.047-.079.047-.08.045-.079.045-.08.043-.08.042-.079.04-.08.04-.079.038-.08.037-.08.035-.079.034-.08.032-.08.031-.079.03-.08.028-.079.026-.08.024-.08.023-.079.022-.08.02-.08.017-.079.017-.08.014-.079.013-.08.011-.08.01-.079.007-.08.006-.079.004-.08.003-.08v-.079l-.001-.08-.003-.08-.005-.079-.006-.08-.009-.079-.01-.08-.012-.08-.013-.079-.016-.08-.017-.08-.018-.079-.02-.08-.023-.079-.023-.08-.025-.08-.027-.079-.029-.08-.03-.079-.031-.08-.033-.08-.035-.079-.036-.08-.037-.08-.039-.079-.04-.08-.04-.079-.043-.08-.044-.08-.045-.079-.046-.08-.047-.079-.048-.08-.05-.08-.05-.079-.05-.08-.053-.08-.053-.079-.053-.08-.055-.079-.055-.08-.055-.08-.056-.079-.057-.08-.057-.08-.058-.079-.058-.08-.058-.079-.059-.08-.059-.08-.059-.079-.059-.08-.06-.079-.058-.08-.06-.08-.059-.079-.059-.08-.058-.08-.059-.079-.058-.08-.058-.079-.057-.08-.057-.08-.056-.079-.056-.08-.055-.079-.055-.08-.053-.08-.054-.079-.052-.08-.051-.08-.05-.079-.05-.08-.049-.079-.047-.08-.047-.08-.045-.079-.044-.08-.043-.08-.042-.079-.04-.08-.039-.079-.038-.08-.036-.08-.035-.079-.033-.08-.032-.079-.03-.08-.03-.08-.027-.079-.026-.08-.024-.08-.023-.079-.02-.08-.02-.079-.017-.08-.016-.08-.014-.079-.013-.08-.01-.079-.01-.08-.006-.08-.006-.079-.003-.08-.002-.08v-.079l.002-.08.003-.079.006-.08.007-.08.008-.079.01-.08.013-.08.014-.079.016-.08.018-.079.019-.08.02-.08.023-.079.024-.08.026-.079.027-.08.029-.08.03-.079.032-.08.034-.08.035-.079.036-.08.038-.079.038-.08.04-.08.043-.079.042-.08.044-.079.046-.08.046-.08.047-.079.049-.08.05-.08.05-.079.051-.08.052-.079.053-.08.054-.08.055-.079.055-.08.056-.08.056-.079.057-.08.057-.079.058-.08.058-.08.059-.079.058-.08.06-.079.058-.08.06-.08.059-.079.059-.08.059-.08.059-.079.059-.08.058-.079.059-.08.058-.08.058-.079.057-.08.057-.08.056-.079.055-.08.055-.079.055-.08.053-.08.053-.079.052-.08.051-.079.05-.08.05-.08.048-.079.047-.08.046-.08.045-.079.044-.08.043-.079.04-.08.04-.08.04-.079.037-.08.036-.079.034-.08.033-.08.032-.079.03-.08.028-.08.027-.079.026-.08.023-.079.023-.08.02-.08.019-.079.017-.08.015-.08.014-.079.012-.08.01-.079.008-.08.007-.08.005-.079.003-.08.001-.079v-.08l-.003-.08-.004-.079-.005-.08-.008-.08-.01-.079-.01-.08-.013-.079-.015-.08-.016-.08-.018-.079-.02-.08-.02-.079-.024-.08-.024-.08-.026-.079-.028-.08-.03-.08-.03-.079-.033-.08-.034-.079-.035-.08-.036-.08-.038-.079-.04-.08-.04-.08-.042-.079-.044-.08-.044-.079-.046-.08-.046-.08-.048-.079-.049-.08-.05-.079-.05-.08-.052-.08-.052-.079-.053-.08-.055-.08-.054-.079-.056-.08-.055-.079-.057-.08-.057-.08-.057-.079-.058-.08-.059-.079-.058-.08-.059-.08-.059-.079-.059-.08-.06-.08-.058-.079-.06-.08-.059-.079-.059-.08-.058-.08-.059-.079-.058-.08-.058-.08-.058-.079-.057-.08-.056-.079-.056-.08-.056-.08-.055-.079-.054-.08-.053-.079-.053-.08-.052-.08-.05-.079-.05-.08-.05-.08-.047-.079-.047-.08-.046-.079-.045-.08-.043-.08-.042-.079-.041-.08-.04-.079-.038-.08-.037-.08-.036-.079-.034-.08-.032-.08-.032-.079-.03-.08-.027-.079-.027-.08-.025-.08-.023-.079-.022-.08-.02-.08-.018-.079-.016-.08-.015-.079-.013-.08-.012-.08-.01-.079-.007-.08-.006-.079-.005-.08-.002-.08-.001-.079v-.08l.003-.08.005-.079.006-.08.008-.079.01-.08.012-.08.013-.079.015-.08.017-.079.018-.08.02-.08.022-.079.023-.08.025-.08.027-.079.028-.08.03-.079.031-.08.033-.08.034-.079.036-.08.037-.08.038-.079.04-.08.041-.079.042-.08.044-.08.045-.079.046-.08.047-.079.047-.08.05-.08.05-.079.05-.08.052-.08.053-.079.053-.08.055-.079.055-.08.055-.08.056-.079.057-.08.057-.08.058-.079.058-.08.058-.079.059-.08.058-.08.06-.079.058-.08.06-.079m6.597 50l.06-.08.059-.08.059-.079.059-.08.058-.08.059-.079.058-.08.058-.079.057-.08.057-.08.056-.079.056-.08.055-.079.054-.08.054-.08.053-.079.052-.08.051-.08.05-.079.05-.08.048-.079.047-.08.047-.08.045-.079.044-.08.043-.08.041-.079.04-.08.039-.079.037-.08.037-.08.034-.079.033-.08.032-.079.03-.08.03-.08.026-.079.026-.08.024-.08.022-.079.02-.08.02-.079.017-.08.015-.08.014-.079.012-.08.01-.079.01-.08.006-.08.005-.079.004-.08.001-.08v-.079l-.002-.08-.004-.079-.006-.08-.007-.08-.01-.079-.01-.08-.012-.08-.015-.079-.016-.08-.018-.079-.019-.08-.021-.08-.023-.079-.024-.08-.026-.079-.028-.08-.029-.08-.03-.079-.033-.08-.033-.08-.035-.079-.037-.08-.038-.079-.039-.08-.04-.08-.042-.079-.043-.08-.045-.079-.045-.08-.047-.08-.047-.079-.049-.08-.05-.08-.05-.079-.052-.08-.052-.079-.053-.08-.054-.08-.055-.079-.055-.08-.056-.08-.056-.079-.057-.08-.058-.079-.057-.08-.059-.08-.058-.079-.059-.08-.059-.079-.059-.08-.059-.08-.06-.079-.058-.08-.06-.08-.058-.079-.06-.08-.058-.079-.058-.08-.058-.08-.058-.079-.057-.08-.057-.08-.056-.079-.055-.08-.055-.079-.055-.08-.053-.08-.053-.079-.052-.08-.05-.079-.05-.08-.05-.08-.048-.079-.047-.08-.046-.08-.044-.079-.044-.08-.042-.079-.041-.08-.04-.08-.039-.079-.037-.08-.036-.079-.034-.08-.033-.08-.031-.079-.03-.08-.028-.08-.027-.079-.025-.08-.023-.079-.022-.08-.02-.08-.019-.079-.017-.08-.015-.08-.013-.079-.011-.08-.01-.079-.008-.08-.007-.08-.004-.079-.003-.08-.001-.079v-.08l.003-.08.004-.079.006-.08.008-.08.01-.079.011-.08.013-.079.015-.08.017-.08.018-.079.02-.08.021-.079.023-.08.025-.08.027-.079.028-.08.03-.08.03-.079.033-.08.034-.079.035-.08.037-.08.039-.079.04-.08.04-.08.042-.079.044-.08.044-.079.046-.08.047-.08.048-.079.049-.08.05-.079.05-.08.052-.08.053-.079.053-.08.054-.08.055-.079.055-.08.056-.079.057-.08.057-.08.058-.079.057-.08.059-.079.058-.08.06-.08.058-.079.06-.08.058-.08.06-.079.059-.08.059-.079.059-.08.059-.08.058-.079.058-.08.058-.08.058-.079.057-.08.056-.079.056-.08.056-.08.054-.079.054-.08.054-.079.052-.08.052-.08.05-.079.05-.08.05-.08.047-.079.047-.08.045-.079.045-.08.043-.08.042-.079.04-.08.04-.079.038-.08.037-.08.035-.079.034-.08.032-.08.031-.079.03-.08.027-.079.027-.08.024-.08.023-.079.022-.08.02-.08.017-.079.017-.08.014-.079.013-.08.011-.08.01-.079.007-.08.006-.079.004-.08.003-.08v-.079l-.001-.08-.003-.08-.005-.079-.006-.08-.009-.079-.01-.08-.012-.08-.013-.079-.016-.08-.017-.08-.018-.079-.02-.08-.023-.079-.023-.08-.026-.08-.026-.079-.029-.08-.03-.079-.031-.08-.033-.08-.035-.079-.036-.08-.037-.08-.039-.079-.04-.08-.04-.079-.043-.08-.044-.08-.045-.079-.046-.08-.047-.079-.048-.08-.05-.08-.05-.079-.05-.08-.053-.08-.053-.079-.053-.08-.055-.079-.055-.08-.055-.08-.056-.079-.057-.08-.057-.08-.058-.079-.058-.08-.058-.079-.059-.08-.059-.08-.059-.079-.059-.08-.06-.079-.058-.08-.06-.08-.059-.079-.059-.08-.058-.08-.059-.079-.058-.08-.058-.079-.057-.08-.057-.08-.056-.079-.056-.08-.055-.079-.055-.08-.054-.08-.053-.079-.052-.08-.051-.08-.05-.079-.05-.08-.049-.079-.047-.08-.047-.08-.045-.079-.044-.08-.043-.08-.042-.079-.04-.08-.039-.079-.038-.08-.036-.08-.035-.079-.033-.08-.032-.079-.03-.08-.03-.08-.027-.079-.026-.08-.024-.08-.023-.079-.02-.08-.02-.079-.017-.08-.016-.08-.014-.079-.013-.08-.01-.079-.01-.08-.006-.08-.006-.079-.003-.08-.002-.08v-.079l.002-.08.003-.079.005-.08.008-.08.008-.079.01-.08.013-.08.014-.079.016-.08.018-.079.019-.08.02-.08.023-.079.024-.08.026-.079.027-.08.029-.08.03-.079.032-.08.034-.08.035-.079.036-.08.038-.079.038-.08.04-.08.043-.079.042-.08.044-.079.046-.08.046-.08.047-.079.049-.08.05-.08.05-.079.051-.08.052-.079.053-.08.054-.08.055-.079.055-.08.056-.08.056-.079.057-.08.057-.079.058-.08.058-.08.059-.079.058-.08.06-.079.058-.08.06-.08.059-.079.059-.08.059-.08.059-.079.059-.08.058-.079.059-.08.058-.08.057-.079.058-.08.056-.08.057-.079.055-.08.055-.079.055-.08.053-.08.053-.079.052-.08.051-.079.05-.08.05-.08.048-.079.047-.08.046-.08.045-.079.044-.08.043-.079.04-.08.04-.08.04-.079.037-.08.036-.079.034-.08.033-.08.032-.079.03-.08.029-.08.026-.079.026-.08.023-.079.023-.08.02-.08.019-.079.017-.08.015-.08.014-.079.012-.08.01-.079.008-.08.007-.08.005-.079.003-.08.001-.079v-.08l-.003-.08-.004-.079-.005-.08-.008-.08-.01-.079-.01-.08-.013-.079-.015-.08-.016-.08-.018-.079-.02-.08-.02-.079-.024-.08-.024-.08-.026-.079-.028-.08-.03-.08-.03-.079-.033-.08-.034-.079-.035-.08-.036-.08-.038-.079-.04-.08-.04-.08-.042-.079-.044-.08-.044-.079-.046-.08-.046-.08-.048-.079-.049-.08-.05-.079-.05-.08-.052-.08-.052-.079-.053-.08-.054-.08-.055-.079-.056-.08-.055-.079-.057-.08-.057-.08-.057-.079-.058-.08-.059-.079-.058-.08-.059-.08-.059-.079-.059-.08-.06-.08-.058-.079-.06-.08-.059-.079-.059-.08-.058-.08-.059-.079-.058-.08-.058-.08-.058-.079-.057-.08-.056-.079-.057-.08-.055-.08-.055-.079-.054-.08-.053-.079-.053-.08-.052-.08-.05-.079-.05-.08-.05-.08-.047-.079-.047-.08-.046-.079-.045-.08-.043-.08-.042-.079-.041-.08-.04-.079-.038-.08-.037-.08-.036-.079-.034-.08-.033-.08-.03-.079-.03-.08-.028-.079-.027-.08-.025-.08-.023-.079-.022-.08-.02-.08-.018-.079-.016-.08-.015-.079-.013-.08-.012-.08-.01-.079-.007-.08-.007-.079-.004-.08-.002-.08-.001-.079v-.08l.003-.08.005-.079.006-.08.008-.079.01-.08.012-.08.013-.079.015-.08.017-.079.018-.08.02-.08.022-.079.023-.08.025-.08.027-.079.028-.08.03-.079.031-.08.033-.08.034-.079.036-.08.037-.08.038-.079.04-.08.041-.079.042-.08.044-.08.045-.079.045-.08.047-.079.049-.08.049-.08.05-.079.05-.08.052-.08.053-.079.053-.08.055-.079.054-.08.056-.08.056-.079.057-.08.057-.08.058-.079.057-.08.059-.079.058-.08.06-.08.058-.079.06-.08.059-.079m6.597 50l.06-.08.059-.08.059-.079.059-.08.058-.08.059-.079.058-.08.058-.079.057-.08.057-.08.056-.079.056-.08.055-.079.054-.08.054-.08.053-.079.052-.08.051-.08.05-.079.05-.08.048-.079.047-.08.047-.08.045-.079.044-.08.042-.08.042-.079.04-.08.039-.079.038-.08.036-.08.034-.079.033-.08.032-.079.03-.08.03-.08.026-.079.026-.08.024-.08.022-.079.02-.08.02-.079.017-.08.015-.08.014-.079.012-.08.01-.079.01-.08.006-.08.005-.079.004-.08.001-.08v-.079l-.002-.08-.004-.079-.006-.08-.007-.08-.01-.079-.01-.08-.012-.08-.015-.079-.016-.08-.018-.079-.019-.08-.021-.08-.023-.079-.024-.08-.026-.079-.028-.08-.029-.08-.03-.079-.033-.08-.033-.08-.035-.079-.037-.08-.038-.079-.039-.08-.04-.08-.042-.079-.043-.08-.045-.079-.045-.08-.047-.08-.047-.079-.049-.08-.05-.08-.05-.079-.052-.08-.052-.079-.053-.08-.054-.08-.055-.079-.055-.08-.056-.08-.056-.079-.057-.08-.058-.079-.057-.08-.059-.08-.058-.079-.059-.08-.059-.079-.059-.08-.059-.08-.06-.079-.058-.08-.06-.08-.058-.079-.06-.08-.058-.079-.058-.08-.058-.08-.058-.079-.057-.08-.057-.08-.056-.079-.055-.08-.055-.079-.055-.08-.053-.08-.053-.079-.052-.08-.05-.079-.05-.08-.05-.08-.048-.079-.047-.08-.046-.08-.044-.079-.044-.08-.042-.079-.041-.08-.04-.08-.039-.079-.037-.08-.036-.079-.034-.08-.033-.08-.031-.079-.03-.08-.028-.08-.027-.079-.025-.08-.023-.079-.022-.08-.02-.08-.019-.079-.017-.08-.015-.08-.013-.079-.012-.08-.01-.079-.008-.08-.006-.08-.005-.079-.002-.08-.001-.079v-.08l.003-.08.004-.079.006-.08.008-.08.01-.079.011-.08.013-.079.015-.08.017-.08.018-.079.02-.08.021-.079.023-.08.025-.08.027-.079.028-.08.03-.08.03-.079.033-.08.034-.079.035-.08.037-.08.038-.079.04-.08.041-.08.042-.079.044-.08.044-.079.046-.08.047-.08.048-.079.049-.08.05-.079.05-.08.052-.08.053-.079.053-.08.054-.08.055-.079.055-.08.056-.079.057-.08.057-.08.058-.079.057-.08.059-.079.058-.08.06-.08.058-.079.06-.08.058-.08.06-.079.059-.08.059-.079.059-.08.059-.08.058-.079.058-.08.058-.08.058-.079.057-.08.056-.079.056-.08.056-.08.054-.079.054-.08.054-.079.052-.08.052-.08.05-.079.05-.08.05-.08.047-.079.047-.08.045-.079.045-.08.043-.08.042-.079.04-.08.04-.079.038-.08.037-.08.035-.079.034-.08.032-.08.031-.079.03-.08.027-.079.027-.08.024-.08.023-.079.022-.08.02-.08.017-.079.017-.08.014-.079.013-.08.011-.08.01-.079.007-.08.006-.079.004-.08.002-.08.001-.079-.001-.08-.003-.08-.005-.079-.007-.08-.008-.079-.01-.08-.012-.08-.013-.079-.016-.08-.017-.08-.018-.079-.02-.08-.023-.079-.023-.08-.026-.08-.026-.079-.029-.08-.03-.079-.031-.08-.033-.08-.035-.079-.036-.08-.037-.08-.039-.079-.04-.08-.04-.079-.043-.08-.044-.08-.045-.079-.046-.08-.047-.079-.048-.08-.05-.08-.05-.079-.05-.08-.053-.08-.053-.079-.053-.08-.055-.079-.054-.08-.056-.08-.056-.079-.057-.08-.057-.08-.058-.079-.058-.08-.058-.079-.059-.08-.059-.08-.059-.079-.059-.08-.06-.079-.058-.08-.06-.08-.059-.079-.058-.08-.06-.08-.058-.079-.058-.08-.058-.079-.057-.08-.057-.08-.056-.079-.056-.08-.055-.079-.055-.08-.054-.08-.053-.079-.052-.08-.051-.08-.05-.079-.05-.08-.049-.079-.047-.08-.047-.08-.045-.079-.044-.08-.043-.08-.042-.079-.04-.08-.04-.079-.037-.08-.036-.08-.035-.079-.033-.08-.032-.079-.03-.08-.03-.08-.027-.079-.026-.08-.024-.08-.023-.079-.02-.08-.02-.079-.017-.08-.016-.08-.014-.079-.013-.08-.01-.079-.01-.08-.006-.08-.006-.079-.003-.08-.002-.08v-.079l.002-.08.003-.079.005-.08.008-.08.008-.079.01-.08.013-.08.014-.079.016-.08.018-.079.019-.08.02-.08.023-.079.024-.08.026-.079.027-.08.029-.08.03-.079.032-.08.034-.08.035-.079.036-.08.038-.079.038-.08.04-.08.042-.079.043-.08.044-.079.046-.08.046-.08.047-.079.049-.08.05-.08.05-.079.051-.08.052-.079.053-.08.054-.08.055-.079.055-.08.056-.08.056-.079.057-.08.057-.079.058-.08.058-.08.059-.079.058-.08.06-.079.058-.08.06-.08.059-.079.059-.08.059-.08.059-.079.059-.08.058-.079.059-.08.058-.08.057-.079.058-.08.056-.08.057-.079.055-.08.055-.079.055-.08.053-.08.053-.079.052-.08.051-.079.05-.08.05-.08.048-.079.047-.08.046-.08.045-.079.044-.08.043-.079.04-.08.04-.08.04-.079.037-.08.036-.079.034-.08.033-.08.032-.079.03-.08.029-.08.026-.079.026-.08.023-.079.023-.08.02-.08.019-.079.017-.08.015-.08.014-.079.012-.08.01-.079.008-.08.007-.08.005-.079.003-.08L51 13.5v-.08l-.003-.08-.004-.079-.005-.08-.008-.08-.01-.079-.01-.08-.013-.079-.015-.08-.016-.08-.018-.079-.02-.08-.02-.079-.024-.08-.024-.08-.026-.079-.028-.08-.03-.08-.03-.079-.033-.08-.033-.079-.036-.08-.036-.08-.038-.079-.04-.08-.04-.08-.042-.079-.044-.08-.044-.079-.046-.08-.046-.08-.048-.079-.049-.08-.05-.079-.05-.08-.052-.08-.052-.079-.054-.08-.053-.08-.055-.079-.056-.08-.056-.079-.056-.08-.057-.08-.058-.079-.057-.08-.059-.079-.058-.08-.059-.08-.059-.079-.059-.08-.06-.08-.058-.079-.06-.08-.059-.079-.059-.08-.058-.08-.059-.079-.058-.08-.058-.08-.058-.079-.057-.08-.056-.079-.057-.08-.055-.08-.055-.079-.054-.08-.053-.079-.053-.08-.052-.08-.05-.079-.05-.08-.05-.08-.048-.079-.046-.08-.046-.079-.045-.08-.043-.08-.042-.079-.041-.08-.04-.079-.038-.08-.037-.08-.036-.079-.034-.08-.033-.08-.03-.079-.03-.08-.028-.079-.027-.08-.025-.08-.023-.079-.022-.08-.02-.08-.018-.079-.016-.08-.015-.079-.013-.08-.012-.08-.01-.079-.007-.08-.007-.079-.004-.08-.002-.08-.001-.079v-.08l.003-.08.005-.079.006-.08.008-.079.01-.08.012-.08.013-.079.015-.08.017-.079.018-.08.02-.08.022-.079.023-.08.025-.08.027-.079.028-.08.03-.079.031-.08.033-.08.034-.079.036-.08.037-.08.038-.079.04-.08.041-.079.042-.08.044-.08.045-.079.045-.08.047-.079.049-.08.049-.08.05-.079.05-.08.052-.08.053-.079.053-.08.055-.079.054-.08.056-.08.056-.079.057-.08.057-.08.057-.079.059-.08.058-.079.058-.08.06-.08.058-.079.06-.08.059-.079" stroke="#796049" stroke-width=".5"/></svg>