<svg width="52" height="52" fill="none" xmlns="http://www.w3.org/2000/svg"><path d="M7.633 1c2.14.062 6.77 2.035 5.712 6.72-.494 1.233-2.75 3.391-6.488 3.823-1.292.082-3.864-.21-3.808-2.035.057-1.825 2.563-2.158 3.808-2.096 1.082.02 2.962.616 4.232 2.671.282.412 1.269 1.953 1.269 3.74 0 1.789 0 2.837-.423 4.193-.454 1.11-.917 2.343-2.468 3.884m0 0c-.447.432-1.467 1.37-1.975 1.665-.635.37-1.763 1.048-2.61 1.356-.916.247-1.692.37-2.467.247-.846-.37-1.34-.863-1.41-1.295 0-.555-.071-.863.352-1.418.423-.555 1.904-1.85 3.737-1.726.988 0 3.315.185 4.373 1.171zm0 0c.164.082.634.42 1.198 1.11.565.863 1.129 2.158 1.27 2.897.14.74.211 3.206 0 4.131-.212.925-1.199 2.898-2.61 3.7-1.41.8-3.314 2.096-5.43 2.219-2.115.123-2.397-.617-2.538-.863-.118-.267-.282-.913 0-1.357.353-.555 1.34-1.48 2.539-1.603 1.198-.123 2.75.062 3.173.309.423.246 1.904 1.294 2.257 1.973.352.678 1.198 2.219 1.128 4.254-.07 2.034-.423 4.623-1.904 5.733-1.34 1.172-2.327 1.911-4.09 1.85-.752-.041-2.3-.346-2.468-1.233.211-1.172 1.622-1.603 2.045-1.665.423-.061 2.68-.308 3.808 1.048.705.925 1.199 1.727 1.48 3.268-.211 1.541-.211 1.85-1.692 3.329m11.734 0c-2.14-.062-6.77-2.035-5.712-6.72.494-1.233 2.75-3.391 6.488-3.822 1.292-.083 3.864.21 3.808 2.034-.057 1.825-2.563 2.158-3.808 2.096-1.082-.02-2.962-.616-4.232-2.671-.282-.412-1.269-1.953-1.269-3.74 0-1.789 0-2.837.423-4.193.454-1.11.917-2.343 2.468-3.884m0 0c.447-.432 1.467-1.369 1.975-1.665.635-.37 1.763-1.048 2.61-1.356.916-.247 1.692-.37 2.467-.247.846.37 1.34.863 1.41 1.295 0 .555.071.863-.352 1.418-.423.555-1.904 1.85-3.738 1.726-.987 0-3.314-.185-4.372-1.171zm0 0c-.164-.082-.634-.42-1.199-1.11-.564-.863-1.128-2.158-1.269-2.897-.14-.74-.211-3.206 0-4.131.212-.925 1.199-2.898 2.61-3.7 1.41-.8 3.314-2.096 5.43-2.219 2.115-.123 2.397.617 2.538.863.117.267.282.913 0 1.357-.353.554-1.34 1.48-2.539 1.603-1.198.123-2.75-.062-3.173-.309-.423-.246-1.904-1.294-2.257-1.973-.352-.678-1.198-2.219-1.128-4.253.07-2.035.423-4.624 1.904-5.734 1.34-1.172 2.327-1.911 4.09-1.85.752.041 2.3.345 2.468 1.233-.211 1.172-1.622 1.603-2.045 1.665-.423.062-2.68.308-3.808-1.048-.705-.925-1.199-1.726-1.48-3.268.211-1.541.211-1.85 1.692-3.329m13.266 0c2.14.062 6.77 2.035 5.712 6.72-.493 1.233-2.75 3.391-6.488 3.823-1.292.082-3.864-.21-3.808-2.035.057-1.825 2.563-2.158 3.808-2.096 1.082.02 2.962.616 4.232 2.671.282.412 1.269 1.953 1.269 3.74 0 1.789 0 2.837-.423 4.193-.454 1.11-.917 2.343-2.468 3.884m0 0c-.447.432-1.467 1.369-1.975 1.665-.635.37-1.763 1.048-2.61 1.356-.916.247-1.692.37-2.467.247-.846-.37-1.34-.863-1.41-1.295 0-.555-.071-.863.352-1.418.423-.555 1.904-1.85 3.738-1.726.987 0 3.314.185 4.372 1.171zm0 0c.164.082.634.42 1.199 1.11.564.863 1.128 2.158 1.269 2.897.14.74.211 3.206 0 4.131-.212.925-1.199 2.898-2.61 3.7-1.41.8-3.314 2.096-5.43 2.219-2.115.123-2.397-.617-2.538-.863-.117-.267-.282-.913 0-1.357.353-.555 1.34-1.48 2.539-1.603 1.198-.123 2.75.062 3.173.309.423.246 1.904 1.294 2.257 1.973.352.678 1.198 2.219 1.128 4.254-.07 2.034-.423 4.623-1.904 5.733-1.34 1.172-2.327 1.911-4.09 1.85-.752-.041-2.3-.346-2.468-1.233.211-1.172 1.622-1.603 2.045-1.665.423-.061 2.68-.308 3.808 1.048.705.925 1.199 1.727 1.48 3.268-.211 1.541-.211 1.85-1.692 3.329m12.5 0c2.14-.062 6.77-2.035 5.712-6.72-.493-1.233-2.75-3.391-6.488-3.822-1.292-.083-3.864.21-3.808 2.034.057 1.825 2.563 2.158 3.808 2.096 1.082-.02 2.962-.616 4.232-2.671.282-.412 1.269-1.953 1.269-3.74 0-1.789 0-2.837-.423-4.193-.454-1.11-.917-2.343-2.468-3.884m0 0c-.447-.432-1.467-1.369-1.975-1.665-.635-.37-1.763-1.048-2.61-1.356-.916-.247-1.691-.37-2.467-.247-.846.37-1.34.863-1.41 1.295 0 .555-.071.863.352 1.418.423.555 1.904 1.85 3.737 1.726.988 0 3.315-.185 4.373-1.171zm0 0c.164-.082.634-.42 1.199-1.11.564-.863 1.128-2.158 1.269-2.897.14-.74.211-3.206 0-4.131-.212-.925-1.199-2.898-2.61-3.7-1.41-.8-3.314-2.096-5.43-2.219-2.115-.123-2.397.617-2.538.863-.117.267-.282.913 0 1.357.353.554 1.34 1.48 2.539 1.603 1.198.123 2.75-.062 3.173-.309.423-.246 1.904-1.294 2.257-1.973.352-.678 1.198-2.219 1.128-4.253-.07-2.035-.423-4.624-1.904-5.734-1.34-1.172-2.327-1.911-4.09-1.85-.752.041-2.3.345-2.468 1.233.211 1.172 1.622 1.603 2.045 1.665.423.062 2.68.308 3.808-1.048.705-.925 1.199-1.726 1.48-3.268-.211-1.541-.211-1.85-1.692-3.329" stroke="#796049" stroke-width=".5"/></svg>