<svg width="36" height="36" fill="none" xmlns="http://www.w3.org/2000/svg"><path d="M17.381 0v2.495l-1.422-1.246-.87.773 2.292 2.01V7.09c-.341 0-.619.245-.619.545 0 .3.278.546.619.546v8.874L8.659 12.62a.48.48 0 00.063-.415.569.569 0 00-.288-.333.69.69 0 00-.338-.07.628.628 0 00-.508.273l-2.982-1.518-.853-2.771-1.195.285.527 1.711L.62 8.529 0 9.471l2.45 1.248-1.933.463.324 1.052 3.122-.745 3.008 1.527-.002.002c-.172.26-.07.595.227.746.14.073.31.092.47.054a.596.596 0 00.374-.254c.002 0 .002 0 0-.002L16.762 18 8.04 22.438v-.002a.642.642 0 00-.551-.273.693.693 0 00-.293.073c-.297.151-.399.486-.227.745l.002.003L3.987 24.5.84 23.763l-.317 1.055 1.944.454L0 26.529l.619.942 2.45-1.247-.513 1.707 1.197.28.83-2.754 3.005-1.532c.172.262.549.352.846.2.295-.15.397-.483.225-.745l8.722-4.436v8.874c-.341 0-.619.245-.619.546 0 .3.278.545.619.545v3.034l-2.295 2.037.876.767 1.419-1.255V36h1.238v-2.495l1.422 1.244.87-.771-2.292-2.01V28.91c.341 0 .619-.245.619-.545 0-.3-.278-.546-.619-.546v-8.874l8.722 4.436-.003.002a.494.494 0 00-.062.413c.043.141.147.26.29.333.295.151.675.06.844-.2.002 0 .002 0 .002-.003l2.982 1.517.853 2.773 1.195-.286-.527-1.711 2.466 1.253.619-.942-2.45-1.248 1.933-.463-.325-1.052-3.121.745-3.006-1.527c.172-.262.068-.595-.227-.746a.68.68 0 00-.339-.072.627.627 0 00-.505.272L19.238 18l8.72-4.438a.62.62 0 00.377.256.7.7 0 00.469-.056c.295-.151.396-.484.225-.746l2.984-1.517 3.148.737.317-1.054-1.944-.454L36 9.471l-.619-.942-2.45 1.247.513-1.707-1.197-.28-.83 2.754-3.005 1.532c0-.003 0-.003-.002-.003a.635.635 0 00-.55-.272.693.693 0 00-.294.072c-.295.151-.4.486-.227.746l.002.002-8.722 4.436V8.182c.341 0 .619-.245.619-.546 0-.3-.278-.545-.619-.545V4.057l2.295-2.037-.876-.767-1.419 1.255V0h-1.238zm-3.714 3.818c-.341 0-.62.245-.62.546 0 .3.279.545.62.545.34 0 .619-.245.619-.545 0-.3-.278-.546-.62-.546zm8.666 0c-.34 0-.619.245-.619.546 0 .3.278.545.62.545.34 0 .618-.245.618-.545 0-.3-.278-.546-.619-.546zm-6.81 1.637c-.34 0-.618.245-.618.545 0 .3.278.545.619.545.34 0 .619-.245.619-.545 0-.3-.278-.545-.62-.545zm4.953 0c-.34 0-.619.245-.619.545 0 .3.278.545.62.545.34 0 .618-.245.618-.545 0-.3-.278-.545-.619-.545zm-9.302 1.608a.66.66 0 00-.293.07.565.565 0 00-.29.333c-.041.14-.02.29.063.415.172.26.549.35.846.199.295-.152.397-.484.225-.744a.63.63 0 00-.551-.273zm13.606 0a.635.635 0 00-.508.273.491.491 0 00-.062.413c.043.14.147.26.29.33.14.075.31.094.469.056a.613.613 0 00.375-.254c.171-.262.07-.594-.225-.745a.691.691 0 00-.339-.073zm4.44.267a.692.692 0 00-.293.072.565.565 0 00-.29.332.484.484 0 00.06.414.608.608 0 00.378.253.68.68 0 00.471-.055c.295-.15.397-.484.225-.744a.642.642 0 00-.551-.272zm-22.795.475a.63.63 0 00-.506.27.477.477 0 00-.062.414c.043.14.147.26.287.332.298.151.675.06.847-.2.171-.26.07-.595-.228-.746a.678.678 0 00-.338-.07zm9.099.922c-.341 0-.62.245-.62.546 0 .3.279.545.62.545.34 0 .619-.245.619-.545 0-.3-.278-.546-.62-.546zm4.952 0c-.34 0-.619.245-.619.546 0 .3.278.545.62.545.34 0 .618-.245.618-.545 0-.3-.278-.546-.619-.546zm-8.062.224a.666.666 0 00-.295.075.555.555 0 00-.29.33c-.041.14-.02.29.063.413a.62.62 0 00.377.256.7.7 0 00.47-.056c.294-.15.396-.483.224-.745a.635.635 0 00-.549-.273zm11.128.002a.639.639 0 00-.508.27.497.497 0 00-.063.416c.044.14.148.26.29.333.296.149.675.06.845-.203.171-.26.07-.592-.225-.743a.685.685 0 00-.339-.073zm4.998.612a.694.694 0 00-.295.072.553.553 0 00-.288.332.477.477 0 00.063.414c.17.26.55.35.844.2.295-.151.4-.486.228-.746a.642.642 0 00-.552-.272zm-21.124.002a.64.64 0 00-.51.27.488.488 0 00-.06.416c.043.14.147.26.29.332.295.15.672.06.844-.202.171-.26.07-.593-.225-.744a.69.69 0 00-.339-.072zm6.236 1.274a.666.666 0 00-.295.075c-.295.149-.399.483-.227.743a.608.608 0 00.377.254.677.677 0 00.47-.056c.294-.149.396-.483.224-.743a.635.635 0 00-.549-.273zm8.652 0a.64.64 0 00-.508.273c-.171.262-.067.594.228.745.295.152.674.062.843-.2a.475.475 0 00.063-.413.544.544 0 00-.287-.33.686.686 0 00-.339-.075zm3.02.36a.666.666 0 00-.295.075c-.295.149-.399.483-.227.743a.608.608 0 00.377.254.693.693 0 00.47-.053c.294-.152.396-.486.224-.746a.635.635 0 00-.549-.273zm-14.694 0a.695.695 0 00-.29.081.567.567 0 00-.216.192c-.171.262-.07.594.225.745a.705.705 0 00.472.056.62.62 0 00.377-.256.483.483 0 00.06-.413.555.555 0 00-.29-.33.68.68 0 00-.338-.075zm4.26 1.53a.694.694 0 00-.295.072.565.565 0 00-.29.333.494.494 0 00.063.413.608.608 0 00.377.254.677.677 0 00.47-.056c.294-.149.396-.483.224-.743a.635.635 0 00-.549-.273zm6.176.002a.639.639 0 00-.508.27.494.494 0 00-.063.414c.044.14.148.26.29.332.296.152.675.06.845-.2.171-.26.07-.595-.225-.746a.682.682 0 00-.339-.07zm9.95.611a.664.664 0 00-.295.073c-.295.151-.396.484-.224.746.169.26.548.35.843.198.295-.152.4-.484.228-.744a.632.632 0 00-.552-.273zm-26.078 0a.635.635 0 00-.508.273c-.17.26-.068.595.227.744a.675.675 0 00.47.055.608.608 0 00.376-.253.494.494 0 00.063-.414.565.565 0 00-.29-.332.678.678 0 00-.338-.072zm28.305.126a.694.694 0 00-.295.073.553.553 0 00-.287.332.484.484 0 00.06.413c.172.26.551.35.846.2.295-.15.4-.485.228-.745a.642.642 0 00-.552-.273zm-30.842.473a.638.638 0 00-.505.273.477.477 0 00-.063.413.57.57 0 00.288.333c.297.15.674.06.846-.2.172-.26.07-.595-.227-.744a.68.68 0 00-.339-.075zm25.4 1.038a.665.665 0 00-.296.072c-.295.151-.399.484-.227.746a.626.626 0 00.377.254.677.677 0 00.47-.056.544.544 0 00.287-.33.475.475 0 00-.063-.413.625.625 0 00-.549-.273zm-19.647 0a.627.627 0 00-.506.273c-.171.26-.07.594.225.743a.68.68 0 00.472.056.608.608 0 00.377-.254.484.484 0 00.06-.413.565.565 0 00-.29-.333.68.68 0 00-.338-.072zm-3.772 2.473c-.341 0-.62.246-.62.546 0 .3.279.546.62.546.34 0 .619-.246.619-.546 0-.3-.279-.546-.62-.546zm2.476 0c-.341 0-.62.246-.62.546 0 .3.279.546.62.546.34 0 .619-.246.619-.546 0-.3-.278-.546-.62-.546zm2.476 0c-.341 0-.62.246-.62.546 0 .3.279.546.62.546.34 0 .619-.246.619-.546 0-.3-.278-.546-.62-.546zm2.476 0c-.341 0-.62.246-.62.546 0 .3.279.546.62.546.34 0 .619-.246.619-.546 0-.3-.278-.546-.62-.546zm12.38 0c-.34 0-.619.246-.619.546 0 .3.278.546.62.546.34 0 .618-.246.618-.546 0-.3-.278-.546-.619-.546zm2.476 0c-.34 0-.619.246-.619.546 0 .3.278.546.62.546.34 0 .618-.246.618-.546 0-.3-.278-.546-.619-.546zm2.476 0c-.34 0-.619.246-.619.546 0 .3.279.546.62.546.34 0 .618-.246.618-.546 0-.3-.278-.546-.619-.546zm2.477 0c-.341 0-.62.246-.62.546 0 .3.279.546.62.546.34 0 .618-.246.618-.546 0-.3-.278-.546-.619-.546zM8.17 19.928a.694.694 0 00-.295.073.565.565 0 00-.29.332.494.494 0 00.062.414.608.608 0 00.378.253c.157.038.326.02.469-.053.295-.151.396-.486.227-.746a.645.645 0 00-.551-.273zm19.615.002a.639.639 0 00-.508.271.497.497 0 00-.063.415.57.57 0 00.29.333c.295.149.675.06.844-.203.172-.26.07-.592-.225-.743a.685.685 0 00-.338-.073zm-25.37 1.036a.702.702 0 00-.295.072.569.569 0 00-.288.333.477.477 0 00.063.413c.08.126.215.217.375.254.16.038.328.019.469-.056.297-.149.399-.483.227-.743a.643.643 0 00-.551-.273zm31.122 0a.647.647 0 00-.507.273c-.17.262-.068.594.227.745a.7.7 0 00.469.056.62.62 0 00.377-.256.491.491 0 00.063-.413.555.555 0 00-.29-.33.68.68 0 00-.339-.075zm-28.586.599a.665.665 0 00-.292.074c-.298.15-.4.484-.23.744a.608.608 0 00.377.253c.16.039.329.02.472-.053.295-.151.396-.486.224-.746a.643.643 0 00-.55-.272zm26.05.002a.63.63 0 00-.505.27c-.172.262-.07.595.224.746a.7.7 0 00.47.056.62.62 0 00.377-.256c.171-.26.067-.592-.228-.744a.678.678 0 00-.338-.072zm-9.924.61a.695.695 0 00-.292.074c-.298.151-.4.483-.228.743.172.262.55.352.847.203a.569.569 0 00.287-.333.48.48 0 00-.063-.415.64.64 0 00-.55-.273zm-6.202.001a.646.646 0 00-.508.273.494.494 0 00-.063.413.57.57 0 00.29.333c.14.072.31.091.47.055a.607.607 0 00.374-.255c.172-.26.07-.595-.225-.744a.693.693 0 00-.338-.075zm-4.23 1.53a.681.681 0 00-.297.07.57.57 0 00-.287.333c-.042.14-.02.29.062.415.172.26.55.35.844.198.298-.15.4-.483.23-.743a.635.635 0 00-.551-.273zm14.664.002a.628.628 0 00-.508.273c-.172.26-.068.592.227.744.295.15.675.061.844-.199a.48.48 0 00.063-.415.554.554 0 00-.288-.332.684.684 0 00-.338-.07zm-2.994.358a.661.661 0 00-.292.07.565.565 0 00-.29.333c-.042.14-.02.29.062.415.172.26.55.35.847.198.295-.15.396-.483.224-.743a.63.63 0 00-.55-.273zm-8.678 0a.647.647 0 00-.508.273c-.172.26-.07.594.227.743.14.075.31.094.47.056a.596.596 0 00.374-.254c.172-.26.07-.594-.225-.743a.692.692 0 00-.338-.075zm-6.21 1.276a.664.664 0 00-.295.073c-.295.151-.396.484-.227.746.172.26.551.35.846.198a.555.555 0 00.29-.33.491.491 0 00-.062-.414.632.632 0 00-.552-.273zm21.098.003a.63.63 0 00-.506.27c-.171.26-.07.595.225.744a.675.675 0 00.47.055.608.608 0 00.377-.253c.171-.26.067-.595-.228-.746a.678.678 0 00-.338-.07zm-4.972.611a.66.66 0 00-.292.07c-.298.152-.4.486-.228.746.172.26.55.352.847.2a.569.569 0 00.288-.332.477.477 0 00-.063-.413.633.633 0 00-.552-.27zm-11.154 0a.628.628 0 00-.508.273c-.172.26-.07.594.227.743.14.075.31.094.47.056a.596.596 0 00.374-.254.477.477 0 00.063-.413.57.57 0 00-.288-.332.69.69 0 00-.338-.073zm3.124.224c-.341 0-.62.245-.62.545 0 .3.279.546.62.546.34 0 .619-.245.619-.546 0-.3-.278-.545-.62-.545zm4.952 0c-.34 0-.619.245-.619.545 0 .3.278.546.62.546.34 0 .618-.245.618-.546 0-.3-.278-.545-.619-.545zM6.75 27.58a.665.665 0 00-.295.072c-.295.151-.397.484-.225.746.17.26.549.35.844.198.295-.151.399-.484.227-.744a.633.633 0 00-.551-.273zm22.456 0a.647.647 0 00-.507.272.484.484 0 00-.061.414c.041.14.145.26.288.332a.699.699 0 00.469.055.62.62 0 00.377-.255c.172-.26.068-.595-.227-.744a.682.682 0 00-.339-.075zm-4.413.266a.664.664 0 00-.292.075c-.298.149-.4.483-.228.743.172.26.55.352.847.2a.569.569 0 00.288-.332.477.477 0 00-.063-.413.64.64 0 00-.552-.273zm-13.63.002a.639.639 0 00-.508.27.497.497 0 00-.063.416c.044.14.148.26.29.332.295.15.675.06.844-.202.172-.26.07-.592-.225-.744a.686.686 0 00-.338-.072zm4.362 1.607c-.341 0-.62.245-.62.545 0 .3.279.546.62.546.34 0 .619-.246.619-.546 0-.3-.278-.546-.62-.546zm4.952 0c-.34 0-.619.245-.619.545 0 .3.278.546.62.546.34 0 .618-.246.618-.546 0-.3-.278-.546-.619-.546zm-6.19 1.636c-.341 0-.62.245-.62.545 0 .3.279.546.62.546.34 0 .619-.245.619-.546 0-.3-.278-.545-.62-.545zm8.047 0c-.34 0-.619.245-.619.545 0 .3.278.546.62.546.34 0 .618-.245.618-.546 0-.3-.278-.545-.619-.545z" fill="#796049"/></svg>