<svg width="52" height="52" fill="none" xmlns="http://www.w3.org/2000/svg"><path d="M13.498 3.82h-.25v.015l.25-.016zM11.28 6.153l-.068-.24-.01.003.078.237zM5.79 7.53l-.036-.248.035.248zM2.726 6.513l-.25.018.25-.018zm8.765 1.018l.248-.023v-.002l-.248.025zM8.64 10.943l-.088-.234.088.234zm-2.324-.538l.003-.25-.003.25zm5.703 2.155l.245-.05-.245.05zm-.95 4.55l-.197-.156.196.156zm-5.597 1.377l.008.25h.001l-.01-.25zm-2.746-1.078l-.204-.144-.006.008-.005.01.215.126zm6.547-1.018l.013-.25-.013.25zm-3.801 6.286l.015.25-.015-.25zm2.85-1.317l.054-.244-.01-.002-.043.246zm.951 5.807l.193.16.008-.01.007-.011-.208-.139zm-7.708 1.617l-.113.223.113-.223zm0-.838l-.089-.234.089.234zm6.44-.779l.021-.249-.02.25zm4.014 3.053l.25-.012-.001-.008-.001-.008-.248.029zm-1.796 2.994l.107.226-.107-.226zM5.156 34.71l-.035-.248.035.248zM4.1 33.214l-.068-.24.068.24zm4.224-.24l.04-.246-.04.246zm2.323.719l.097-.23-.003-.002-.094.232zm-.423 4.969l.143.205.009-.006.008-.007-.16-.192zm-2.217.898l-.046-.246.046.246zm-5.28-.36l-.176-.177-.009.009-.008.01.193.159zm7.18-.239l-.147.202.148-.202zm.845 1.437l.23.1.005-.011.004-.013-.239-.076zm-1.478 1.916l.145.204.009-.007-.154-.197zm-5.28 1.077l-.054.245.01.002.044-.247zm-1.267-1.556l.145.204a.225.225 0 00.017-.014l-.162-.19zm4.33-.42l.074-.238h-.003l-.071.239zm3.167 1.916l.2-.15-.2.15zm.634 3.233l.204.144.008-.01.006-.011-.218-.123zM6.423 48.6l.01.25h.007l-.017-.25zm-3.907-.18l-.05.245.007.002.043-.247zm6.23-1.257l.118-.22-.008-.004-.11.224zm2.006 1.676l-.246.04.001.01.003.011.242-.06zM4.848 1.826c.686-.352 2.756-.934 5.314-.28l.124-.483C7.607.376 5.411.975 4.62 1.382l.229.444zm5.314-.28c2.572.66 3.086 1.883 3.086 2.273h.5c0-.727-.795-2.074-3.462-2.756l-.124.484zm3.086 2.289c.028.435-.285 1.582-2.036 2.078l.137.481c1.966-.557 2.441-1.909 2.398-2.59l-.499.03zm-2.046 2.082c-1.272.42-2.517.951-5.448 1.366l.07.495c2.983-.422 4.272-.969 5.535-1.387l-.157-.474zM5.754 7.283c-1.153.164-1.853.026-2.256-.179-.401-.203-.511-.471-.522-.61l-.498.037c.025.341.263.75.793 1.02.528.267 1.342.4 2.553.227l-.07-.495zm-2.777-.787c-.007-.1.07-.39.653-.655.577-.262 1.597-.466 3.31-.395l.021-.5c-1.75-.072-2.86.132-3.537.44-.672.305-.974.744-.946 1.145l.499-.035zm3.964-1.05c3.413.141 4.25 1.577 4.302 2.11l.497-.05c-.088-.904-1.265-2.414-4.779-2.56l-.02.5zm4.302 2.108c.06.641-.341 2.283-2.69 3.155l.175.469c2.55-.948 3.094-2.795 3.013-3.67l-.498.046zm-2.69 3.155c-1.512.562-3.127.93-4.475 1.048-.674.059-1.274.054-1.757-.017-.49-.072-.824-.208-1.006-.38l-.343.364c.293.277.75.433 1.277.51.533.08 1.174.082 1.873.021 1.397-.122 3.056-.502 4.606-1.077l-.175-.469zm-7.238.651c-.092-.086-.057-.102-.066-.066-.003.013.002-.026.125-.093.233-.127.672-.239 1.246-.326 1.13-.173 2.646-.232 3.695-.22l.005-.5c-1.063-.012-2.61.048-3.776.225-.574.088-1.092.209-1.41.383-.153.083-.322.212-.37.412-.055.221.062.41.208.549l.343-.364zm5-.705c.865.01 2.183.128 3.32.447.568.16 1.076.365 1.459.624.382.258.614.552.68.883l.49-.099c-.101-.506-.447-.899-.89-1.198-.444-.3-1.01-.525-1.605-.692-1.19-.334-2.555-.455-3.449-.465l-.005.5zm5.46 1.954c.206 1.023.202 1.823.04 2.505-.16.68-.482 1.262-.942 1.84l.392.311c.491-.619.855-1.265 1.037-2.036.182-.77.179-1.646-.037-2.719l-.49.1zm-.902 4.345c-.147.186-.442.368-.871.533-.42.162-.936.296-1.483.403a21.48 21.48 0 01-3.056.347l.02.5c.783-.03 2.005-.137 3.132-.357a9.586 9.586 0 001.567-.426c.45-.174.85-.395 1.083-.689l-.392-.31zm-5.409 1.283c-.586.02-1.377-.026-1.946-.179-.292-.078-.482-.174-.572-.268-.04-.042-.05-.074-.053-.098-.002-.027.003-.076.05-.156l-.431-.254a.757.757 0 00-.116.456.66.66 0 00.188.396c.189.198.493.323.804.407.636.171 1.482.216 2.093.195l-.017-.5zm-2.533-.684c.049-.068.153-.152.336-.24.178-.085.41-.163.682-.233.545-.14 1.23-.24 1.934-.31 1.41-.141 2.865-.156 3.378-.13l.026-.498c-.542-.028-2.023-.013-3.454.13-.715.071-1.428.175-2.008.324-.29.075-.555.162-.774.266-.213.102-.407.232-.528.403l.408.288zm6.33-.912c.551.028 1.33.209 1.892.636.276.21.495.478.615.813.12.335.147.757.01 1.292l.484.125c.158-.615.135-1.141-.023-1.585a2.265 2.265 0 00-.783-1.043c-.67-.51-1.559-.706-2.17-.737l-.025.499zm2.516 2.741c-.263 1.023-1.308 1.762-2.616 2.263-1.291.494-2.754.724-3.704.783l.031.499c.986-.061 2.501-.298 3.852-.816 1.333-.51 2.594-1.328 2.922-2.604l-.485-.125zm-6.32 3.046c-.662.04-1.587.038-2.234-.086a2.295 2.295 0 01-.404-.11.582.582 0 01-.204-.12c-.024-.025-.022-.035-.021-.044.003-.023.02-.083.11-.183l-.376-.331c-.122.139-.212.291-.23.456a.545.545 0 00.154.446c.102.108.24.184.384.241.146.058.314.102.493.136.708.136 1.683.134 2.359.094l-.03-.5zm-2.754-.543c.158-.179.462-.324.907-.42.437-.096.969-.137 1.534-.14 1.13-.004 2.355.143 3.136.281l.087-.492a19.5 19.5 0 00-3.225-.288c-.584.002-1.154.044-1.638.15-.476.103-.91.277-1.176.578l.375.33zm5.568-.28c1.07.23 1.808.724 2.038 1.524.235.821-.028 2.072-1.243 3.9l.416.277c1.236-1.86 1.606-3.274 1.308-4.314-.304-1.062-1.267-1.629-2.414-1.876l-.105.489zm.81 5.403c-.823 1-2.416 1.52-3.984 1.716a11.7 11.7 0 01-2.14.073c-.628-.04-1.079-.136-1.279-.236l-.225.446c.298.15.838.248 1.472.288a12.19 12.19 0 002.234-.075c1.594-.2 3.357-.738 4.308-1.894l-.386-.318zm-7.403 1.553a.984.984 0 01-.19-.125.312.312 0 01-.091-.108c-.002-.006 0-.005-.001.002s-.004.006.003-.003c.02-.026.083-.083.255-.148l-.177-.467c-.208.078-.374.178-.476.312a.488.488 0 00-.074.473.787.787 0 00.235.319c.093.079.198.144.291.191l.225-.447zm-.024-.382c.93-.35 2.686-1.058 6.333-.762l.04-.499c-3.745-.303-5.579.427-6.55.794l.177.467zm6.333-.762c2.83.229 3.691 2.026 3.784 2.832l.497-.057c-.119-1.03-1.159-3.024-4.24-3.274l-.041.498zm3.783 2.816c.032.644-.26 2.097-1.652 2.755l.213.452c1.648-.779 1.976-2.48 1.938-3.232l-.5.025zm-1.652 2.755c-1.874.885-3.327 1.238-4.997 1.475l.07.495c1.71-.242 3.213-.607 5.14-1.518l-.213-.452zM5.12 34.463c-.636.09-1.052-.013-1.3-.153-.255-.145-.316-.316-.316-.378h-.5c0 .298.214.611.57.813.366.208.9.315 1.616.213l-.07-.495zm-1.616-.53c0-.069.004-.118.056-.178.062-.074.218-.19.607-.3l-.136-.482c-.43.122-.697.275-.852.458a.727.727 0 00-.175.501h.5zm.663-.479c.4-.113 1.095-.227 1.864-.284.77-.057 1.592-.056 2.252.051l.08-.493c-.714-.116-1.58-.115-2.369-.056-.788.058-1.519.175-1.963.301l.136.481zm4.116-.233c.71.115 1.533.406 2.269.704l.188-.464c-.743-.3-1.61-.609-2.377-.733l-.08.493zm2.363.472l-.097.23.006.003.025.011.1.05c.085.046.204.114.335.207.264.186.561.459.74.816.175.347.245.79.037 1.349-.211.569-.717 1.272-1.728 2.11l.319.385c1.048-.868 1.624-1.639 1.878-2.321.258-.693.176-1.28-.059-1.747-.23-.46-.599-.789-.899-1a3.609 3.609 0 00-.51-.301l-.035-.016-.01-.005h-.003l-.001-.001-.098.23zm-.565 4.763c-.295.205-1.15.674-2.122.858l.093.492c1.056-.2 1.975-.704 2.314-.939l-.285-.41zm-2.122.858c-.613.116-2.101.25-3.344.243-.625-.004-1.162-.044-1.49-.13a1.01 1.01 0 01-.184-.064c-.045-.022-.058-.036-.057-.035.006.007.017.03.014.056-.002.018-.008.01.021-.025l-.386-.317a.554.554 0 00-.132.284.418.418 0 00.092.314.656.656 0 00.227.172c.083.04.177.073.278.1.394.102.985.141 1.614.145 1.266.007 2.787-.128 3.44-.252l-.093-.49zm-5.057.064a3.534 3.534 0 011.078-.76c.546-.246 1.323-.435 2.426-.365l.032-.5c-1.178-.073-2.038.127-2.664.41a4.03 4.03 0 00-1.224.86l.352.355zm3.504-1.125c2.239.14 2.985.642 3.353.91l.295-.404c-.453-.33-1.293-.859-3.616-1.005l-.032.499zm3.353.91c.384.28.605.447.72.614a.44.44 0 01.085.218.831.831 0 01-.05.327l.476.152a1.32 1.32 0 00.071-.526.94.94 0 00-.17-.456c-.175-.252-.482-.474-.837-.733l-.295.404zm.764 1.134c-.15.34-.605 1.197-1.404 1.82l.308.394c.89-.694 1.387-1.634 1.553-2.012l-.457-.202zM9.13 42.11c-.227.16-.668.552-1.472.844-.802.291-1.971.483-3.62.191l-.087.492c1.73.307 2.99.11 3.877-.213.885-.321 1.394-.767 1.59-.906l-.288-.408zm-5.082 1.037c-.936-.206-1.25-.497-1.33-.68-.067-.153.002-.32.154-.428l-.29-.408c-.27.191-.518.593-.321 1.038.183.417.715.754 1.68.967l.107-.489zM2.89 42.025l.03-.02.08-.046c.069-.036.162-.08.276-.127.23-.093.542-.197.916-.276a5.69 5.69 0 012.794.1l.143-.48a6.191 6.191 0 00-3.04-.11 5.907 5.907 0 00-1.002.303c-.244.1-.435.203-.52.275l.323.381zm4.093-.37c2.06.642 2.818 1.53 3.043 1.827l.399-.301c-.284-.377-1.129-1.33-3.293-2.004l-.149.477zm3.043 1.827c.154.204.479.658.677 1.213.198.555.258 1.176-.062 1.747l.436.245c.419-.746.32-1.532.097-2.16a5.228 5.228 0 00-.75-1.346l-.398.301zm.629 2.938c-.38.538-1.685 1.756-4.248 1.93l.034.5c2.716-.186 4.157-1.483 4.622-2.142l-.408-.288zm-4.241 1.93c-.75.03-2.51.058-3.854-.176l-.086.492c1.4.245 3.206.214 3.96.184l-.02-.5zm-3.847-.175a.757.757 0 01-.238-.08c-.03-.019-.002-.011.003.034.003.035-.015.038.016-.001a.81.81 0 01.168-.147c.346-.244 1.024-.519 1.75-.695l-.119-.486c-.752.183-1.5.477-1.92.772a1.285 1.285 0 00-.273.248.505.505 0 00-.12.36.459.459 0 00.227.338c.108.068.247.114.405.147l.101-.49zm1.699-.889a10.616 10.616 0 011.907-.293c.827-.043 1.727.032 2.464.394l.22-.448c-.847-.417-1.847-.49-2.71-.445-.868.046-1.624.215-2 .306l.119.486zm4.481-.123l-.118.22h.001l.004.003.015.008.058.032a10.71 10.71 0 01.862.534c.239.165.473.345.652.519.09.087.16.168.21.24a.43.43 0 01.076.16l.493-.08a.912.912 0 00-.157-.362 2.139 2.139 0 00-.273-.317 5.664 5.664 0 00-.717-.572 11.44 11.44 0 00-.965-.593l-.017-.009-.004-.002-.001-.001-.119.22zM10.51 48.9c.008.033.013.167-.078.364-.088.19-.26.424-.578.652-.637.457-1.868.888-4.164.829l-.013.5c2.351.06 3.707-.377 4.469-.923.382-.274.612-.574.74-.847.122-.265.154-.52.109-.697l-.485.122zm40.488-.72h-.25v-.015l.25.016zm-2.218-2.334l-.068.24-.01-.003.078-.237zm-5.49-1.377l-.036.248.035-.248zm-3.063 1.018l-.25-.018.25.018zm8.765-1.018l.248.023v.002l-.248-.025zm-2.851-3.412l-.087.234.087-.234zm-2.324.538l.003.25-.003-.25zm5.703-2.155l.245.05-.245-.05zm-.95-4.55l-.197.156.196-.156zm-5.597-1.377l.008-.25h.001l-.01.25zm-2.746 1.078l-.204.144-.006-.008-.005-.01.215-.126zm6.547 1.018l.013.25-.013-.25zm-3.801-6.286l.014-.25h.001l-.015.25zm2.85 1.317l.053.244-.009.002-.043-.246zm.951-5.807l.193-.16.008.01.007.011-.208.139zm-7.708-1.617l-.113-.223.113.223zm0 .838l-.089.234.089-.234zm6.44.779l.021.249-.02-.25zm4.014-3.053l.25.012-.001.008-.001.008-.248-.029zm-1.796-2.994l.107-.226-.107.226zm-5.068-1.497l-.035.248.035-.248zM41.6 18.786l-.068.24.068-.24zm4.224.24l.04.246-.04-.246zm2.323-.719l.097.23-.003.002-.094-.232zm-.423-4.969l.143-.205.009.006.008.007-.16.192zm-2.217-.898l-.046.246.046-.246zm-5.28.36l-.176.177-.009-.009-.008-.01.193-.159zm7.18.239l-.147-.202.148.202zm.845-1.437l.23-.1.005.011.003.013-.238.076zm-1.478-1.916l.145-.204.009.007-.154.197zm-5.28-1.077l-.054-.245.01-.001.044.246zm-1.267 1.556l.145-.204a.247.247 0 01.017.014l-.162.19zm4.33.42l.074.238h-.003l-.071-.239zm3.167-1.916l.2.15-.2-.15zm.634-3.233l.204-.144.008.01.006.011-.218.123zM43.923 3.4l.01-.25h.007l-.017.25zm-3.907.18l-.05-.245.007-.001.043.246zm6.23 1.257l.118.22-.008.004-.11-.224zm2.006-1.676l-.246-.04.001-.01.003-.011.242.06zm-5.904 47.012c.686.353 2.756.935 5.314.28l.124.484c-2.679.687-4.875.088-5.667-.319l.229-.445zm5.314.28c2.572-.658 3.086-1.882 3.086-2.272h.5c0 .727-.795 2.074-3.462 2.757l-.124-.485zm3.086-2.288c.028-.435-.285-1.582-2.036-2.078l.137-.482c1.966.558 2.441 1.91 2.398 2.592l-.499-.032zm-2.046-2.082c-1.271-.42-2.517-.951-5.448-1.366l.07-.495c2.983.422 4.272.97 5.535 1.387l-.157.474zm-5.448-1.366c-1.154-.164-1.853-.026-2.256.179-.401.203-.511.471-.521.61l-.5-.038c.026-.34.264-.749.794-1.018.528-.268 1.342-.4 2.553-.228l-.07.495zm-2.777.788c-.007.098.07.389.653.654.577.262 1.597.466 3.31.395l.021.5c-1.75.072-2.86-.132-3.537-.44-.672-.305-.974-.744-.946-1.145l.498.035zm3.964 1.05c3.413-.142 4.25-1.578 4.302-2.11l.497.048c-.088.905-1.265 2.415-4.779 2.56l-.02-.499zm4.302-2.109c.06-.641-.341-2.283-2.69-3.155l.175-.469c2.55.948 3.094 2.795 3.012 3.67l-.497-.046zm-2.69-3.155c-1.512-.562-3.127-.93-4.475-1.048-.674-.059-1.274-.054-1.757.017-.49.072-.824.208-1.006.38l-.343-.364c.293-.277.75-.433 1.276-.51.534-.08 1.175-.082 1.874-.021 1.397.122 3.056.502 4.606 1.077l-.175.469zm-7.238-.651c-.092.087-.057.102-.066.066-.004-.013.002.025.125.093.233.127.672.239 1.246.326 1.13.173 2.646.232 3.695.22l.005.5c-1.063.013-2.61-.047-3.776-.225-.574-.088-1.092-.209-1.41-.383-.153-.083-.322-.212-.37-.412-.055-.222.062-.41.207-.549l.344.364zm5 .706c.865-.01 2.183-.129 3.32-.448.568-.16 1.077-.366 1.459-.624.382-.258.614-.552.68-.883l.49.099c-.102.506-.447.899-.89 1.198-.444.3-1.01.525-1.605.692-1.19.334-2.555.455-3.449.465l-.005-.5zm5.46-1.955c.206-1.023.202-1.823.04-2.505-.16-.68-.482-1.262-.942-1.84l.392-.311c.491.619.855 1.265 1.038 2.036.181.77.178 1.646-.038 2.719l-.49-.1zm-.902-4.345c-.147-.186-.442-.368-.871-.533a9.098 9.098 0 00-1.483-.402 21.479 21.479 0 00-3.056-.348l.02-.5c.783.03 2.005.137 3.132.357.562.11 1.109.25 1.567.426.45.174.85.395 1.083.689l-.392.31zm-5.409-1.283c-.586-.02-1.377.026-1.946.179-.292.078-.482.174-.572.269a.161.161 0 00-.053.098c-.002.026.003.076.05.155l-.431.254a.758.758 0 01-.117-.456.66.66 0 01.189-.396c.189-.199.493-.323.804-.407.636-.171 1.482-.216 2.093-.195l-.017.5zm-2.533.684c.049.068.153.152.336.24.178.085.41.163.682.233.545.14 1.23.24 1.934.31 1.41.141 2.865.156 3.378.13l.026.498c-.542.028-2.023.013-3.454-.13-.715-.071-1.428-.175-2.008-.324a4.334 4.334 0 01-.774-.266c-.213-.102-.407-.232-.528-.403l.408-.288zm6.33.912c.551-.028 1.33-.209 1.892-.636a1.77 1.77 0 00.615-.813c.12-.335.147-.757.01-1.292l.484-.125c.158.615.135 1.141-.023 1.585a2.265 2.265 0 01-.783 1.043c-.67.51-1.559.706-2.17.737l-.025-.499zm2.516-2.741c-.263-1.023-1.308-1.762-2.616-2.263-1.291-.494-2.754-.724-3.704-.783l.031-.499c.986.061 2.501.298 3.852.816 1.333.51 2.593 1.328 2.922 2.604l-.485.125zm-6.32-3.046c-.662-.04-1.587-.038-2.234.086-.16.03-.296.068-.404.11a.582.582 0 00-.204.12c-.024.025-.022.035-.021.044.002.023.02.083.11.183l-.376.331c-.122-.139-.212-.291-.23-.456a.545.545 0 01.154-.446 1.06 1.06 0 01.384-.241c.146-.058.314-.102.493-.136.708-.136 1.683-.134 2.358-.094l-.03.5zm-2.754.543c.158.179.462.324.907.42.437.096.968.137 1.534.14 1.13.004 2.355-.143 3.136-.281l.087.492a19.44 19.44 0 01-3.225.288c-.584-.002-1.154-.044-1.638-.15-.476-.103-.91-.277-1.176-.578l.375-.33zm5.568.28c1.07-.23 1.809-.724 2.038-1.524.235-.821-.028-2.072-1.243-3.9l.416-.277c1.236 1.86 1.606 3.274 1.307 4.314-.303 1.062-1.266 1.629-2.413 1.876l-.105-.489zm.81-5.403c-.823-1-2.417-1.52-3.984-1.716a11.682 11.682 0 00-2.14-.073c-.628.04-1.079.136-1.279.236l-.225-.446c.298-.15.838-.248 1.472-.288a12.19 12.19 0 012.234.075c1.594.2 3.357.738 4.308 1.894l-.386.318zm-7.403-1.553a.983.983 0 00-.19.125.312.312 0 00-.091.108c-.002.006 0 .005-.002-.002 0-.007-.003-.006.004.003.02.026.083.083.255.148l-.177.467c-.208-.078-.374-.178-.476-.312a.488.488 0 01-.075-.473.787.787 0 01.236-.319c.093-.079.198-.144.291-.191l.225.447zm-.024.382c.93.35 2.686 1.058 6.333.762l.04.499c-3.745.303-5.579-.427-6.55-.794l.177-.467zm6.333.762c2.83-.229 3.691-2.026 3.784-2.832l.497.057c-.118 1.03-1.159 3.024-4.24 3.274l-.041-.498zm3.783-2.816c.032-.644-.26-2.097-1.652-2.755l.213-.452c1.648.779 1.976 2.48 1.938 3.232l-.5-.025zm-1.652-2.755c-1.874-.885-3.327-1.238-4.997-1.475l.07-.495c1.71.242 3.212.607 5.14 1.518l-.213.452zm-4.997-1.475c-.636-.09-1.052.013-1.3.152-.255.146-.316.317-.316.379h-.5c0-.298.214-.611.57-.814.366-.207.9-.314 1.616-.212l-.07.495zm-1.616.53c0 .069.004.118.056.178.062.074.218.19.607.3l-.136.482c-.43-.122-.697-.275-.852-.458a.727.727 0 01-.175-.501h.5zm.663.479c.4.113 1.095.227 1.864.284.77.057 1.592.056 2.252-.051l.08.493c-.714.116-1.58.115-2.369.056-.788-.058-1.519-.175-1.963-.301l.136-.481zm4.116.233c.71-.115 1.533-.406 2.269-.704l.188.464c-.743.3-1.61.609-2.377.733l-.08-.493zm2.363-.472l-.097-.23a3.09 3.09 0 00.465-.27c.265-.187.562-.46.742-.817.174-.347.244-.79.037-1.349-.212-.569-.718-1.272-1.73-2.11l.32-.385c1.048.868 1.624 1.639 1.878 2.321.258.693.176 1.28-.059 1.747-.23.46-.599.789-.899 1a3.609 3.609 0 01-.51.301l-.035.016-.01.005h-.003l-.001.001-.098-.23zm-.565-4.763c-.295-.205-1.15-.675-2.121-.858l.092-.492c1.056.2 1.975.704 2.314.939l-.285.41zm-2.121-.858c-.614-.116-2.102-.25-3.345-.243-.625.004-1.162.044-1.49.13a1.01 1.01 0 00-.184.064c-.045.022-.058.036-.057.035a.084.084 0 00.014-.056c-.002-.018-.008-.01.021.024l-.386.318a.554.554 0 01-.132-.284.418.418 0 01.092-.314.656.656 0 01.227-.172 1.62 1.62 0 01.278-.1c.394-.102.985-.141 1.614-.145 1.266-.007 2.787.128 3.44.252l-.092.49zm-5.058-.064c.203.201.532.512 1.078.76.546.246 1.323.435 2.426.365l.032.5c-1.178.073-2.038-.127-2.664-.41a4.03 4.03 0 01-1.224-.86l.352-.355zm3.504 1.125c2.239-.14 2.985-.642 3.353-.91l.295.404c-.453.33-1.293.859-3.616 1.005l-.032-.499zm3.353-.91c.384-.28.605-.447.72-.614a.44.44 0 00.085-.218.831.831 0 00-.05-.327l.475-.152c.06.185.088.358.072.526a.94.94 0 01-.17.456c-.175.252-.482.474-.837.733l-.295-.404zm.764-1.134c-.15-.34-.605-1.197-1.404-1.82l.308-.394c.89.694 1.387 1.634 1.553 2.012l-.457.202zM46.629 9.89c-.226-.16-.667-.552-1.471-.844-.802-.291-1.971-.483-3.62-.191l-.087-.492c1.73-.307 2.99-.11 3.877.213.885.321 1.394.767 1.59.906l-.288.408zm-5.08-1.037c-.938.206-1.25.498-1.33.68-.068.153 0 .32.153.428l-.29.408c-.27-.191-.518-.593-.321-1.038.183-.416.715-.754 1.68-.966l.107.488zm-1.16 1.122l.03.02.08.046c.069.036.162.08.276.127.23.094.542.197.916.277a5.69 5.69 0 002.794-.1l.143.479a6.19 6.19 0 01-3.04.11 5.903 5.903 0 01-1.002-.303c-.244-.1-.435-.203-.52-.275l.323-.381zm4.093.37c2.06-.642 2.818-1.53 3.043-1.827l.399.301c-.285.377-1.129 1.33-3.293 2.004l-.149-.477zm3.043-1.827c.154-.204.479-.658.677-1.213.198-.555.259-1.176-.062-1.747l.436-.245c.419.746.32 1.532.097 2.16a5.228 5.228 0 01-.75 1.346l-.398-.301zm.629-2.938c-.38-.538-1.685-1.756-4.248-1.93l.034-.5c2.716.186 4.157 1.483 4.622 2.142l-.408.288zm-4.241-1.93c-.75-.03-2.51-.058-3.854.176l-.086-.492c1.4-.245 3.206-.214 3.96-.184l-.02.5zm-3.847.175a.757.757 0 00-.238.08c-.03.019-.002.012.003-.034.003-.035-.015-.039.016.001a.808.808 0 00.168.147c.346.243 1.024.519 1.75.695l-.118.486c-.753-.183-1.5-.477-1.92-.772a1.286 1.286 0 01-.274-.248.505.505 0 01-.12-.36.459.459 0 01.227-.338c.108-.068.247-.114.405-.147l.101.49zm1.698.889c.364.088 1.086.249 1.908.292.827.044 1.727-.031 2.464-.393l.22.448c-.847.417-1.847.49-2.71.445a11.116 11.116 0 01-2-.306l.118-.486zm4.482.123l-.118-.22h.001l.004-.003.015-.008a8.51 8.51 0 00.27-.154c.177-.104.412-.248.65-.412.239-.165.473-.345.652-.519.09-.086.16-.167.21-.24a.43.43 0 00.076-.16l.493.08a.912.912 0 01-.157.362c-.074.109-.17.215-.273.317a5.66 5.66 0 01-.717.572 11.393 11.393 0 01-.965.593l-.017.009a.211.211 0 01-.004.002l-.001.001-.119-.22zM48.01 3.1c.008-.033.013-.167-.078-.364-.088-.19-.26-.424-.578-.652-.637-.457-1.868-.888-4.164-.829l-.013-.5c2.351-.06 3.707.377 4.469.923.382.274.612.574.74.847.122.265.153.52.109.697L48.01 3.1zM13.502 48.18h.25v-.015l-.25.016zm2.218-2.334l.068.24.01-.003-.078-.237zm5.49-1.377l.036.248-.035-.248zm3.063 1.018l.25-.018-.25.018zm-8.765-1.018l-.248.023v.002l.248-.025zm2.852-3.412l.087.234-.087-.234zm2.323.538l-.003.25.003-.25zM14.98 39.44l-.245.05.245-.05zm.95-4.55l.197.156-.196-.156zm5.597-1.377l-.008-.25h-.001l.01.25zm2.746 1.078l.204.144.006-.008.005-.01-.215-.126zm-6.547 1.018l-.013.25.013-.25zm3.801-6.286l-.015-.25.015.25zm-2.85 1.317l-.053.244.009.002.043-.246zm-.951-5.807l-.193-.16-.008.01-.007.011.208.139zm7.708-1.617l.113-.223-.113.223zm0 .838l.089.234-.089-.234zm-6.44.779l-.021.249.02-.25zM14.98 21.78l-.25.012.001.008.001.008.248-.029zm1.796-2.994l-.107-.226.107.226zm5.068-1.497l.035.248-.035-.248zm1.056 1.497l.068.24-.068-.24zm-4.224.24l-.04.246.04-.246zm-2.323-.719l-.097.23.003.002.094-.232zm.423-4.969l-.143-.205-.009.006-.008.007.16.192zm2.217-.898l.047.246-.047-.246zm5.28.36l.176.177.009-.009.008-.01-.193-.159zm-7.18.239l.147-.202-.148.202zm-.845-1.437l-.23-.1-.005.011-.004.013.239.076zm1.478-1.916l-.145-.204-.009.007.154.197zm5.28-1.077l.054-.245-.01-.001-.044.246zm1.267 1.556l-.145-.204a.247.247 0 00-.017.014l.162.19zm-4.33.42l-.074.238h.003l.071-.239zm-3.167-1.916l-.2.15.2-.15zm-.634-3.233l-.204-.144-.008.01-.006.011.218.123zM20.577 3.4l-.01-.25h-.007l.017.25zm3.907.18l.05-.245-.007-.001-.043.246zm-6.23 1.257l-.118.22.008.004.11-.224zm-2.006-1.676l.246-.04-.001-.01-.003-.011-.242.06zm5.904 47.012c-.686.353-2.756.935-5.314.28l-.124.484c2.679.687 4.875.088 5.667-.319l-.229-.445zm-5.314.28c-2.572-.658-3.086-1.882-3.086-2.272h-.5c0 .727.795 2.074 3.462 2.757l.124-.485zm-3.086-2.288c-.028-.435.285-1.582 2.036-2.078l-.137-.482c-1.966.558-2.441 1.91-2.398 2.592l.499-.032zm2.046-2.082c1.272-.42 2.517-.951 5.448-1.366l-.07-.495c-2.983.422-4.272.97-5.535 1.387l.157.474zm5.448-1.366c1.154-.164 1.853-.026 2.256.179.401.203.511.471.521.61l.5-.038c-.026-.34-.264-.749-.794-1.018-.528-.268-1.342-.4-2.553-.228l.07.495zm2.777.788c.007.098-.07.389-.653.654-.577.262-1.597.466-3.31.395l-.021.5c1.75.072 2.86-.132 3.537-.44.672-.305.974-.744.946-1.145l-.498.035zm-3.964 1.05c-3.413-.142-4.25-1.578-4.302-2.11l-.497.048c.088.905 1.265 2.415 4.779 2.56l.02-.499zm-4.302-2.109c-.06-.641.341-2.283 2.69-3.155l-.175-.469c-2.55.948-3.094 2.795-3.012 3.67l.497-.046zm2.69-3.155c1.512-.562 3.127-.93 4.475-1.048.674-.059 1.274-.054 1.757.017.49.072.824.208 1.006.38l.344-.364c-.294-.277-.752-.433-1.277-.51-.534-.08-1.175-.082-1.874-.021-1.397.122-3.056.502-4.606 1.077l.175.469zm7.238-.651c.092.087.057.102.066.066.003-.013-.002.025-.125.093-.233.127-.672.239-1.246.326-1.13.173-2.646.232-3.695.22l-.005.5c1.063.013 2.61-.047 3.776-.225.574-.088 1.092-.209 1.41-.383.153-.083.322-.212.37-.412.055-.222-.062-.41-.207-.549l-.344.364zm-5 .706c-.865-.01-2.183-.129-3.32-.448-.568-.16-1.076-.366-1.459-.624-.382-.258-.614-.552-.68-.883l-.49.099c.101.506.447.899.89 1.198.444.3 1.01.525 1.605.692 1.19.334 2.555.455 3.449.465l.005-.5zm-5.46-1.955c-.206-1.023-.202-1.823-.04-2.505.16-.68.482-1.262.942-1.84l-.392-.311c-.491.619-.855 1.265-1.037 2.036-.182.77-.179 1.646.037 2.719l.49-.1zm.902-4.345c.147-.186.442-.368.871-.533.42-.162.936-.295 1.483-.402a21.479 21.479 0 013.056-.348l-.02-.5c-.783.03-2.005.137-3.131.357a9.65 9.65 0 00-1.568.426c-.45.174-.85.395-1.083.689l.392.31zm5.409-1.283c.586-.02 1.377.026 1.946.179.292.078.482.174.572.269.04.04.05.073.053.098.002.026-.003.076-.05.155l.431.254a.758.758 0 00.117-.456.66.66 0 00-.189-.396c-.189-.199-.493-.323-.804-.407-.636-.171-1.482-.216-2.093-.195l.017.5zm2.533.684c-.049.068-.153.152-.336.24a3.84 3.84 0 01-.682.233c-.545.14-1.23.24-1.934.31-1.41.141-2.865.156-3.378.13l-.026.498c.542.028 2.023.013 3.454-.13.715-.071 1.428-.175 2.008-.324.29-.075.555-.162.773-.266.214-.102.408-.232.53-.403l-.41-.288zm-6.33.912c-.551-.028-1.33-.209-1.892-.636a1.765 1.765 0 01-.615-.813c-.12-.335-.147-.757-.01-1.292l-.484-.125c-.158.615-.135 1.141.023 1.585.158.443.445.785.783 1.043.67.51 1.559.706 2.17.737l.025-.499zm-2.516-2.741c.263-1.023 1.308-1.762 2.616-2.263 1.291-.494 2.754-.724 3.704-.783l-.031-.499c-.986.061-2.501.298-3.852.816-1.333.51-2.594 1.328-2.922 2.604l.485.125zm6.32-3.046c.662-.04 1.587-.038 2.234.086.16.03.296.068.404.11.11.044.173.086.204.12.024.025.022.035.021.044-.002.023-.02.083-.11.183l.376.331c.122-.139.212-.291.23-.456a.545.545 0 00-.154-.446 1.06 1.06 0 00-.384-.241 2.785 2.785 0 00-.493-.136c-.708-.136-1.683-.134-2.358-.094l.03.5zm2.754.543c-.158.179-.462.324-.907.42-.437.096-.968.137-1.534.14a18.997 18.997 0 01-3.136-.281l-.087.492a19.44 19.44 0 003.225.288c.584-.002 1.154-.044 1.638-.15.476-.103.91-.277 1.176-.578l-.375-.33zm-5.568.28c-1.07-.23-1.808-.724-2.038-1.524-.235-.821.029-2.072 1.243-3.9l-.416-.277c-1.236 1.86-1.606 3.274-1.308 4.314.305 1.062 1.267 1.629 2.413 1.876l.106-.489zm-.81-5.403c.823-1 2.416-1.52 3.984-1.716a11.682 11.682 0 012.14-.073c.628.04 1.079.136 1.279.236l.225-.446c-.298-.15-.838-.248-1.472-.288a12.19 12.19 0 00-2.234.075c-1.594.2-3.357.738-4.308 1.894l.386.318zm7.403-1.553a.983.983 0 01.19.125c.06.05.084.09.091.108.002.006 0 .005.002-.002 0-.007.003-.006-.004.003-.02.026-.083.083-.255.148l.177.467c.208-.078.374-.178.476-.312a.488.488 0 00.075-.473.787.787 0 00-.236-.319 1.481 1.481 0 00-.291-.191l-.225.447zm.024.382c-.93.35-2.686 1.058-6.333.762l-.04.499c3.745.303 5.579-.427 6.55-.794l-.177-.467zm-6.333.762c-2.83-.229-3.692-2.026-3.784-2.832l-.497.057c.119 1.03 1.159 3.024 4.24 3.274l.041-.498zm-3.783-2.816c-.032-.644.26-2.097 1.652-2.755l-.213-.452c-1.648.779-1.976 2.48-1.938 3.232l.5-.025zm1.652-2.755c1.874-.885 3.327-1.238 4.997-1.475l-.07-.495c-1.71.242-3.213.607-5.14 1.518l.213.452zm4.997-1.475c.636-.09 1.052.013 1.3.152.255.146.316.317.316.379h.5c0-.298-.214-.611-.57-.814-.366-.207-.9-.314-1.616-.212l.07.495zm1.616.53c0 .069-.004.118-.056.178-.062.074-.218.19-.607.3l.136.482c.43-.122.697-.275.852-.458a.727.727 0 00.175-.501h-.5zm-.663.479c-.4.113-1.095.227-1.864.284-.77.057-1.592.056-2.252-.051l-.08.493c.714.116 1.58.115 2.369.056.788-.058 1.519-.175 1.963-.301l-.136-.481zm-4.116.233c-.71-.115-1.533-.406-2.269-.704l-.188.464c.743.3 1.61.609 2.377.733l.08-.493zm-2.363-.472l.097-.23a3.09 3.09 0 01-.465-.27c-.265-.187-.562-.46-.741-.817-.175-.347-.245-.79-.037-1.349.211-.569.717-1.272 1.728-2.11l-.319-.385c-1.048.868-1.624 1.639-1.878 2.321-.258.693-.176 1.28.059 1.747.23.46.599.789.899 1a3.609 3.609 0 00.51.301l.035.016.01.005h.003l.001.001.098-.23zm.565-4.763c.295-.205 1.15-.675 2.122-.858l-.093-.492c-1.056.2-1.975.704-2.314.939l.285.41zm2.122-.858c.613-.116 2.102-.25 3.344-.243.625.004 1.162.044 1.49.13.081.02.142.043.184.064.045.022.058.036.057.035a.084.084 0 01-.014-.056c.002-.018.008-.01-.021.024l.386.318a.554.554 0 00.132-.284.418.418 0 00-.092-.314.656.656 0 00-.227-.172 1.497 1.497 0 00-.278-.1c-.394-.102-.985-.141-1.614-.145-1.266-.007-2.787.128-3.44.252l.093.49zm5.057-.064a3.534 3.534 0 01-1.078.76c-.546.246-1.323.435-2.426.365l-.032.5c1.178.073 2.038-.127 2.664-.41a4.03 4.03 0 001.224-.86l-.352-.355zm-3.504 1.125c-2.239-.14-2.985-.642-3.353-.91l-.295.404c.453.33 1.293.859 3.616 1.005l.032-.499zm-3.353-.91c-.384-.28-.605-.447-.72-.614a.44.44 0 01-.085-.218.831.831 0 01.05-.327l-.476-.152a1.32 1.32 0 00-.071.526.94.94 0 00.17.456c.175.252.482.474.837.733l.295-.404zm-.764-1.134c.15-.34.605-1.197 1.404-1.82l-.308-.394c-.89.694-1.387 1.634-1.553 2.012l.457.202zm1.395-1.813c.226-.16.667-.552 1.471-.844.802-.291 1.972-.483 3.62-.191l.087-.492c-1.73-.307-2.99-.11-3.877.213-.885.321-1.394.767-1.59.906l.288.408zm5.08-1.037c.938.206 1.25.498 1.33.68.068.153 0 .32-.153.428l.29.408c.27-.191.518-.593.321-1.038-.184-.416-.715-.754-1.68-.966l-.107.488zm1.16 1.122l-.03.02a3.151 3.151 0 01-.357.173 5.457 5.457 0 01-.915.276 5.69 5.69 0 01-2.794-.1l-.143.48a6.19 6.19 0 003.04.11 5.903 5.903 0 001.002-.303c.244-.1.435-.203.52-.275l-.323-.381zm-4.093.37c-2.06-.642-2.818-1.53-3.043-1.827l-.399.301c.284.377 1.129 1.33 3.293 2.004l.149-.477zm-3.043-1.827a4.732 4.732 0 01-.677-1.213c-.198-.555-.258-1.176.062-1.747l-.436-.245c-.419.746-.32 1.532-.097 2.16.225.627.586 1.13.75 1.346l.398-.301zm-.629-2.938c.38-.538 1.684-1.756 4.248-1.93l-.034-.5c-2.716.186-4.157 1.483-4.622 2.142l.408.288zm4.241-1.93c.75-.03 2.51-.058 3.854.176l.086-.492c-1.4-.245-3.206-.214-3.96-.184l.02.5zm3.847.175a.757.757 0 01.238.08c.03.019.002.012-.003-.034-.003-.035.015-.039-.016.001a.808.808 0 01-.168.147c-.346.243-1.024.519-1.75.695l.119.486c.752-.183 1.5-.477 1.92-.772a1.34 1.34 0 00.273-.248.505.505 0 00.12-.36.459.459 0 00-.227-.338 1.224 1.224 0 00-.405-.147l-.101.49zm-1.699.889c-.363.088-1.085.249-1.907.292-.827.044-1.727-.031-2.464-.393l-.22.448c.847.417 1.847.49 2.71.445a11.116 11.116 0 002-.306l-.119-.486zm-4.481.123l.118-.22h-.001l-.004-.003-.015-.008a8.51 8.51 0 01-.27-.154 10.872 10.872 0 01-.65-.412 5.174 5.174 0 01-.652-.519 1.65 1.65 0 01-.21-.24.43.43 0 01-.076-.16l-.493.08a.912.912 0 00.157.362c.074.109.17.215.273.317.208.202.468.4.717.572a11.393 11.393 0 00.965.593l.017.009a.211.211 0 00.004.002l.001.001.119-.22zM16.49 3.1c-.008-.033-.013-.167.078-.364.088-.19.26-.424.578-.652.637-.457 1.869-.888 4.164-.829l.013-.5c-2.351-.06-3.707.377-4.469.923-.382.274-.612.574-.74.847-.122.265-.154.52-.109.697l.485-.122zm22.008.72h-.25v.015l.25-.016zM36.28 6.153l-.068-.24-.01.003.078.237zM30.79 7.53l-.036-.248.035.248zm-3.063-1.018l-.25.018.25-.018zm8.765 1.018l.248-.023v-.002l-.248.025zm-2.851 3.412l-.087-.234.087.234zm-2.324-.538l.003-.25-.003.25zm5.703 2.155l.245-.05-.245.05zm-.95 4.55l-.197-.156.196.156zm-5.597 1.377l.008.25h.001l-.01-.25zm-2.746-1.078l-.204-.144-.006.008-.005.01.215.126zm6.547-1.018l.013-.25-.013.25zm-3.801 6.286l.015.25-.015-.25zm2.85-1.317l.053-.244-.009-.002-.043.246zm.951 5.807l.193.16.008-.01.007-.011-.208-.139zm-7.708 1.617l-.113.223.113-.223zm0-.838l-.089-.234.089.234zm6.44-.779l.021-.249-.02.25zm4.014 3.053l.25-.012-.001-.008-.001-.008-.248.029zm-1.796 2.994l.107.226-.107-.226zm-5.068 1.497l-.035-.248.035.248zM29.1 33.214l-.068-.24.068.24zm4.224-.24l.04-.246-.04.246zm2.323.719l.097-.23-.003-.002-.094.232zm-.423 4.969l.143.205.009-.006.008-.007-.16-.192zm-2.217.898l-.046-.246.046.246zm-5.28-.36l-.176-.177-.009.009-.008.01.193.159zm7.18-.239l-.147.202.148-.202zm.845 1.437l.23.1.005-.011.003-.013-.238-.076zm-1.478 1.916l.145.204.009-.007-.154-.197zm-5.28 1.077l-.054.245.01.002.044-.247zm-1.267-1.556l.145.204a.225.225 0 00.017-.014l-.162-.19zm4.33-.42l.074-.238h-.003l-.071.239zm3.167 1.916l.2-.15-.2.15zm.634 3.233l.204.144.008-.01.006-.011-.218-.123zM31.423 48.6l.01.25h.007l-.017-.25zm-3.907-.18l-.05.245.007.002.043-.247zm6.23-1.257l.118-.22-.008-.004-.11.224zm2.006 1.676l-.246.04.001.01.003.011.242-.06zM29.848 1.826c.686-.352 2.756-.934 5.314-.28l.124-.483c-2.679-.687-4.875-.088-5.667.319l.229.444zm5.314-.28c2.572.66 3.086 1.883 3.086 2.273h.5c0-.727-.795-2.074-3.462-2.756l-.124.484zm3.086 2.289c.028.435-.285 1.582-2.036 2.078l.137.481c1.966-.557 2.441-1.909 2.398-2.59l-.499.03zm-2.046 2.082c-1.271.42-2.517.951-5.448 1.366l.07.495c2.983-.422 4.272-.969 5.535-1.387l-.157-.474zm-5.448 1.366c-1.154.164-1.853.026-2.256-.179-.401-.203-.511-.471-.521-.61l-.5.037c.026.341.264.75.794 1.02.528.267 1.342.4 2.553.227l-.07-.495zm-2.777-.787c-.007-.1.07-.39.653-.655.577-.262 1.597-.466 3.31-.395l.021-.5c-1.75-.072-2.86.132-3.537.44-.672.305-.974.744-.946 1.145l.498-.035zm3.964-1.05c3.413.141 4.25 1.577 4.302 2.11l.497-.05c-.088-.904-1.265-2.414-4.779-2.56l-.02.5zm4.302 2.108c.06.641-.341 2.283-2.69 3.155l.175.469c2.55-.948 3.094-2.795 3.012-3.67l-.497.046zm-2.69 3.155c-1.512.562-3.127.93-4.475 1.048-.674.059-1.274.054-1.757-.017-.49-.072-.824-.208-1.006-.38l-.344.364c.294.277.752.433 1.277.51.534.08 1.175.082 1.874.021 1.397-.122 3.056-.502 4.606-1.077l-.175-.469zm-7.238.651c-.092-.086-.057-.102-.066-.066-.003.013.002-.026.125-.093.233-.127.672-.239 1.246-.326 1.13-.173 2.646-.232 3.695-.22l.005-.5c-1.063-.012-2.61.048-3.776.225-.574.088-1.092.209-1.41.383-.153.083-.322.212-.37.412-.055.221.062.41.207.549l.344-.364zm5-.705c.865.01 2.183.128 3.32.447.568.16 1.077.365 1.459.624.382.258.614.552.68.883l.49-.099c-.102-.506-.447-.899-.89-1.198-.444-.3-1.01-.525-1.605-.692-1.19-.334-2.555-.455-3.449-.465l-.005.5zm5.46 1.954c.206 1.023.202 1.823.04 2.505-.16.68-.482 1.262-.942 1.84l.392.311c.491-.619.855-1.265 1.038-2.036.181-.77.178-1.646-.038-2.719l-.49.1zm-.902 4.345c-.147.186-.442.368-.871.533-.42.162-.936.296-1.483.403a21.66 21.66 0 01-3.056.347l.02.5c.783-.03 2.005-.137 3.131-.357a9.65 9.65 0 001.568-.426c.45-.174.85-.395 1.083-.689l-.392-.31zm-5.409 1.283c-.586.02-1.377-.026-1.946-.179-.292-.078-.482-.174-.572-.268-.04-.042-.05-.074-.053-.098-.002-.027.003-.076.05-.156l-.431-.254a.758.758 0 00-.117.456.66.66 0 00.189.396c.189.198.493.323.804.407.636.171 1.482.216 2.093.195l-.017-.5zm-2.533-.684c.049-.068.153-.152.336-.24a3.84 3.84 0 01.682-.233c.545-.14 1.23-.24 1.934-.31 1.41-.141 2.865-.156 3.378-.13l.026-.498c-.542-.028-2.023-.013-3.454.13-.715.071-1.428.175-2.008.324-.29.075-.555.162-.773.266-.214.102-.408.232-.53.403l.41.288zm6.33-.912c.551.028 1.33.209 1.892.636.276.21.495.478.615.813.12.335.147.757.01 1.292l.484.125c.158-.615.135-1.141-.023-1.585a2.265 2.265 0 00-.783-1.043c-.67-.51-1.559-.706-2.17-.737l-.025.499zm2.516 2.741c-.263 1.023-1.308 1.762-2.616 2.263-1.291.494-2.754.724-3.704.783l.031.499c.986-.061 2.501-.298 3.852-.816 1.333-.51 2.593-1.328 2.922-2.604l-.485-.125zm-6.32 3.046c-.662.04-1.587.038-2.234-.086a2.296 2.296 0 01-.404-.11.582.582 0 01-.204-.12c-.024-.025-.022-.035-.021-.044.002-.023.02-.083.11-.183l-.376-.331c-.122.139-.212.291-.23.456a.545.545 0 00.154.446c.102.108.24.184.384.241.146.058.314.102.493.136.708.136 1.683.134 2.358.094l-.03-.5zm-2.754-.543c.158-.179.462-.324.907-.42.437-.096.968-.137 1.534-.14 1.13-.004 2.355.143 3.136.281l.087-.492a19.498 19.498 0 00-3.225-.288c-.584.002-1.154.044-1.638.15-.476.103-.91.277-1.176.578l.375.33zm5.568-.28c1.07.23 1.809.724 2.038 1.524.235.821-.028 2.072-1.243 3.9l.416.277c1.236-1.86 1.606-3.274 1.307-4.314-.303-1.062-1.266-1.629-2.413-1.876l-.105.489zm.81 5.403c-.823 1-2.417 1.52-3.984 1.716a11.7 11.7 0 01-2.14.073c-.628-.04-1.079-.136-1.279-.236l-.225.446c.298.15.838.248 1.472.288a12.19 12.19 0 002.234-.075c1.594-.2 3.357-.738 4.308-1.894l-.386-.318zm-7.403 1.553a.983.983 0 01-.19-.125.312.312 0 01-.091-.108c-.002-.006 0-.005-.002.002 0 .007-.003.006.004-.003.02-.026.083-.083.255-.148l-.177-.467c-.208.078-.374.178-.476.312a.488.488 0 00-.075.473.787.787 0 00.236.319c.093.079.198.144.291.191l.225-.447zm-.024-.382c.93-.35 2.686-1.058 6.333-.762l.04-.499c-3.745-.303-5.579.427-6.55.794l.177.467zm6.333-.762c2.83.229 3.691 2.026 3.784 2.832l.497-.057c-.118-1.03-1.159-3.024-4.24-3.274l-.041.498zm3.783 2.816c.032.644-.26 2.097-1.652 2.755l.213.452c1.648-.779 1.976-2.48 1.938-3.232l-.5.025zm-1.652 2.755c-1.874.885-3.327 1.238-4.997 1.475l.07.495c1.71-.242 3.213-.607 5.14-1.518l-.213-.452zm-4.997 1.475c-.636.09-1.052-.013-1.3-.153-.255-.145-.316-.316-.316-.378h-.5c0 .298.214.611.57.813.366.208.9.315 1.616.213l-.07-.495zm-1.616-.53c0-.069.004-.118.056-.178.062-.074.218-.19.607-.3l-.136-.482c-.43.122-.697.275-.852.458a.727.727 0 00-.175.501h.5zm.663-.479c.4-.113 1.095-.227 1.864-.284.77-.057 1.592-.056 2.252.051l.08-.493c-.714-.116-1.58-.115-2.369-.056-.788.058-1.519.175-1.963.301l.136.481zm4.116-.233c.71.115 1.533.406 2.269.704l.188-.464c-.743-.3-1.61-.609-2.377-.733l-.08.493zm2.363.472l-.097.23.006.003.025.011.1.05c.085.046.204.114.335.207.264.186.561.459.74.816.175.347.245.79.038 1.349-.212.569-.718 1.272-1.73 2.11l.32.385c1.048-.868 1.624-1.639 1.878-2.321.258-.693.176-1.28-.059-1.747-.23-.46-.599-.789-.899-1a3.609 3.609 0 00-.51-.301l-.035-.016-.01-.005h-.003l-.001-.001-.098.23zm-.565 4.763c-.295.205-1.15.674-2.121.858l.092.492c1.056-.2 1.975-.704 2.314-.939l-.285-.41zm-2.121.858c-.614.116-2.102.25-3.345.243-.625-.004-1.162-.044-1.49-.13a1.01 1.01 0 01-.184-.064c-.045-.022-.058-.036-.057-.035.006.007.017.03.014.056-.002.018-.008.01.021-.025l-.386-.317a.554.554 0 00-.132.284.418.418 0 00.092.314.656.656 0 00.227.172c.083.04.177.073.278.1.394.102.985.141 1.614.145 1.266.007 2.787-.128 3.44-.252l-.092-.49zm-5.058.064a3.534 3.534 0 011.078-.76c.546-.246 1.323-.435 2.426-.365l.032-.5c-1.178-.073-2.038.127-2.664.41a4.03 4.03 0 00-1.224.86l.352.355zm3.504-1.125c2.239.14 2.985.642 3.353.91l.295-.404c-.453-.33-1.293-.859-3.616-1.005l-.032.499zm3.353.91c.384.28.605.447.72.614a.44.44 0 01.085.218.831.831 0 01-.05.327l.475.152a1.32 1.32 0 00.072-.526.94.94 0 00-.17-.456c-.175-.252-.482-.474-.837-.733l-.295.404zm.764 1.134c-.15.34-.605 1.197-1.404 1.82l.308.394c.89-.694 1.387-1.634 1.553-2.012l-.457-.202zm-1.395 1.813c-.226.16-.667.552-1.471.844-.802.291-1.972.483-3.62.191l-.087.492c1.73.307 2.99.11 3.877-.213.885-.321 1.394-.767 1.59-.906l-.288-.408zm-5.08 1.037c-.938-.206-1.25-.497-1.33-.68-.068-.153 0-.32.153-.428l-.29-.408c-.27.191-.518.593-.321 1.038.184.417.715.754 1.68.967l.107-.489zm-1.16-1.122l.03-.02c.02-.012.046-.028.08-.046.069-.036.162-.08.277-.127.229-.093.541-.197.915-.276a5.69 5.69 0 012.794.1l.143-.48a6.19 6.19 0 00-3.04-.11 5.903 5.903 0 00-1.002.303c-.244.1-.435.203-.52.275l.323.381zm4.093-.37c2.06.642 2.818 1.53 3.043 1.827l.399-.301c-.285-.377-1.129-1.33-3.293-2.004l-.149.477zm3.043 1.827c.154.204.479.658.677 1.213.198.555.259 1.176-.062 1.747l.436.245c.419-.746.32-1.532.097-2.16a5.228 5.228 0 00-.75-1.346l-.398.301zm.629 2.938c-.38.538-1.685 1.756-4.248 1.93l.034.5c2.716-.186 4.157-1.483 4.622-2.142l-.408-.288zm-4.241 1.93c-.75.03-2.51.058-3.854-.176l-.086.492c1.4.245 3.206.214 3.96.184l-.02-.5zm-3.847-.175a.756.756 0 01-.238-.08c-.03-.019-.002-.011.003.034.003.035-.015.038.016-.001a.811.811 0 01.168-.147c.346-.244 1.024-.519 1.75-.695l-.119-.486c-.752.183-1.5.477-1.92.772a1.286 1.286 0 00-.273.248.505.505 0 00-.12.36.46.46 0 00.227.338c.108.068.247.114.405.147l.101-.49zm1.699-.889a10.616 10.616 0 011.907-.293c.827-.043 1.727.032 2.464.394l.22-.448c-.847-.417-1.847-.49-2.71-.445-.868.046-1.624.215-2 .306l.119.486zm4.481-.123l-.118.22h.001l.004.003.015.008.058.032a10.949 10.949 0 01.862.534c.239.165.473.345.652.519.09.087.16.168.21.24a.43.43 0 01.076.16l.493-.08a.912.912 0 00-.157-.362 2.139 2.139 0 00-.273-.317 5.665 5.665 0 00-.717-.572 11.456 11.456 0 00-.965-.593l-.017-.009-.004-.002-.001-.001-.119.22zM35.51 48.9c.008.033.013.167-.078.364-.088.19-.26.424-.578.652-.637.457-1.868.888-4.164.829l-.013.5c2.351.06 3.707-.377 4.469-.923.382-.274.612-.574.74-.847.122-.265.153-.52.109-.697l-.485.122z" fill="#796049"/></svg>