<svg width="36" height="36" fill="none" xmlns="http://www.w3.org/2000/svg"><g clip-path="url(#clip0_739_9782)"><path d="M18 0a.562.562 0 00-.563.563v3.375a.562.562 0 101.125 0V.562c0-.31-.25-.562-.562-.562zm-6.102 2.314a.558.558 0 00-.53.771l.842 2.087a.56.56 0 00.523.352.564.564 0 00.52-.773l-.843-2.086a.562.562 0 00-.512-.351zm12.204 0a.562.562 0 00-.512.351l-.844 2.085a.566.566 0 00.31.734.56.56 0 00.734-.312l.841-2.087a.558.558 0 00-.53-.771zM5.669 5.106a.558.558 0 00-.396.165.558.558 0 000 .796l2.384 2.388c.11.108.255.165.4.165a.565.565 0 00.398-.962L6.067 5.27a.559.559 0 00-.398-.165zm24.662 0a.559.559 0 00-.398.165l-2.388 2.386a.565.565 0 00.398.963c.145 0 .29-.057.4-.165l2.384-2.388a.558.558 0 000-.796.558.558 0 00-.396-.165zM18 5.625c-6.825 0-12.375 5.55-12.375 12.375S11.175 30.375 18 30.375 30.375 24.825 30.375 18 24.825 5.625 18 5.625zm0 1.125c6.203 0 11.25 5.047 11.25 11.25S24.203 29.25 18 29.25 6.75 24.203 6.75 18 11.797 6.75 18 6.75zM18 9a8.982 8.982 0 00-6.062 2.349.562.562 0 10.758.83A7.855 7.855 0 0118 10.125c.989 0 1.953.18 2.865.536a.561.561 0 10.407-1.046A8.918 8.918 0 0018 9zm5.26 1.89a.562.562 0 00-.297.995c.302.246.59.516.853.806a.561.561 0 00.796.036.565.565 0 00.035-.796c-.303-.33-.63-.64-.974-.918a.556.556 0 00-.413-.123zm-20.395.437a.563.563 0 00-.202 1.083l2.087.844a.563.563 0 00.422-1.044l-2.087-.843a.54.54 0 00-.22-.04zm30.27 0a.54.54 0 00-.22.04l-2.087.843a.563.563 0 00.422 1.044l2.087-.844a.562.562 0 00-.202-1.083zM.563 17.437a.562.562 0 100 1.125h3.375a.562.562 0 100-1.125H.562zm31.5 0a.562.562 0 100 1.125h3.374a.562.562 0 100-1.125h-3.374zm-20.795 2.857a.64.64 0 00-.22.044l-1.035.44a.562.562 0 10.44 1.037l1.034-.44a.562.562 0 00-.22-1.081zm1.562 2.314a.559.559 0 00-.398.165l-.795.795a.562.562 0 10.795.795l.795-.795a.562.562 0 00-.397-.96zm-7.86.096a.599.599 0 00-.22.042l-2.087.844a.562.562 0 00.211 1.083.52.52 0 00.211-.04l2.087-.843a.563.563 0 00-.202-1.086zm26.062.002a.563.563 0 00-.204 1.083l2.087.845a.56.56 0 00.732-.312.563.563 0 00-.31-.732l-2.088-.844a.543.543 0 00-.217-.04zm-15.78 1.512a.566.566 0 00-.513.352l-.422 1.041a.564.564 0 00.521.774.56.56 0 00.523-.352l.422-1.044a.565.565 0 00-.532-.77zm5.497 0a.565.565 0 00-.532.771l.422 1.044a.56.56 0 00.732.312.564.564 0 00.312-.734l-.422-1.041a.566.566 0 00-.512-.352zM18 24.75a.562.562 0 00-.563.563v1.125a.562.562 0 101.125 0v-1.125c0-.31-.25-.563-.562-.563zm-9.943 2.63a.568.568 0 00-.4.165l-2.384 2.388a.558.558 0 000 .796.556.556 0 00.794 0l2.388-2.386a.565.565 0 00-.398-.963zm19.886 0a.565.565 0 00-.398.962l2.388 2.387a.556.556 0 00.794 0 .559.559 0 000-.796l-2.384-2.388a.568.568 0 00-.4-.165zm-15.219 3.096a.567.567 0 00-.514.352l-.841 2.087a.558.558 0 00.31.73.55.55 0 00.21.043.562.562 0 00.521-.353l.844-2.085a.566.566 0 00-.31-.734.555.555 0 00-.22-.04zm10.552 0a.564.564 0 00-.53.773l.844 2.086a.55.55 0 00.732.31.558.558 0 00.31-.73l-.842-2.087a.567.567 0 00-.514-.352zM18 31.5a.562.562 0 00-.563.563v3.374a.562.562 0 101.125 0v-3.374c0-.31-.25-.563-.562-.563z" fill="#796049"/></g><defs><clipPath id="clip0_739_9782"><path fill="#fff" d="M0 0h36v36H0z"/></clipPath></defs></svg>