<svg width="36" height="36" fill="none" xmlns="http://www.w3.org/2000/svg"><g clip-path="url(#clip0_739_9788)"><path d="M17.438 1.125c-8.994 0-16.313 7.32-16.313 16.313 0 8.993 7.32 16.312 16.313 16.312 2.584 0 5.022-.61 7.196-1.685 1.092 1.659 2.953 2.773 5.064 2.81h.106c2.694 0 5.067-1.793 5.926-4.491.934-2.93-.69-5.324-2.41-7.86-.093-.134-.183-.268-.273-.402.446-1.488.703-3.054.703-4.684 0-3.72-1.255-7.153-3.357-9.9a4.11 4.11 0 00.448-.368l.336-.339a1.12 1.12 0 000-1.588l-2.386-2.387a1.125 1.125 0 00-1.591 0l-.347.343a3.98 3.98 0 00-.495.607 16.2 16.2 0 00-8.92-2.681zm0 1.125c3.113 0 6.005.954 8.417 2.569l-1.96 4.574a.563.563 0 00.74.739l1.512-.649a11.738 11.738 0 013.068 7.216.653.653 0 00-.081.202c-.44 2.077-1.662 3.88-2.844 5.625-1.098 1.622-2.138 3.175-2.516 4.86a11.712 11.712 0 01-6.337 1.864c-6.512 0-11.812-5.3-11.812-11.813 0-6.512 5.3-11.812 11.813-11.812a11.8 11.8 0 011.766.132.562.562 0 10.167-1.112 12.864 12.864 0 00-1.933-.145C10.303 4.5 4.5 10.303 4.5 17.438c0 7.134 5.803 12.937 12.938 12.937a12.85 12.85 0 006.18-1.582 6.15 6.15 0 00.482 2.283 15.093 15.093 0 01-6.663 1.549c-8.373 0-15.187-6.814-15.187-15.188C2.25 9.065 9.064 2.25 17.438 2.25zm10.555 1.402l2.389 2.386-.339.334a2.79 2.79 0 01-.88.598l-3.681 1.575 1.57-3.667c.141-.33.341-.628.596-.881l.345-.345zm-6.247 1.626a.567.567 0 00-.503.367.562.562 0 00.33.725c.4.15.795.32 1.182.514a.564.564 0 00.756-.248.566.566 0 00-.25-.756c-.42-.211-.858-.402-1.295-.567a.59.59 0 00-.22-.035zm-4.308 2.597a.56.56 0 00-.563.563v2.25c0 .311.25.562.563.562a.56.56 0 00.562-.563v-2.25a.56.56 0 00-.563-.562zm11.946.222c2.021 2.582 3.241 5.816 3.241 9.34 0 1.18-.145 2.323-.402 3.426-.773-1.24-1.448-2.536-1.751-3.962a.688.688 0 00-.134-.272 12.85 12.85 0 00-3.1-7.611l2.146-.921zm-15.464.492a.563.563 0 00-.516.782l.878 2.072a.56.56 0 00.739.3.564.564 0 00.298-.74l-.879-2.071a.57.57 0 00-.52-.343zm7.035 0a.57.57 0 00-.52.343l-.88 2.072a.564.564 0 001.038.44l.879-2.073a.561.561 0 00-.517-.782zm-9.88 1.923a.563.563 0 00-.398.96l1.59 1.59a.559.559 0 00.796 0 .562.562 0 000-.795l-1.591-1.59a.563.563 0 00-.398-.165zm12.726 0a.563.563 0 00-.398.165l-1.59 1.59a.562.562 0 10.795.796l1.59-1.591a.562.562 0 00-.397-.96zM9.156 13.359a.564.564 0 00-.224 1.081l2.072.88a.563.563 0 00.44-1.037l-2.073-.88a.533.533 0 00-.215-.044zm16.563 0a.533.533 0 00-.215.044l-2.072.88a.562.562 0 00.22 1.08.593.593 0 00.22-.044l2.071-.879a.565.565 0 00.299-.738.565.565 0 00-.523-.343zm-11.657 1.266a.56.56 0 00-.562.563c0 .311.25.562.563.562h1.687v1.125h-1.125a.56.56 0 00-.563.563.56.56 0 00.563.562h1.125v1.125h-1.688a.56.56 0 00-.562.563c0 .312.25.562.563.562h1.687c.62 0 1.125-.505 1.125-1.125V18c0-.206-.06-.395-.156-.563a1.11 1.11 0 00.156-.562V15.75c0-.62-.505-1.125-1.125-1.125h-1.688zm4.5 0a.56.56 0 00-.562.563c0 .311.25.562.563.562h1.698v3.938a.562.562 0 101.125 0V15.75c0-.62-.503-1.125-1.125-1.125h-1.698zm-10.125 2.25a.56.56 0 00-.562.563c0 .312.25.562.563.562h2.25a.56.56 0 00.562-.563.56.56 0 00-.563-.562h-2.25zm15.75 0a.56.56 0 00-.562.563c0 .312.25.562.563.562h2.25a.56.56 0 00.562-.563.56.56 0 00-.563-.562h-2.25zm5.617 1.727c.622 1.659 1.615 3.127 2.584 4.555 1.63 2.402 3.038 4.478 2.27 6.884-.71 2.228-2.653 3.709-4.854 3.709h-.088c-2.745-.048-4.977-2.32-4.977-5.07 0-1.86 1.206-3.638 2.48-5.523.97-1.428 1.963-2.894 2.585-4.555zm-18.583.91a.629.629 0 00-.217.044l-2.072.879a.565.565 0 00-.299.738.564.564 0 00.738.299l2.072-.88a.562.562 0 00-.222-1.08zm.591 4.113a.56.56 0 00-.562.563c0 .312.25.562.563.562h11.25a.56.56 0 00.562-.563.56.56 0 00-.563-.562h-11.25zm2.25 2.25a.56.56 0 00-.562.563c0 .312.25.562.563.562h6.75a.56.56 0 00.562-.563.56.56 0 00-.563-.562h-6.75z" fill="#796049"/></g><defs><clipPath id="clip0_739_9788"><path fill="#fff" d="M0 0h36v36H0z"/></clipPath></defs></svg>