<svg width="29" height="40" fill="none" xmlns="http://www.w3.org/2000/svg"><path d="M.698 17.956a.536.536 0 01-.532-.456 14.453 14.453 0 01-.123-3.318.535.535 0 111.068.08 13.716 13.716 0 00.118 3.076.536.536 0 01-.45.612c-.027 0-.054.006-.081.006zM3.404 7.369a.538.538 0 01-.43-.864 14.95 14.95 0 012.303-2.394.542.542 0 01.757.07.542.542 0 01-.07.756 13.69 13.69 0 00-2.136 2.218.528.528 0 01-.424.209v.005zm24.898 10.566s-.054 0-.08-.006a.536.536 0 01-.451-.612 13.628 13.628 0 00.118-3.081.536.536 0 111.068-.08 14.37 14.37 0 01-.123 3.323.536.536 0 01-.532.456zM25.596 7.348a.521.521 0 01-.424-.21 13.69 13.69 0 00-2.136-2.216.532.532 0 01-.07-.757.532.532 0 01.757-.07 14.512 14.512 0 012.303 2.394.533.533 0 01-.102.752.527.527 0 01-.328.113v-.006zm-9.496-5.4h-.065a13.468 13.468 0 00-3.049 0 .549.549 0 01-.607-.473.52.52 0 01.457-.59h.032a14.712 14.712 0 013.296 0 .538.538 0 01-.059 1.073l-.005-.01z" fill="#00908F"/><path d="M23.09 15.283c0-5.068-4.387-9.11-9.572-8.541-3.887.43-7.038 3.516-7.538 7.392a8.58 8.58 0 003.103 7.817c.934.757 1.503 1.879 1.503 3.081v.601a3.914 3.914 0 007.827 0v-.6c0-1.203.57-2.325 1.504-3.082a8.571 8.571 0 003.178-6.668h-.006z" fill="#F1EDE6"/><path d="M6.173 17.42a8.586 8.586 0 002.91 4.53c.934.758 1.503 1.88 1.503 3.082v.602a3.914 3.914 0 007.827 0v-.602c0-1.202.57-2.324 1.503-3.081a8.625 8.625 0 002.91-4.526M15.864 32.59H13.13a1.895 1.895 0 00-1.895 1.895v2.727a1.57 1.57 0 001.568 1.568h3.393a1.57 1.57 0 001.567-1.568v-2.727a1.895 1.895 0 00-1.895-1.895h-.005z" stroke="#00908F" stroke-width="1.3" stroke-linecap="round" stroke-linejoin="round"/><path d="M9.084 21.95s2.33 1.604 5.416 1.416L9.084 21.95z" fill="#F1EDE6"/><path d="M9.084 21.95s2.33 1.604 5.416 1.416m3.259 12.902H14.5" stroke="#00908F" stroke-width="1.3" stroke-linecap="round" stroke-linejoin="round"/></svg>