<svg width="42" height="50" fill="none" xmlns="http://www.w3.org/2000/svg"><path d="M19.326 33.652H6.883a.854.854 0 010-1.707h12.443a.854.854 0 010 1.707z" fill="#796049"/><path d="M21.859 50h-17.5a4.325 4.325 0 01-3.706-2.066 4.326 4.326 0 01-.187-4.239L8.73 27.223v-10.21a.854.854 0 011.706 0v10.414a.852.852 0 01-.09.382L1.991 44.46a2.634 2.634 0 00.113 2.577 2.63 2.63 0 002.253 1.256h17.5c.927 0 1.77-.47 2.255-1.257.485-.787.526-1.75.112-2.576L15.87 27.806a.851.851 0 01-.09-.382V17.01a.854.854 0 011.706 0v10.21l8.265 16.472a4.32 4.32 0 01-.185 4.237A4.322 4.322 0 0121.86 50z" fill="#796049"/><path d="M8.301 46.636A3.006 3.006 0 015.3 43.633a3.006 3.006 0 013-3.002 3.006 3.006 0 013.003 3.002A3.006 3.006 0 018.3 46.636zm0-4.298A1.297 1.297 0 008.3 44.93a1.296 1.296 0 000-2.591zm7.813-.34a2.78 2.78 0 01-2.776-2.776 2.78 2.78 0 012.776-2.777 2.78 2.78 0 012.777 2.777 2.78 2.78 0 01-2.777 2.776zm0-3.846a1.07 1.07 0 10.001 2.14 1.07 1.07 0 000-2.14zM38.77 40.83h-7.563a.854.854 0 010-1.707h7.562a.854.854 0 010 1.707z" fill="#796049"/><path d="M34.988 49.825a4.64 4.64 0 01-4.634-4.634V18.206a.42.42 0 00-.42-.42h-.477a.854.854 0 010-1.707h.478a2.13 2.13 0 012.126 2.127V45.19a2.93 2.93 0 002.927 2.928 2.93 2.93 0 002.927-2.929V18.205a2.13 2.13 0 012.127-2.127h.476a.854.854 0 010 1.707h-.476a.42.42 0 00-.42.42V45.19a4.639 4.639 0 01-4.634 4.635zM8.317 12.85a2.895 2.895 0 01-2.891-2.892 2.895 2.895 0 012.891-2.892 2.895 2.895 0 012.892 2.892 2.895 2.895 0 01-2.892 2.892zm0-4.078c-.652 0-1.184.532-1.184 1.185 0 .652.532 1.184 1.184 1.184a1.186 1.186 0 000-2.37zm12.502.655a4.72 4.72 0 01-4.713-4.713A4.72 4.72 0 0120.819 0a4.72 4.72 0 014.714 4.714 4.72 4.72 0 01-4.714 4.713zm0-7.72a3.01 3.01 0 00-3.007 3.007A3.01 3.01 0 0020.82 7.72a3.01 3.01 0 003.007-3.006 3.01 3.01 0 00-3.007-3.007zm14.202 11.396a3.222 3.222 0 01-3.218-3.218 3.222 3.222 0 013.218-3.219 3.222 3.222 0 013.22 3.219 3.222 3.222 0 01-3.22 3.218zm0-4.732a1.513 1.513 0 000 3.024c.834 0 1.512-.678 1.512-1.512 0-.833-.678-1.512-1.512-1.512z" fill="#796049"/></svg>