<svg version="1.1" id="Layer_1" xmlns="http://www.w3.org/2000/svg" x="0" y="0" viewBox="0 0 37 49" xml:space="preserve"><style>.st1{fill:none;stroke:#004542;stroke-linecap:round;stroke-linejoin:round}</style><path d="M31.9 14.9c-15.5 5-20.9-4.7-20.9-4.7s-8.5 2-8.4 13c0 0 .3 3.2.5 6.5.2 2.1.2 5.9.2 6 0 6.8 4.8 12.3 11.8 12.2v-.7c0-1.5 1.1-2.7 2.6-3 .4-.1 2-.1 2.4 0 1.5.3 2.6 1.5 2.6 3v.8h.4c3.7.2 5.8-1.1 7.8-3.2 2.2-2.3 3.5-5.5 3.6-8.9 0-.1.4-5.2.5-7.8.1-1 .1-2.1.2-3.1.8-9.4-3.3-10.1-3.3-10.1z" fill="#f2eee7"/><path class="st1" d="M10 47s-6.6-3.1-6.6-13.4M28 47s6.6-3.1 6.6-13.4m-19.4 6.8c.7.3 1.5 0 2.1-.2.2-.1.5-.1.7-.1.2.1.4.2.5.4.1.2.2.4.4.5.2-.2.3-.4.4-.5.1-.2.3-.4.5-.4.2-.1.5 0 .7.1.6.2 1.5.5 2.1.2m-7.4 7.4v-.5c0-1.5 1.1-2.7 2.6-3 .4-.1 2-.1 2.4 0 1.5.3 2.6 1.5 2.6 3v.5"/><path class="st1" d="M8.7 3.9s.4-.3 1.1-.7c9.5-5.1 20.3-.8 24.8 7.7 1.4 2.6 2 5.5 1.6 8.4-.2 1.4-1.7 12.6-1.6 14.4"/><path class="st1" d="M35.6 23.7c1-7.3-3.7-8.3-3.7-8.3-.6.4-1.4.8-2.2 1-2.4.8-5 1-7.5.6C11.4 15.5 9.5 7.5 9.5 7.5m-.8-3.6s-5.5-.3-7.2 6.6c-.2.8-.3 1.6-.4 2.4-.1.9 0 1.9.2 2.8.6 2.8 2 10.1 2.2 17.9m-.9-10c-.1-11 8.4-13 8.4-13"/></svg>