<svg id="Layer_1" data-name="Layer 1" xmlns="http://www.w3.org/2000/svg" viewBox="0 0 13.29 17.29"><defs><style>.cls-2{fill:none;stroke:#009190;stroke-linecap:round;stroke-linejoin:round;stroke-width:.8px}</style></defs><path d="M11.92 5.88C6.45 7.62 4.54 4.21 4.54 4.21s-3 .71-3 4.59c0 0 .1 1.13.19 2.31.07.74.09 2.08.09 2.11A4.11 4.11 0 006 17.52v-.23a1.09 1.09 0 011-1.05 3.93 3.93 0 01.84 0 1.09 1.09 0 01.92 1.05v.23h.14a3.08 3.08 0 002.75-1.14 4.6 4.6 0 001.26-3.15s.13-1.83.18-2.75c0-.36.05-.72.08-1.09.24-3.26-1.19-3.51-1.19-3.51z" transform="translate(-.6 -.57)" fill="#f2eee7"/><path class="cls-2" d="M4.19 17.17s-2.34-1.09-2.32-4.71m8.68 4.71s2.34-1.09 2.32-4.71M6 14.85a1.11 1.11 0 00.76-.07.39.39 0 01.26 0 .33.33 0 01.18.15.79.79 0 00.14.18 1.1 1.1 0 00.14-.18.33.33 0 01.18-.15.39.39 0 01.26 0 1.11 1.11 0 00.76.07M6 17.45v-.16a1.08 1.08 0 011-1.05 3.93 3.93 0 01.84 0 1.09 1.09 0 01.92 1.05v.16M3.71 2a4.1 4.1 0 01.4-.24 6.47 6.47 0 018.77 2.71 4.59 4.59 0 01.56 2.94c-.08.5-.59 4.45-.58 5.07" transform="translate(-.6 -.57)"/><path class="cls-2" d="M13.24 9c.34-2.62-1.32-3-1.32-3a3.12 3.12 0 01-.78.37 5.72 5.72 0 01-2.66.22C4.69 6.06 4 3.27 4 3.27M3.71 2a2.68 2.68 0 00-2.57 2.3 5 5 0 00-.14.85 3.42 3.42 0 00.08 1 34.15 34.15 0 01.78 6.3m-.28-3.51c0-3.88 3-4.59 3-4.59" transform="translate(-.6 -.57)"/></svg>