<svg width="14" height="18" fill="none" xmlns="http://www.w3.org/2000/svg"><path d="M11.919 5.876c-5.474 1.745-7.38-1.663-7.38-1.663s-2.993.71-2.957 4.587c0 0 .096 1.128.193 2.307.061.741.086 2.08.086 2.116.016 2.404 1.708 4.324 4.173 4.298v-.231c0-.536.401-.947.92-1.045.147-.031.69-.031.838 0 .519.098.92.514.92 1.045v.226c.036 0 .081-.01.137-.005 1.316.088 2.043-.386 2.755-1.143a4.598 4.598 0 001.255-3.145c0-.037.132-1.828.183-2.75.02-.365.046-.726.076-1.091.24-3.259-1.189-3.511-1.189-3.511l-.01.005z" fill="#F2EEE7"/><path d="M4.194 17.172s-2.348-1.097-2.322-4.711m8.675 4.711s2.348-1.097 2.322-4.711M6.034 14.85c.234.102.528.015.757-.067a.408.408 0 01.26-.026.361.361 0 01.177.15c.046.066.087.133.142.184.056-.056.097-.123.143-.185a.39.39 0 01.178-.15c.08-.025.172-.004.259.027.223.082.523.17.757.066m-2.678 2.606v-.165c0-.535.401-.947.92-1.045.147-.031.69-.031.838 0 .518.098.92.515.92 1.045v.165M3.706 1.979s.142-.098.402-.237c3.37-1.802 7.165-.273 8.776 2.708.488.901.722 1.93.56 2.945-.082.5-.595 4.448-.58 5.06" stroke="#004542" stroke-width=".8" stroke-linecap="round" stroke-linejoin="round"/><path d="M13.235 8.95c.346-2.575-1.316-2.935-1.316-2.935a3.15 3.15 0 01-.783.365c-.853.289-1.768.345-2.658.217-3.79-.536-4.462-3.331-4.462-3.331m-.31-1.288S1.765 1.88 1.145 4.3a4.907 4.907 0 00-.137.855 3.52 3.52 0 00.086 1.004c.213.983.711 3.542.772 6.296m-.284-3.516C1.546 5.062 4.54 4.352 4.54 4.352" stroke="#004542" stroke-width=".8" stroke-linecap="round" stroke-linejoin="round"/></svg>