<svg width="12" height="12" fill="none" xmlns="http://www.w3.org/2000/svg"><g clip-path="url(#clip0_0_417)"><path d="M.915.48A.24.24 0 00.72.72v.72c0 .062.024.12.068.165L4.56 5.61v4.23c.002.083.048.16.12.203l2.4 1.44a.24.24 0 00.36-.203V5.61l3.735-3.968.007-.007.03-.03a.224.224 0 00.03-.038.116.116 0 00.015-.015.25.25 0 00.023-.097V1.44a.26.26 0 000-.038V.72a.24.24 0 00-.24-.24H.915zM1.2.96h9.6v.39L7.095 5.28h-2.19L1.2 1.35V.96zm3.84 4.8h1.92v5.1L5.04 9.712V5.76z" fill="#796049"/></g><defs><clipPath id="clip0_0_417"><path fill="#fff" d="M0 0h12v12H0z"/></clipPath></defs></svg>