<svg xmlns="http://www.w3.org/2000/svg" viewBox="0 0 68.39 59.16"><defs><style>.cls-1{fill:#f2eee7}.cls-2{fill:none;stroke:#009190;stroke-linecap:round;stroke-linejoin:round;stroke-width:2px}</style></defs><g id="Layer_2" data-name="Layer 2"><g id="Layer_1-2" data-name="Layer 1"><path class="cls-1" d="M34.77 8.26c-2.37.09-3.06 6.48-5.25 7.54s-4.56 2.63-7 3.13a15.08 15.08 0 00-6.17 10.33 21.22 21.22 0 000 4.91l1 8.36c-.09 12.74 7.18 15.63 7.18 15.63H1a14.45 14.45 0 008.2-12l.73-16.38c-.55-4.74.64-9 1.69-12.65C14.82 5.87 24.9 2 34.77 2"/><path class="cls-1" d="M34.19 8.26c2.37.09 3.06 6.48 5.25 7.54s4.56 2.63 7 3.13a15.08 15.08 0 016.17 10.33 20.68 20.68 0 010 4.91l-1 8.36c.09 12.74-7.18 15.63-7.18 15.63H68a14.47 14.47 0 01-8.2-12l-.8-16.4c.55-4.74-.64-9-1.69-12.65C54.14 5.87 44.07 2 34.19 2"/><path class="cls-2" d="M43.91 58.16s8.38-3.86 8.29-16.6m-27.72 16.6s-8.38-3.86-8.29-16.6m41.26-25.42a28.21 28.21 0 011.23 13.16"/><path class="cls-2" d="M34.2 1s-.58 15.58 12.94 17.14a13.31 13.31 0 017.55 3.2 12.62 12.62 0 014 7.32"/><path class="cls-2" d="M34.19 1C44.1 1 54 6.05 57.45 16.14a25.53 25.53 0 011.23 12.52"/><path class="cls-2" d="M34.2 1s-.58 15.58 12.94 17.14a13.31 13.31 0 017.55 3.2 12.62 12.62 0 014 7.32M10.94 16.14A28.21 28.21 0 009.71 29.3m3.99-7.96a12.56 12.56 0 00-4 7.32M34.19 1s.58 15.58-12.94 17.14M9.29 41.56C9.38 54.3 1 58.16 1 58.16h15.19m0-23.99v7.39m42.91 0c-.09 12.74 8.29 16.6 8.29 16.6H52.2m0-24.07v7.47"/><path class="cls-2" d="M34.19 1c-9.9 0-19.8 5.05-23.25 15.14a25.53 25.53 0 00-1.23 12.52m3.99-7.32a12.56 12.56 0 00-4 7.32M34.19 1s.58 15.58-12.94 17.14"/></g></g></svg>