<svg width="34" height="39" fill="none" xmlns="http://www.w3.org/2000/svg"><g clip-path="url(#clip0_209_5759)"><path d="M21.11 22.466c.455.376.858.826 1.173 1.357a7.548 7.548 0 011.029 3.82v.014c0 1.009.366 1.976 1.014 2.684l1.127 1.235c1.573 1.717 1.587 4.632-.108 6.204a3.6 3.6 0 01-2.475.99H11.13a3.6 3.6 0 01-2.475-.99c-1.695-1.572-1.686-4.487-.108-6.204l1.127-1.23c.648-.709 1.014-1.68 1.014-2.69 0-1.412.376-2.726 1.024-3.829a5.19 5.19 0 011.174-1.356c.874-.723 1.935-1.61 3.025-1.61h2.174c1.09 0 2.15.887 3.024 1.61v-.005z" fill="#F2EEE7"/><path d="M16.305 33.364c.348 0 .493-.723.695-.718.202-.005.352.718.695.718" fill="#F2EEE7"/><path d="M19.25 21.11c.455-2.483 3.3-15.3 14.515-20.875 0 0-.202 11.338-11.341 23.573M14.75 21.11C14.3 18.622 11.45 5.81.236.235c0 0 .202 11.338 11.341 23.573m2.657-2.45a5.775 5.775 0 015.527 0" stroke="#009190" stroke-linecap="round" stroke-linejoin="round"/><path d="M14.727 38.766H11.13a3.6 3.6 0 01-2.475-.99c-1.695-1.573-1.686-4.487-.108-6.205l1.127-1.23c.648-.708 1.014-1.68 1.014-2.689 0-1.835.64-3.506 1.682-4.754m9.26-.005c1.043 1.248 1.677 2.915 1.682 4.745v.014c0 1.009.366 1.976 1.014 2.684l1.127 1.235c1.573 1.717 1.587 4.632-.108 6.204a3.6 3.6 0 01-2.475.99h-3.597m-2.968-5.401c.348 0 .493-.723.695-.718.202-.005.352.718.695.718m-.695 0v.957" stroke="#009190" stroke-linecap="round" stroke-linejoin="round"/></g><defs><clipPath id="clip0_209_5759"><path fill="#fff" d="M0 0h34v39H0z"/></clipPath></defs></svg>