<svg width="48" height="48" fill="none" xmlns="http://www.w3.org/2000/svg"><g clip-path="url(#clip0_724_9795)" fill="#796049"><path fill-rule="evenodd" clip-rule="evenodd" d="M15.562 10l.595.2c4.42 1.488 7.238 2.993 8.627 5.134 1.413 2.18 1.265 4.875.178 8.477l-.127.419-.431-.07c-3.74-.61-6.268-1.633-7.694-3.788-1.409-2.128-1.65-5.234-1.21-9.747l.062-.625zm.875 1.352c-.353 4.136-.036 6.743 1.105 8.468 1.077 1.627 2.96 2.573 6.075 3.183-1.2-2.399-2.591-4.079-5.477-6.98.097-.408.241-.562.707-.705 2.806 2.821 4.274 4.56 5.51 6.938.708-2.844.605-4.812-.41-6.377-1.13-1.74-3.46-3.112-7.51-4.527zM26.48 34.16l-.488.107.085.39.4.003c4.925.031 8.347-.74 10.639-3.17 2.269-2.404 3.321-6.326 3.838-12.278L41 18.7l-.513-.03c-4.442-.253-7.611.57-9.852 2-2.245 1.431-3.507 3.44-4.19 5.46-.682 2.014-.792 4.047-.736 5.566.028.762.098 1.4.161 1.85a13.359 13.359 0 00.112.668l.008.038.002.01.001.006.488-.107zm.29-1.513a17.75 17.75 0 01-.065-.988c-.053-1.448.055-3.35.684-5.21.627-1.851 1.767-3.653 3.782-4.938 1.936-1.235 4.726-2.023 8.742-1.868-.531 5.633-1.569 9.09-3.523 11.162-1.872 1.983-4.68 2.789-9.052 2.852 1.22-2.127 2.261-3.672 3.389-4.938 1.25-1.404 2.622-2.482 4.499-3.627.046-.493-.09-.663-.52-.853-1.936 1.18-3.392 2.319-4.724 3.815-1.096 1.23-2.097 2.69-3.212 4.593zM7 21.615l.56.055c3.006.293 5.564.656 7.684 1.205 2.119.55 3.833 1.294 5.127 2.374 2.633 2.198 3.357 5.634 2.61 10.979l-.053.383-.384.044c-2.743.314-5.071.45-7.02.252-1.955-.198-3.565-.736-4.837-1.8-1.272-1.064-2.152-2.608-2.732-4.717-.58-2.105-.87-4.802-.943-8.212L7 21.615zm1.025 1.106c.09 3.105.376 5.527.892 7.403.546 1.983 1.341 3.323 2.41 4.216 1.069.894 2.465 1.387 4.298 1.573 1.62.165 3.555.087 5.858-.148-2.598-2.936-4.64-4.603-8.746-7.178-.036-.52.064-.691.53-.847 4.123 2.587 6.239 4.3 8.86 7.248.479-4.564-.331-7.248-2.396-8.972-1.136-.948-2.693-1.643-4.737-2.173-1.915-.497-4.226-.84-6.97-1.122z"/><path d="M48 24c0 13.255-10.745 24-24 24S0 37.255 0 24 10.745 0 24 0s24 10.745 24 24zM1.92 24c0 12.194 9.886 22.08 22.08 22.08 12.194 0 22.08-9.886 22.08-22.08 0-12.194-9.886-22.08-22.08-22.08C11.806 1.92 1.92 11.806 1.92 24z"/></g><defs><clipPath id="clip0_724_9795"><path fill="#fff" d="M0 0h48v48H0z"/></clipPath></defs></svg>