<svg width="44" height="36" fill="none" xmlns="http://www.w3.org/2000/svg"><g clip-path="url(#clip0_209_5707)" stroke="#009190" stroke-linecap="round" stroke-linejoin="round"><path d="M21.997.316c-10.168 10.127-.057 18.02-.057 18.02l.057.044.057-.045s10.11-7.892-.057-18.019z" fill="#F2EEE7"/><path d="M.335 15.842c22.104-.538 21.662 19.842 21.662 19.842C-1.118 35.684.335 15.842.335 15.842zm16.13 13.285a29.55 29.55 0 014.363 5.835"/><path d="M43.665 15.842c-22.104-.538-21.662 19.842-21.662 19.842 23.115 0 21.662-19.842 21.662-19.842zm-16.13 13.285a29.55 29.55 0 00-4.363 5.835"/></g><defs><clipPath id="clip0_209_5707"><path fill="#fff" d="M0 0h44v36H0z"/></clipPath></defs></svg>