<svg width="33" height="42" fill="none" xmlns="http://www.w3.org/2000/svg"><g clip-path="url(#clip0_209_5586)"><path d="M15.524 34.201c.363.17.612.252.862.245.249 0 .505-.075.862-.245" stroke="#009190" stroke-linecap="round" stroke-linejoin="round"/><path d="M15.524 34.127c.363.17.612.25.862.244.249 0 .505-.075.862-.244" fill="#F2EEE7"/><path d="M3.226 24.618C2.316 22.48-2.458 13.806 2.68 6.72c1.381-1.908 3.253-3.286 5.166-4.276a18.788 18.788 0 0117.301.006c1.913.991 3.785 2.37 5.16 4.276 5.144 7.08.383 15.754-.52 17.899" stroke="#009190" stroke-linecap="round" stroke-linejoin="round"/><path d="M11.307 39.787c-2.283-1.14-4.303-2.972-5.158-4.785-1.926-4.059-3.287-12.258-3.287-12.258-.384-2.823-.087-5.287.64-7.418 3.866-11.383 22.15-11.383 26.016 0 .72 2.131 1.017 4.588.64 7.418 0 0-1.36 8.193-3.287 12.258-.862 1.813-2.882 3.652-5.158 4.785l-2.876 1.358a5.493 5.493 0 01-2.317.516 5.39 5.39 0 01-2.316-.516l-2.876-1.358h-.02z" fill="#F2EEE7"/><path d="M23.37 38.796c-.533.367-1.098.7-1.678.991l-2.875 1.358a5.493 5.493 0 01-2.317.516c-.795 0-1.59-.17-2.317-.516l-2.876-1.358c-2.283-1.14-4.303-2.972-5.158-4.785-1.926-4.059-3.287-12.258-3.287-12.258-.384-2.823-.087-5.287.64-7.418 3.866-11.383 22.15-11.383 26.016 0 .72 2.131 1.017 4.588.64 7.418 0 0-.209 1.256-.58 3.034" stroke="#009190" stroke-linecap="round" stroke-linejoin="round"/><path d="M15.524 34.127c.363.17.612.25.862.244.249 0 .505-.075.862-.244m-.835-26.892c-.048 2.22-.984 4.989-4.957 6.109m9.92 0c-3.98-1.12-4.91-3.896-4.957-6.109m14.729 22.113c-.99 0-.99-.997-1.973-.997-.984 0-.99.997-1.974.997-.983 0-.99-.997-1.973-.997-.983 0-.99.997-1.98.997s-.99-.997-1.98-.997m9.88 3.794c-.99 0-.99-.998-1.973-.998-.984 0-.99.998-1.974.998-.983 0-.99-.998-1.973-.998-.983 0-.99.998-1.98.998s-.99-.998-1.98-.998m9.88 3.801c-.99 0-.99-.998-1.973-.998-.984 0-.99.998-1.974.998-.983 0-.99-.998-1.973-.998-.983 0-.99.998-1.98.998s-.99-.998-1.98-.998" stroke="#009190" stroke-linecap="round" stroke-linejoin="round"/></g><defs><clipPath id="clip0_209_5586"><path fill="#fff" d="M0 0h33v42H0z"/></clipPath></defs></svg>