<svg width="33" height="42" fill="none" xmlns="http://www.w3.org/2000/svg"><g clip-path="url(#clip0_209_5599)"><path d="M15.631 34.201c.364.17.613.252.862.245.25 0 .505-.075.862-.245" stroke="#009190" stroke-width="2" stroke-linecap="round" stroke-linejoin="round"/><path d="M15.631 34.127c.364.17.613.25.862.244.25 0 .505-.075.862-.244" fill="#F2EEE7"/><path d="M3.226 24.624c-.903-2.144-5.684-10.819-.539-17.898C4.067 4.82 5.933 3.441 7.846 2.45a18.768 18.768 0 0117.301 0c1.913.991 3.785 2.369 5.166 4.276 5.138 7.08.384 15.754-.519 17.898" stroke="#009190" stroke-linecap="round" stroke-linejoin="round"/><path d="M11.3 39.787c-2.282-1.14-4.303-2.972-5.158-4.785-1.926-4.059-3.286-12.258-3.286-12.258-.384-2.823-.088-5.287.64-7.418 3.865-11.383 22.15-11.383 26.015 0 .721 2.131 1.017 4.588.64 7.418 0 0-1.36 8.193-3.286 12.258-.862 1.813-2.883 3.652-5.16 4.785l-2.875 1.358a5.493 5.493 0 01-2.316.516c-.795 0-1.59-.17-2.317-.516l-2.876-1.358h-.02z" fill="#F2EEE7" stroke="#009190" stroke-linecap="round" stroke-linejoin="round"/><path d="M15.631 34.127c.364.17.613.25.862.244.25 0 .505-.075.862-.244" stroke="#009190" stroke-width="2" stroke-linecap="round" stroke-linejoin="round"/><path d="M6.809 25.792c.706 0 1.28-.578 1.28-1.29 0-.712-.574-1.29-1.28-1.29-.707 0-1.28.578-1.28 1.29 0 .713.573 1.29 1.28 1.29zm4.041-.917c.204 0 .37-.167.37-.373a.372.372 0 00-.37-.373.372.372 0 00-.37.373c0 .206.165.373.37.373zm-1.597 3.652a.656.656 0 00.654-.658.656.656 0 00-.654-.659.656.656 0 00-.653.659c0 .363.293.658.653.658zm16.931-2.735c.707 0 1.28-.578 1.28-1.29 0-.712-.573-1.29-1.28-1.29-.706 0-1.28.578-1.28 1.29 0 .713.574 1.29 1.28 1.29zm-4.04-.917c.204 0 .37-.167.37-.373a.372.372 0 00-.37-.373.372.372 0 00-.37.373c0 .206.165.373.37.373zm1.596 3.652c.36 0 .653-.295.653-.658a.656.656 0 00-.653-.659.656.656 0 00-.653.659c0 .363.292.658.653.658z" fill="#009190"/><path d="M16.5 7.235c-.047 2.22-.983 4.989-4.957 6.109M16.5 7.235c.047 2.22.983 4.989 4.957 6.109" stroke="#009190" stroke-linecap="round" stroke-linejoin="round"/></g><defs><clipPath id="clip0_209_5599"><path fill="#fff" d="M0 0h33v42H0z"/></clipPath></defs></svg>