<svg width="33" height="42" fill="none" xmlns="http://www.w3.org/2000/svg"><g clip-path="url(#clip0_209_5619)"><path d="M15.517 34.201c.363.17.613.252.862.245.249 0 .505-.075.862-.245" stroke="#009190" stroke-linecap="round" stroke-linejoin="round"/><path d="M15.517 34.127c.363.17.613.25.862.244.249 0 .505-.075.862-.244" fill="#F2EEE7"/><path d="M3.226 24.618C2.323 22.48-2.458 13.806 2.68 6.72c1.381-1.9 3.253-3.279 5.166-4.276a18.788 18.788 0 0117.301.006c1.913.991 3.785 2.37 5.16 4.276 5.144 7.086.383 15.76-.52 17.899" stroke="#009190" stroke-linecap="round" stroke-linejoin="round"/><path d="M11.3 39.787c-2.282-1.14-4.303-2.972-5.158-4.785-1.926-4.059-3.286-12.258-3.286-12.258-.384-2.823-.088-5.287.64-7.418 3.865-11.383 22.15-11.383 26.015 0 .721 2.131 1.017 4.588.64 7.418 0 0-1.36 8.193-3.286 12.258-.862 1.813-2.883 3.652-5.16 4.785l-2.875 1.358a5.493 5.493 0 01-2.316.516c-.795 0-1.59-.17-2.317-.516l-2.876-1.358h-.02z" fill="#F2EEE7"/><path d="M27.99 31.995c-.35 1.107-.728 2.152-1.139 3.007-.862 1.813-2.882 3.652-5.159 4.785l-2.875 1.358a5.494 5.494 0 01-2.317.516c-.795 0-1.59-.17-2.317-.516l-2.876-1.358c-2.283-1.14-4.303-2.972-5.158-4.785-.411-.869-.802-1.927-1.152-3.06m-1.596-6.333a79.972 79.972 0 01-.545-2.858c-.384-2.823-.088-5.287.64-7.418 3.865-11.383 22.15-11.383 26.015 0 .721 2.13 1.017 4.588.64 7.418 0 0-.195 1.174-.545 2.858" stroke="#009190" stroke-linecap="round" stroke-linejoin="round"/><path d="M15.517 34.127c.363.17.613.25.862.244.249 0 .505-.075.862-.244m-.829-26.892c-.047 2.22-.983 4.989-4.956 6.109m4.956-6.109c.048 2.22.984 4.989 4.957 6.109" stroke="#009190" stroke-linecap="round" stroke-linejoin="round"/></g><defs><clipPath id="clip0_209_5619"><path fill="#fff" d="M0 0h33v42H0z"/></clipPath></defs></svg>