<svg width="49" height="48" fill="none" xmlns="http://www.w3.org/2000/svg"><path d="M48.167 24c0 13.255-10.745 24-24 24s-24-10.745-24-24 10.745-24 24-24 24 10.745 24 24zm-46.08 0c0 12.194 9.885 22.08 22.08 22.08 12.194 0 22.08-9.886 22.08-22.08 0-12.194-9.886-22.08-22.08-22.08-12.195 0-22.08 9.886-22.08 22.08z" fill="#796049"/><path fill-rule="evenodd" clip-rule="evenodd" d="M23.667 26h-10a3.501 3.501 0 11.894-6.885 3.472 3.472 0 01-.394-1.615 3.5 3.5 0 015.212-3.053A4.99 4.99 0 0119.167 13a5 5 0 119.787 1.447A3.478 3.478 0 0130.667 14a3.5 3.5 0 013.105 5.115 3.506 3.506 0 011.136-.107A3.5 3.5 0 0134.666 26h-10v12.5a.5.5 0 11-1 0V26zm3.827-10.178a.3.3 0 00.435.349l1.515-.852a2.5 2.5 0 013.442 3.334l-.515 1.322a.3.3 0 00.345.402l1.311-.295a2.505 2.505 0 013.14 2.418 2.5 2.5 0 01-2.5 2.5l-.14.003c-.126.004-.279.009-.36-.003h-9.5v-3.776l4.332-3.85a.5.5 0 00-.664-.748l-3.668 3.26V16.5a.5.5 0 10-1 0v6.445l-4.684-3.832a.5.5 0 00-.633.774l5.317 4.35V25h-9.5c-.082.012-.234.007-.36.003a4.995 4.995 0 00-.14-.003 2.5 2.5 0 11.64-4.918l1.53.404a.3.3 0 00.342-.43l-.731-1.403a2.5 2.5 0 013.441-3.334l1.516.852a.3.3 0 00.434-.349l-.502-1.664a4 4 0 117.66 0l-.503 1.664z" fill="#796049"/></svg>