<svg width="44" height="46" fill="none" xmlns="http://www.w3.org/2000/svg"><g clip-path="url(#clip0_209_5740)" stroke="#009190" stroke-linecap="round" stroke-linejoin="round"><path d="M.39 21.572c20.588-.486 20.175 18.06 20.175 18.06C-.96 39.639.391 21.572.391 21.572z" fill="#F2EEE7"/><path d="M40.74 21.572c-20.588-.486-20.175 18.06-20.175 18.06 21.527 0 20.175-18.06 20.175-18.06z" fill="#F2EEE7"/><path d="M20.565 7.436c-9.464 9.218-.052 16.403-.052 16.403l.052.037.053-.037s9.419-7.185-.053-16.403v0zm.053 16.404v21.424"/><path d="M15.203 45.264h10.77" stroke-width="2"/><path d="M38.397.368v10.249m5.227-5.125H33.17"/></g><defs><clipPath id="clip0_209_5740"><path fill="#fff" d="M0 0h44v46H0z"/></clipPath></defs></svg>