<svg xmlns="http://www.w3.org/2000/svg" viewBox="0 0 52.39 78.15"><defs><style>.cls-1{fill:none;stroke:#009190;stroke-linecap:round;stroke-linejoin:round;stroke-width:2px}</style></defs><g id="Layer_2" data-name="Layer 2"><g id="Layer_1-2" data-name="Layer 1"><path class="cls-1" d="M23.54 66.16a2.91 2.91 0 001.29.37 2.91 2.91 0 001.28-.37"/><path d="M23.54 66.05a2.91 2.91 0 001.29.37 2.91 2.91 0 001.28-.37" fill="#f2eee7"/><path class="cls-1" d="M5.29 52.05C4 48.9-3.15 36.12 4.48 25.68a21.76 21.76 0 017.67-6.3 28.12 28.12 0 0125.69 0 21.72 21.72 0 017.66 6.3c7.64 10.44.58 23.22-.76 26.37"/><path d="M17.28 74.4c-3.38-1.68-6.38-4.4-7.66-7.06-2.86-6-4.88-18.05-4.88-18.05a23.53 23.53 0 01.94-10.93c5.75-16.77 32.89-16.77 38.63 0a23.4 23.4 0 01.95 10.93s-2 12.07-4.88 18.05C39.1 70 36.1 72.72 32.71 74.4l-4.27 2a8.26 8.26 0 01-6.88 0z" fill="#f2eee7" stroke="#009190" stroke-linecap="round" stroke-linejoin="round" stroke-width="2"/><path class="cls-1" d="M23.54 66.05a2.91 2.91 0 001.29.37 2.91 2.91 0 001.28-.37m-1.24-39.62c-.07 3.27-1.46 7.35-7.36 9m7.36-9c.08 3.27 1.46 7.35 7.36 9m11.6-29.04a4.06 4.06 0 000 .53 3.81 3.81 0 107.61 0 2.61 2.61 0 000-.53 4 4 0 00-.26-1A9.89 9.89 0 0047.67 1a.14.14 0 00-.17 0 10 10 0 00-3.41 4.38 4 4 0 00-.26 1.01z"/></g></g></svg>