<svg xmlns="http://www.w3.org/2000/svg" viewBox="-296 388 18 17"><path d="M-287 391.9c-.5 0-1 .1-1.5.3l-1.8-1.8c1-.4 2.1-.6 3.3-.6 2 0 3.8.6 5.5 1.8 1.6 1.2 2.8 2.7 3.5 4.6-.6 1.6-1.5 2.9-2.8 4l-2.4-2.5c.2-.5.3-1 .3-1.5 0-1.2-.4-2.2-1.2-3-.8-.9-1.8-1.3-2.9-1.3zm-8.2-2.3l1-1.1 14.5 14.9-1 1.1-2.4-2.5-.4-.4c-1.2.5-2.4.8-3.6.8-2 0-3.8-.6-5.5-1.8-1.6-1.2-2.8-2.7-3.5-4.6.7-1.7 1.7-3.1 3.1-4.2l-.4-.4-1.8-1.8zm4.5 4.6c-.3.6-.4 1.2-.4 1.9 0 1.2.4 2.2 1.2 3 .8.8 1.8 1.2 2.9 1.2.6 0 1.2-.2 1.8-.5l-1.3-1.3h-.5c-.7 0-1.3-.2-1.7-.7-.5-.5-.7-1.1-.7-1.8 0-.1 0-.3.1-.5l-1.4-1.3zm3.6-.6h.1c.7 0 1.3.2 1.7.7.5.5.7 1.1.7 1.8v.1l-2.5-2.6z" fill="#004542"/></svg>