<svg width="18" height="17" fill="none" xmlns="http://www.w3.org/2000/svg"><path d="M9 3.875a3.74 3.74 0 00-1.487.292L5.746 2.333A9.254 9.254 0 019 1.75c2.009 0 3.83.583 5.464 1.75A9.828 9.828 0 0118 8.083a9.811 9.811 0 01-2.813 4l-2.37-2.458a4.14 4.14 0 00.281-1.542c0-1.166-.402-2.16-1.205-2.979-.804-.82-1.768-1.229-2.893-1.229zM.804 1.583L1.848.5l14.545 14.917-1.045 1.083-2.41-2.458-.362-.375c-1.232.5-2.424.75-3.576.75a9.185 9.185 0 01-5.464-1.75A9.828 9.828 0 010 8.083c.67-1.722 1.687-3.125 3.054-4.208L2.692 3.5.804 1.583zm4.54 4.625a4.274 4.274 0 00-.442 1.875c0 1.167.402 2.16 1.205 2.98.804.819 1.768 1.229 2.893 1.229a3.88 3.88 0 001.808-.459l-1.286-1.291a2.316 2.316 0 01-.522.041c-.696 0-1.279-.243-1.748-.729-.469-.486-.703-1.076-.703-1.77 0-.14.027-.32.08-.542L5.344 6.208zm3.535-.625H9c.696 0 1.279.243 1.748.73.469.486.703 1.076.703 1.77v.125L8.879 5.583z" fill="#796049"/></svg>