<svg width="59" height="21" fill="none" xmlns="http://www.w3.org/2000/svg"><g clip-path="url(#clip0_725_13189)"><g clip-path="url(#clip1_725_13189)"><path fill-rule="evenodd" clip-rule="evenodd" d="M40.049 8.883c-.25 1.68-1.497 1.68-2.705 1.68h-.687l.482-3.137a.383.383 0 01.375-.329h.315c.822 0 1.598 0 1.998.481.24.288.312.715.222 1.305zM39.523 4.5H34.97a.638.638 0 00-.624.549l-1.841 12a.387.387 0 00.375.451h2.335a.447.447 0 00.438-.384l.522-3.402a.638.638 0 01.625-.55h1.44c2.999 0 4.73-1.491 5.182-4.448.204-1.293.008-2.31-.58-3.02-.648-.782-1.796-1.196-3.319-1.196z" fill="#2790C3"/><path fill-rule="evenodd" clip-rule="evenodd" d="M8.048 8.883c-.248 1.68-1.497 1.68-2.703 1.68h-.687l.481-3.137a.384.384 0 01.375-.329h.315c.822 0 1.598 0 1.998.481.24.288.312.715.221 1.305zM7.523 4.5H2.97a.638.638 0 00-.624.549l-1.841 12a.387.387 0 00.375.451h2.173a.638.638 0 00.625-.549l.497-3.237a.638.638 0 01.625-.55h1.44c2.999 0 4.73-1.491 5.182-4.448.204-1.293.008-2.31-.58-3.02-.65-.782-1.797-1.196-3.32-1.196zm9.78 8.527c-.197 1.268-1.122 2.12-2.302 2.12-.592 0-1.065-.207-1.37-.6-.301-.388-.415-.942-.32-1.558.184-1.256 1.124-2.135 2.286-2.135.58 0 1.05.209 1.36.605.312.398.435.955.346 1.569zm2.842-4.318h-2.04c-.174 0-.323.138-.35.326l-.09.62-.143-.225c-.441-.697-1.425-.93-2.408-.93-2.254 0-4.178 1.858-4.553 4.463-.195 1.3.082 2.542.76 3.409.622.797 1.51 1.128 2.568 1.128 1.816 0 2.823-1.27 2.823-1.27l-.09.617c-.035.235.132.447.35.447h1.837c.29 0 .539-.23.584-.543l1.103-7.596c.034-.234-.133-.446-.351-.446z" fill="#27346A"/><path fill-rule="evenodd" clip-rule="evenodd" d="M49.303 13.027c-.197 1.268-1.122 2.12-2.302 2.12-.592 0-1.065-.207-1.37-.6-.301-.388-.415-.942-.32-1.558.184-1.256 1.124-2.135 2.286-2.135.58 0 1.05.209 1.36.605.312.398.435.955.346 1.569zm2.842-4.318h-2.04c-.174 0-.323.138-.35.326l-.09.62-.142-.225c-.442-.697-1.427-.93-2.41-.93-2.252 0-4.177 1.858-4.552 4.463-.195 1.3.082 2.542.76 3.409.622.797 1.51 1.128 2.568 1.128 1.816 0 2.823-1.27 2.823-1.27l-.09.617c-.035.235.132.447.35.447h1.837c.29 0 .539-.23.584-.543l1.103-7.596c.034-.234-.133-.446-.351-.446z" fill="#2790C3"/><mask id="a" style="mask-type:alpha" maskUnits="userSpaceOnUse" x="0" y="0" width="59" height="21"><path d="M.5 20.5h58V.5H.5v20z" fill="#fff"/></mask><g mask="url(#a)" fill-rule="evenodd" clip-rule="evenodd"><path d="M32.14 9.5h-2.08c-.199 0-.385.1-.497.268l-2.868 4.301-1.216-4.133a.602.602 0 00-.575-.436H22.86a.366.366 0 00-.34.485l2.29 6.843-2.154 3.093c-.17.243.001.579.293.579h2.078a.597.597 0 00.493-.263l6.915-10.161c.166-.243-.005-.576-.296-.576z" fill="#27346A"/><path d="M55.48 4.83l-1.975 12.22c-.038.236.15.45.396.45h1.986a.663.663 0 00.66-.549l1.948-12a.394.394 0 00-.396-.451h-2.223a.398.398 0 00-.396.33z" fill="#2790C3"/></g></g></g><defs><clipPath id="clip0_725_13189"><path fill="#fff" transform="translate(.5 .5)" d="M0 0h58v20H0z"/></clipPath><clipPath id="clip1_725_13189"><path fill="#fff" transform="translate(.5 .5)" d="M0 0h58v20H0z"/></clipPath></defs></svg>