<svg xmlns="http://www.w3.org/2000/svg" viewBox="0 0 73.08 69.37"><defs><style>.cls-1{fill:none;stroke:#009190;stroke-linecap:round;stroke-linejoin:round;stroke-width:2px}</style></defs><g id="Layer_2" data-name="Layer 2"><g id="Layer_1-2" data-name="Layer 1"><circle class="cls-1" cx="6.25" cy="35.56" r="5.25"/><circle class="cls-1" cx="66.83" cy="35.56" r="5.25"/><circle class="cls-1" cx="36.54" cy="6.25" r="5.25"/><path class="cls-1" d="M28.83 65.61c-3.39-1.67-6.39-4.38-7.67-7-2.86-6-4.88-18.06-4.88-18.06a23.37 23.37 0 01.95-10.92c5.74-16.77 32.88-16.77 38.62 0a23.37 23.37 0 01.95 10.87s-2 12.08-4.88 18.06c-1.28 2.67-4.28 5.38-7.67 7l-4.27 2a8.19 8.19 0 01-6.88 0z"/><path class="cls-1" d="M35.25 57.38a2.91 2.91 0 001.29.36 2.84 2.84 0 001.28-.36m3.28-32.21A8.75 8.75 0 0136 17c-.08 3.27-1.46 7.35-7.37 9M6.25 40.81s6.63.78 9.83-1.72m51.05 1.72s-6.63.78-9.83-1.72"/><circle class="cls-1" cx="60.19" cy="16.6" r="5.25"/><circle class="cls-1" cx="13.14" cy="16.6" r="5.25"/><path class="cls-1" d="M28.09 11.71a21.7 21.7 0 01-9.7 3.09m26.84-3.09a21.79 21.79 0 009.71 3.09m8.41 11.9a9.24 9.24 0 01-.45-.89 9.34 9.34 0 01-.77-4.35M9.72 26.7a7.44 7.44 0 00.46-.89 9.34 9.34 0 00.82-4.35"/></g></g></svg>