<svg width="34" height="34" fill="none" xmlns="http://www.w3.org/2000/svg"><path d="M9.553 11.95l2.514-2.514a2.97 2.97 0 000-4.197L8.509 1.68a2.325 2.325 0 00-2.66-.447C3.758 2.241.455 4.797 1.078 10.751c.364 3.465 1.958 6.686 4.42 9.154l8.595 8.598c2.462 2.462 5.682 4.057 9.151 4.42 5.994.624 8.544-2.722 9.536-4.81a2.309 2.309 0 00-.463-2.623l-3.557-3.56a2.968 2.968 0 00-4.197 0l-2.513 2.515a2.175 2.175 0 01-3.08 0l-9.416-9.413a2.177 2.177 0 010-3.081z" fill="#F1EDE6"/><path d="M9.553 15.032a2.177 2.177 0 010-3.081l2.514-2.515a2.97 2.97 0 000-4.197L8.509 1.68a2.325 2.325 0 00-2.66-.447C3.758 2.241.455 4.797 1.078 10.751c.364 3.465 1.958 6.686 4.42 9.154l8.595 8.598c2.462 2.462 5.682 4.057 9.151 4.42 5.994.624 8.544-2.722 9.536-4.81a2.309 2.309 0 00-.463-2.623l-3.557-3.56a2.968 2.968 0 00-4.197 0l-2.513 2.515a2.175 2.175 0 01-3.08 0l-3.927-3.927" stroke="#00241A" stroke-width="1.5" stroke-linecap="round" stroke-linejoin="round"/></svg>