<svg width="17" height="16" fill="none" xmlns="http://www.w3.org/2000/svg"><g opacity=".5" clip-path="url(#clip0_969_13948)"><path d="M10.54 3.66c.023-.455.142-.887.358-1.296.216-.41.443-.745.681-1.006.24-.261.506-.5.802-.716.295-.216.505-.364.63-.443.125-.08.233-.13.324-.154a.497.497 0 01.307-.034 6.55 6.55 0 011.466.41c.432.181.756.363.971.545.216.182.404.38.563.597.16.215.256.363.29.443.034.08.051.153.051.221a.698.698 0 010 .307 26.184 26.184 0 01-1.705 4.057c-.659 1.25-1.306 2.295-1.943 3.136a14.996 14.996 0 01-2.182 2.319c-.818.704-1.522 1.25-2.113 1.636-.591.386-1.267.75-2.029 1.09-.761.342-1.318.569-1.67.682-.352.114-.79.24-1.313.375a21.96 21.96 0 00-.443.137.38.38 0 01-.375-.034 1.159 1.159 0 01-.238-.12 4.894 4.894 0 01-.46-.357 3.414 3.414 0 01-.58-.631 5.659 5.659 0 01-.529-.972 5.984 5.984 0 01-.409-1.363.9.9 0 01.069-.341c.022-.046.062-.114.119-.205.057-.09.182-.244.375-.46.193-.216.409-.42.648-.614.238-.193.556-.392.954-.596a5.93 5.93 0 011.279-.478.595.595 0 01.51.103c1.024.886 1.796 1.375 2.319 1.466a10.328 10.328 0 003.41-2.66c.931-1.113 1.431-1.897 1.5-2.352 0-.136-.149-.437-.444-.903a10.389 10.389 0 00-1.057-1.38.458.458 0 01-.136-.41z" fill="#796049"/></g><defs><clipPath id="clip0_969_13948"><path fill="#fff" transform="matrix(-1 0 0 1 17 0)" d="M0 0h17v16H0z"/></clipPath></defs></svg>