<svg xmlns="http://www.w3.org/2000/svg" viewBox="-288 380 34 34"><path d="M-278.4 392l2.5-2.5c1.2-1.2 1.2-3 0-4.2l-3.6-3.6c-.7-.7-1.8-.9-2.7-.4-2.1 1-5.4 3.6-4.8 9.5.4 3.5 2 6.7 4.4 9.2l8.6 8.6c2.5 2.5 5.7 4.1 9.2 4.4 6 .6 8.5-2.7 9.5-4.8.4-.9.2-1.9-.5-2.6l-3.6-3.6c-1.2-1.2-3-1.2-4.2 0l-2.5 2.5c-.9.9-2.2.9-3.1 0l-9.4-9.4c-.7-.9-.7-2.3.2-3.1z" fill="#f1ede6"/><path d="M-278.4 395c-.9-.9-.9-2.2 0-3.1l2.5-2.5c1.2-1.2 1.2-3 0-4.2l-3.6-3.6c-.7-.7-1.8-.9-2.7-.4-2.1 1-5.4 3.6-4.8 9.5.4 3.5 2 6.7 4.4 9.2l8.6 8.6c2.5 2.5 5.7 4.1 9.2 4.4 6 .6 8.5-2.7 9.5-4.8.4-.9.2-1.9-.5-2.6l-3.6-3.6c-1.2-1.2-3-1.2-4.2 0l-2.5 2.5c-.9.9-2.2.9-3.1 0l-3.9-3.9" fill="none" stroke="#019392" stroke-width="1.5" stroke-linecap="round" stroke-linejoin="round"/></svg>