<svg width="36" height="62" fill="none" xmlns="http://www.w3.org/2000/svg"><path d="M17.146 17.614H1.859c-.616 0-1.117-.5-1.117-1.117V1.21c0-.616.5-1.116 1.117-1.116h15.287c.616 0 1.116.5 1.116 1.116v15.287c0 .618-.498 1.117-1.116 1.117zM2.975 15.38H16.03V2.326H2.975v13.055z" fill="#019392"/><path d="M17.146 39.761H1.859c-.616 0-1.117-.5-1.117-1.116V23.357c0-.615.5-1.116 1.117-1.116h15.287c.616 0 1.116.5 1.116 1.117v15.287c0 .616-.498 1.116-1.116 1.116zM2.975 37.53H16.03V24.474H2.975v13.055zm14.171 24.376H1.859c-.616 0-1.117-.5-1.117-1.117V45.502c0-.616.5-1.116 1.117-1.116h15.287c.616 0 1.116.5 1.116 1.116v15.287c0 .616-.498 1.117-1.116 1.117zM2.975 59.673H16.03V46.618H2.975v13.055z" fill="#004542"/><path d="M34.141 54.458H17.2a1.117 1.117 0 010-2.232h15.825V10.209H22.908a1.117 1.117 0 010-2.232H34.14c.616 0 1.117.5 1.117 1.116v44.25c0 .615-.5 1.115-1.117 1.115z" fill="#004542"/><path d="M22.91 10.21a1.116 1.116 0 01-.709-1.978l4.965-4.078a1.116 1.116 0 011.416 1.724l-4.965 4.078c-.207.17-.458.254-.707.254z" fill="#004542"/><path d="M27.873 14.288c-.249 0-.5-.084-.707-.253l-4.965-4.079a1.116 1.116 0 011.416-1.724l4.965 4.078a1.116 1.116 0 01-.709 1.978z" fill="#004542"/></svg>