<svg version="1.1" id="Layer_1" xmlns="http://www.w3.org/2000/svg" x="0" y="0" viewBox="0 0 68.7 58.7" xml:space="preserve"><style>.st0{fill:none;stroke:#004542;stroke-width:2;stroke-linecap:round;stroke-linejoin:round}</style><g id="Layer_2_1_"><g id="Layer_1-2"><path class="st0" d="M59.7 20.3L46.3 6.9m6 20.8L38.9 14.3m-.5.5c-1.2 1.2-3.2 1.3-4.5 0-1.2-1.2-1.2-3.3 0-4.5L42.2 2C43.4.8 45.5.8 46.7 2c1.2 1.2 1.2 3.3 0 4.5l-3.6 3.6"/><path d="M59.7 20.3l6.3 6.3c1 1 1.6 2.4 1.7 3.8.1 1.4-.5 2.8-1.5 3.8-2.2 2-5.6 1.9-7.6-.2l-6.3-6.3 7.4-7.4zM1 13.4c16.5-.4 16.1 14.7 16.1 14.7C-.1 28.1 1 13.4 1 13.4zM17.1 42c16.4.4 16.1-14.7 16.1-14.7C16.1 27.2 17.1 42 17.1 42z" fill="#f2eee7" stroke="#004542" stroke-width="2" stroke-linecap="round" stroke-linejoin="round"/><path class="st0" d="M17.1 28.1v25.1m27.3-20.7c5.7 0 10.4 4.6 10.4 10.4s-4.6 10.4-10.4 10.4S34 48.6 34 42.9c0-4.1 2.4-7.9 6.2-9.5m4.2 3c.6-2.8-.2-5.7-2.2-7.8m5.3 7.8c-2.9 1.2-6.3.5-8.5-1.7m-27.4 23h54m-62.5 0"/></g></g></svg>