<svg width="54" height="50" fill="none" xmlns="http://www.w3.org/2000/svg"><path d="M9.625.004a1.217 1.217 0 00-.717.34S0 8.623 0 18.65c0 5.346 2.085 10.597 7.398 13.89.576 2.378.99 4.52.68 6.417a1.208 1.208 0 102.377.377c.656-3.991-.938-7.794-1.85-12.003-.91-4.208-1.264-8.794 1.36-14.57a1.2 1.2 0 00-.066-1.174 1.205 1.205 0 00-1.029-.562c-.481.01-.915.307-1.094.755-2.87 6.308-2.468 11.597-1.51 16.042.08.373.179.698.264 1.057-2.973-2.727-4.114-6.313-4.114-10.23 0-7.647 5.912-14.078 7.285-15.512 1.207 1.387 4.982 5.869 5.812 10.908.566 3.435-.354 6.35-1.547 8.53a15.676 15.676 0 01-1.812 2.643 12.066 12.066 0 01-1.132 1.17 1.204 1.204 0 00-.595 1.137 1.2 1.2 0 00.77 1.033c.429.165.92.07 1.259-.245.377-.284.896-.746 1.548-1.51a18.332 18.332 0 002.075-3.058c1.378-2.52 2.482-6.006 1.812-10.078C16.731 6.62 10.606.381 10.606.381a1.212 1.212 0 00-.981-.377zm21.666 20.609c-.83 0-1.67.056-2.53.15-9.138.991-13.403 6.092-15.06 10.833-1.655 4.742-.943 9.21-.943 9.21v.038c-3.704 3.874-5.36 7.285-5.36 7.285a1.218 1.218 0 00-.024 1.293c.246.4.699.622 1.166.57a1.207 1.207 0 001.01-.806s4.293-8.842 14.758-13.777c7.139-3.37 16.381-2.34 16.381-2.34a1.2 1.2 0 001.232-.402 1.2 1.2 0 00.16-1.283 1.201 1.201 0 00-1.09-.693s-2.434-.312-5.85-.151c-3.416.16-7.842.788-11.852 2.68a35.21 35.21 0 00-8.266 5.435c-.033-1.529.085-3.813.943-6.266 1.435-4.1 4.69-8.3 13.06-9.21 11.12-1.208 19.722 6.667 21.364 8.267-1.175 2.07-7.804 12.913-20.118 14.267-6.88.755-12.91-2.453-12.91-2.453a1.219 1.219 0 00-1.292-.066 1.208 1.208 0 00.16 2.18s6.55 3.571 14.306 2.717c15.037-1.656 22.458-16.344 22.458-16.344.227-.448.151-.99-.188-1.358 0 0-9.064-9.781-21.515-9.776z" fill="#796049"/></svg>