<svg width="28" height="28" fill="none" xmlns="http://www.w3.org/2000/svg"><g clip-path="url(#clip0_192_2636)"><g clip-path="url(#clip1_192_2636)"><path d="M15.429 5.439a.365.365 0 00-.18.09L13.73 6.834l-.518-.574a.36.36 0 00-.28-.124.361.361 0 00-.237.113l-.9.91h-1.294a.355.355 0 00-.157.08L6.688 10.05l-.023.011-.011.012h-.011a.47.47 0 00-.045.022 1.201 1.201 0 01-.034.034 1.201 1.201 0 01-.09.113.346.346 0 00-.023.056l-1.417 2.823a.361.361 0 00.066.418c.111.11.278.136.418.066l.922-.461v7.335c0 .198.162.36.36.36h10.811a.369.369 0 00.101-.023.366.366 0 00.214-.168l2.835-3.544a.362.362 0 00.079-.225v-3.443l2.059-2.058a.36.36 0 00.045-.44L20.85 7.453c-.002-.01-.007-.022-.011-.033a.363.363 0 00-.079-.135.17.17 0 00-.011-.023h-.011a.17.17 0 00-.012-.022h-.01a.175.175 0 00-.023-.012v-.01h-.011a.46.46 0 00-.057-.035h-.011a.163.163 0 00-.022-.01h-.012a.175.175 0 00-.022-.012H17.25l-1.507-1.598a.36.36 0 00-.315-.123zm.034.855L18.24 9.24l-.799.799h-.866a.193.193 0 00-.034-.034l-2.34-2.632 1.26-1.08zm-2.532.73l2.689 3.016H9.984l2.947-3.015zm-2.25.856h.417L8.97 10.04H7.858l2.823-2.16zm7.245 0h1.677l-.867.866-.81-.866zm2.487.225l1.777 2.947-2.363 2.363-1.777-2.948 2.363-2.362zM7.16 10.76h10.08v9.36H7.16v-7.515a.24.24 0 000-.045v-1.8zm10.8.922l1.496 2.498a.36.36 0 00.563.079l.101-.102v2.6l-2.16 2.7v-7.775zm-11.52.248v.405l-.27.135.27-.54zm3.859.27a.364.364 0 00.101.72H14a.36.36 0 00.316-.179.363.363 0 000-.362.362.362 0 00-.316-.18h-3.701z" fill="#796049"/></g><circle cx="14" cy="14" r="13.5" stroke="#796049"/></g><defs><clipPath id="clip0_192_2636"><path fill="#fff" d="M0 0h28v28H0z"/></clipPath><clipPath id="clip1_192_2636"><path fill="#fff" transform="translate(5 5)" d="M0 0h18v18H0z"/></clipPath></defs></svg>