<svg width="33" height="41" fill="none" xmlns="http://www.w3.org/2000/svg"><path d="M29.686 15.734c.662-.662 1.257-1.396 1.674-2.23 2.646-5.26-.662-12.06-6.88-12.484a11.55 11.55 0 00-.682-.02 9.836 9.836 0 00-6.834 2.739.46.46 0 01-.649 0A9.865 9.865 0 009.475 1c-.226 0-.457.007-.682.02-6.213.423-9.52 7.231-6.874 12.484.423.834 1.012 1.568 1.674 2.23l12.861 12.841a.264.264 0 00.377 0l12.861-12.841h-.006z" fill="#F1EDE6"/><path d="M9.097 21.232l7.35 7.343a.264.264 0 00.378 0l12.86-12.841c.663-.662 1.258-1.396 1.675-2.23 2.646-5.26-.662-12.06-6.88-12.484a11.55 11.55 0 00-.682-.02 9.865 9.865 0 00-7.159 3.063A9.892 9.892 0 009.474 1c-.225 0-.456.007-.681.02-6.213.423-9.52 7.231-6.874 12.484.423.834 1.012 1.568 1.674 2.23M16.64 39.498a2.851 2.851 0 100-5.703 2.851 2.851 0 000 5.703z" stroke="#00908F" stroke-width="1.3" stroke-linecap="round" stroke-linejoin="round"/></svg>