<svg width="38" height="38" fill="none" xmlns="http://www.w3.org/2000/svg"><rect x="1" y="1" width="36" height="36" rx="5" stroke="#796049"/><path d="M1.61 28.492a.5.5 0 10.58.814l-.58-.814zm35.07-1.909a.5.5 0 10.64-.768l-.64.768zm-9.217-8.331l-.32.384.32-.384zM12.75 28.95l-.353.353.353-.353zm1.697 0l-.353-.354.353.354zm-12.257.355l5.059-3.614-.582-.813-5.059 3.613.582.814zm6.734-3.475l3.473 3.473.707-.707-3.473-3.473-.707.707zm5.877 3.473l10.59-10.589-.708-.707-10.59 10.59.708.706zm12.34-10.668l9.538 7.947.64-.768-9.537-7.948-.64.769zm-1.75.08a1.3 1.3 0 011.75-.08l.64-.769a2.3 2.3 0 00-3.098.141l.707.707zM12.397 29.303a1.7 1.7 0 002.404 0l-.707-.707a.7.7 0 01-.99 0l-.707.707zM7.25 25.692a1.3 1.3 0 011.675.139l.707-.707a2.3 2.3 0 00-2.964-.245l.582.813z" fill="#796049"/><circle r="3.6" transform="matrix(-1 0 0 1 11.8 11.8)" stroke="#796049"/></svg>