<svg width="28" height="28" fill="none" xmlns="http://www.w3.org/2000/svg"><path d="M7.008 6.88C6.456 6.88 6 7.336 6 7.888v9.432c0 .592.488 1.08 1.08 1.08h1.474a2.163 2.163 0 002.126 1.8 2.163 2.163 0 002.126-1.8h5.468a2.163 2.163 0 002.126 1.8 2.163 2.163 0 002.126-1.8h.394c.3 0 .558-.14.75-.33.19-.192.33-.45.33-.75v-3.455c0-.405-.15-.774-.288-1.056-.14-.282-.28-.484-.28-.484l-.004-.004-1.483-1.989-.004-.004c-.319-.4-.83-.928-1.541-.928h-2.88c-.13 0-.249.03-.36.074v-1.55c0-.576-.468-1.044-1.045-1.044H7.008zm0 .72h9.107c.145 0 .325.18.325.325v9.755h-3.634a2.163 2.163 0 00-2.126-1.8 2.163 2.163 0 00-2.126 1.8H7.08c-.2 0-.36-.16-.36-.36V7.888c0-.167.12-.288.288-.288zm4.392.72a3.61 3.61 0 00-3.6 3.6c0 1.98 1.62 3.6 3.6 3.6s3.6-1.62 3.6-3.6-1.62-3.6-3.6-3.6zm0 .72a2.89 2.89 0 012.88 2.88 2.89 2.89 0 01-2.88 2.88 2.89 2.89 0 01-2.88-2.88 2.89 2.89 0 012.88-2.88zm-.36.72v1.98l-1.295.972.43.576L11.76 12.1V9.76h-.72zm6.48.36h1.44v3.24c0 .3.14.558.33.75.192.19.45.33.75.33h3.24v2.88a.39.39 0 01-.12.24.39.39 0 01-.24.12h-.394a2.163 2.163 0 00-2.126-1.8 2.163 2.163 0 00-2.126 1.8H17.16v-7.2c0-.06.04-.162.12-.24a.39.39 0 01.24-.12zm2.16 0h.72c.298 0 .721.336.979.657l1.462 1.961s.11.158.224.39c.091.185.143.402.173.592H20.04a.39.39 0 01-.24-.12.39.39 0 01-.12-.24v-3.24zm-9 6.48c.8 0 1.44.64 1.44 1.44 0 .8-.64 1.44-1.44 1.44-.8 0-1.44-.64-1.44-1.44 0-.8.64-1.44 1.44-1.44zm9.72 0c.8 0 1.44.64 1.44 1.44 0 .8-.64 1.44-1.44 1.44-.8 0-1.44-.64-1.44-1.44 0-.8.64-1.44 1.44-1.44z" fill="#796049"/><circle cx="14" cy="14" r="13.5" stroke="#796049"/></svg>