<svg xmlns="http://www.w3.org/2000/svg" viewBox="-293 385 24 23"><path d="M-273.5 386H-289c-1.6 0-3 1.3-3 3v15.5c0 1.6 1.3 3 3 3h15.5c1.6 0 3-1.3 3-3V389c0-1.7-1.3-3-3-3z" fill="#f9f9f9"/><path d="M-282.2 398.9c-.2.6-.3 1.1-.4 1.7-.3 1.1-.8 2-1.5 2.9-.1.1-.1.2-.3.2 0-.1-.1-.3-.1-.4-.2-1.2 0-2.3.2-3.4.3-1.1.6-2.3.8-3.4v-.5c-.2-.6-.2-1.3 0-1.9.1-.4.4-.7.7-.9.3-.2.7-.3 1.1-.2.3.1.5.2.6.5.2.4.2.8.1 1.2-.1.5-.3 1-.4 1.5-.1.3-.2.6-.2.9-.1.9.8 1.4 1.5 1.3.7-.1 1.2-.5 1.6-1 .5-.6.7-1.3.8-2.1.1-.6.1-1.1 0-1.7-.2-1.1-.9-1.9-1.9-2.2-1.4-.5-2.8-.3-4 .6-1 .8-1.5 1.9-1.4 3.2 0 .5.2.9.5 1.3.2.2.2.4.1.6-.1.2-.1.4-.1.5-.1.2-.2.3-.4.2-.4-.1-.6-.3-.9-.6-.5-.6-.7-1.3-.8-2.1-.1-1.5.5-2.7 1.5-3.8.8-.7 1.7-1.1 2.7-1.4.7-.2 1.4-.3 2.1-.2 1.3.1 2.5.5 3.4 1.5.7.7 1.1 1.4 1.3 2.4.1.8.1 1.6-.1 2.3-.2.9-.6 1.8-1.2 2.5-.8.8-1.7 1.3-2.9 1.3-.5 0-.9 0-1.4-.2-.5 0-.7-.2-1-.6h0z" fill="#fff" stroke="#004542" stroke-linecap="round" stroke-linejoin="round"/><path d="M-292 401.4V389c0-1.6 1.3-3 3-3h15.5c1.6 0 3 1.3 3 3v15.5c0 1.6-1.3 3-3 3H-289c-1.6 0-3-1.3-3-3" fill="none" stroke="#004542" stroke-linecap="round" stroke-linejoin="round"/></svg>