<svg xmlns="http://www.w3.org/2000/svg" viewBox="-293 385 24 24"><path d="M-273.5 407.7H-289c-1.6 0-3-1.3-3-3v-15.5c0-1.6 1.3-3 3-3h15.5c1.6 0 3 1.3 3 3v15.5c0 1.7-1.3 3-3 3z" fill="#f9f9f9"/><path d="M-287.7 391.4c1.7 2 3.8 3.1 6.3 3.2v-.7c0-1.3.6-2.3 1.8-2.8 1.2-.5 2.3-.4 3.3.5.2.2.4.2.6.1.4-.2.8-.3 1.2-.4.1 0 .2-.1.4-.2-.2.7-.6 1.1-1.1 1.6 0 0 .2.1.7-.1.2-.1.5-.1.7-.2-.2.4-.5.7-.8 1l-.3.3c-.3.2-.4.4-.4.8 0 2.2-.8 4.1-2.1 5.7-1.4 1.7-3.3 2.6-5.4 2.9-2 .2-3.8-.1-5.6-1.1-.1 0-.1-.1-.3-.2 1.6.1 3.1-.3 4.4-1.3-.9-.1-1.7-.4-2.2-1.1-.3-.3-.4-.6-.6-1 .4 0 .8.1 1.2-.1-1.4-.5-2.2-1.5-2.3-3l1.2.3.1-.1c-1.3-1.2-1.6-2.5-.8-4.1h0z" fill="#fff" stroke="#004542" stroke-linecap="round" stroke-linejoin="round"/><path d="M-292 401.6v-12.4c0-1.6 1.3-3 3-3h15.5c1.6 0 3 1.3 3 3v15.5c0 1.6-1.3 3-3 3H-289c-1.6 0-3-1.3-3-3" fill="none" stroke="#004542" stroke-linecap="round" stroke-linejoin="round"/></svg>