<svg width="24" height="23" fill="none" xmlns="http://www.w3.org/2000/svg"><path d="M19.515.554H3.987A2.985 2.985 0 001 3.537V19.04a2.985 2.985 0 002.987 2.982h15.528a2.985 2.985 0 002.987-2.982V3.537A2.985 2.985 0 0019.515.554z" fill="#F2EFE7"/><path d="M9.363 10.206h-1.79V7.608h1.774c.006-.14.014-.252.016-.363.008-.521 0-1.044.03-1.565.016-.31.071-.621.146-.924.207-.853.78-1.403 1.553-1.761a3.85 3.85 0 011.376-.35c1.061-.073 2.11-.009 3.139.286l.322.1c-.15.763-.293 1.507-.445 2.283-.327-.046-.63-.101-.939-.13a5.389 5.389 0 00-.832-.025c-.65.043-1.011.452-1.051 1.196-.021.393-.003.786-.003 1.192.272.093.538.04.798.048.266.01.535 0 .801 0h.817v2.595h-2.402c-.03.497-.011.956-.016 1.413-.003.465 0 .927 0 1.392v6.967H9.374c-.024-.398-.008-.8-.01-1.2-.003-.407 0-.813 0-1.22v-7.339.003z" fill="#fff" stroke="#004542" stroke-linecap="round" stroke-linejoin="round"/><path d="M1 15.938V3.539A2.986 2.986 0 013.987.556h15.528a2.986 2.986 0 012.987 2.983v15.504a2.986 2.986 0 01-2.987 2.983H3.987A2.986 2.986 0 011 19.043" stroke="#004542" stroke-linecap="round" stroke-linejoin="round"/></svg>