<svg xmlns="http://www.w3.org/2000/svg" viewBox="-293 385 24 23"><path d="M-273.5 407H-289c-1.6 0-3-1.3-3-3v-15.5c0-1.6 1.3-3 3-3h15.5c1.6 0 3 1.3 3 3V404c0 1.7-1.3 3-3 3z" fill="#f9f9f9"/><path d="M-280.7 389.4v9.6c-.1 1.2-1.2 2.1-2.3 2-1.1-.1-2-1.1-1.9-2.2.1-1.2 1.2-2 2.3-1.9h.5c.1-.7.1-1.8 0-2.3-.1 0-.3-.1-.4-.1-3-.1-5.2 2.6-4.5 5.5.5 1.7 1.6 2.8 3.4 3.2 1.8.4 3.3-.3 4.4-1.7.6-.8.8-1.7.8-2.6V394c0-.1-.1-.3.1-.3.9.8 1.8 1.5 3 1.8v-2.4c-.7-.4-1.3-.9-1.8-1.5-.5-.5-.9-1.1-1.3-1.7-.1-.1-.2-.3-.3-.4h-1.7c-.1-.2-.2-.1-.3-.1h0z" fill="#fff" stroke="#004542" stroke-linecap="round" stroke-linejoin="round"/><path d="M-292 400.9v-12.4c0-1.6 1.3-3 3-3h15.5c1.6 0 3 1.3 3 3V404c0 1.6-1.3 3-3 3H-289c-1.6 0-3-1.3-3-3" fill="none" stroke="#004542" stroke-linecap="round" stroke-linejoin="round"/></svg>