<svg width="24" height="23" fill="none" xmlns="http://www.w3.org/2000/svg"><path d="M19.515 22.023H3.987A2.986 2.986 0 011 19.041V3.537A2.986 2.986 0 013.987.554h15.528a2.986 2.986 0 012.987 2.983V19.04a2.986 2.986 0 01-2.987 2.982z" fill="#F2EFE7"/><path d="M12.282 4.381c-.008.28-.019.51-.019.741v8.354c0 .17.008.34-.005.51-.085 1.153-1.157 2.075-2.267 1.952-1.149-.125-2.01-1.12-1.918-2.234a2.108 2.108 0 012.272-1.941c.16.013.322.032.479.048.088-.686.077-1.78-.024-2.274-.13-.021-.274-.064-.418-.07-2.992-.124-5.227 2.63-4.463 5.483.462 1.73 1.617 2.834 3.386 3.182 1.822.361 3.315-.265 4.432-1.737.585-.77.827-1.665.827-2.63 0-1.636 0-3.272.003-4.91 0-.112-.062-.266.138-.317.891.776 1.812 1.517 3.027 1.772v-2.4a6.186 6.186 0 01-1.817-1.455c-.47-.547-.89-1.137-1.33-1.708-.1-.133-.197-.268-.295-.404h-1.686c-.083 0-.165.019-.325.037h.003z" fill="#fff" stroke="#004542" stroke-linecap="round" stroke-linejoin="round"/><path d="M1 15.935V3.537A2.986 2.986 0 013.987.554h15.528a2.986 2.986 0 012.987 2.983V19.04a2.986 2.986 0 01-2.987 2.982H3.987A2.986 2.986 0 011 19.041" stroke="#004542" stroke-linecap="round" stroke-linejoin="round"/></svg>