<svg width="24" height="24" fill="none" xmlns="http://www.w3.org/2000/svg"><path d="M19.515 22.695H3.987A2.986 2.986 0 011 19.712V4.208a2.986 2.986 0 012.987-2.982h15.528a2.986 2.986 0 012.987 2.982v15.504a2.986 2.986 0 01-2.987 2.983z" fill="#F2EFE7"/><path d="M5.256 6.408c1.703 1.973 3.77 3.057 6.297 3.238 0-.268-.006-.497 0-.728.029-1.299.63-2.252 1.817-2.77 1.16-.508 2.277-.37 3.258.464.21.178.386.232.63.136.392-.154.788-.295 1.182-.449.117-.045.226-.106.38-.18-.191.677-.598 1.144-1.101 1.556 0 0 .245.061.742-.082.232-.067.46-.144.745-.234-.229.417-.521.701-.8.999-.104.108-.347.297-.347.297-.255.228-.356.436-.356.765-.008 2.165-.764 4.056-2.15 5.697-1.42 1.684-3.255 2.625-5.431 2.882-1.969.234-3.839-.103-5.565-1.11-.078-.045-.147-.104-.258-.18 1.638.1 3.08-.282 4.434-1.278-.936-.106-1.676-.446-2.242-1.108a2.617 2.617 0 01-.556-1.012c.393-.045.768.053 1.197-.09-1.44-.547-2.235-1.49-2.296-3.01l1.168.338c.021-.019.04-.04.06-.059-1.252-1.15-1.537-2.478-.805-4.08l-.003-.002z" fill="#fff" stroke="#004542" stroke-linecap="round" stroke-linejoin="round"/><path d="M1 16.61V4.21a2.986 2.986 0 012.987-2.983h15.528a2.986 2.986 0 012.987 2.983v15.504a2.986 2.986 0 01-2.987 2.983H3.987A2.986 2.986 0 011 19.713" stroke="#004542" stroke-linecap="round" stroke-linejoin="round"/></svg>