<svg width="24" height="23" fill="none" xmlns="http://www.w3.org/2000/svg"><path d="M19.515.554H3.987A2.985 2.985 0 001 3.537V19.04a2.985 2.985 0 002.987 2.982h15.528a2.985 2.985 0 002.987-2.982V3.537A2.985 2.985 0 0019.515.554z" fill="#F2EFE7"/><path d="M1 15.938V3.539A2.986 2.986 0 013.987.556h15.528a2.986 2.986 0 012.987 2.983v15.504a2.986 2.986 0 01-2.987 2.983H3.987A2.986 2.986 0 011 19.043" stroke="#004542" stroke-linecap="round" stroke-linejoin="round"/><path d="M16.288 11.205c-.005-2.106-1.644-4.345-4.384-4.34-2.487.006-4.352 1.923-4.357 4.364-.005 2.564 2.032 4.335 4.35 4.367 2.402.034 4.4-1.987 4.391-4.39zm2.634-5.41c-.793.093-1.607-.643-1.596-1.589A1.562 1.562 0 0118.9 2.647c.923-.005 1.64.68 1.636 1.567-.003.909-.69 1.578-1.615 1.58z" fill="#fff" stroke="#004542" stroke-linecap="round" stroke-linejoin="round"/></svg>