<svg width="30" height="30" fill="none" xmlns="http://www.w3.org/2000/svg"><g opacity=".3"><mask id="a" fill="#fff"><path d="M27 15c0 6.627-5.373 12-12 12S3 21.627 3 15 8.373 3 15 3s12 5.373 12 12zM4.8 15c0 5.633 4.567 10.2 10.2 10.2 5.633 0 10.2-4.567 10.2-10.2 0-5.633-4.567-10.2-10.2-10.2C9.367 4.8 4.8 9.367 4.8 15z"/></mask><path d="M27 15c0 6.627-5.373 12-12 12S3 21.627 3 15 8.373 3 15 3s12 5.373 12 12zM4.8 15c0 5.633 4.567 10.2 10.2 10.2 5.633 0 10.2-4.567 10.2-10.2 0-5.633-4.567-10.2-10.2-10.2C9.367 4.8 4.8 9.367 4.8 15z" fill="#796049" stroke="#796049" stroke-width="2" mask="url(#a)"/></g></svg>