<svg width="62" height="62" fill="none" xmlns="http://www.w3.org/2000/svg"><path d="M31 2.48C15.273 2.48 2.48 15.273 2.48 31S15.273 59.52 31 59.52 59.52 46.727 59.52 31a28.346 28.346 0 00-4.51-15.361l-1.697 2.005c2.35 3.91 3.727 8.47 3.727 13.357 0 14.357-11.682 26.04-26.04 26.04C16.642 57.04 4.96 45.358 4.96 31S16.642 4.96 31 4.96c6.75 0 12.888 2.603 17.52 6.832l1.622-1.916C45.078 5.283 38.36 2.48 31 2.48zm22.613 7.135l-23.96 28.273-10.084-9.406-1.69 1.814 11.985 11.18 25.643-30.257-1.894-1.604z" fill="#019392"/></svg>