<svg xmlns="http://www.w3.org/2000/svg" xmlns:xlink="http://www.w3.org/1999/xlink" viewBox="-282 385 47 24"><defs><path id="a" d="M-282 385h47v24h-47z"/></defs><clipPath id="b"><use xlink:href="#a" overflow="visible"/></clipPath><g clip-path="url(#b)"><path d="M-251.7 397.8c-3.5 0-6.2-2.8-6.2-6.4 0-3.6 2.8-6.4 6.3-6.4 3.4.1 6.2 2.9 6.2 6.4-.1 3.5-2.9 6.4-6.3 6.4zm-10.9-.9c-3-2.5-5.9-5-8.9-7.5.6-2.4 3.2-4.3 5.8-4.3 2.8 0 5.3 1.9 6.1 4.7.7 2.7-.4 5.5-3 7.1zm-2.6 5.3v1.2c.6-.8 1.3-1.4 2.3-1.3 1 0 1.7.6 2 1.7.6-1.3 1.5-1.8 2.8-1.6.9.1 1.6.7 1.6 1.6.1 1.7 0 3.5 0 5.2h-1.8v-3.9c-.1-.8-.5-1.2-1.2-1.2s-1.2.5-1.2 1.3v3.8h-1.9v-3.8c0-.8-.5-1.3-1.3-1.3-.7 0-1.2.5-1.2 1.3v3.8h-1.9v-6.7h1.8v-.1zm-7.9 1.9c-.4-.3-.7-.7-1.1-.9-.3-.2-.2-.5 0-.7.7-.9 2.5-1.3 4-.8 1.3.4 1.9 1.2 1.9 2.7v4.5h-1.9v-1.3c-.3.2-.5.3-.6.5-.7.6-1.6.9-2.5.9-1.1-.1-2-.9-2-2.1 0-1.2.6-2 1.8-2.1.8 0 1.7.2 2.6.4.6.1.7.1.7-.6 0-.6-.1-1.1-.7-1.3-.6-.3-1.1-.2-1.6.3-.3.2-.4.3-.6.5zm-.7 1.9c-.2.9.2 1.4 1 1.5 1.1.2 2.1-.5 2.3-1.5h-3.3zm25.6 3h-1.9c0-.4 0-.8-.1-1.3-.2.2-.4.3-.6.4-.7.6-1.6.9-2.5.9-1.1-.1-2-.9-2-2.1 0-1.3.6-2.1 1.9-2.1.8 0 1.7.2 2.6.4.6.1.7.1.7-.5s-.1-1.1-.7-1.3c-.6-.2-1.2-.1-1.7.4l-.4.4c-.5-.4-.9-.8-1.4-1.2.5-1 1.3-1.3 2.3-1.4.6-.1 1.2 0 1.8.2 1.4.4 2 1.2 2 2.8v4.4zm-2-3h-3.4c-.1.9.2 1.3.8 1.5 1.1.3 2-.3 2.6-1.5zm9-3.1c.5-1 1.4-1.3 2.3-1.4.5 0 1.1 0 1.6.1 1.6.3 2.2 1.2 2.2 2.8v4.5h-1.9v-1.3c-.3.2-.5.3-.7.5-.7.6-1.6.9-2.5.9-1.1-.1-2-1-2-2.1 0-1.2.6-2 1.9-2.1.8 0 1.7.1 2.5.3.7.2.8.1.8-.6 0-.6-.2-1-.7-1.2-.6-.2-1.1-.1-1.6.3l-.5.5c-.4-.4-.9-.8-1.4-1.2zm.7 3.1c-.1.9.2 1.4 1 1.5 1.1.2 2-.4 2.4-1.5h-3.4zm-37.9-2.9v2.8c0 1 .3 1.4 1.3 1.5.1 0 .2 0 .4.1v1.5c-.9 0-1.8.1-2.7-.3-.7-.3-1.1-1-1.1-1.8v-3.8h-1.4v-1.4h1.4v-2h2.1v2c.4-.1.8-.1 1.1-.2.5-.1.8 0 .9.6 0 .2.1.5.2.8-.8 0-1.5.1-2.2.2zm33.3 5.9h-1.8v-6.8h1.8v.7c0 .2.1.3.2.5.1-.1.3-.2.4-.3.4-.8 1-1.1 1.8-.9v1.8c-.3 0-.5 0-.7.1-1.1.1-1.7.8-1.7 1.9v2.9c.1-.1.1 0 0 .1z" fill="#00908f"/><path d="M-273.8 406h3.3c-.2 1-1.2 1.7-2.3 1.5-.8-.1-1.2-.6-1-1.5zm23.6 0c-.6 1.3-1.5 1.8-2.6 1.5-.6-.2-.9-.6-.8-1.5h3.4zm9.7 0h3.4c-.3 1.1-1.3 1.7-2.4 1.5-.8-.1-1.1-.6-1-1.5z" fill="#fff"/></g></svg>