<svg width="47" height="24" fill="none" xmlns="http://www.w3.org/2000/svg"><g clip-path="url(#clip0_179_5192)"><path d="M30.257 12.783c-3.485 0-6.214-2.822-6.208-6.409.007-3.553 2.831-6.43 6.276-6.374 3.403.055 6.18 2.918 6.187 6.388.007 3.532-2.797 6.402-6.255 6.395zm-10.899-.897c-2.986-2.539-5.938-5.043-8.87-7.533.606-2.415 3.154-4.284 5.81-4.298 2.824-.02 5.278 1.89 6.06 4.725.754 2.732-.392 5.505-3.007 7.113l.007-.007zm-2.528 5.319v1.152c.614-.8 1.322-1.352 2.333-1.338 1.03.014 1.678.586 2.008 1.676.567-1.297 1.503-1.759 2.75-1.621.924.103 1.598.67 1.638 1.614.074 1.725.02 3.463.02 5.236h-1.806V21.02c0-.317.014-.635-.013-.952-.068-.787-.52-1.214-1.247-1.2-.701.013-1.18.496-1.193 1.262-.02 1.083 0 2.16-.007 3.242 0 .166-.014.331-.027.552H19.35v-1.8c0-.656.02-1.318-.006-1.966-.04-.808-.526-1.284-1.254-1.284-.742 0-1.2.456-1.213 1.29-.02 1.242 0 2.49 0 3.78h-1.941v-6.739h1.914-.02zm-7.967 1.904c-.39-.338-.721-.655-1.085-.931-.33-.249-.25-.456-.034-.732.742-.93 2.46-1.262 3.984-.752 1.341.449 1.9 1.242 1.894 2.691v4.546H11.68v-1.297c-.283.214-.465.338-.634.476-.735.628-1.57.91-2.52.87-1.14-.056-1.976-.925-1.996-2.084-.027-1.249.6-2.042 1.847-2.063.85-.013 1.712.173 2.554.352.634.131.729.097.735-.552 0-.58-.141-1.055-.7-1.29-.587-.255-1.133-.172-1.605.283-.148.145-.297.29-.499.49v-.007zm-.68 1.856c-.169.896.168 1.393 1.024 1.538 1.065.186 2.13-.531 2.292-1.538H8.182zm25.613 3h-1.914c-.02-.393-.048-.779-.081-1.29-.236.187-.411.31-.573.449-.735.614-1.57.91-2.521.87-1.132-.056-1.988-.925-2.015-2.077-.034-1.256.64-2.077 1.9-2.084.85 0 1.712.194 2.555.366.593.124.694.069.68-.538-.013-.587-.114-1.104-.72-1.338-.627-.249-1.173-.104-1.652.365-.121.117-.229.242-.404.428-.459-.393-.91-.773-1.402-1.194.451-1.014 1.314-1.331 2.258-1.414.606-.055 1.247 0 1.84.152 1.429.359 2.042 1.242 2.049 2.753v4.552zm-2.042-2.986h-3.425c-.074.876.183 1.324.83 1.49 1.098.29 2.022-.221 2.595-1.49zm9.086-3.071c.505-1.014 1.367-1.324 2.318-1.407.526-.048 1.078 0 1.597.117 1.57.338 2.245 1.221 2.245 2.85v4.477h-1.928V22.64c-.29.214-.485.338-.66.49a3.504 3.504 0 01-2.528.855c-1.119-.055-1.982-.952-2.009-2.097-.027-1.214.64-2.042 1.867-2.063.83-.014 1.679.145 2.494.338.748.173.843.131.789-.642-.04-.551-.189-.993-.735-1.207-.573-.22-1.099-.145-1.55.297-.148.145-.276.317-.458.531-.506-.434-.971-.828-1.443-1.235zm.68 3.05c-.094.945.222 1.393 1.024 1.545 1.059.2 2.05-.442 2.353-1.546H41.52zM3.559 18.122v2.753c0 1 .33 1.373 1.287 1.51.122.014.243.042.398.063v1.524c-.903.042-1.806.083-2.656-.317-.72-.338-1.112-.952-1.146-1.752-.04-1.014-.02-2.035-.027-3.05v-.772H0V16.66h1.402v-2.008h2.137v1.987c.431-.055.795-.076 1.145-.159.5-.117.79.007.857.566.026.242.12.476.202.794-.769.096-1.456.186-2.177.275l-.007.007zm33.378 5.837h-1.773V17.19h1.806c.014.235 0 .47.04.683.035.159.136.304.21.456.135-.09.33-.152.398-.276.384-.752.977-1.063 1.84-.938v1.828c-.256.02-.5.034-.748.055-1.059.096-1.7.786-1.713 1.87-.013.972-.006 1.951-.013 2.924 0 .042-.027.076-.054.166h.007z" fill="#004542"/><path d="M8.183 20.965h3.316c-.162 1.014-1.227 1.724-2.292 1.538-.856-.152-1.186-.641-1.024-1.538zm23.57.007c-.573 1.269-1.496 1.78-2.595 1.49-.647-.173-.903-.621-.829-1.49h3.424zm9.767-.014h3.377c-.303 1.097-1.294 1.738-2.352 1.545-.809-.151-1.12-.6-1.025-1.545z" fill="#fff"/></g><defs><clipPath id="clip0_179_5192"><path fill="#fff" d="M0 0h47v24H0z"/></clipPath></defs></svg>