<svg xmlns="http://www.w3.org/2000/svg" viewBox="0 0 47.93 61.29"><defs><style>.cls-2{fill:none;stroke:#009190;stroke-linecap:round;stroke-linejoin:round;stroke-width:2px}</style></defs><g id="Layer_2" data-name="Layer 2"><g id="Layer_1-2" data-name="Layer 1"><ellipse cx="20.36" cy="36.04" rx="19.36" ry="25.25" fill="#f2eee7"/><path class="cls-2" d="M33.79 54.24A29.34 29.34 0 0039.73 36c0-13.94-8.67-25.25-19.37-25.25S1 22.1 1 36a29.34 29.34 0 005.94 18.2m20.6-41.63l.08.25"/><path d="M31.66 27.7a57.8 57.8 0 01-1.61 23.86" stroke-dasharray=".46 15.44" fill="none" stroke="#009190" stroke-linecap="round" stroke-linejoin="round" stroke-width="2"/><path class="cls-2" d="M27.72 58.93l-.09.25M13.15 12.61l-.09.25"/><path d="M9.05 27.7a57.9 57.9 0 001.63 23.8" stroke-dasharray=".46 15.4" fill="none" stroke="#009190" stroke-linecap="round" stroke-linejoin="round" stroke-width="2"/><path class="cls-2" d="M13 58.84l.09.25"/><path stroke-dasharray="4.97 11.71" fill="none" stroke="#009190" stroke-linecap="round" stroke-linejoin="round" stroke-width="2" d="M20.36 55.87V16.22"/><path class="cls-2" d="M13.23 12.56c.31.61 2.53 4.4 10.3 3.72M39.78 6.1a2.39 2.39 0 00-.05.51 3.6 3.6 0 107.2 0 3.67 3.67 0 000-.51 3.58 3.58 0 00-.25-.92A9.27 9.27 0 0043.41 1a.12.12 0 00-.16 0A9.31 9.31 0 0040 5.18a3.56 3.56 0 00-.22.92z"/></g></g></svg>