<svg xmlns="http://www.w3.org/2000/svg" viewBox="0 0 45.65 58.44"><g data-name="Layer 2"><g data-name="Layer 1"><path d="M19.22 57.44c-7.35 0-14-3.87-16.58-9.8C-.1 41.34.79 33.55 3.85 26.25a61.54 61.54 0 0113.58-20 2.6 2.6 0 011.79-.69 2.62 2.62 0 011.8.69 61.57 61.57 0 0113.57 20c3.06 7.3 3.95 15.09 1.22 21.39-2.58 5.93-9.24 9.8-16.59 9.8z" fill="#e4e1db"/><path d="M19.22 57.44c-7.35 0-14-3.87-16.58-9.8C-.1 41.34.79 33.55 3.85 26.25a61.54 61.54 0 0113.58-20 2.6 2.6 0 011.79-.69h0a2.62 2.62 0 011.8.69 61.57 61.57 0 0113.57 20c3.06 7.3 3.95 15.09 1.22 21.39-2.58 5.93-9.24 9.8-16.59 9.8z" stroke="#009190" stroke-linecap="round" stroke-linejoin="round" stroke-width="2" fill="#f2eee7"/><path d="M19.22 5.6s-12 18.13-9.5 37.79m9.5-37.79s12 18.13 9.5 37.79m-9.5 14.05V35.83M37.49 6.1a3.67 3.67 0 00-.05.51 3.61 3.61 0 007.21 0 3.67 3.67 0 000-.51 3.58 3.58 0 00-.25-.92A9.27 9.27 0 0041.13 1 .14.14 0 0041 1a9.27 9.27 0 00-3.22 4.15 4 4 0 00-.29.95z" stroke="#009190" stroke-linecap="round" stroke-linejoin="round" stroke-width="2" fill="none"/></g></g></svg>