<svg xmlns="http://www.w3.org/2000/svg" viewBox="0 0 34.87 70.24"><defs><style>.cls-1{fill:none;stroke:#009190;stroke-linecap:round;stroke-linejoin:round;stroke-width:2px}</style></defs><g id="Layer_2" data-name="Layer 2"><g id="Layer_1-2" data-name="Layer 1"><path class="cls-1" d="M17.44 14.47v54.77"/><ellipse class="cls-1" cx="17.44" cy="7.74" rx="4.86" ry="6.74"/><ellipse class="cls-1" cx="23.72" cy="16.77" rx="6.74" ry="4.86" transform="rotate(-45 23.727 16.772)"/><ellipse class="cls-1" cx="11.15" cy="16.77" rx="4.86" ry="6.74" transform="rotate(-45 11.156 16.769)"/><ellipse class="cls-1" cx="23.72" cy="28.01" rx="6.74" ry="4.86" transform="rotate(-45 23.724 28.013)"/><ellipse class="cls-1" cx="11.15" cy="28.01" rx="4.86" ry="6.74" transform="rotate(-45 11.152 28.01)"/><ellipse class="cls-1" cx="23.72" cy="39.26" rx="6.74" ry="4.86" transform="rotate(-45 23.72 39.255)"/><ellipse class="cls-1" cx="11.15" cy="39.26" rx="4.86" ry="6.74" transform="rotate(-45 11.149 39.252)"/><path d="M17.45 69.23c16.76.4 16.42-15 16.42-15-17.52 0-16.42 15-16.42 15z" fill="#f2eee7" stroke="#009190" stroke-linecap="round" stroke-linejoin="round" stroke-width="2"/><path d="M17.42 69.23C.67 69.63 1 54.23 1 54.23c17.52 0 16.42 15 16.42 15z" fill="#f2eee7"/><path class="cls-1" d="M1 54.23c17.52 0 16.42 15 16.42 15-5 .12-8.52-1.18-10.94-3.07a13.24 13.24 0 01-3.83-4.84"/></g></g></svg>