<svg width="31" height="40" fill="none" xmlns="http://www.w3.org/2000/svg"><path d="M29.838 14.418C29.838 5.916 22.474-.87 13.775.09 7.206.816 1.89 6.075 1.108 12.643a14.42 14.42 0 005.749 13.38v11.605a.792.792 0 001.354.56l7.128-7.129.083-.083.083.083 7.128 7.128a.792.792 0 001.355-.56V26.024c3.548-2.627 5.856-6.843 5.856-11.6l-.006-.005z" fill="#F1EDE6"/><path d="M4.955 4.498A14.394 14.394 0 001 14.418c0 4.604 2.162 8.706 5.52 11.345.21.165.337.413.337.68v11.179a.792.792 0 001.354.56l6.645-6.646a.787.787 0 011.12 0l6.517 6.518c.547.547 1.488.16 1.488-.616V26.443c0-.267.127-.515.337-.68a14.401 14.401 0 005.52-11.345c0-3.84-1.507-7.338-3.955-9.92" stroke="#00908F" stroke-width="1.3" stroke-linecap="round" stroke-linejoin="round"/><path d="M15.416 22.748a8.693 8.693 0 100-17.386 8.693 8.693 0 000 17.386z" fill="#fff" stroke="#00908F" stroke-width="1.3" stroke-linecap="round" stroke-linejoin="round"/><path d="M11.276 14.602l2.391 2.397 5.895-5.894" stroke="#00908F" stroke-width="1.3" stroke-linecap="round" stroke-linejoin="round"/></svg>