<svg width="36" height="35" fill="none" xmlns="http://www.w3.org/2000/svg"><path d="M15.464 16.002a7.674 7.674 0 100-15.347 7.674 7.674 0 000 15.347z" fill="#F1EDE6" stroke="#00908F" stroke-width="1.3" stroke-linecap="round" stroke-linejoin="round"/><path d="M15.464 4.262v8.129m4.062-4.061h-8.124M1 24.927l2.989-2.988a1.87 1.87 0 011.315-.543H19.07a2.454 2.454 0 012.452 2.453v1.113h-10.46" stroke="#00908F" stroke-width="1.3" stroke-linecap="round" stroke-linejoin="round"/><path d="M24.28 23.33l6.087-6.756a2.95 2.95 0 014.102-.323l.531.444-10.368 12.457a2.113 2.113 0 01-1.627.761H9.775c-.559 0-1.101.225-1.494.618l-3.75 3.75" stroke="#00908F" stroke-width="1.3" stroke-linecap="round" stroke-linejoin="round"/></svg>