<svg xmlns="http://www.w3.org/2000/svg" viewBox="0 0 57.62 70.54"><g data-name="Layer 2"><g data-name="Layer 1"><rect y="1" width="57.62" height="68.54" rx="2.49" fill="#f2eee7"/><path d="M39.24 1c0 6.85-5.48 6.85-5.48 13.7s5.48 6.86 5.48 13.71-5.48 6.85-5.48 13.7 5.48 6.89 5.48 13.71-5.48 6.86-5.48 13.72M26.09 1c0 6.85-5.48 6.85-5.48 13.7s5.48 6.86 5.48 13.71-5.48 6.85-5.48 13.7 5.48 6.89 5.48 13.71-5.48 6.86-5.48 13.72M52.39 1c0 6.85-5.48 6.85-5.48 13.7s5.48 6.86 5.48 13.71-5.48 6.85-5.48 13.7 5.48 6.89 5.48 13.71-5.48 6.86-5.48 13.72m-39.45 0c0-6.85 5.48-6.85 5.48-13.71S7.46 49 7.46 42.13s5.48-6.85 5.48-13.71-5.48-6.85-5.48-13.71S12.94 7.86 12.94 1" fill="none" stroke="#009190" stroke-linecap="round" stroke-linejoin="round" stroke-width="2"/></g></g></svg>