<svg width="60" height="50" fill="none" xmlns="http://www.w3.org/2000/svg"><path d="M29.788 47.681l-.6-.147-22.784-5.51c-1.697-.442-1.504-2.402-.443-3.745 3.19-4.03 8.603-13 1.337-36.064-.406-1.298 46.299-1.298 45.893 0-7.275 23.092-1.918 32.053 1.226 36.073 1.051 1.343.314 3.284-1.374 3.735l-22.665 5.511s-.295.074-.6.147h.01z" fill="#F3EFE8"/><path d="M9.834 28.508c-.812 4.103-2.315 8.446-4.98 12.291A29.378 29.378 0 001 48.601m49.222-20.093c.811 4.103 2.314 8.446 4.98 12.291a29.38 29.38 0 013.854 7.802" stroke="#009291" stroke-width="1.5" stroke-linecap="round" stroke-linejoin="round"/><path d="M4.854 40.8s12.209 6.173 24.519 6.173c12.31 0 24.51-6.173 24.51-6.173m-24.51-12.292V1M7.593 1c.71 1.766 1.55 4.425 1.55 7.12M52.914 1c-.71 1.766-1.549 4.425-1.549 7.12" stroke="#009291" stroke-width="1.5" stroke-linecap="round" stroke-linejoin="round"/><path d="M9.834 28.508c-.812 4.103-2.315 8.446-4.98 12.291A29.378 29.378 0 001 48.601m49.222-20.093c.811 4.103 2.314 8.446 4.98 12.291a29.38 29.38 0 013.854 7.802" stroke="#009291" stroke-width="1.5" stroke-linecap="round" stroke-linejoin="round"/><path d="M4.854 40.8s12.209 6.173 24.519 6.173c12.31 0 24.51-6.173 24.51-6.173m-24.51-12.292V1M7.593 1c.71 1.766 1.55 4.425 1.55 7.12M52.914 1c-.71 1.766-1.549 4.425-1.549 7.12" stroke="#009291" stroke-width="1.5" stroke-linecap="round" stroke-linejoin="round"/></svg>