<svg version="1.1" id="Layer_1" xmlns="http://www.w3.org/2000/svg" x="0" y="0" viewBox="0 0 49 56" xml:space="preserve"><style>.st0,.st2{fill:none;stroke:#009190;stroke-width:1.5;stroke-linecap:round;stroke-linejoin:round}.st2{stroke:#004542}</style><path class="st0" d="M22.9 47.8c.6.3 1 .4 1.5.4.4 0 .8-.1 1.5-.4"/><path d="M24.2 6.9c2.3.1 2.9 6.1 5 7.1 1.9.9 4.3 2.5 6.6 2.9 3.2 2.3 5.3 5.8 5.8 9.7.2 1.6.2 3.1 0 4.6l-.9 7.9c.1 12-7.8 15.6-7.8 15.6h14.3V27c.5-4.5 0-8.3-1.1-11.7C42.8 5.8 33.5 1 24.2 1m0 5.9C22 7 21.4 13 19.3 14c-1.9.9-4.3 2.5-6.6 2.9-3.2 2.3-5.3 5.8-5.8 9.7-.2 1.6-.2 3.1 0 4.6l.9 7.9c-.1 12 7.8 15.6 7.8 15.6H1.3V27c-.5-4.5 0-8.3 1.1-11.7C5.7 5.8 14.9 1 24.2 1" fill="#f3efe8"/><path class="st0" d="M5 20.1c-1.6 1.5-3.2 3.7-3.7 6.9v27.7h14.3s-7.9-3.6-7.8-15.6"/><path class="st0" d="M5 20.1c-1.6 1.5-3.1 4.3-3.7 7.5l-.1 27.1h14.3s-7.9-3.6-7.8-15.6M24.3 1s.5 13.4-10.7 15.9"/><path class="st2" d="M46.2 15.2c1.2 3.5 1.8 7.6 1.1 12.4M24.3 1s-.5 14.6 12.2 16.1c2.6.3 5.2 1.2 7.1 3 1.6 1.5 3.2 3.7 3.7 6.9"/><path class="st2" d="M43.6 20.1c1.6 1.5 3.2 3.7 3.7 6.9v27.7H33s7.9-3.6 7.8-15.6"/><path class="st0" d="M24.3 1c9.3 0 18.6 4.7 21.9 14.2 1.2 3.5 1.8 7 1.1 11.7"/><path class="st0" d="M24.3 1s-.5 14.6 12.2 16.1c2.6.3 5.2 1.2 7.1 3 1.6 1.5 3.2 3.7 3.7 6.9"/><path class="st0" d="M43.6 20.1c1.6 1.5 3.2 3.7 3.7 6.9v27.7H33s7.9-3.6 7.8-15.6M2.4 15.2C1.2 18.7.6 22.8 1.3 27.6"/><path class="st0" d="M24.3 1C15 1 5.7 5.7 2.4 15.2c-1.2 3.5-1.8 7-1.1 11.7"/></svg>